<?xml version="1.0" encoding="UTF-8"?>
<svg version="1.1" xmlns="http://www.w3.org/2000/svg" width="1080" height="608">
<path d="M0 0 C8.86773455 -0.09336407 17.73529561 -0.16409728 26.6034174 -0.20724869 C30.72285084 -0.22797659 34.84194397 -0.25601712 38.96118164 -0.30175781 C42.94885458 -0.34575207 46.93620367 -0.3692478 50.92410088 -0.37950897 C52.43289718 -0.38680565 53.94167913 -0.40104886 55.45033455 -0.42292023 C69.99710961 -0.62510052 84.50675858 1.11814209 96 11 C102.07062044 17.91512208 104.49149146 25.30203579 104.2421875 34.45703125 C103.45644116 42.70736779 99.85647136 49.18723365 94 55 C88.95547789 58.73550055 83.94706481 61.06328299 78 63 C87.6244486 82.42351035 87.6244486 82.42351035 97.5625 101.6875 C97.9426123 102.40848877 98.32272461 103.12947754 98.71435547 103.87231445 C99.80076366 105.91973902 100.89911416 107.96032935 102 110 C102.42192627 110.79559326 102.84385254 111.59118652 103.27856445 112.41088867 C103.70999756 113.21115479 104.14143066 114.0114209 104.5859375 114.8359375 C104.97442871 115.56216309 105.36291992 116.28838867 105.76318359 117.03662109 C108.4319249 121.27310304 112.40796361 124.05721537 117 126 C117 126.66 117 127.32 117 128 C105.12 128 93.24 128 81 128 C75.9186284 117.8372568 70.86689065 107.67295723 65.9375 97.4375 C65.63728943 96.81501373 65.33707886 96.19252747 65.027771 95.55117798 C60.61465497 86.40000809 56.24139786 77.23221565 52 68 C48.04 67.67 44.08 67.34 40 67 C40.09350722 74.1901729 40.19959611 81.38000799 40.31738281 88.56982422 C40.35568134 91.01606145 40.39053264 93.46235516 40.421875 95.90869141 C40.46750605 99.42370806 40.52550457 102.93833555 40.5859375 106.453125 C40.59748871 107.5480426 40.60903992 108.64296021 40.62094116 109.77105713 C40.64081085 110.79181335 40.66068054 111.81256958 40.68115234 112.86425781 C40.69447601 113.76138489 40.70779968 114.65851196 40.7215271 115.58282471 C41.01972264 118.1711947 41.61360021 119.80466537 43 122 C44.93103908 123.11473134 44.93103908 123.11473134 47.125 123.75 C47.84945312 123.99234375 48.57390625 124.2346875 49.3203125 124.484375 C49.87460937 124.65453125 50.42890625 124.8246875 51 125 C51 125.99 51 126.98 51 128 C34.17 128 17.34 128 0 128 C0.33 127.01 0.66 126.02 1 125 C2.134375 124.566875 3.26875 124.13375 4.4375 123.6875 C8.12761299 122.39391889 8.12761299 122.39391889 9.20747375 119.52110291 C10.23642558 114.94958833 10.27112897 110.64610447 10.24291992 105.97485352 C10.24481827 104.98060364 10.24671661 103.98635376 10.24867249 102.9619751 C10.25236888 99.68420456 10.24169075 96.40665701 10.23046875 93.12890625 C10.22927602 90.84496588 10.22882398 88.56102502 10.2290802 86.27708435 C10.22751721 81.49320397 10.21924234 76.70939862 10.20581055 71.92553711 C10.18883075 65.80121877 10.1849961 59.6769829 10.18575573 53.55264378 C10.18548343 48.83683997 10.17999249 44.1210541 10.17275429 39.40525627 C10.16957769 37.14747185 10.16760257 34.88968541 10.16686058 32.63189888 C10.16468577 29.4727446 10.15591657 26.31367665 10.14526367 23.15454102 C10.14571686 22.22600815 10.14617004 21.29747528 10.14663696 20.34080505 C10.12261787 15.4546929 9.82544511 10.81784599 9 6 C6.03 5.01 3.06 4.02 0 3 C0 2.01 0 1.02 0 0 Z M40 4 C40 23.47 40 42.94 40 63 C56.66354005 63.14832613 56.66354005 63.14832613 69.6875 54.4375 C76.14033305 46.1112638 75.81936049 34.40838442 74.71875 24.45703125 C73.49869078 17.64112351 70.5069982 12.3235593 65.4375 7.625 C57.27242124 3.76514459 48.92824294 4 40 4 Z " fill="#E7D5A1" transform="translate(852,207)"/>
<path d="M0 0 C8.19855782 -0.09350758 16.39688543 -0.16416756 24.59584808 -0.20724869 C28.40475061 -0.22794643 32.21328304 -0.25592844 36.02197266 -0.30175781 C39.71139554 -0.34586404 43.40046708 -0.36927018 47.09013367 -0.37950897 C48.48367328 -0.38678629 49.87719808 -0.40098877 51.27058411 -0.42292023 C69.60159621 -0.69943773 88.48028292 3.7378987 102.04296875 16.84765625 C114.54513322 30.59754173 119.40356362 47.69573862 119.1484375 65.98828125 C118.43452523 80.47318546 114.89180764 93.3880764 106 105 C105.55011719 105.61359375 105.10023438 106.2271875 104.63671875 106.859375 C94.56224508 119.68659218 78.56049494 125.45943934 63 128 C57.94257542 128.361047 52.91973607 128.35306637 47.8515625 128.29296875 C46.45910099 128.28735325 45.06663344 128.28309244 43.67416382 128.28010559 C40.06069727 128.26881009 36.44760943 128.23948105 32.83428955 128.20599365 C29.12655761 128.17495675 25.41876271 128.16152947 21.7109375 128.14648438 C14.47378821 128.11459142 7.23694774 128.06358824 0 128 C0.33 127.01 0.66 126.02 1 125 C1.94875 124.5875 2.8975 124.175 3.875 123.75 C7.23125694 121.87049611 8.0424143 120.62487802 9.41615677 117.11462402 C10.52380519 113.102828 10.41555528 109.08911009 10.38818359 104.953125 C10.39344055 103.96848267 10.39869751 102.98384033 10.40411377 101.96936035 C10.41726814 98.72941002 10.40859165 95.48995494 10.3984375 92.25 C10.40045954 89.9899079 10.40337206 87.72981644 10.40713501 85.46972656 C10.41155219 80.73886894 10.40514665 76.00818155 10.39111328 71.27734375 C10.37402196 65.22131805 10.38386636 59.16569125 10.40183067 53.10968018 C10.41268476 48.44446827 10.40921467 43.77935052 10.4014473 39.11413574 C10.39944979 36.88146924 10.40188872 34.64879412 10.40888596 32.4161377 C10.41652699 29.29282061 10.40485858 26.1701445 10.38818359 23.046875 C10.39425629 22.12926392 10.40032898 21.21165283 10.40658569 20.26623535 C10.35228561 14.76046552 9.62137665 10.8738997 7 6 C5.27213736 4.58231629 5.27213736 4.58231629 3.3125 4.0625 C2.219375 3.711875 1.12625 3.36125 0 3 C0 2.01 0 1.02 0 0 Z M41 4 C41 43.6 41 83.2 41 124 C53.27872423 124 65.05472752 123.8517296 74.81640625 115.43359375 C89.78636781 99.26303377 87.61465083 71.37358327 87 51 C86.29665541 37.84317061 84.1850451 23.07916453 75 13 C64.67191259 4.25505008 54.90458215 4.77247679 41 4 Z " fill="#E8D5A2" transform="translate(619,207)"/>
<path d="M0 0 C13.75803079 11.90558792 21.84640217 27.08132203 23.44580078 45.2890625 C23.5800624 48.77689203 23.61262183 52.24415797 23.58203125 55.734375 C23.57373291 56.96236816 23.56543457 58.19036133 23.55688477 59.45556641 C23.38815887 68.51872868 22.57828678 76.38740079 19.14453125 84.859375 C18.67015625 86.04144531 18.19578125 87.22351563 17.70703125 88.44140625 C10.96991283 103.38938775 0.13386211 113.96373157 -15.13671875 120.19921875 C-31.73221219 125.9706713 -48.78447268 125.28227249 -64.953125 118.57421875 C-71.86807502 115.0827039 -77.39752213 110.30769561 -82.85546875 104.859375 C-83.71978516 104.01246094 -83.71978516 104.01246094 -84.6015625 103.1484375 C-94.88724196 92.19485677 -99.28229966 75.56240826 -99.85546875 60.859375 C-99.89542969 60.09882813 -99.93539063 59.33828125 -99.9765625 58.5546875 C-100.50166744 39.71268657 -95.56144593 21.50623518 -83.16796875 7.109375 C-61.44221004 -15.68805791 -25.30820868 -18.97250117 0 0 Z M-54.60546875 -1.953125 C-55.34796875 -1.025 -56.09046875 -0.096875 -56.85546875 0.859375 C-57.27441406 1.36726562 -57.69335938 1.87515625 -58.125 2.3984375 C-66.47983827 13.85794377 -67.00492008 30.85076806 -67.0234375 44.49609375 C-67.0267659 45.37860306 -67.0300943 46.26111237 -67.03352356 47.17036438 C-67.03854842 49.02494797 -67.04093327 50.87954047 -67.04077148 52.73413086 C-67.04294993 55.52278094 -67.06113163 58.31102937 -67.08007812 61.09960938 C-67.43273575 88.75634153 -67.43273575 88.75634153 -55.29296875 112.47265625 C-49.3985553 117.98551168 -43.35618227 119.31870784 -35.40625 119.1015625 C-28.46420086 118.44243992 -23.156156 116.27692316 -18.421875 111.0703125 C-9.56777374 98.5730025 -8.70766569 82.06088805 -8.6875 67.2578125 C-8.6841716 66.37767487 -8.6808432 65.49753723 -8.67741394 64.59072876 C-8.67238866 62.74034135 -8.67000424 60.88994501 -8.67016602 59.03955078 C-8.6679903 56.26188576 -8.64981654 53.48462578 -8.63085938 50.70703125 C-8.40036897 23.17019447 -8.40036897 23.17019447 -19.85546875 -1.140625 C-25.98084448 -6.20071799 -32.51334668 -7.5801782 -40.296875 -7.390625 C-45.81364001 -6.85158231 -50.25489946 -5.41380512 -54.60546875 -1.953125 Z " fill="#E8D6A3" transform="translate(461.85546875,215.140625)"/>
<path d="M0 0 C4.94322254 -0.32415203 9.88014614 -0.55839196 14.83154297 -0.71411133 C16.51037367 -0.77905362 18.18848122 -0.86746064 19.86474609 -0.98071289 C33.32940854 -1.8668625 33.32940854 -1.8668625 37.68652344 1.17895508 C41.19668591 4.6425072 43.55229558 8.75233362 46 13 C47.08840203 14.52817733 48.1949238 16.04380334 49.328125 17.5390625 C50.30393418 18.89971621 51.27788729 20.2617029 52.25 21.625 C56.7889207 27.9501706 61.37140072 34.24015651 66 40.5 C71.06365107 47.34987396 76.08136013 54.23033065 81.03515625 61.16015625 C86.56636138 68.86487017 92.29704918 76.42216206 98 84 C98.06954694 74.56837292 98.12283504 65.13683427 98.15543652 55.7050066 C98.17108454 51.32529955 98.19230696 46.9457681 98.22631836 42.56616211 C98.25894274 38.33864811 98.27685951 34.11130289 98.28463173 29.88367271 C98.29016972 28.271739 98.30098415 26.65981441 98.31719017 25.04795265 C98.33900582 22.78803253 98.34196527 20.52880751 98.34057617 18.26879883 C98.34723801 16.98306473 98.35389984 15.69733063 98.36076355 14.37263489 C97.97305867 10.74813624 97.19979409 8.87485923 95 6 C92.77142754 4.77828284 92.77142754 4.77828284 90.3125 4.1875 C89.50425781 3.95417969 88.69601562 3.72085938 87.86328125 3.48046875 C87.24839844 3.32191406 86.63351562 3.16335937 86 3 C86 2.01 86 1.02 86 0 C95.57 0 105.14 0 115 0 C115 0.99 115 1.98 115 3 C114.43410156 3.19335938 113.86820313 3.38671875 113.28515625 3.5859375 C112.18494141 3.97652344 112.18494141 3.97652344 111.0625 4.375 C110.33160156 4.63023437 109.60070312 4.88546875 108.84765625 5.1484375 C106.81317884 5.85271413 106.81317884 5.85271413 106 8 C105.89554621 9.60885459 105.85346422 11.22193747 105.84178162 12.83413696 C105.8319928 13.85499893 105.82220398 14.8758609 105.81211853 15.92765808 C105.80636307 17.05190689 105.8006076 18.1761557 105.79467773 19.33447266 C105.78477814 20.51494675 105.77487854 21.69542084 105.76467896 22.91166687 C105.73845843 26.15316782 105.71660989 29.39466343 105.69667697 32.63620806 C105.67483152 36.02217815 105.6474358 39.40810314 105.62062073 42.79403687 C105.57067431 49.20777728 105.52574273 55.6215427 105.48259836 62.03533208 C105.43324262 69.33635754 105.37831834 76.63733774 105.32291877 83.93831944 C105.20906882 98.95883747 105.10223636 113.9793981 105 129 C102.89550322 129.06466917 100.79043989 129.11110495 98.68530273 129.1496582 C97.51313705 129.17743851 96.34097137 129.20521881 95.13328552 129.23384094 C92 129 92 129 89.03515625 126.60546875 C88.38417969 125.47753906 87.73320313 124.34960938 87.0625 123.1875 C86.26157947 121.89219445 85.45666307 120.59935383 84.6484375 119.30859375 C84.22916992 118.6110498 83.80990234 117.91350586 83.37792969 117.19482422 C80.87889969 113.2142644 78.00843545 109.5056059 75.1875 105.75 C73.98262371 104.12238873 72.77950712 102.49347337 71.578125 100.86328125 C70.98193359 100.05455566 70.38574219 99.24583008 69.77148438 98.41259766 C64.25870493 90.90470261 58.83628153 83.33063344 53.39550781 75.77050781 C46.63252492 66.376334 39.83110584 57.0137919 32.93188477 47.71899414 C29.99772183 43.75575935 27.11737883 39.76216823 24.29443359 35.71875 C23.67442474 34.83123047 23.05441589 33.94371094 22.4156189 33.02929688 C21.71488754 32.02479492 21.71488754 32.02479492 21 31 C20.90736829 42.4046223 20.8362696 53.80915528 20.79275131 65.214077 C20.77186592 70.50971503 20.74353068 75.80509591 20.69824219 81.10058594 C20.65481872 86.20990785 20.63087007 91.31898224 20.62049103 96.42847443 C20.61309339 98.37896879 20.59864767 100.32944942 20.57707977 102.27983856 C20.54809228 105.00944928 20.54404204 107.73803387 20.54589844 110.46777344 C20.53151733 111.27625732 20.51713623 112.08474121 20.50231934 112.91772461 C20.52851063 116.47081876 20.67469557 118.56243536 22.82525635 121.45513916 C25.43131499 123.30639089 27.92874024 124.1623837 31 125 C31 125.99 31 126.98 31 128 C21.1 128 11.2 128 1 128 C1 127.01 1 126.02 1 125 C1.61488281 124.84144531 2.22976563 124.68289063 2.86328125 124.51953125 C4.07564453 124.16955078 4.07564453 124.16955078 5.3125 123.8125 C6.11300781 123.59207031 6.91351563 123.37164062 7.73828125 123.14453125 C10.86298547 121.5632906 11.53131272 120.19376372 13 117 C13.44304733 113.88995964 13.43043132 110.80840189 13.41992188 107.67089844 C13.42839142 106.73852859 13.43686096 105.80615875 13.44558716 104.84553528 C13.46896349 101.76667592 13.46997891 98.68831636 13.46875 95.609375 C13.47585278 93.46331585 13.48355195 91.31725859 13.49182129 89.17120361 C13.50526874 84.67218755 13.50683434 80.17334695 13.50097656 75.67431641 C13.4950899 69.92314414 13.52562861 64.17281879 13.56609344 58.42181015 C13.59201284 53.98811344 13.5948438 49.55461926 13.59120178 45.12085724 C13.59289003 43.00146614 13.60250395 40.88206539 13.62034607 38.76274872 C13.64261199 35.79015941 13.63279375 32.81926582 13.61523438 29.84667969 C13.62849762 28.97987076 13.64176086 28.11306183 13.65542603 27.21998596 C13.55202942 19.64365307 10.75888684 14.11036806 5.76171875 8.4765625 C5.07722656 7.86554688 4.39273437 7.25453125 3.6875 6.625 C1.57421875 4.7265625 1.57421875 4.7265625 0 3 C0 2.01 0 1.02 0 0 Z " fill="#E8D7A5" transform="translate(494,207)"/>
<path d="M0 0 C1.69632968 0.00056528 3.39265986 0.00024528 5.08898926 -0.00088501 C9.65842458 -0.00145496 14.22775326 0.01024096 18.79716396 0.02426291 C23.58573797 0.03683035 28.37431487 0.03794548 33.16290283 0.04031372 C42.21484782 0.04651091 51.26674406 0.06289772 60.31866765 0.0830127 C70.63071386 0.10542674 80.94276249 0.11637893 91.25482702 0.12640357 C112.45279015 0.14726563 133.65070668 0.18281362 154.84863281 0.22705078 C154.84863281 5.83705078 154.84863281 11.44705078 154.84863281 17.22705078 C152.64528259 17.2284758 150.44193237 17.22990082 148.17181396 17.23136902 C127.39625304 17.24717811 106.62087934 17.29054703 85.84542465 17.35914135 C75.16483034 17.39374619 64.48436449 17.41914096 53.80371094 17.42260742 C44.49088839 17.42565358 35.1782949 17.44623164 25.86556077 17.48757535 C20.93770346 17.50884786 16.01017132 17.52153557 11.08226776 17.51320457 C6.43638013 17.50562797 1.79114939 17.52163298 -2.85461807 17.55511093 C-4.55241842 17.5633009 -6.25028462 17.56314568 -7.94807816 17.55364799 C-21.83604061 17.48369807 -32.65802058 19.82450583 -42.95605469 29.75830078 C-52.22805153 40.18517268 -54.01865276 50.62130069 -53.34228516 64.07568359 C-52.48763236 73.70637466 -47.23830353 81.57613756 -40.23730469 87.97705078 C-31.23433316 95.15073327 -22.47424649 96.90788038 -11.15136719 98.22705078 C-11.15136719 103.50705078 -11.15136719 108.78705078 -11.15136719 114.22705078 C-27.32751293 114.86558285 -40.54629688 110.15012501 -52.96386719 99.60205078 C-64.26878209 88.69264311 -70.05434822 75.39188369 -70.61962891 59.77563477 C-70.82983574 42.48208006 -65.40854891 29.16573098 -53.56152344 16.54736328 C-38.30714182 1.8616215 -20.19806685 -0.09511691 0 0 Z " fill="#E8D7A5" transform="translate(160.1513671875,190.77294921875)"/>
<path d="M0 0 C31.02 0 62.04 0 94 0 C94.33 9.9 94.66 19.8 95 30 C93.68 30 92.36 30 91 30 C90.74831055 29.41508789 90.49662109 28.83017578 90.23730469 28.22753906 C89.08462501 25.56401434 87.91749667 22.90706139 86.75 20.25 C86.35425781 19.32960937 85.95851563 18.40921875 85.55078125 17.4609375 C82.80909358 10.98259532 82.80909358 10.98259532 78 6 C74.1737801 4.66642964 70.17887181 4.77610118 66.171875 4.68359375 C65.50752441 4.66494263 64.84317383 4.6462915 64.15869141 4.6270752 C61.68925621 4.55904319 59.21961333 4.49872535 56.75 4.4375 C51.2225 4.293125 45.695 4.14875 40 4 C40 22.48 40 40.96 40 60 C57.88654936 60.00277048 57.88654936 60.00277048 66 57 C68.22594677 53.96909196 68.22594677 53.96909196 69.875 50.375 C70.33519531 49.45847656 70.33519531 49.45847656 70.8046875 48.5234375 C71.55421897 47.02437457 72.27959537 45.513276 73 44 C73.99 44 74.98 44 76 44 C76 55.88 76 67.76 76 80 C75.01 80 74.02 80 73 80 C72.31164062 78.62714844 72.31164062 78.62714844 71.609375 77.2265625 C70.99019399 76.0257266 70.37036838 74.82522292 69.75 73.625 C69.44964844 73.02171875 69.14929688 72.4184375 68.83984375 71.796875 C66.84039208 67.96813776 66.03230481 67.01615241 62 65 C51.11 64.505 51.11 64.505 40 64 C40 83.8 40 103.6 40 124 C46.496875 123.896875 52.99375 123.79375 59.6875 123.6875 C61.73026123 123.66260498 63.77302246 123.63770996 65.87768555 123.61206055 C67.50571978 123.57976047 69.13373319 123.54638532 70.76171875 123.51171875 C71.59981079 123.50547485 72.43790283 123.49923096 73.3013916 123.49279785 C78.00725144 123.37716615 81.17326459 123.03908313 85 120 C86.47882644 117.9585916 86.47882644 117.9585916 87.5 115.5625 C88.10908203 114.25345703 88.10908203 114.25345703 88.73046875 112.91796875 C90.88307943 107.9702759 92.97978483 103.00325629 95 98 C96.32 98 97.64 98 99 98 C98.88182083 101.95121228 98.75757767 105.90218229 98.62768555 109.85302734 C98.56301749 111.85894807 98.50316894 113.86502228 98.44335938 115.87109375 C98.40146484 117.12792969 98.35957031 118.38476562 98.31640625 119.6796875 C98.27974854 120.84226074 98.24309082 122.00483398 98.20532227 123.20263672 C98 126 98 126 97 128 C64.99 128 32.98 128 0 128 C0 127.01 0 126.02 0 125 C0.84884766 124.60167969 0.84884766 124.60167969 1.71484375 124.1953125 C2.44832031 123.84210938 3.18179688 123.48890625 3.9375 123.125 C4.66839844 122.77695312 5.39929688 122.42890625 6.15234375 122.0703125 C8.16332459 121.1315023 8.16332459 121.1315023 9 119 C9.10038795 117.53941773 9.13939076 116.07438952 9.14717102 114.61038208 C9.15432632 113.68785645 9.16148163 112.76533081 9.16885376 111.81484985 C9.17154266 110.79974335 9.17423157 109.78463684 9.17700195 108.73876953 C9.18357315 107.67200989 9.19014435 106.60525024 9.19691467 105.50616455 C9.21667633 101.96504655 9.22831553 98.42397098 9.23828125 94.8828125 C9.24235678 93.6760574 9.2464323 92.46930229 9.25063133 91.22597885 C9.27150244 84.84124674 9.28580073 78.45653621 9.29516602 72.07177734 C9.3062439 65.4648862 9.34065711 58.85833061 9.38033772 52.2515583 C9.40643253 47.18158322 9.41485142 42.11168902 9.41844749 37.04165268 C9.42333045 34.60552576 9.43499261 32.16940284 9.45348549 29.73334122 C9.47772882 26.3286268 9.4769389 22.9247931 9.4699707 19.52001953 C9.48278076 18.50896149 9.49559082 17.49790344 9.50878906 16.45620728 C9.54405398 11.07731921 9.54405398 11.07731921 7.14250183 6.42062378 C4.8364532 4.8915574 2.62232249 3.8741075 0 3 C0 2.01 0 1.02 0 0 Z " fill="#E7D5A1" transform="translate(745,207)"/>
<path d="M0 0 C8.13732076 -0.06814884 16.27441452 -0.12302899 24.41194534 -0.15543652 C28.19173146 -0.17100124 31.97130991 -0.19206809 35.75097656 -0.22631836 C39.40794628 -0.25924421 43.06471798 -0.27692187 46.72182465 -0.28463173 C48.1074815 -0.29011635 49.49312921 -0.30082379 50.87870026 -0.31719017 C64.21939933 -0.46830593 74.94326081 1.27814803 86 9 C87.051875 9.721875 88.10375 10.44375 89.1875 11.1875 C101.60198921 23.60198921 104.10592073 38.63687118 104.12442017 55.44859314 C104.12088248 56.80435205 104.11724769 58.16011072 104.11352539 59.51586914 C104.11324286 60.96545408 104.11340255 62.41503917 104.1139679 63.86462402 C104.11425328 67.7751361 104.10839855 71.68561713 104.10139394 75.59612203 C104.09511716 79.69204502 104.09455319 83.78796882 104.09336853 87.88389587 C104.09026792 95.62907502 104.08207174 103.37423994 104.07201904 111.11941284 C104.06081835 119.94170083 104.0553375 128.76398951 104.05032361 137.58628285 C104.039888 155.72419661 104.02231327 173.86209716 104 192 C100.0433323 190.17734265 97.32501615 187.58832781 94.3125 184.5 C93.81427734 184.00113281 93.31605469 183.50226563 92.80273438 182.98828125 C88.8054229 178.94215593 87.87466926 177.1916363 87.88215637 171.56326294 C87.88047958 169.8308007 87.88047958 169.8308007 87.87876892 168.06333923 C87.88243973 166.78962967 87.88611053 165.5159201 87.88989258 164.20361328 C87.89013466 162.85334777 87.88985768 161.50308209 87.88909912 160.15281677 C87.88799128 157.2395687 87.88942997 154.32633636 87.89246559 151.41308975 C87.8960971 146.79732229 87.88695915 142.18163689 87.87467957 137.56588745 C87.87265764 136.78651703 87.87063571 136.00714661 87.86855251 135.2041589 C87.86438346 133.60994839 87.8601807 132.01573796 87.85594499 130.42152762 C87.82782854 119.67517644 87.80761177 108.92900114 87.82495117 98.18261719 C87.83654805 90.93603442 87.82679771 83.68981918 87.79289359 76.44330204 C87.77580943 72.61193563 87.76934066 68.78123187 87.789011 64.94986343 C87.80739233 61.33633484 87.79739557 57.72394089 87.76675415 54.11050606 C87.75746627 52.17097886 87.77753424 50.23137845 87.7988739 48.29194641 C87.67976791 39.03104198 85.4721903 31.03177758 79.19387531 23.96788216 C72.57649107 17.76015872 64.61178455 15.9211456 55.7409668 15.79467773 C54.50005783 15.77473251 53.25914886 15.75478729 51.9806366 15.73423767 C50.63683189 15.71725743 49.29302591 15.70037848 47.94921875 15.68359375 C46.56630357 15.66300474 45.1833944 15.64200777 43.80049133 15.62062073 C40.17232151 15.56560101 36.54409679 15.5161037 32.91583252 15.46777344 C29.208813 15.41741102 25.50187254 15.36180213 21.79492188 15.30664062 C14.53001319 15.19930513 7.2650377 15.0982915 0 15 C0 10.05 0 5.1 0 0 Z " fill="#E9D8A7" transform="translate(174,224)"/>
<path d="M0 0 C2.97 0 5.94 0 9 0 C9 116.82 9 233.64 9 354 C-0.92902567 345.48940657 -0.92902567 345.48940657 -1.37374616 342.42281711 C-1.37314907 341.379508 -1.37255198 340.33619888 -1.3719368 339.26127434 C-1.38182156 337.45580755 -1.38182156 337.45580755 -1.39190602 335.61386669 C-1.38403735 334.27137461 -1.37588949 332.92888414 -1.36749268 331.58639526 C-1.36951591 330.16558507 -1.37285395 328.74477624 -1.37739825 327.32397187 C-1.38607196 323.41045359 -1.37595724 319.49717146 -1.36285591 315.58367372 C-1.3519844 311.36689383 -1.35836659 307.15013641 -1.36264038 302.93334961 C-1.36828219 294.66959318 -1.35794333 286.4059293 -1.34235242 278.14218865 C-1.32484492 268.52785296 -1.32339385 258.9135354 -1.32273683 249.29918624 C-1.32104765 232.15142312 -1.30521824 215.00370227 -1.28125 197.85595703 C-1.25798366 181.19840138 -1.24382442 164.54087255 -1.24023438 147.88330078 C-1.24001161 146.85712788 -1.23978884 145.83095497 -1.23955932 144.77368592 C-1.23911674 142.70658647 -1.23867471 140.63948703 -1.23823325 138.57238758 C-1.23801369 137.55281912 -1.23779412 136.53325066 -1.2375679 135.48278618 C-1.23735192 134.46587013 -1.23713593 133.44895408 -1.2369134 132.4012224 C-1.23321655 116.55094675 -1.2218572 100.70067546 -1.2094375 84.85040458 C-1.20499578 79.09601242 -1.2015602 73.34162066 -1.19881538 67.58722745 C-1.194391 58.46232744 -1.18664612 49.33744348 -1.17204097 40.21255361 C-1.16541519 36.04035699 -1.16036504 31.86817461 -1.15958023 27.69597244 C-1.15879739 23.8829193 -1.15343109 20.06990221 -1.14426073 16.25686027 C-1.14173784 14.87134446 -1.14092537 13.48582436 -1.14191952 12.10030662 C-1.14300354 10.22921592 -1.13742486 8.35812478 -1.13142776 6.48704338 C-1.13018127 5.44405897 -1.12893477 4.40107456 -1.1276505 3.32648456 C-1 1 -1 1 0 0 Z " fill="#E9D7A6" transform="translate(333,127)"/>
<path d="M0 0 C4.95 0 9.9 0 15 0 C15 70.95 15 141.9 15 215 C12.69 213.02 10.38 211.04 8 209 C7.20745064 208.45373962 6.41490128 207.90747925 5.59833527 207.34466553 C1.66394958 204.34338088 0.17924168 201.99022665 -0.71058655 197.07434082 C-1.09361369 191.93129774 -0.99026032 186.79309257 -0.90820312 181.640625 C-0.90594495 179.65917554 -0.90721629 177.67771938 -0.91174316 175.6962738 C-0.91403471 170.33062635 -0.86706472 164.96641513 -0.8111515 159.60110092 C-0.76107629 153.98910593 -0.75643657 148.37707651 -0.74694824 142.76489258 C-0.72210221 132.1435935 -0.65647846 121.52295466 -0.57615232 110.90194607 C-0.48667394 98.80776729 -0.44273223 86.71355666 -0.40258884 74.61912918 C-0.31901108 49.74572035 -0.17833416 24.8728972 0 0 Z " fill="#E8D6A3" transform="translate(292,231)"/>
<path d="M0 0 C1.08880589 0.00128403 1.08880589 0.00128403 2.19960785 0.00259399 C10.92476638 0.01367561 19.64987931 0.03415186 28.375 0.0625 C28.375 5.0125 28.375 9.9625 28.375 15.0625 C-4.71078061 15.96188212 -37.7790243 16.15331136 -70.875 16.125 C-71.88277496 16.12414398 -72.89054993 16.12328796 -73.92886353 16.12240601 C-86.49426228 16.11094617 -99.0596267 16.08999257 -111.625 16.0625 C-111.625 11.1125 -111.625 6.1625 -111.625 1.0625 C-100.66678489 0.88742186 -89.70847152 0.7206873 -78.75 0.5625 C-77.92758064 0.55062275 -77.10516129 0.5387455 -76.25782013 0.52650833 C-50.83781863 0.16219496 -25.42262267 -0.03020211 0 0 Z " fill="#E8D7A4" transform="translate(286.625,158.9375)"/>
<path d="M0 0 C2.01150285 -0.02171077 4.02307614 -0.03660014 6.03464508 -0.05093384 C7.1205896 -0.06056152 8.20653412 -0.07018921 9.32538605 -0.08010864 C11.69919586 0.02523804 11.69919586 0.02523804 12.69919586 1.02523804 C12.79828889 3.35683859 12.8289009 5.69153745 12.82419586 8.02523804 C12.82806305 9.94336304 12.82806305 9.94336304 12.83200836 11.90023804 C12.69919586 15.02523804 12.69919586 15.02523804 11.69919586 16.02523804 C10.26973115 16.12078203 8.83556922 16.14712242 7.40291595 16.14549255 C6.47598434 16.14686722 5.54905273 16.14824188 4.59403229 16.1496582 C3.56904633 16.14606293 2.54406036 16.14246765 1.48801422 16.13876343 C-0.12154396 16.13898247 -0.12154396 16.13898247 -1.76361847 16.13920593 C-5.3294193 16.13850628 -8.89516863 16.13071142 -12.46096039 16.12289429 C-14.92575807 16.12103029 -17.39055612 16.1196063 -19.85535431 16.11860657 C-26.35734319 16.11477991 -32.85930989 16.10494836 -39.36128998 16.09390259 C-45.99021231 16.08315551 -52.61914107 16.07910963 -59.24806976 16.07406616 C-72.26565766 16.06332622 -85.28322906 16.04624803 -98.30080414 16.02523804 C-98.30080414 11.07523804 -98.30080414 6.12523804 -98.30080414 1.02523804 C-86.02575776 0.89398007 -73.75070308 0.76353053 -61.47563744 0.63408661 C-55.77461455 0.57394293 -50.07359478 0.51353051 -44.37258148 0.45248413 C-38.86124713 0.39347905 -33.34990546 0.33520575 -27.8385582 0.27742004 C-25.74564722 0.25535137 -23.6527389 0.23302789 -21.55983353 0.21043396 C-15.94912552 0.14994997 -10.338422 0.09369133 -4.72758484 0.04656982 C-3.15170765 0.03271761 -1.57584327 0.01728578 0 0 Z " fill="#E8D7A4" transform="translate(302.3008041381836,126.97476196289063)"/>
<path d="M0 0 C1.98 0 3.96 0 6 0 C8.57616518 6.2638737 10.94235079 12.54646385 13 19 C13.34933594 18.07316406 13.69867188 17.14632813 14.05859375 16.19140625 C14.51363281 14.99386719 14.96867187 13.79632813 15.4375 12.5625 C16.11619141 10.77005859 16.11619141 10.77005859 16.80859375 8.94140625 C18 6 18 6 19 5 C20.66617115 4.95936168 22.33388095 4.957279 24 5 C24.34933594 5.84304688 24.69867187 6.68609375 25.05859375 7.5546875 C25.74115234 9.19824219 25.74115234 9.19824219 26.4375 10.875 C26.88996094 11.96554687 27.34242188 13.05609375 27.80859375 14.1796875 C28.49543463 15.80558624 29.21065887 17.42131774 30 19 C30.176521 18.45996338 30.35304199 17.91992676 30.53491211 17.36352539 C31.33266495 14.92881836 32.13501879 12.49565242 32.9375 10.0625 C33.21529297 9.21236328 33.49308594 8.36222656 33.77929688 7.48632812 C34.18051758 6.27299805 34.18051758 6.27299805 34.58984375 5.03515625 C34.83597412 4.2862915 35.08210449 3.53742676 35.33569336 2.76586914 C36 1 36 1 37 0 C38.99958364 -0.04080783 41.00045254 -0.04254356 43 0 C40.61117162 8.17488399 38.21641528 16.34813478 35.75 24.5 C35.27820313 26.06234375 35.27820313 26.06234375 34.796875 27.65625 C34 30 34 30 33 31 C31.33382885 31.04063832 29.66611905 31.042721 28 31 C27.57847656 30.00097656 27.15695312 29.00195312 26.72265625 27.97265625 C26.16939783 26.66921692 25.61600549 25.36583443 25.0625 24.0625 C24.64581055 23.0734668 24.64581055 23.0734668 24.22070312 22.06445312 C22.99207117 18.79531504 22.99207117 18.79531504 21 16 C19.02 20.95 17.04 25.9 15 31 C13.35 31 11.7 31 10 31 C7.52389653 24.59260611 5.38052059 18.11195142 3.3125 11.5625 C2.99216797 10.55767578 2.67183594 9.55285156 2.34179688 8.51757812 C0 1.13267924 0 1.13267924 0 0 Z " fill="#EBDCB0" transform="translate(491,373)"/>
<path d="M0 0 C1.98 0 3.96 0 6 0 C7.96938498 2.36085294 9.38172633 4.36899401 10.875 7 C11.2771875 7.66773438 11.679375 8.33546875 12.09375 9.0234375 C13.08210073 10.67068871 14.04371066 12.33393145 15 14 C18.20325154 10.12165459 20.8030552 6.1245882 23.33984375 1.79296875 C23.88769531 1.20128906 24.43554688 0.60960937 25 0 C26.65 0 28.3 0 30 0 C30 10.23 30 20.46 30 31 C28.35 31 26.7 31 25 31 C24.67 25.06 24.34 19.12 24 13 C22.9275 14.65 21.855 16.3 20.75 18 C18.921875 20.8125 18.921875 20.8125 17 23 C15.68 23 14.36 23 13 23 C10.57258214 19.88221559 8.91106608 16.4746656 7 13 C6.67 18.94 6.34 24.88 6 31 C4.02 31 2.04 31 0 31 C0 20.77 0 10.54 0 0 Z " fill="#EADAAD" transform="translate(764,373)"/>
<path d="M0 0 C2.701875 -0.0825 5.40375 -0.165 8.1875 -0.25 C9.02949951 -0.28641602 9.87149902 -0.32283203 10.73901367 -0.36035156 C14.67603679 -0.41837972 16.56872297 -0.27286024 19.98828125 1.890625 C23.07760916 5.12992029 23.32527602 7.41624694 23.30078125 11.890625 C22.80935205 15.33701162 21.15007215 17.31240981 19 20 C19.3609375 20.61488281 19.721875 21.22976563 20.09375 21.86328125 C20.5578125 22.67152344 21.021875 23.47976563 21.5 24.3125 C21.9640625 25.11300781 22.428125 25.91351563 22.90625 26.73828125 C24 29 24 29 24 32 C20.8125 32.0625 20.8125 32.0625 17 31 C14.52766298 27.8667412 12 24.08784259 12 20 C9.69 20 7.38 20 5 20 C5 23.63 5 27.26 5 31 C3.35 31 1.7 31 0 31 C0 20.77 0 10.54 0 0 Z M5 5 C5 7.97 5 10.94 5 14 C6.81242052 14.02687279 8.62495233 14.04633715 10.4375 14.0625 C11.95150391 14.07990234 11.95150391 14.07990234 13.49609375 14.09765625 C15.94021067 14.28612676 15.94021067 14.28612676 17 13 C17.50059916 10.58517587 17.50059916 10.58517587 17 8 C13.21669117 4.67527405 9.88424492 4.71269148 5 5 Z " fill="#EADAAC" transform="translate(707,373)"/>
<path d="M0 0 C1.98 0 3.96 0 6 0 C8.90749767 6.41860437 11.63148033 12.89604994 14.25 19.4375 C14.61351562 20.33404297 14.97703125 21.23058594 15.3515625 22.15429688 C15.69445312 23.00958984 16.03734375 23.86488281 16.390625 24.74609375 C16.70032227 25.51622803 17.01001953 26.2863623 17.32910156 27.07983398 C18 29 18 29 18 31 C16.02 31 14.04 31 12 31 C11.7525 30.030625 11.505 29.06125 11.25 28.0625 C9.32917374 24.73936886 9.32917374 24.73936886 6.12890625 24.37890625 C3.0778553 24.14531578 0.05957276 24.00948705 -3 24 C-3.66 26.31 -4.32 28.62 -5 31 C-6.98 31 -8.96 31 -11 31 C-10.3339303 27.0577597 -9.16360451 23.54698373 -7.71484375 19.82421875 C-7.26689453 18.66728516 -6.81894531 17.51035156 -6.35742188 16.31835938 C-5.88884766 15.12017578 -5.42027344 13.92199219 -4.9375 12.6875 C-4.46505859 11.46998047 -3.99261719 10.25246094 -3.50585938 8.99804688 C-2.34085239 5.9972713 -1.17211211 2.99800584 0 0 Z M3 9 C0.64089647 13.2637281 0.64089647 13.2637281 0 18 C2.31 18 4.62 18 7 18 C6.01 15.03 5.02 12.06 4 9 C3.67 9 3.34 9 3 9 Z " fill="#EBDBB0" transform="translate(445,373)"/>
<path d="M0 0 C6.93 0 13.86 0 21 0 C21 1.65 21 3.3 21 5 C15.72 5 10.44 5 5 5 C5 7.64 5 10.28 5 13 C9.62 13 14.24 13 19 13 C19 14.65 19 16.3 19 18 C14.38 18 9.76 18 5 18 C5 22.29 5 26.58 5 31 C3.35 31 1.7 31 0 31 C0 20.77 0 10.54 0 0 Z " fill="#E9D8A7" transform="translate(605,373)"/>
<path d="M0 0 C5.28 0 10.56 0 16 0 C16 1.65 16 3.3 16 5 C14.35 5 12.7 5 11 5 C11 11.93 11 18.86 11 26 C12.65 26 14.3 26 16 26 C16 27.65 16 29.3 16 31 C10.72 31 5.44 31 0 31 C0 29.35 0 27.7 0 26 C1.65 26 3.3 26 5 26 C5 19.07 5 12.14 5 5 C3.35 5 1.7 5 0 5 C0 3.35 0 1.7 0 0 Z " fill="#EBDBAF" transform="translate(657,373)"/>
<path d="M0 0 C1.98 0 3.96 0 6 0 C6 8.58 6 17.16 6 26 C10.62 26 15.24 26 20 26 C20 27.65 20 29.3 20 31 C13.4 31 6.8 31 0 31 C0 20.77 0 10.54 0 0 Z " fill="#EBDBAE" transform="translate(383,373)"/>
<path d="M0 0 C31.02 0 62.04 0 94 0 C94 6.93 94 13.86 94 21 C93.67 21 93.34 21 93 21 C93 14.4 93 7.8 93 1 C63.3 1 33.6 1 3 1 C3.33 1.99 3.66 2.98 4 4 C2.68 3.67 1.36 3.34 0 3 C0 2.01 0 1.02 0 0 Z " fill="#ECDCAF" transform="translate(745,207)"/>
<path d="M0 0 C23.1 0 46.2 0 70 0 C70 0.33 70 0.66 70 1 C47.89 1 25.78 1 3 1 C3 1.66 3 2.32 3 3 C2.01 3 1.02 3 0 3 C0 2.01 0 1.02 0 0 Z " fill="#ECDCB0" transform="translate(852,207)"/>
<path d="M0 0 C21.45 0 42.9 0 65 0 C65 0.33 65 0.66 65 1 C44.54 1 24.08 1 3 1 C3 1.66 3 2.32 3 3 C2.01 3 1.02 3 0 3 C0 2.01 0 1.02 0 0 Z " fill="#ECDCB0" transform="translate(619,207)"/>
<path d="M0 0 C0.66 0.33 1.32 0.66 2 1 C-2.95 5.95 -7.9 10.9 -13 16 C-13 11.93645091 -11.47015238 10.94829419 -8.75 8 C-7.96109375 7.13375 -7.1721875 6.2675 -6.359375 5.375 C-4.3351828 3.33740256 -2.34982916 1.63841299 0 0 Z " fill="#EFE3C1" transform="translate(388,214)"/>
<path d="M0 0 C9.57 0 19.14 0 29 0 C29 0.99 29 1.98 29 3 C28.01 3 27.02 3 26 3 C26 2.34 26 1.68 26 1 C22.04137069 1.13842295 18.08318673 1.28699006 14.125 1.4375 C12.99707031 1.47681641 11.86914062 1.51613281 10.70703125 1.55664062 C9.63066406 1.59853516 8.55429687 1.64042969 7.4453125 1.68359375 C5.95281982 1.73858032 5.95281982 1.73858032 4.43017578 1.79467773 C1.99220499 1.84959532 1.99220499 1.84959532 0 3 C0 2.01 0 1.02 0 0 Z " fill="#ECDEB3" transform="translate(580,207)"/>
</svg>
