<?xml version="1.0" encoding="UTF-8"?>
<svg version="1.1" xmlns="http://www.w3.org/2000/svg" width="1324" height="1279">
<path d="M0 0 C4.45250196 0.00420928 8.90498802 -0.00325349 13.35748598 -0.00915251 C21.14476413 -0.01787808 28.93201598 -0.01923965 36.7192978 -0.01564924 C48.29986087 -0.01032408 59.88039863 -0.01645571 71.46095895 -0.02473217 C93.35086098 -0.03994733 115.2407514 -0.0416798 137.13065761 -0.03920914 C154.03786333 -0.03737427 170.94506527 -0.03914017 187.85227051 -0.04343358 C190.28399957 -0.04403599 192.71572863 -0.04463719 195.14745769 -0.04523719 C198.81214409 -0.04614447 202.47683049 -0.04705314 206.14151689 -0.04796954 C240.20030416 -0.05639535 274.25909 -0.06073733 308.31787816 -0.05656282 C309.60099866 -0.05640644 310.88411917 -0.05625007 312.20612211 -0.05608895 C318.70902094 -0.05528321 325.21191977 -0.05443743 331.71481859 -0.05357565 C333.00624231 -0.05340456 334.29766603 -0.05323347 335.6282238 -0.0530572 C338.23979406 -0.05271054 340.85136433 -0.05236201 343.46293459 -0.05201161 C384.09495151 -0.04665495 424.72694672 -0.05458481 465.35895959 -0.07304517 C511.04302626 -0.09377669 556.7270795 -0.1044857 602.41115114 -0.10046969 C607.28542482 -0.10007436 612.15969849 -0.09971281 617.03397217 -0.0993723 C618.23408066 -0.09928157 619.43418915 -0.09919084 620.67066456 -0.09909736 C638.76047063 -0.09793305 656.8502631 -0.10456696 674.94006577 -0.11518422 C695.52147981 -0.12725177 716.10286393 -0.12877725 736.68427842 -0.11639406 C748.1902178 -0.10978047 759.69608558 -0.11136181 771.20201919 -0.12498257 C778.90275771 -0.13326004 786.60344292 -0.13048693 794.30417716 -0.1190073 C798.68166869 -0.11278344 803.05902109 -0.11106479 807.4365043 -0.12287064 C834.32602048 -0.19034313 860.09371626 1.66609332 886.27766076 8.26313647 C887.53473839 8.57758715 887.53473839 8.57758715 888.81721154 8.89839038 C934.67093849 20.70025115 978.39311218 49.67842266 1007.27766076 87.26313647 C1007.6987008 87.80776538 1008.11974084 88.35239428 1008.55353966 88.91352709 C1042.78275064 133.45274137 1058.48656933 185.69662642 1058.40908852 241.62926158 C1058.41074243 243.03859953 1058.41283064 244.44793703 1058.41530863 245.85727378 C1058.42083012 249.70996319 1058.42021123 253.56263017 1058.41853104 257.41532225 C1058.4177958 261.61475636 1058.42283255 265.81418436 1058.42710605 270.01361581 C1058.4346635 278.33392276 1058.43687797 286.65422329 1058.43743511 294.97453332 C1058.43835101 304.94490986 1058.44502532 314.91528051 1058.45178193 324.8856545 C1058.4678225 348.98287575 1058.47374337 373.08009634 1058.47853068 397.17732197 C1058.48086896 408.58560254 1058.4844719 419.99388262 1058.48822606 431.40216281 C1058.50106094 470.48220547 1058.51177931 509.56224786 1058.51522866 548.64229258 C1058.51545029 551.09440275 1058.51567207 553.54651291 1058.51589401 555.99862307 C1058.51611465 558.4565399 1058.51633513 560.91445672 1058.51655546 563.37237354 C1058.516998 568.30308358 1058.51744512 573.23379362 1058.51789513 578.16450366 C1058.51800452 579.38702814 1058.51811391 580.60955262 1058.51822662 581.86912331 C1058.52185481 621.4825581 1058.53776618 661.09597458 1058.5610855 700.70940236 C1058.58571568 742.62659771 1058.59940301 784.54378259 1058.60059658 826.46098539 C1058.60076802 831.06810729 1058.60098344 835.6752292 1058.60123101 840.2823511 C1058.60128678 841.41668933 1058.60134255 842.55102755 1058.60140001 843.71973967 C1058.60254779 861.92741251 1058.61354667 880.13506647 1058.62811807 898.34273295 C1058.64252855 916.66716312 1058.64569448 934.99156923 1058.63767809 953.31600351 C1058.63324295 964.18299679 1058.63699703 975.04991207 1058.65291659 985.91689501 C1058.6627435 993.19963293 1058.66141571 1000.48231685 1058.65148037 1007.7650544 C1058.64614319 1011.89901046 1058.64519675 1016.03281795 1058.65798909 1020.16676105 C1058.75756982 1054.54365044 1056.78588529 1088.57215485 1045.27766076 1121.26313647 C1044.98907189 1122.0981267 1044.70048302 1122.93311694 1044.40314904 1123.79340991 C1038.00453693 1142.12756186 1029.59917908 1159.4482529 1018.27766076 1175.26313647 C1017.52335179 1176.36353228 1016.77083094 1177.4651554 1016.01984826 1178.56782397 C1003.43868628 1196.85532232 987.98681737 1213.83481924 970.27766076 1227.26313647 C969.65472131 1227.74073413 969.03178185 1228.21833178 968.38996545 1228.71040209 C920.75754371 1265.0168422 866.79196469 1277.79424604 807.8566215 1277.64853913 C803.37254664 1277.64083526 798.88850165 1277.65074537 794.40443119 1277.65826913 C786.56791745 1277.66904075 778.73146585 1277.66881488 770.89494935 1277.66112765 C759.24124804 1277.64972732 747.58759866 1277.65560875 735.93389765 1277.66475257 C715.11381232 1277.68051179 694.2937547 1277.67919577 673.47366677 1277.67051583 C655.25259155 1277.66295711 637.03152646 1277.66100467 618.81044999 1277.66458377 C617.59990173 1277.66481292 616.38935348 1277.66504208 615.14212194 1277.66527818 C610.22760171 1277.66621225 605.31308148 1277.66716746 600.39856127 1277.66815747 C554.33350158 1277.67732634 508.26845949 1277.66902709 462.20340252 1277.65286678 C421.31562956 1277.63863177 380.42788464 1277.63990403 339.54011193 1277.65424975 C293.5586325 1277.67032886 247.57716861 1277.67667508 201.59568676 1277.66741296 C196.69002028 1277.66645087 191.78435379 1277.66551234 186.87868729 1277.66458377 C185.06695521 1277.66422792 185.06695521 1277.66422792 183.21862248 1277.66386488 C165.01380079 1277.66045865 146.80899036 1277.66443175 128.60417023 1277.67202243 C107.89475871 1277.68061458 87.18537912 1277.67842513 66.47597156 1277.66218019 C54.89891668 1277.65339738 43.32193101 1277.6527585 31.74487798 1277.66411872 C23.99687438 1277.67088032 16.24892588 1277.6665974 8.50093039 1277.65360441 C4.09651681 1277.64651709 -0.30776002 1277.64392428 -4.71216895 1277.65482236 C-27.95627684 1277.70812157 -51.14833886 1277.33645732 -73.78483924 1271.38813647 C-75.33799842 1270.99525439 -75.33799842 1270.99525439 -76.92253455 1270.5944353 C-79.86236528 1269.83976874 -82.79334641 1269.05869789 -85.72233924 1268.26313647 C-86.86388465 1267.95787036 -86.86388465 1267.95787036 -88.02849159 1267.64643725 C-111.19059137 1261.33543095 -134.2562761 1250.30196152 -153.72233924 1236.26313647 C-154.68011268 1235.57864428 -155.63788612 1234.89415209 -156.62468299 1234.18891772 C-195.52894293 1205.71365782 -227.26827555 1165.69434108 -241.72233924 1119.26313647 C-241.95372596 1118.54351733 -242.18511268 1117.82389819 -242.42351112 1117.08247241 C-249.90756469 1093.60975892 -253.88692776 1069.46057643 -253.85376701 1044.83964785 C-253.85541979 1043.39952222 -253.85750749 1041.95939703 -253.85998711 1040.51927259 C-253.86552303 1036.57183081 -253.86488702 1032.62441086 -253.86320952 1028.67696646 C-253.86247573 1024.37841411 -253.86750766 1020.07986778 -253.87178454 1015.78131803 C-253.8793502 1007.26003285 -253.88155687 998.73875394 -253.88211359 990.21746575 C-253.88302865 980.00853828 -253.88970044 969.79961659 -253.89646042 959.59069162 C-253.9125084 934.91753008 -253.9184224 910.24436917 -253.92320917 885.57120335 C-253.92554638 873.89496362 -253.92914918 862.21872439 -253.93290454 850.54248504 C-253.94573917 810.55933062 -253.95645828 770.57617648 -253.95990714 730.59302005 C-253.96012877 728.08383943 -253.96035056 725.57465882 -253.9605725 723.06547821 C-253.96079313 720.55029984 -253.96101362 718.03512146 -253.96123394 715.51994308 C-253.96167649 710.47421718 -253.96212361 705.42849128 -253.96257362 700.38276538 C-253.96268301 699.13172188 -253.9627924 697.88067838 -253.9629051 696.59172447 C-253.96653491 656.03597297 -253.98245251 615.48023935 -254.00576398 574.9244947 C-254.03037546 532.02849997 -254.0440806 489.13251545 -254.04527506 446.23651346 C-254.04544651 441.52502799 -254.04566194 436.81354253 -254.04590949 432.10205706 C-254.04596526 430.94198974 -254.04602103 429.78192242 -254.04607849 428.58670154 C-254.0472278 409.94031748 -254.05823962 391.29395181 -254.07279655 372.64757395 C-254.08718282 353.89511898 -254.09038651 335.14268753 -254.08235657 316.39022856 C-254.07791033 305.25939349 -254.0817206 294.12863446 -254.09759508 282.99780943 C-254.10738276 275.54934197 -254.10613085 268.10092748 -254.09615885 260.65246046 C-254.09079402 256.41725132 -254.08996786 252.18218762 -254.10266757 247.94699084 C-254.15264643 230.18164326 -253.70775057 212.8327689 -250.72233924 195.26313647 C-250.42551053 193.42279011 -250.42551053 193.42279011 -250.12268528 191.54526504 C-244.88773534 160.07937035 -232.73031414 129.58801867 -214.72233924 103.26313647 C-214.30742225 102.64905932 -213.89250526 102.03498217 -213.46501502 101.40229663 C-208.07993175 93.47477496 -202.26843246 86.27857222 -195.72233924 79.26313647 C-194.61351315 77.97546745 -193.50914804 76.68394007 -192.40983924 75.38813647 C-184.29710287 66.11376118 -175.45191751 57.81876209 -165.72233924 50.26313647 C-165.08296424 49.75653491 -164.44358924 49.24993334 -163.78483924 48.72798022 C-134.87624067 26.36119814 -101.3237692 11.52152655 -65.53483924 4.45063647 C-64.05986976 4.15805957 -64.05986976 4.15805957 -62.55510291 3.85957202 C-41.78390789 0.02845176 -21.03342258 -0.03043162 0 0 Z M631.27766076 298.26313647 C630.58027795 298.79680834 629.88289513 299.33048022 629.16437951 299.88032397 C618.05970933 308.89343491 609.47841808 323.05421047 607.27766076 337.26313647 C606.97413134 341.87043584 606.95295547 346.45959757 606.96516076 351.07563647 C606.94904748 352.2828435 606.9329342 353.49005053 606.91633263 354.73383959 C606.91219134 362.39108238 607.77938379 369.02204258 610.27766076 376.26313647 C610.50735558 376.92966235 610.73705041 377.59618823 610.97370568 378.28291186 C613.9040421 386.23699029 617.59178717 392.98301481 623.27766076 399.26313647 C624.06141076 400.12938647 624.84516076 400.99563647 625.65266076 401.88813647 C639.05773131 414.01653363 654.21028761 420.36656006 672.27766076 421.26313647 C673.33146935 421.34241381 673.33146935 421.34241381 674.40656701 421.42329272 C690.15111301 422.11043609 705.78347817 416.57743692 718.27766076 407.26313647 C719.28828576 406.52063647 720.29891076 405.77813647 721.34016076 405.01313647 C734.17875906 393.7307319 742.28604306 376.69385783 743.44904748 359.76899584 C744.52606311 338.50464447 740.55370532 319.10166831 726.09016076 302.82563647 C712.5683776 288.4850684 694.51656047 283.54265955 675.34016076 282.95063647 C659.24675054 283.29304945 643.87100686 288.24915041 631.27766076 298.26313647 Z M203.43679562 329.11598834 C201.89942791 331.96376413 201.81381445 334.2062376 201.68781701 337.43501147 C201.62529748 338.65833178 201.56277795 339.88165209 201.49836388 341.14204272 C201.3948141 343.67581645 201.29317649 346.20966923 201.19367638 348.74360522 C200.39557354 364.23808663 195.80493132 378.30358166 190.84016076 392.88813647 C190.31149346 394.45561901 189.78326588 396.02324992 189.25544396 397.59101733 C187.87827891 401.67488806 186.49260646 405.75581292 185.10371056 409.83570727 C184.29863405 412.20150437 183.49538208 414.56791281 182.69269982 416.93452319 C175.97141508 436.74265263 169.11886921 456.50425719 162.21589318 476.24970874 C157.20778466 490.57763317 152.23749856 504.91843784 147.27766076 519.26313647 C140.22722174 539.65069333 133.14192035 560.02578509 126.02676049 580.39083728 C123.82588862 586.69088795 121.6290972 592.99235273 119.43391076 599.29438647 C113.64175076 615.91994952 107.83743135 632.54068024 101.96516076 649.13813647 C97.46136439 661.87115485 93.02792376 674.62686127 88.63781396 687.39959582 C84.69230212 698.8776548 80.73677159 710.35226187 76.77766076 721.82563647 C76.35895714 723.03905719 75.94025353 724.2524779 75.50886193 725.50266894 C70.65527912 739.56224241 65.78347765 753.61254371 60.73539391 767.60362109 C58.00671218 775.18332596 55.35027243 782.78569094 52.73078576 790.40376147 C52.30303353 791.64592425 51.8752813 792.88808703 51.43456689 794.16789111 C48.36310901 803.09039373 45.30441383 812.01726537 42.24807587 820.94495639 C41.51365172 823.09013869 40.77904004 825.23525668 40.04436913 827.38035449 C39.80048424 828.09247655 39.55659934 828.80459861 39.30532399 829.53830012 C38.8114507 830.98035617 38.31756247 832.4224071 37.82365933 833.86445292 C36.5757508 837.50838283 35.32866346 841.15259055 34.08308068 844.79731616 C32.84545804 848.41843829 31.60598616 852.03892193 30.36487618 855.65885028 C29.88499275 857.05892393 29.40556892 858.45915521 28.92662087 859.85954913 C26.69918531 866.36824881 24.45780944 872.86590175 22.0135006 879.29731616 C21.68045418 880.17386859 21.34740777 881.05042102 21.00426903 881.95353564 C20.41092781 883.4957942 19.80740979 885.03420536 19.19033471 886.56712207 C17.49494069 890.9451108 16.7464635 894.57584899 17.27766076 899.26313647 C18.85236315 901.39286622 19.73976486 902.16519501 22.36636582 902.6434532 C23.17565852 902.6458831 23.98495122 902.64831299 24.81876794 902.65081652 C25.74963723 902.66072116 26.68050652 902.67062579 27.63958398 902.68083056 C28.6588749 902.67632891 29.67816582 902.67182727 30.72834435 902.6671892 C31.8033973 902.67405245 32.87845025 902.68091571 33.98608056 902.68798693 C37.54955313 902.70632893 41.11258848 902.70240639 44.67609826 902.69673022 C47.14848132 902.70128884 49.6208631 902.70659344 52.09324303 902.71261462 C57.28009342 902.72156058 62.46678997 902.71910607 67.65363732 902.70918139 C74.3042276 902.69769681 80.95408144 902.71788797 87.60463181 902.74709853 C92.71241805 902.76543697 97.82007646 902.7651726 102.92788735 902.75946101 C105.37991875 902.75930747 107.83195864 902.76537861 110.28395882 902.77775248 C113.71237492 902.7926135 117.13980313 902.78201979 120.5681881 902.76484545 C122.0910518 902.77934741 122.0910518 902.77934741 123.64468041 902.79414233 C127.96586123 902.74876627 130.56426274 902.68330186 134.3431057 900.45770129 C137.04056433 897.39769647 138.18206179 894.05743425 139.40656701 890.23969897 C139.81265191 889.03973033 139.81265191 889.03973033 140.22694054 887.81551989 C141.11436403 885.1782092 141.97750776 882.53364311 142.84016076 879.88813647 C143.46171004 878.02164335 144.0843669 876.15551873 144.70808068 874.2897478 C150.78881672 856.01934598 156.50444078 837.63247275 162.27766076 819.26313647 C170.69266076 793.52313647 170.69266076 793.52313647 179.27766076 767.26313647 C245.93766076 767.26313647 312.59766076 767.26313647 381.27766076 767.26313647 C394.85537673 805.73333171 394.85537673 805.73333171 400.165234 821.46253833 C405.56107509 837.43606526 411.01381274 853.39017895 416.54777184 869.31638964 C417.19337612 871.17551041 417.83763564 873.03509879 418.48045006 874.89518603 C419.37245656 877.47495365 420.26962571 880.05286774 421.16828576 882.63032397 C421.42492501 883.37515536 421.68156426 884.11998675 421.94598046 884.88738879 C423.28167171 888.69798095 424.71948456 892.45500718 426.2844967 896.17768725 C426.59288476 896.91189898 426.90127282 897.64611071 427.21900597 898.40257128 C428.27798799 900.58752733 428.27798799 900.58752733 431.27766076 902.26313647 C433.61509946 902.56150861 433.61509946 902.56150861 436.25655785 902.51037463 C437.28431832 902.51456912 438.31207879 902.51876361 439.37098351 902.5230852 C441.06127679 902.51465594 441.06127679 902.51465594 442.7857174 902.50605639 C443.9728785 902.50795474 445.1600396 902.50985308 446.38317528 902.51180896 C449.63928832 902.51488148 452.89523451 902.50900201 456.15132871 902.49885591 C459.55634778 902.49007673 462.96136254 902.49183282 466.36639062 902.49221667 C472.08366351 902.49128005 477.80088334 902.48259583 483.51813927 902.46894702 C490.13296922 902.45321402 496.74774107 902.44794918 503.36258838 902.44868257 C509.72123947 902.44929241 516.0798716 902.44419151 522.43851701 902.43589076 C525.14701079 902.43235568 527.85549786 902.43052719 530.56399384 902.42999705 C534.34235879 902.42783861 538.12064954 902.41910532 541.89899865 902.40840014 C543.59232827 902.40907992 543.59232827 902.40907992 545.31986657 902.40977343 C546.34480721 902.40550845 547.36974786 902.40124346 548.42574731 902.39684924 C549.31967722 902.39517339 550.21360713 902.39349755 551.13462582 902.39177092 C553.32962942 902.40082676 553.32962942 902.40082676 555.27766076 901.26313647 C557.04851352 897.41386177 555.5937856 893.89590198 554.40266076 890.07563647 C554.17779992 889.33571459 553.95293908 888.59579272 553.72126427 887.83344897 C550.30441539 876.84215547 546.24295765 866.0648503 542.27766076 855.26313647 C540.2940752 849.84808259 538.31574947 844.43111247 536.34016076 839.01313647 C535.95555688 837.95895022 535.95555688 837.95895022 535.56318322 836.88346728 C531.67912584 826.22818696 527.92942826 815.533182 524.26032677 804.80171069 C520.68748344 794.38202056 516.9932499 784.00768663 513.27766076 773.63813647 C507.58832441 757.7574926 501.94702147 741.8605888 496.34016076 725.95063647 C490.33059216 708.90086058 484.29944624 691.85903776 478.2371029 674.82795581 C472.57591236 658.92365747 466.9363699 643.01177556 461.30436364 627.09712084 C456.85312031 614.52006324 452.38603802 601.94907139 447.8860592 589.38935717 C444.14549098 578.93088761 440.47684819 568.44736839 436.80357018 557.96513232 C433.26773945 547.87859364 429.68612875 537.81198641 426.00788537 527.77632006 C423.84992806 521.87538213 421.76555827 515.95223747 419.71516076 510.01313647 C415.89874598 498.96377204 411.96623956 487.95687278 408.02766076 476.95063647 C403.4391408 464.12637319 398.86437774 451.29773477 394.34016076 438.45063647 C391.0842621 429.20712022 387.82072992 419.96640355 384.53937951 410.73188647 C384.21387612 409.81582629 383.88837273 408.89976611 383.55300561 407.95594653 C381.87384029 403.23218025 380.19228317 398.50927941 378.50739709 393.78755053 C375.29350171 384.77621471 372.0947282 375.7604575 368.9520382 366.72399768 C367.5002018 362.551811 366.04005666 358.38255372 364.5792965 354.21348437 C363.88283054 352.21816799 363.19047037 350.22141335 362.5023922 348.22318896 C361.54719112 345.4502235 360.57803728 342.68250497 359.60578576 339.91548022 C359.32726769 339.0947301 359.04874963 338.27397998 358.76179162 337.42835864 C358.49278039 336.67121569 358.22376916 335.91407275 357.94660607 335.13398608 C357.60596123 334.15177333 357.60596123 334.15177333 357.25843468 333.14971789 C355.92976198 330.5939309 354.50502524 329.10349111 352.27766076 327.26313647 C349.43393307 326.66355336 349.43393307 326.66355336 346.23614159 326.7552019 C344.37907586 326.73828295 344.37907586 326.73828295 342.48449364 326.72102221 C341.11533542 326.72879913 339.7461795 326.73699179 338.37702599 326.74555834 C336.93303891 326.74013739 335.48905736 326.73301487 334.0450863 326.72431811 C330.12568734 326.70607997 326.20670945 326.71315363 322.28730312 326.72583445 C318.18740281 326.73595774 314.08753867 326.72657083 309.98763695 326.72028979 C303.10353276 326.71301223 296.21960022 326.72260472 289.33552209 326.74165209 C281.3726126 326.76342979 273.41011262 326.75636358 265.44721302 326.73434647 C258.61313608 326.71620579 251.77918255 326.71362732 244.94508931 326.72410115 C240.86212141 326.73034235 236.77934613 326.73115448 232.69639054 326.7179552 C228.85900571 326.70641624 225.02215002 326.71438588 221.18482247 326.73753222 C219.77510051 326.74282951 218.36533415 326.74128806 216.95562974 326.73248156 C215.03450123 326.72158489 213.1132756 326.7376598 211.19219628 326.7552019 C210.11612838 326.75671 209.04006049 326.7582181 207.93138447 326.75977191 C205.1672618 327.02490866 205.1672618 327.02490866 203.43679562 329.11598834 Z M613.27766076 469.26313647 C612.82085561 472.51691429 612.82085561 472.51691429 612.89455071 476.33657607 C612.8895912 477.0648399 612.88463168 477.79310373 612.87952188 478.54343616 C612.86648749 481.00294686 612.87497494 483.4619216 612.88325158 485.92144641 C612.87836637 487.6948529 612.8721783 489.46825621 612.86479369 491.24165406 C612.84832401 496.12987776 612.85072632 501.01794092 612.85616866 505.90618273 C612.85883022 511.17212473 612.84432356 516.43802309 612.8320736 521.70394763 C612.81098058 532.02611355 612.80648095 542.34822335 612.80826148 552.67040826 C612.80956713 561.05703815 612.8057751 569.44365047 612.79833642 577.83027705 C612.79623731 580.24248181 612.79413971 582.65468657 612.7920436 585.06689134 C612.79100007 586.26736584 612.78995654 587.46784035 612.78888139 588.70469287 C612.76996352 611.4278344 612.77103401 634.15094367 612.77785072 656.87408981 C612.78342777 677.68052957 612.76259657 698.48684626 612.72949025 719.29325725 C612.69579138 740.63705639 612.68058014 761.98079652 612.68520728 783.32462277 C612.68745577 795.31568239 612.68215347 807.30662824 612.65731469 819.2976652 C612.63635068 829.50539341 612.63266076 839.71294546 612.65161428 849.92068078 C612.6608023 855.13232592 612.66182173 860.34364221 612.64125863 865.55526217 C612.62265972 870.32163249 612.62692655 875.08740206 612.64980444 879.85374871 C612.65401841 881.58252173 612.64969726 883.31133983 612.63620851 885.04006536 C612.61917207 887.38206546 612.6326417 889.72193833 612.65404168 892.06385573 C612.65376929 893.36694857 612.65349691 894.6700414 612.65321627 896.0126219 C612.99675336 899.42745201 612.99675336 899.42745201 615.66858515 901.68163123 C618.47227243 903.38110138 619.9025289 903.76513859 623.14193383 903.77107104 C624.09382592 903.78235034 625.04571801 903.79362963 626.02645531 903.80525073 C627.05882821 903.7971538 628.0912011 903.78905688 629.15485802 903.78071459 C630.25131646 903.78772387 631.34777489 903.79473315 632.47745934 903.80195483 C636.09991987 903.81955288 639.7215986 903.80790569 643.34406701 903.79438647 C645.86082777 903.79708065 648.37758752 903.80096245 650.89434472 903.80598315 C656.1676243 903.8118805 661.44070059 903.80368811 666.71394006 903.78462084 C672.80748287 903.76284171 678.90049053 903.76991305 684.99402043 903.79192647 C690.8615017 903.81227332 696.72877976 903.8101105 702.59627763 903.79839953 C705.09099503 903.79572824 707.58572606 903.79901608 710.08042756 903.80831774 C713.56394127 903.8184565 717.04642146 903.80301864 720.52985802 903.78071459 C721.56425515 903.78881152 722.59865227 903.79690844 723.66439477 903.80525073 C724.61346703 903.79397143 725.5625393 903.78269213 726.54037133 903.77107104 C727.36349092 903.76956294 728.18661051 903.76805484 729.03467313 903.76650103 C732.21585779 903.0525891 733.27543696 901.82351053 735.27766076 899.26313647 C735.87911482 895.91034628 735.87911482 895.91034628 735.78102532 892.06385573 C735.78683908 891.33413846 735.79265285 890.60442119 735.79864279 889.85259127 C735.81330436 887.3940101 735.7993296 884.93641769 735.78559533 882.47784289 C735.79020182 880.70285938 735.79655304 878.92787967 735.80450431 877.15290799 C735.82125524 872.26495729 735.81292518 867.3773176 735.80055943 862.48936554 C735.79153484 857.22209545 735.80546571 851.95488006 735.81647912 846.68762072 C735.83429632 836.36523422 735.83041022 826.04296384 735.81882855 815.72057273 C735.80980757 807.33443214 735.80856444 798.94832417 735.81292382 790.56218013 C735.81353675 789.37018292 735.81414968 788.17818572 735.81478119 786.95006738 C735.81606004 784.5288207 735.8173569 782.10757403 735.81867156 779.68632737 C735.83008661 756.96510349 735.81694889 734.2439441 735.79547009 711.5227308 C735.77759599 692.01030443 735.78070402 672.49797323 735.79914513 652.98554858 C735.82053156 630.34598021 735.82899031 607.70646839 735.81669608 585.06689134 C735.81542183 582.65468658 735.81416435 580.24248182 735.81292382 577.83027705 C735.81230672 576.64331172 735.81168962 575.45634639 735.81105381 574.23341242 C735.80759439 565.85303199 735.81344193 557.47268731 735.82284203 549.09231242 C735.83403857 538.88568838 735.83107139 528.67918745 735.80971906 518.47257759 C735.79917734 513.26109844 735.79513978 508.04982485 735.80831567 502.83834704 C735.82018088 498.07336616 735.81377472 493.30878257 735.79240546 488.54383805 C735.78791437 486.8144446 735.79026133 485.08501799 735.79990861 483.35564561 C735.81196807 481.01546982 735.79970646 478.67667795 735.78102532 476.33657607 C735.78005121 474.38218034 735.78005121 474.38218034 735.77905741 472.38830187 C735.57668753 469.1959701 735.57668753 469.1959701 733.38868854 467.34464171 C730.89189319 466.06550305 729.25103155 465.88595377 726.45098534 465.88218554 C725.48219445 465.87372607 724.51340356 465.8652666 723.51525536 465.85655078 C722.45901467 465.86262347 721.40277398 465.86869616 720.31452599 465.87495288 C719.19710015 465.86969592 718.07967431 465.86443896 716.92838708 465.8590227 C713.23086783 465.84580726 709.53377822 465.85456602 705.83625451 465.86469897 C703.27082906 465.86267883 700.70540418 465.8597679 698.1399807 465.85600146 C692.76239186 465.85157611 687.38496494 465.85773101 682.00739709 465.87202319 C675.78953707 465.88835776 669.57197205 465.88305478 663.35411915 465.86654397 C657.37186099 465.8512945 651.38974723 465.85290196 645.40746918 465.86168917 C642.86168604 465.86369437 640.3158954 465.86122077 637.77012101 465.85425051 C634.21700948 465.84665696 630.66446977 465.85821112 627.11140099 465.87495288 C626.05313607 465.86888018 624.99487115 465.86280749 623.90453759 465.85655078 C622.45558099 465.86923999 622.45558099 465.86923999 620.97735253 465.88218554 C620.13726364 465.88331662 619.29717475 465.8844477 618.43162862 465.88561305 C615.6317537 466.37634384 614.94628433 466.95895716 613.27766076 469.26313647 Z " fill="#000000" transform="translate(260.72233924176544,1.736863530240953)"/>
<path d="M0 0 C1.88279458 2.82419187 2.60217373 4.65803189 3.48828125 7.87109375 C3.77533936 8.8967041 4.06239746 9.92231445 4.3581543 10.97900391 C4.67308838 12.12030762 4.98802246 13.26161133 5.3125 14.4375 C6.03205168 16.9966203 6.75312901 19.55526015 7.4765625 22.11328125 C7.67269638 22.80802551 7.86883026 23.50276978 8.07090759 24.21856689 C15.00471014 48.72064086 22.35777906 73.10887758 29.875 97.4375 C30.13372894 98.27694153 30.39245789 99.11638306 30.6590271 99.98126221 C33.48872295 109.15060316 36.40774094 118.28273577 39.46484375 127.37890625 C42.73474772 137.11032335 45.806993 146.89567726 48.82754517 156.70697021 C52.6524336 169.12974744 56.49524072 181.54491113 60.5390625 193.8984375 C60.95763268 195.17820465 60.95763268 195.17820465 61.38465881 196.48382568 C62.69933578 200.49687402 64.02236001 204.50695417 65.35620117 208.51367188 C65.82742091 209.94397427 66.29853699 211.37431083 66.76953125 212.8046875 C67.17792236 214.03171387 67.58631348 215.25874023 68.00708008 216.52294922 C69 220 69 220 70 227 C24.79 227 -20.42 227 -67 227 C-65.79239928 221.56579677 -64.73033337 216.83490635 -62.92578125 211.6953125 C-62.51312012 210.49801514 -62.10045898 209.30071777 -61.67529297 208.06713867 C-61.45435974 207.42924408 -61.23342651 206.79134949 -61.00579834 206.13412476 C-54.94463891 188.56935536 -49.71581265 170.77456611 -44.56762695 152.92431641 C-41.06274004 140.80507126 -37.36331672 128.76889283 -33.47145081 116.76818848 C-29.5076714 104.53191566 -25.71497431 92.24542377 -21.96020508 79.94360352 C-20.80711488 76.16987609 -19.6467973 72.39841701 -18.48632812 68.62695312 C-12.72236413 49.81285707 -7.35706532 30.9260207 -3.1875 11.6875 C-2.7874792 9.85756358 -2.38525552 8.02810683 -1.98046875 6.19921875 C-1.73139771 5.05199341 -1.73139771 5.05199341 -1.47729492 3.8815918 C-1 2 -1 2 0 0 Z " fill="#000000" transform="translate(539,430)"/>
</svg>
