<?xml version="1.0" encoding="UTF-8"?>
<svg version="1.1" xmlns="http://www.w3.org/2000/svg" width="1024" height="1024">
<path d="M0 0 C337.92 0 675.84 0 1024 0 C1024 337.92 1024 675.84 1024 1024 C686.08 1024 348.16 1024 0 1024 C0 686.08 0 348.16 0 0 Z M104 46 C102.46472656 47.11568359 102.46472656 47.11568359 100.8984375 48.25390625 C88.49707042 57.38930706 77.3142693 67.70251277 68 80 C67.14411719 81.07102275 66.2873015 82.14130049 65.4296875 83.2109375 C53.42266181 98.51223165 44.4460341 116.3418957 39 135 C38.77231934 135.77327637 38.54463867 136.54655273 38.31005859 137.34326172 C31.39774922 161.22258412 30.84840038 184.89564974 30.86628723 209.57849121 C30.8644161 212.0419768 30.8621142 214.5054621 30.85942191 216.96894693 C30.85460167 222.29947945 30.85284457 227.62999952 30.85387802 232.96053314 C30.85541115 240.88800621 30.85122315 248.81546935 30.8460034 256.74294048 C30.83636008 271.73029924 30.83352028 286.71765457 30.83294634 301.70501608 C30.8324858 313.28477469 30.83042227 324.86453198 30.82724571 336.44429016 C30.82634809 339.78434451 30.82545828 343.12439887 30.82457083 346.46445322 C30.82434979 347.29493563 30.82412874 348.12541803 30.82390099 348.98106657 C30.81775146 372.32387203 30.81379995 395.66667703 30.81424427 419.00948334 C30.81425985 419.88858104 30.81427543 420.76767874 30.81429148 421.67341577 C30.81437458 426.12846912 30.81447362 430.58352248 30.81457619 435.03857583 C30.81459613 435.92327404 30.81461608 436.80797225 30.81463663 437.71947949 C30.81467706 439.50855332 30.81471886 441.29762715 30.81476202 443.08670098 C30.8153745 470.90936838 30.80787129 498.73202359 30.79418945 526.5546875 C30.77880331 557.85561838 30.77022475 589.15654124 30.77115268 620.45747614 C30.7712273 623.80004533 30.77127601 627.14261452 30.77130699 630.48518372 C30.77131865 631.30813162 30.7713303 632.13107953 30.77134231 632.97896525 C30.77137298 646.17765849 30.76500841 659.37634108 30.75637473 672.57503117 C30.74786613 685.85793388 30.74693327 699.14082113 30.75348405 712.42372507 C30.75715838 720.2970223 30.75541127 728.17027232 30.74554171 736.04356447 C30.73877056 741.94817744 30.74265224 747.85275428 30.75041493 753.75736696 C30.75193913 756.12673642 30.75017516 758.49611111 30.74455485 760.8654744 C30.62202975 816.24118769 42.9518652 863.59884187 82.625 904 C90.20173467 911.56425112 98.02493608 918.17090933 107 924 C107.60376465 924.39477539 108.2075293 924.78955078 108.82958984 925.19628906 C140.74830973 945.79721584 174.93931331 952.64985055 212.55297852 952.50793457 C215.25422556 952.51255427 217.9554282 952.51875255 220.65666294 952.52684355 C226.48497364 952.54115673 232.31313562 952.54093559 238.14145279 952.53065491 C246.80892029 952.51540839 255.47626431 952.52331978 264.14373121 952.53548814 C279.63151454 952.55646514 295.11923154 952.55476 310.60702106 952.54317249 C324.16120837 952.53308229 337.71537147 952.53049644 351.26956177 952.53526306 C352.62186884 952.53572137 352.62186884 952.53572137 354.00149525 952.53618894 C357.66177748 952.53743444 361.32205969 952.53870805 364.98234189 952.540028 C399.26942943 952.55224471 433.5564749 952.54120081 467.84355594 952.51964041 C498.25868222 952.50066013 528.67374149 952.50235873 559.08886719 952.52148438 C593.31605907 952.54293554 627.54321382 952.55137806 661.77041149 952.53903532 C665.42375373 952.53775259 669.07709598 952.53650122 672.73043823 952.53526306 C673.62988449 952.53494675 674.52933074 952.53463044 675.45603294 952.53430455 C688.99666932 952.52976811 702.53727874 952.53505057 716.07791138 952.54518127 C731.48507853 952.55665149 746.89216941 952.55368858 762.29932714 952.5320583 C770.90609876 952.52037143 779.51270492 952.51946135 788.11947202 952.534643 C793.88629897 952.54368732 799.65299475 952.53789721 805.41980244 952.52062392 C808.69354313 952.51121298 811.96689876 952.50989606 815.24063885 952.52224785 C835.59436579 952.5930933 855.99814608 951.27668987 875.3125 944.3125 C876.29557129 943.96928711 877.27864258 943.62607422 878.29150391 943.27246094 C922.02108605 927.60369659 957.03973136 895.55371175 977.25 853.75 C980.166581 847.43984779 982.56255765 840.97043429 984.75 834.375 C985.01973633 833.58448242 985.28947266 832.79396484 985.56738281 831.97949219 C991.59900001 812.79880076 992.58467629 793.3150661 992.50120544 773.36883545 C992.50510716 770.75564944 992.51075453 768.14246557 992.51797634 765.52928662 C992.53076579 759.89037861 992.52901008 754.25162851 992.51719666 748.61272049 C992.49967787 740.22715361 992.50536334 731.84170885 992.51536357 723.4561353 C992.53248495 708.4733252 992.52706007 693.49058867 992.51200638 678.50778016 C992.49892047 665.39805608 992.49376521 652.28835744 992.49632454 639.17862701 C992.49648495 638.30679423 992.49664537 637.43496145 992.49681065 636.53670949 C992.4974743 632.9971126 992.49817673 629.45751572 992.49893599 625.91791885 C992.50594875 592.76307956 992.49050575 559.60828502 992.46431253 526.45345712 C992.44119198 497.03210841 992.43581352 467.61080887 992.44604492 438.18945312 C992.44864719 430.65180844 992.45123227 423.11416376 992.45364285 415.57651901 C992.45408902 414.18432024 992.45408902 414.18432024 992.4545442 412.76399623 C992.46216699 388.13635935 992.45574002 363.50872645 992.44494683 338.88109136 C992.44379909 336.22976143 992.44265591 333.5784315 992.44152 330.92710157 C992.44076476 329.16848762 992.43999911 327.40987368 992.43922299 325.65125975 C992.43357679 312.55073336 992.43488634 299.45021972 992.43945122 286.3496933 C992.44456968 271.44924727 992.43865863 256.54884878 992.41855692 241.64841458 C992.40760955 233.32056805 992.40474107 224.99281503 992.41384545 216.66496573 C992.41971422 210.43287218 992.40976532 204.20089507 992.3938458 197.9688212 C992.38982081 195.45842304 992.39076816 192.94801059 992.39736467 190.43761787 C992.43970758 172.80611901 991.65579568 155.6656314 986.1875 138.75 C985.79848511 137.50899536 985.79848511 137.50899536 985.40161133 136.24291992 C977.60020452 111.82963266 965.66966857 89.68322509 948 71 C946.84914139 69.65010154 945.70308069 68.29609379 944.5625 66.9375 C920.35316265 39.43437526 883.55225623 23.08267554 848 17 C847.0269731 16.82981741 846.05394619 16.65963482 845.05143362 16.48429519 C840.02199111 15.7769018 834.99368585 15.85848328 829.92388821 15.86577892 C828.2552347 15.86225058 828.2552347 15.86225058 826.55287102 15.85865095 C822.81058241 15.85197319 819.06832861 15.85241881 815.32603455 15.85282898 C812.62155227 15.84952958 809.91707303 15.84584148 807.21259218 15.8416875 C800.54964485 15.83237178 793.88670415 15.82844118 787.22375112 15.82616853 C779.24229955 15.8232037 771.26085677 15.81450451 763.27940982 15.80575425 C743.98577405 15.78491815 724.69213674 15.77444055 705.39849234 15.76562465 C696.26681704 15.76141611 687.13514239 15.75619434 678.00346765 15.75094012 C646.73141605 15.7330488 615.45936426 15.71805463 584.18730831 15.71061993 C582.22426994 15.71014517 580.26123156 15.70966928 578.29819319 15.70919226 C577.32472056 15.70895589 576.35124793 15.70871951 575.34827612 15.70847597 C570.41634749 15.7072748 565.48441886 15.70605934 560.55249023 15.70483398 C559.57374065 15.70459383 558.59499106 15.70435368 557.58658239 15.70410626 C525.87293035 15.6962182 494.15931576 15.67279712 462.44568007 15.64027804 C428.90009838 15.60594345 395.35453859 15.58626533 361.80893904 15.58297569 C358.12278941 15.58255816 354.4366398 15.58207861 350.75049019 15.58155251 C349.84288598 15.58142931 348.93528177 15.58130612 348.00017441 15.5811792 C333.42231127 15.57885147 318.84449177 15.56321518 304.26664416 15.54271066 C289.59798764 15.52240665 274.92938327 15.5169969 260.2607153 15.52648129 C251.55806361 15.53167881 242.85558616 15.52590205 234.15295972 15.50394662 C228.32418951 15.49035952 222.49553817 15.49158466 216.66676656 15.50434858 C213.35563334 15.51119339 210.045098 15.5098289 206.73395335 15.49478849 C170.24658675 15.33942133 133.64308399 23.52288677 104 46 Z " fill="#000000" transform="translate(0,0)"/>
<path d="M0 0 C2.55606933 -0.00302371 5.11213776 -0.0069143 7.66820461 -0.01159257 C13.20709356 -0.02031422 18.74594553 -0.02168113 24.28483963 -0.01808929 C32.52189869 -0.01276198 40.75892221 -0.01889794 48.99597741 -0.02717223 C64.56661824 -0.04238421 80.13724276 -0.04412016 95.70788946 -0.0416492 C107.73539482 -0.03981395 119.76289486 -0.04158101 131.79039955 -0.04587364 C133.52061891 -0.04647605 135.25083826 -0.04707725 136.98105762 -0.04767724 C139.58859493 -0.04858454 142.19613224 -0.04949321 144.80366954 -0.0504096 C169.0367066 -0.05883503 193.26974165 -0.06317768 217.50277996 -0.05900288 C218.87209809 -0.05876831 218.87209809 -0.05876831 220.26907921 -0.05852901 C224.89551812 -0.05772327 229.52195702 -0.0568775 234.14839592 -0.05601571 C235.52654124 -0.05575908 235.52654124 -0.05575908 236.93252788 -0.05549726 C238.79048969 -0.0551506 240.64845149 -0.05480207 242.5064133 -0.05445167 C271.40954578 -0.04909573 300.31264775 -0.05702297 329.21577454 -0.07548523 C361.71752701 -0.09622204 394.21926058 -0.1069247 426.72102004 -0.10290974 C430.18963198 -0.10251442 433.65824391 -0.10215287 437.12685585 -0.10181236 C438.40786685 -0.10167627 438.40786685 -0.10167627 439.71475686 -0.10153742 C452.58170346 -0.10037363 465.44863092 -0.10700313 478.31557274 -0.11762428 C492.95743165 -0.12969852 507.59924852 -0.13120971 522.24110808 -0.11883412 C530.42429338 -0.11222623 538.60737799 -0.11378851 546.79055515 -0.12742263 C552.91706345 -0.13668998 559.04346203 -0.13009956 565.16996238 -0.11757483 C567.6362061 -0.11493381 570.10246168 -0.11727557 572.56869372 -0.1253107 C616.34666539 -0.25795928 652.97350953 11.82946303 684.73066711 42.76069641 C696.8656515 54.89854013 705.85473276 68.60777796 712.79316711 84.26069641 C713.07386047 84.88685852 713.35455383 85.51302063 713.64375305 86.15815735 C723.46467276 108.37957875 725.09584479 130.55581895 725.05386353 154.55639648 C725.05688755 157.01347066 725.06077829 159.47054388 725.06545609 161.92761546 C725.07357628 167.25021354 725.07554579 172.57275989 725.07195282 177.89535904 C725.06662382 185.81078851 725.07276314 193.72618101 725.08103575 201.64160646 C725.09624502 216.60453242 725.09798396 231.5674414 725.09551273 246.53037348 C725.09367723 258.08877129 725.09544505 269.64716356 725.09973717 281.20556068 C725.10033958 282.86849855 725.10094078 284.53143643 725.10154077 286.1943743 C725.10244806 288.70053795 725.10335673 291.2067016 725.10427312 293.71286525 C725.11269815 317.00280208 725.11704149 340.29273684 725.1128664 363.58267498 C725.11271003 364.45996509 725.11255365 365.33725519 725.11239253 366.24112985 C725.1115868 370.68717157 725.11074103 375.13321329 725.10987923 379.57925501 C725.10970815 380.462188 725.10953706 381.345121 725.10936079 382.25480954 C725.10901413 384.0403132 725.1086656 385.82581686 725.1083152 387.61132051 C725.10295938 415.3866296 725.11088631 443.16190692 725.12934875 470.93721008 C725.15008748 502.17325761 725.16078786 533.40928547 725.15677327 564.64534026 C725.15637795 567.97914461 725.1560164 571.31294896 725.15567589 574.64675331 C725.15558516 575.46756503 725.15549442 576.28837675 725.15540094 577.13406156 C725.15423735 589.49865073 725.16086512 601.86321998 725.17148781 614.22780418 C725.18356444 628.29873795 725.1850705 642.36962795 725.17269764 656.44056239 C725.16609185 664.30381214 725.16764712 672.16695709 725.18128616 680.03019835 C725.1905586 685.91853454 725.18395801 691.80678654 725.17143836 697.69511888 C725.16879885 700.06445879 725.17113427 702.43381108 725.17917422 704.80313881 C725.31625489 748.2427298 712.94431398 784.7286042 682.29316711 816.19819641 C670.1553234 828.3331808 656.44608556 837.32226206 640.79316711 844.26069641 C640.167005 844.54138977 639.5408429 844.82208313 638.89570618 845.11128235 C616.36187185 855.07027524 593.91704176 856.56226313 569.58633423 856.52139282 C567.03026489 856.52441654 564.47419646 856.52830712 561.91812962 856.53298539 C556.37924067 856.54170704 550.8403887 856.54307396 545.3014946 856.53948212 C537.06443554 856.5341548 528.82741202 856.54029076 520.59035682 856.54856505 C505.01971599 856.56377703 489.44909147 856.56551298 473.87844477 856.56304202 C461.85093941 856.56120677 449.82343937 856.56297383 437.79593468 856.56726646 C436.06571532 856.56786888 434.33549597 856.56847007 432.60527661 856.56907007 C429.9977393 856.56997736 427.39020199 856.57088603 424.78266469 856.57180242 C400.54962763 856.58022785 376.31659258 856.5845705 352.08355427 856.5803957 C351.17067552 856.58023932 350.25779676 856.58008295 349.31725502 856.57992183 C344.69081611 856.57911609 340.06437721 856.57827032 335.43793831 856.57740853 C334.05979299 856.5771519 334.05979299 856.5771519 332.65380634 856.57689008 C330.79584454 856.57654342 328.93788274 856.5761949 327.07992093 856.5758445 C298.17678845 856.57048855 269.27368648 856.57841579 240.37055969 856.59687805 C207.86880722 856.61761486 175.36707364 856.62831752 142.86531419 856.62430257 C139.39670225 856.62390724 135.92809032 856.62354569 132.45947838 856.62320518 C131.17846738 856.62306909 131.17846738 856.62306909 129.87157737 856.62293024 C117.00463077 856.62176645 104.13770331 856.62839595 91.27076149 856.63901711 C76.62890257 856.65109134 61.98708571 856.65260253 47.34522615 856.64022694 C39.16204085 856.63361905 30.97895624 856.63518133 22.79577908 856.64881545 C16.66927078 856.6580828 10.5428722 856.65149239 4.41637184 856.63896766 C1.95012813 856.63632663 -0.51612745 856.63866839 -2.98235949 856.64670352 C-46.76033116 856.7793521 -83.38717531 844.69192979 -115.14433289 813.76069641 C-127.27931727 801.6228527 -136.26839854 787.91361486 -143.20683289 772.26069641 C-143.48752625 771.6345343 -143.7682196 771.00837219 -144.05741882 770.36323547 C-153.87833854 748.14181407 -155.50951056 725.96557387 -155.4675293 701.96499634 C-155.47055332 699.50792217 -155.47444406 697.05084894 -155.47912186 694.59377736 C-155.48724206 689.27117928 -155.48921156 683.94863293 -155.48561859 678.62603378 C-155.4802896 670.71060432 -155.48642891 662.79521181 -155.49470152 654.87978636 C-155.50991079 639.9168604 -155.51164974 624.95395142 -155.5091785 609.99101935 C-155.507343 598.43262153 -155.50911082 586.87422926 -155.51340294 575.31583214 C-155.51400535 573.65289427 -155.51460655 571.9899564 -155.51520654 570.32701853 C-155.51611384 567.82085487 -155.51702251 565.31469122 -155.51793889 562.80852757 C-155.52636392 539.51859074 -155.53070726 516.22865599 -155.52653217 492.93871784 C-155.5263758 492.06142774 -155.52621942 491.18413763 -155.52605831 490.28026297 C-155.52525257 485.83422125 -155.5244068 481.38817953 -155.523545 476.94213782 C-155.52337392 476.05920482 -155.52320283 475.17627182 -155.52302656 474.26658328 C-155.5226799 472.48107962 -155.52233137 470.69557597 -155.52198097 468.91007231 C-155.51662515 441.13476323 -155.52455208 413.3594859 -155.54301453 385.58418274 C-155.56375325 354.34813521 -155.57445363 323.11210735 -155.57043904 291.87605256 C-155.57004372 288.54224821 -155.56968217 285.20844386 -155.56934166 281.87463951 C-155.56925093 281.05382779 -155.5691602 280.23301607 -155.56906671 279.38733127 C-155.56790312 267.02274209 -155.57453089 254.65817284 -155.58515358 242.29358864 C-155.59723021 228.22265488 -155.59873628 214.15176487 -155.58636341 200.08083043 C-155.57975762 192.21758069 -155.58131289 184.35443573 -155.59495193 176.49119447 C-155.60422437 170.60285829 -155.59762378 164.71460628 -155.58510413 158.82627394 C-155.58246462 156.45693403 -155.58480004 154.08758175 -155.59283999 151.71825401 C-155.72992067 108.27866302 -143.35797975 71.79278862 -112.70683289 40.32319641 C-100.56898917 28.18821202 -86.85975133 19.19913076 -71.20683289 12.26069641 C-70.26758972 11.83965637 -70.26758972 11.83965637 -69.30937195 11.41011047 C-46.77553762 1.45111758 -24.33070753 -0.0408703 0 0 Z M-7.20683289 174.26069641 C-6.68907005 179.22132 -5.64725106 182.99831905 -3.40629578 187.44526672 C-2.81800491 188.62469849 -2.22971405 189.80413025 -1.62359619 191.01930237 C-0.97581501 192.29260489 -0.32777219 193.56577434 0.32051086 194.83882141 C0.99097562 196.17294201 1.66060195 197.50748425 2.32943726 198.84242249 C4.09379524 202.35775267 5.87038664 205.86676313 7.64936829 209.37471008 C9.0715114 212.18399663 10.4850151 214.99758101 11.89797115 217.81149673 C13.61915396 221.23878206 15.34428084 224.66407593 17.07051086 228.08882141 C17.38561049 228.71410988 17.70071011 229.33939835 18.0253582 229.98363495 C21.35801461 236.58825788 24.73376243 243.16633598 28.20053482 249.70167732 C34.84073273 262.22505417 41.16979398 274.89980466 47.49040198 287.58670378 C49.09355076 290.80317561 50.69942844 294.01828439 52.30508423 297.23350525 C56.36602767 305.36636429 60.42353307 313.50093653 64.48066711 321.63569641 C68.87480805 330.44613089 73.26959917 339.25623794 77.66830665 348.06439364 C79.56489353 351.86248878 81.45953926 355.66154338 83.35259473 359.46139979 C84.81382839 362.39319302 86.27772551 365.32365621 87.74116516 368.25434875 C88.50738945 369.79454681 88.50738945 369.79454681 89.28909302 371.36585999 C89.78069916 372.34914276 90.2723053 373.33242554 90.77880859 374.34550476 C91.49498887 375.78525225 91.49498887 375.78525225 92.22563744 377.25408554 C93.3591673 379.42826014 94.55811821 381.56874343 95.79589272 383.68530655 C96.45606581 384.82406612 97.1162389 385.9628257 97.79641724 387.13609314 C98.414698 388.16470774 99.03297876 389.19332233 99.66999531 390.25310707 C101.09394298 394.06610329 100.45107454 395.62324002 98.79316711 399.26069641 C97.889061 401.10959341 96.93825152 402.93616253 95.94941711 404.74116516 C95.08280457 406.3371051 95.08280457 406.3371051 94.19868469 407.96528625 C93.56986389 409.11464661 92.94104309 410.26400696 92.29316711 411.44819641 C90.92799977 413.96270907 89.56838816 416.48018478 88.21113586 418.99897766 C87.85484604 419.66010559 87.49855621 420.32123352 87.13146973 421.00239563 C82.84325326 428.98856222 78.72939765 437.06378501 74.60566711 445.13569641 C69.82219809 454.49204384 65.01622312 463.82052788 59.91816711 473.01069641 C53.8282396 483.99060855 48.16639397 495.18597388 42.46269226 506.36940002 C37.66468583 515.77240808 32.85523071 525.15501853 27.73066711 534.38569641 C22.32313366 544.12768446 17.24261013 554.03008911 12.16816711 563.94819641 C11.75427734 564.75712341 11.34038757 565.56605042 10.91395569 566.39949036 C10.09313157 568.00398078 9.27233044 569.60848296 8.45155334 571.21299744 C8.0551062 571.98799591 7.65865906 572.76299438 7.25019836 573.56147766 C6.85971313 574.32495514 6.46922791 575.08843262 6.06690979 575.87504578 C3.02825647 581.8119961 -0.0374644 587.73410662 -3.14433289 593.63569641 C-3.51445496 594.34041077 -3.88457703 595.04512512 -4.26591492 595.77119446 C-5.92517123 598.91089097 -7.63602186 601.99921483 -9.44120789 605.05757141 C-11.18603558 608.22296679 -11.72557558 609.73324608 -11.20683289 613.26069641 C-9.30128256 615.16624673 -5.90807927 614.43849365 -3.37968445 614.46943665 C-2.66580566 614.47922043 -1.95192688 614.48900421 -1.21641541 614.49908447 C1.15655129 614.52910592 3.52946126 614.55044455 5.90254211 614.56929016 C6.7117939 614.57586199 7.52104568 614.58243382 8.35482025 614.58920479 C12.63991548 614.6218311 16.92498553 614.64627149 21.2101593 614.66572571 C24.75870466 614.68353185 28.30645427 614.7183345 31.85469055 614.76826477 C36.13532218 614.82843761 40.41521647 614.85919769 44.69625092 614.86889839 C46.32778238 614.87746143 47.95929372 614.8963008 49.5905838 614.92564201 C51.87740858 614.96455236 54.16136343 614.96559368 56.44844055 614.9577179 C57.74892334 614.96802536 59.04940613 614.97833282 60.38929749 614.98895264 C65.12772904 613.97516755 66.08926457 612.20287828 68.79316711 608.26069641 C70.27637331 605.86109768 70.27637331 605.86109768 71.44941711 603.40913391 C72.13656799 602.03108582 72.13656799 602.03108582 72.83760071 600.62519836 C73.31793762 599.63866272 73.79827454 598.65212708 74.29316711 597.63569641 C74.81088684 596.58664124 75.32860657 595.53758606 75.86201477 594.45674133 C80.31326312 585.37851989 84.57264658 576.21287952 88.79951477 567.02851868 C92.6560264 558.65980855 96.63285982 550.3569693 100.66816711 542.07319641 C107.29155757 528.45598083 113.56020957 514.68936517 119.79051208 500.8888855 C123.79176698 492.03558032 127.85633969 483.21133008 131.91816711 474.38569641 C132.63603001 472.8258043 133.35388504 471.26590856 134.07173157 469.70600891 C134.41353958 468.9634082 134.7553476 468.2208075 135.10751343 467.45570374 C135.76849882 466.01857409 136.42878841 464.58112419 137.08831787 463.14332581 C138.51103656 460.04182355 139.94152473 456.94524412 141.39375305 453.8573761 C141.85298157 452.87414368 142.31221008 451.89091125 142.78535461 450.87788391 C143.17835754 450.04627747 143.57136047 449.21467102 143.97627258 448.35786438 C144.97464672 446.16990241 144.97464672 446.16990241 144.79316711 443.26069641 C145.45316711 443.26069641 146.11316711 443.26069641 146.79316711 443.26069641 C146.9517218 443.79291809 147.11027649 444.32513977 147.27363586 444.87348938 C149.21038935 451.04889742 151.82856595 456.64403449 154.79316711 462.38569641 C155.78834606 464.34447444 156.78178445 466.30413759 157.77363586 468.26460266 C158.2781427 469.26120911 158.78264954 470.25781555 159.30244446 471.28462219 C161.63180163 475.93494382 163.87277476 480.62596841 166.10566711 485.32319641 C167.02614842 487.25683377 167.94672369 489.19042641 168.86738586 491.12397766 C169.3409552 492.11865051 169.81452454 493.11332336 170.30244446 494.13813782 C179.88514934 514.2106559 189.63468768 534.20464565 199.36424255 554.20628357 C201.7689473 559.15084642 204.16887866 564.09770154 206.56625366 569.04582214 C208.26811123 572.55724799 209.97229571 576.06754165 211.67686462 579.57765198 C212.49129632 581.25601198 213.30478472 582.93483012 214.11723328 584.614151 C220.50923355 601.2923489 220.50923355 601.2923489 230.79316711 614.26069641 C233.26505794 614.35353987 235.70848223 614.386528 238.18037415 614.3742218 C239.32197998 614.37444084 239.32197998 614.37444084 240.48664856 614.37466431 C243.008121 614.37396634 245.52952004 614.36617935 248.05097961 614.35835266 C249.79690002 614.35648807 251.54282095 614.35506436 253.28874207 614.35406494 C257.88862039 614.350243 262.48846725 614.34041546 267.08833313 614.32936096 C271.78030471 614.3191399 276.47228137 614.31456583 281.16426086 614.30952454 C290.37391012 614.29879292 299.583536 614.28172035 308.79316711 614.26069641 C309.9367025 612.44074009 309.9367025 612.44074009 310.79316711 610.26069641 C309.83977793 607.73483416 308.83648496 605.60610197 307.54316711 603.26069641 C306.7845455 601.81971584 306.02677173 600.37828867 305.26972961 598.93647766 C304.86399719 598.17544739 304.45826477 597.41441711 304.04023743 596.63032532 C302.35765552 593.43315617 300.7587883 590.19722272 299.15864563 586.95820618 C295.18723097 578.922364 291.09188309 570.95894124 286.8952179 563.03877258 C282.97782349 555.63849676 279.13345329 548.2011466 275.29316711 540.76069641 C271.13369922 532.70415635 266.96639928 524.65250774 262.73066711 516.63569641 C258.14375134 507.95421306 253.62529007 499.2378157 249.1098175 490.51899719 C245.30691611 483.17713443 241.49453303 475.84035777 237.66816711 468.51069641 C236.93533508 467.10690735 236.93533508 467.10690735 236.18769836 465.67475891 C234.72312664 462.86992924 233.25821693 460.06527639 231.79316711 457.26069641 C221.31974357 437.21117074 221.31974357 437.21117074 216.27754211 427.47944641 C215.68191467 426.33000549 215.08628723 425.18056458 214.47261047 423.99629211 C213.27916381 421.69094263 212.08724377 419.38480212 210.89692688 417.07783508 C208.19416404 411.84784302 205.46943476 406.63515875 202.64863586 401.46772766 C202.17377747 400.59148743 201.69891907 399.71524719 201.20967102 398.81245422 C200.33295956 397.20067095 199.44650534 395.5941334 198.54853821 393.99409485 C195.72212261 388.77994815 195.72212261 388.77994815 196.05879211 386.31929016 C196.87735939 384.02468934 197.85108809 381.90291282 198.94551086 379.72554016 C199.38677307 378.84422424 199.82803528 377.96290833 200.28266907 377.05488586 C200.76050842 376.11217834 201.23834778 375.16947083 201.73066711 374.19819641 C202.22719788 373.2123053 202.72372864 372.22641418 203.23530579 371.21064758 C207.09473201 363.5746945 211.05669951 355.99624817 215.06269836 348.43647766 C218.34591948 342.23183977 221.56717488 335.99522255 224.79316711 329.76069641 C228.74720653 322.12223515 232.71186643 314.49029569 236.73066711 306.88569641 C240.96648023 298.86892259 245.13334569 290.81705617 249.29316711 282.76069641 C253.83278518 273.96878142 258.39259654 265.18871211 263.01582336 256.44038391 C266.64413107 249.56569562 270.21950918 242.66392038 273.79316711 235.76069641 C277.79043965 228.03976144 281.79896063 220.3255748 285.85566711 212.63569641 C286.23698792 211.90922913 286.61830872 211.18276184 287.01118469 210.4342804 C289.42634361 205.83523839 291.87159572 201.25355847 294.33222961 196.67866516 C295.54866117 194.39366099 296.76480926 192.1085059 297.98066711 189.82319641 C298.57049377 188.73764465 299.16032043 187.6520929 299.76802063 186.53364563 C300.30612366 185.51673645 300.84422668 184.49982727 301.39863586 183.45210266 C302.12796326 182.0938739 302.12796326 182.0938739 302.87202454 180.70820618 C303.89188566 177.99839759 303.87653053 176.90466766 302.79316711 174.26069641 C300.91976009 172.38728939 297.74094982 173.08385655 295.2414093 173.05195618 C294.55679123 173.04217239 293.87217316 173.03238861 293.16680908 173.02230835 C290.89124004 172.99228861 288.61573017 172.97094852 286.34004211 172.95210266 C285.17581097 172.94224492 285.17581097 172.94224492 283.98806 172.93218803 C279.87802961 172.89956211 275.76802547 172.87512192 271.65791321 172.85566711 C268.25485978 172.83786285 264.85263643 172.80306365 261.4499054 172.75312805 C257.3443331 172.69294218 253.23952976 172.66219342 249.13353729 172.65249443 C247.56898817 172.64393337 246.00445993 172.62509877 244.44016266 172.59575081 C242.24670048 172.5568225 240.0562288 172.555801 237.86250305 172.56367493 C236.61531494 172.55336746 235.36812683 172.54306 234.08314514 172.53244019 C229.44466902 173.55919449 228.45877974 175.39443338 225.79316711 179.26069641 C224.20558413 181.95134857 224.20558413 181.95134857 222.91816711 184.76850891 C222.41478821 185.82296204 221.9114093 186.87741516 221.39277649 187.96382141 C220.8649054 189.09304016 220.3370343 190.22225891 219.79316711 191.38569641 C219.22920227 192.57421204 218.66523743 193.76272766 218.08418274 194.98725891 C213.54827881 204.55704869 209.10466405 214.17080679 204.66572571 223.7858429 C200.99916047 231.71469414 197.23491234 239.5907049 193.41816711 247.44819641 C187.88983645 258.84786248 182.6131938 270.3490611 177.39717102 281.89399719 C172.72662546 292.2297625 167.96778545 302.52098891 163.1710968 312.79878235 C159.91475284 319.79366361 156.73017396 326.81217946 153.70722961 333.91133118 C151.88867881 338.16518471 151.88867881 338.16518471 150.79316711 339.26069641 C150.35150208 338.29696106 149.90983704 337.33322571 149.45478821 336.34028625 C130.81533821 295.67601212 130.81533821 295.67601212 111.60542297 255.2792511 C107.85583538 247.51851628 104.21048037 239.71457533 100.60566711 231.88569641 C92.88909798 215.14458341 84.82383471 198.56583175 76.66297913 182.03712463 C75.81912178 180.31370396 75.00029539 178.57809715 74.18232727 176.84223938 C73.05358274 174.15102306 73.05358274 174.15102306 70.79316711 173.26069641 C68.3929224 173.16276518 66.02175701 173.12436352 63.62129211 173.13130188 C62.88294128 173.12954956 62.14459045 173.12779724 61.38386536 173.12599182 C58.93694221 173.12158129 56.49009103 173.12450849 54.04316711 173.12788391 C52.34687791 173.12721064 50.6505888 173.12624042 48.95429993 173.12498474 C45.39667341 173.12350885 41.83907197 173.12565884 38.28144836 173.13032532 C33.71471663 173.13602254 29.14804366 173.13274296 24.58131409 173.12675285 C21.07783056 173.12314431 17.57436102 173.12428718 14.07087708 173.12688065 C12.38671359 173.1275491 10.70254885 173.12672432 9.01838684 173.12440109 C6.66723754 173.12186979 4.31618424 173.12572194 1.96504211 173.13130188 C1.26471863 173.12927765 0.56439514 173.12725342 -0.15715027 173.12516785 C-3.8049748 173.09669958 -3.8049748 173.09669958 -7.20683289 174.26069641 Z M502.79316711 175.26069641 C502.47986673 177.26609385 502.47986673 177.26609385 502.51469421 179.6013031 C502.50353073 180.51278107 502.49236725 181.42425903 502.48086548 182.36335754 C502.4776252 183.86739136 502.4776252 183.86739136 502.47431946 185.40180969 C502.46427383 186.45548737 502.45422821 187.50916504 502.44387817 188.59477234 C502.41289774 192.09017879 502.39596977 195.58550815 502.37910461 199.08100891 C502.36040492 201.49954397 502.34083243 203.91807242 502.32041931 206.33659363 C502.26896548 212.7119305 502.22941078 219.08728856 502.192276 225.46272278 C502.15231925 231.96444495 502.10118902 238.46607801 502.05097961 244.96772766 C501.9540635 257.73198696 501.8693299 270.49629728 501.79316711 283.26069641 C500.82441147 283.25480499 499.85565582 283.24891357 498.85754395 283.24284363 C495.20797937 283.22223321 491.55841976 283.20947613 487.90881348 283.19889832 C486.33961111 283.19329671 484.77041445 283.1856627 483.20123291 283.17582703 C455.70350001 283.00798735 429.52406166 287.90998043 404.79316711 300.26069641 C404.12849426 300.58296204 403.46382141 300.90522766 402.77900696 301.23725891 C389.10643486 307.89261926 377.83965512 316.82584281 366.79316711 327.26069641 C366.04551086 327.9555011 365.29785461 328.65030579 364.52754211 329.36616516 C335.87086719 356.8705612 318.64114612 400.0955914 317.6320343 439.58930969 C317.61254255 441.08648132 317.59875386 442.58373575 317.59004211 444.08100891 C317.5830278 444.89409012 317.57601349 445.70717133 317.56878662 446.54489136 C317.55136939 449.15855002 317.54493304 451.77198182 317.54316711 454.38569641 C317.54249237 455.28019501 317.54181763 456.1746936 317.54112244 457.09629822 C317.55779209 471.01327405 318.07846872 484.57067102 320.79316711 498.26069641 C320.96477356 499.14128723 321.13638 500.02187805 321.31318665 500.92915344 C326.52580001 526.787256 336.40951136 552.11773022 353.79316711 572.26069641 C354.60527649 573.22233704 355.41738586 574.18397766 356.25410461 575.17475891 C380.03394953 602.40530687 415.41700638 616.85230596 450.93305969 620.07978821 C493.81621339 622.79224377 538.92615369 616.52774457 576.79316711 595.26069641 C577.12316711 594.93069641 577.45316711 594.60069641 577.79316711 594.26069641 C577.70061422 591.04619341 577.54720005 587.84956635 577.36750793 584.63946533 C576.84796818 573.8718581 576.6736607 563.12516371 576.64167786 552.34762573 C576.63918282 551.53125684 576.63668777 550.71488794 576.63411713 549.87378059 C576.61960435 544.58610941 576.61262993 539.29844381 576.60721755 534.01075661 C576.60118355 529.17061591 576.58953877 524.33048806 576.57858276 519.49035645 C576.56036644 511.13229277 576.54546939 502.77422872 576.5328064 494.41615486 C576.51440439 482.33113648 576.48974629 470.24613674 576.46343249 458.16113328 C576.42079716 438.54597085 576.38163728 418.93080333 576.34541321 399.31562805 C576.34325041 398.14517895 576.3410876 396.97472985 576.33885926 395.76881259 C576.31911628 385.06691673 576.29960644 374.36502045 576.28014374 363.66312408 C576.26713189 356.51115915 576.25405844 349.35919432 576.24092102 342.20722961 C576.23876215 341.03125013 576.23660328 339.85527065 576.23437899 338.64365543 C576.19832228 319.0676782 576.15838803 299.49171079 576.11561823 279.91574711 C576.08944334 267.84994682 576.06678909 255.78414956 576.04863465 243.71833449 C576.03600633 235.47309633 576.01989511 227.22786986 576.0009855 218.98264373 C575.99019225 214.22095106 575.98108628 209.45926978 575.97628975 204.69756699 C575.97188194 200.34687759 575.96297029 195.99622251 575.95034653 191.64554941 C575.94658692 190.06483598 575.94454836 188.48411742 575.94432634 186.90339953 C575.94379125 184.76928663 575.93722875 182.63527864 575.929039 180.50118351 C575.92586505 178.7168367 575.92586505 178.7168367 575.92262697 176.89644247 C576.09260419 174.33627807 576.09260419 174.33627807 574.79316711 173.26069641 C572.62597125 173.15586509 570.45531825 173.12212796 568.28559875 173.11543274 C567.60591537 173.11207413 566.92623199 173.10871552 566.22595215 173.10525513 C563.96839087 173.09571896 561.71090355 173.09380068 559.45332336 173.09272766 C557.89012623 173.0895169 556.3269294 173.08615297 554.76373291 173.0826416 C551.48260298 173.07664364 548.20149941 173.07480238 544.92036438 173.07539368 C540.70891267 173.07549533 536.49762944 173.06184277 532.28621769 173.04462147 C529.05637836 173.03352131 525.82658001 173.03147386 522.59672356 173.0320034 C521.04373532 173.0308203 519.49074612 173.02638011 517.93777657 173.01867104 C515.76843989 173.00891103 513.59947219 173.01173313 511.43013 173.01777649 C509.57600243 173.01563896 509.57600243 173.01563896 507.68441772 173.01345825 C504.66545743 172.95888014 504.66545743 172.95888014 502.79316711 175.26069641 Z " fill="#000000" transform="translate(227.2068328857422,55.73930358886719)"/>
<path d="M0 0 C0.89001709 -0.01393799 1.78003418 -0.02787598 2.69702148 -0.04223633 C10.11233538 0.0102 15.21533876 1.47570969 22.8125 3.375 C22.8125 70.365 22.8125 137.355 22.8125 206.375 C2.94773514 213.82428682 -19.77610306 213.11229465 -39.28515625 204.6484375 C-61.22962921 194.5709217 -73.12922236 178.02439412 -81.46484375 156 C-92.69357562 122.10194152 -92.2356565 79.2907679 -76.375 47 C-66.23030077 27.32709077 -50.59904472 11.69996866 -29.5 4.37109375 C-19.58144941 1.38851073 -10.31832661 0.10238692 0 0 Z " fill="#000000" transform="translate(707.1875,400.625)"/>
</svg>
