<?xml version="1.0" encoding="UTF-8"?>
<svg version="1.1" xmlns="http://www.w3.org/2000/svg" width="800" height="800">
<path d="M0 0 C1.23600952 0.00182281 2.47201904 0.00364563 3.7454834 0.00552368 C21.8558967 0.05049357 39.58361199 0.47625036 57.5 3.3125 C58.61407227 3.47878906 59.72814453 3.64507812 60.87597656 3.81640625 C97.24516415 9.33463083 132.5657034 19.83853053 166.00585938 35.17041016 C168.29360104 36.21798802 170.59006198 37.24270218 172.890625 38.26171875 C198.38621521 49.71116901 222.58897299 65.00138411 244.5 82.3125 C245.304375 82.93769531 246.10875 83.56289062 246.9375 84.20703125 C266.41249473 99.53110563 285.48232755 116.35487501 301.5 135.3125 C302.38667391 136.32539941 303.27483301 137.33699966 304.1640625 138.34765625 C322.79437501 159.61882401 338.63119486 183.17219301 352.20654297 207.95605469 C353.39347732 210.1184349 354.60205455 212.26700883 355.81640625 214.4140625 C376.18211475 250.96396152 388.77130204 292.43020735 395.75 333.5 C395.87542175 334.23210693 396.00084351 334.96421387 396.13006592 335.71850586 C399.74790116 357.08302171 400.87879726 378.15345743 400.8125 399.8125 C400.80976578 401.66651428 400.80976578 401.66651428 400.80697632 403.5579834 C400.76200643 421.6683967 400.33624964 439.39611199 397.5 457.3125 C397.25056641 458.9836084 397.25056641 458.9836084 396.99609375 460.68847656 C391.48508071 497.01013474 381.01691223 532.33798254 365.68505859 565.72802734 C364.55977619 568.18213521 363.45980758 570.64622458 362.36328125 573.11328125 C350.93855209 598.42491993 335.63984817 622.4859746 318.5 644.3125 C317.860625 645.13234375 317.22125 645.9521875 316.5625 646.796875 C301.18816485 666.26276709 284.45660475 685.24927177 265.5 701.3125 C264.48590881 702.2006022 263.4729921 703.0900464 262.4609375 703.98046875 C241.09208342 722.693656 217.3846006 738.65430617 192.5 752.3125 C191.69594727 752.75899902 190.89189453 753.20549805 190.06347656 753.66552734 C152.0056915 774.69196911 110.08268299 788.29486679 67.3125 795.5625 C66.58039307 795.68792175 65.84828613 795.81334351 65.09399414 795.94256592 C43.72947829 799.56040116 22.65904257 800.69129726 1 800.625 C-0.23600952 800.62317719 -1.47201904 800.62135437 -2.7454834 800.61947632 C-20.8558967 800.57450643 -38.58361199 800.14874964 -56.5 797.3125 C-58.1711084 797.06306641 -58.1711084 797.06306641 -59.87597656 796.80859375 C-96.24516415 791.29036917 -131.5657034 780.78646947 -165.00585938 765.45458984 C-167.29360104 764.40701198 -169.59006198 763.38229782 -171.890625 762.36328125 C-197.38431701 750.91468343 -221.59380297 735.62715813 -243.5 718.3125 C-244.31597656 717.67570313 -245.13195312 717.03890625 -245.97265625 716.3828125 C-265.44629829 701.01375745 -284.43526869 684.27087856 -300.5 665.3125 C-301.3881022 664.29840881 -302.2775464 663.2854921 -303.16796875 662.2734375 C-321.881156 640.90458342 -337.84180617 617.1971006 -351.5 592.3125 C-352.16974854 591.1064209 -352.16974854 591.1064209 -352.85302734 589.87597656 C-373.87946911 551.8181915 -387.48236679 509.89518299 -394.75 467.125 C-394.87542175 466.39289307 -395.00084351 465.66078613 -395.13006592 464.90649414 C-398.74790116 443.54197829 -399.87879726 422.47154257 -399.8125 400.8125 C-399.81067719 399.57649048 -399.80885437 398.34048096 -399.80697632 397.0670166 C-399.76200643 378.9566033 -399.33624964 361.22888801 -396.5 343.3125 C-396.25056641 341.6413916 -396.25056641 341.6413916 -395.99609375 339.93652344 C-390.48508071 303.61486526 -380.01691223 268.28701746 -364.68505859 234.89697266 C-363.55977619 232.44286479 -362.45980758 229.97877542 -361.36328125 227.51171875 C-349.93855209 202.20008007 -334.63984817 178.1390254 -317.5 156.3125 C-316.860625 155.49265625 -316.22125 154.6728125 -315.5625 153.828125 C-300.18816485 134.36223291 -283.45660475 115.37572823 -264.5 99.3125 C-263.48590881 98.4243978 -262.4729921 97.5349536 -261.4609375 96.64453125 C-240.09208342 77.931344 -216.3846006 61.97069383 -191.5 48.3125 C-190.69594727 47.86600098 -189.89189453 47.41950195 -189.06347656 46.95947266 C-151.0056915 25.93303089 -109.08268299 12.33013321 -66.3125 5.0625 C-65.58039307 4.93707825 -64.84828613 4.81165649 -64.09399414 4.68243408 C-42.72947829 1.06459884 -21.65904257 -0.06629726 0 0 Z M-165.5 234.3125 C-165.5 343.8725 -165.5 453.4325 -165.5 566.3125 C-143.72 566.3125 -121.94 566.3125 -99.5 566.3125 C-99.5 456.7525 -99.5 347.1925 -99.5 234.3125 C-121.28 234.3125 -143.06 234.3125 -165.5 234.3125 Z M-32.5 234.3125 C-32.5 256.0925 -32.5 277.8725 -32.5 300.3125 C33.17 300.3125 98.84 300.3125 166.5 300.3125 C166.5 278.5325 166.5 256.7525 166.5 234.3125 C100.83 234.3125 35.16 234.3125 -32.5 234.3125 Z M-32.5 367.3125 C-32.5 389.0925 -32.5 410.8725 -32.5 433.3125 C33.17 433.3125 98.84 433.3125 166.5 433.3125 C166.5 411.5325 166.5 389.7525 166.5 367.3125 C100.83 367.3125 35.16 367.3125 -32.5 367.3125 Z M-32.5 500.3125 C-32.5 522.0925 -32.5 543.8725 -32.5 566.3125 C33.17 566.3125 98.84 566.3125 166.5 566.3125 C166.5 544.5325 166.5 522.7525 166.5 500.3125 C100.83 500.3125 35.16 500.3125 -32.5 500.3125 Z " fill="#91003A" transform="translate(399.5,-0.3125)"/>
</svg>
