<?xml version="1.0" encoding="UTF-8"?>
<svg version="1.1" xmlns="http://www.w3.org/2000/svg" width="1080" height="608">
<path d="M0 0 C7.92 0 15.84 0 24 0 C29.61 16.83 35.22 33.66 41 51 C42.50471155 47.99057689 43.55500537 45.49070951 44.51220703 42.32324219 C44.7923465 41.40258972 45.07248596 40.48193726 45.3611145 39.53338623 C45.65702484 38.54783752 45.95293518 37.56228882 46.2578125 36.546875 C46.56572723 35.53151672 46.87364197 34.51615845 47.19088745 33.47003174 C48.17229463 30.23102981 49.14870616 26.99054642 50.125 23.75 C50.79003581 21.55198383 51.45539652 19.35406594 52.12109375 17.15625 C53.75177949 11.77214046 55.37570112 6.38605635 57 1 C66.57 1 76.14 1 86 1 C82.01225848 13.33732406 78.01094307 25.67019927 74 38 C73.61154907 39.19411499 73.22309814 40.38822998 72.82287598 41.61853027 C70.47222544 48.84288945 68.11818923 56.06613513 65.75925541 63.28779411 C64.67558648 66.60541428 63.59293983 69.92335971 62.51278687 73.24212646 C61.28927671 77.00107557 60.0608748 80.75841585 58.83203125 84.515625 C58.45962311 85.66187347 58.08721497 86.80812195 57.70352173 87.98910522 C57.19056046 89.5534581 57.19056046 89.5534581 56.66723633 91.14941406 C56.36811844 92.06595764 56.06900055 92.98250122 55.76081848 93.92681885 C55 96 55 96 54 97 C52.21928754 97.08726223 50.4351686 97.10699041 48.65234375 97.09765625 C47.57275391 97.09443359 46.49316406 97.09121094 45.38085938 97.08789062 C44.24455078 97.07951172 43.10824219 97.07113281 41.9375 97.0625 C40.79732422 97.05798828 39.65714844 97.05347656 38.48242188 97.04882812 C35.65489649 97.03699747 32.8274736 97.0205141 30 97 C23.8471762 80.05170721 17.85829467 63.05228322 12 46 C9.34094958 52.50564053 6.87021262 59.04681603 4.58203125 65.69140625 C3.96160612 67.47721965 3.34116292 69.26302677 2.72070312 71.04882812 C1.75869515 73.82694479 0.79767071 76.60539915 -0.1628418 79.3840332 C-1.09966626 82.09149133 -2.03991584 84.79774156 -2.98046875 87.50390625 C-3.26899216 88.34232559 -3.55751556 89.18074493 -3.8547821 90.04457092 C-5.88698406 95.88698406 -5.88698406 95.88698406 -7 97 C-8.78071246 97.08726223 -10.5648314 97.10699041 -12.34765625 97.09765625 C-13.42724609 97.09443359 -14.50683594 97.09121094 -15.61914062 97.08789062 C-16.75544922 97.07951172 -17.89175781 97.07113281 -19.0625 97.0625 C-20.20267578 97.05798828 -21.34285156 97.05347656 -22.51757812 97.04882812 C-25.34510351 97.03699747 -28.1725264 97.0205141 -31 97 C-38.31324636 75.71125066 -45.57958657 54.40619797 -52.74047852 33.06567383 C-53.45288299 30.94533356 -54.16738839 28.82569796 -54.8840332 26.70678711 C-55.89341116 23.72052442 -56.89493212 20.7317354 -57.89453125 17.7421875 C-58.19494827 16.85840424 -58.4953653 15.97462097 -58.80488586 15.0640564 C-59.08043808 14.23451447 -59.3559903 13.40497253 -59.63989258 12.55029297 C-59.87968338 11.8367868 -60.11947418 11.12328064 -60.36653137 10.38815308 C-61.18092275 7.317928 -61.55078924 4.14447532 -62 1 C-52.76 1 -43.52 1 -34 1 C-30.625 8.875 -30.625 8.875 -29.46606445 12.74194336 C-29.07599968 14.03248878 -29.07599968 14.03248878 -28.67805481 15.34910583 C-28.40917953 16.25354935 -28.14030426 17.15799286 -27.86328125 18.08984375 C-27.43682564 19.5066317 -27.43682564 19.5066317 -27.00175476 20.95204163 C-26.1015026 23.94605915 -25.20691974 26.94173558 -24.3125 29.9375 C-23.70024452 31.97732605 -23.08761815 34.01704083 -22.47460938 36.05664062 C-20.97877916 41.03648085 -19.48759022 46.01769249 -18 51 C-16.22319706 48.33479559 -15.37509699 46.46025623 -14.41186523 43.46850586 C-14.11493271 42.55423325 -13.81800018 41.63996063 -13.5120697 40.69798279 C-13.19742264 39.71354691 -12.88277557 38.72911102 -12.55859375 37.71484375 C-12.23085464 36.70281387 -11.90311554 35.690784 -11.56544495 34.64808655 C-10.51842635 31.41261708 -9.4776755 28.17517529 -8.4375 24.9375 C-7.39270747 21.69660395 -6.34660993 18.45613757 -5.29884338 15.21620178 C-4.646918 13.19912776 -3.99691366 11.18143169 -3.34898376 9.16307068 C-3.0552034 8.25195023 -2.76142303 7.34082977 -2.45874023 6.40209961 C-2.07140968 5.19655678 -2.07140968 5.19655678 -1.67625427 3.96665955 C-1 2 -1 2 0 0 Z " fill="#181818" transform="translate(942,225)"/>
<path d="M0 0 C9.33443755 7.51940803 15.68873125 18.24888642 18 30 C19.65922333 46.01186119 16.74087596 58.95713219 7 72 C-0.56379 81.27634623 -11.29483921 86.90811384 -23 89 C-39.2075432 90.51175243 -52.43511682 88.38198367 -66 79 C-66.63679687 78.56042969 -67.27359375 78.12085938 -67.9296875 77.66796875 C-77.26260321 70.47125375 -82.01839714 59.09154501 -84.75 47.9375 C-85.98668379 33.40646546 -83.48520828 19.61489976 -73.9765625 8.1640625 C-54.36647604 -13.30626931 -24.1129301 -16.27622782 0 0 Z M-51.3125 22.1875 C-55.80945524 27.93429021 -57.58433511 34.49340202 -57.28125 41.7421875 C-56.35900395 49.14577382 -53.66116763 55.0577108 -48 60 C-42.55815432 63.8502521 -36.63114805 65.26688831 -30 65 C-23.6842554 63.77695104 -18.44364785 61.42943761 -14.625 56.0703125 C-9.74168601 48.49562659 -9.1638644 41.98605506 -10 33 C-12.03567591 26.14442778 -15.92444979 20.81009081 -22 17 C-32.15401403 12.05098476 -43.65272097 14.15407321 -51.3125 22.1875 Z " fill="#181818" transform="translate(841,234)"/>
<path d="M0 0 C8.91 0 17.82 0 27 0 C27 11.55 27 23.1 27 35 C37.89 35 48.78 35 60 35 C60 23.45 60 11.9 60 0 C68.91 0 77.82 0 87 0 C87 31.35 87 62.7 87 95 C78.09 95 69.18 95 60 95 C60 83.12 60 71.24 60 59 C49.11 59 38.22 59 27 59 C27 70.88 27 82.76 27 95 C18.09 95 9.18 95 0 95 C0 63.65 0 32.3 0 0 Z " fill="#141414" transform="translate(443,226)"/>
<path d="M0 0 C8.91 0 17.82 0 27 0 C27.93457031 2.22105469 28.86914062 4.44210938 29.83203125 6.73046875 C30.80579548 9.04414429 31.77964999 11.35778181 32.75350952 13.67141724 C33.46000087 15.34998824 34.1664013 17.02859751 34.87271118 18.70724487 C39.275894 29.17175813 43.68865468 39.63212503 48.1171875 50.0859375 C49.39164616 53.09652739 50.66597164 56.10717363 51.9402771 59.11782837 C52.76407266 61.0627954 53.58862292 63.00744296 54.41397095 64.95175171 C55.58388958 67.70791097 56.75114994 70.46518352 57.91796875 73.22265625 C58.2570224 74.01936737 58.59607605 74.81607849 58.94540405 75.63693237 C61.79193081 82.37504582 64.36924343 89.16003291 67 96 C57.1 96 47.2 96 37 96 C36.01 93.56625 35.02 91.1325 34 88.625 C33.68675781 87.86010254 33.37351562 87.09520508 33.05078125 86.30712891 C31 81.22222222 31 81.22222222 31 79 C19.12 79 7.24 79 -5 79 C-5.99 82.3 -6.98 85.6 -8 89 C-8.99 91.31 -9.98 93.62 -11 96 C-20.57 96 -30.14 96 -40 96 C-38.04534063 90.13602189 -36.06130578 84.52605432 -33.62109375 78.8828125 C-33.29654205 78.12364532 -32.97199036 77.36447815 -32.63760376 76.58230591 C-31.93813273 74.94684819 -31.23712052 73.3120489 -30.53469849 71.67785645 C-28.63807921 67.26498419 -26.75290189 62.84722817 -24.8671875 58.4296875 C-24.47344437 57.50792725 -24.07970123 56.58616699 -23.67402649 55.63647461 C-18.67474171 43.91791759 -13.77341221 32.15820979 -8.87423706 20.39752197 C-8.11617802 18.57777331 -7.35761365 16.75823505 -6.59848022 14.93893433 C-5.91001586 13.28899489 -5.22270481 11.63857354 -4.53677368 9.98757935 C-4.07783218 8.88819534 -4.07783218 8.88819534 -3.60961914 7.76660156 C-3.2135421 6.81506195 -3.2135421 6.81506195 -2.8094635 5.84429932 C-1.94076607 3.86504012 -0.96665425 1.9333085 0 0 Z M13 34 C8.82841579 41.70138623 6.01127108 49.7874425 3 58 C9.6 58 16.2 58 23 58 C18.545 46.12 18.545 46.12 14 34 C13.67 34 13.34 34 13 34 Z " fill="#171717" transform="translate(193,225)"/>
<path d="M0 0 C1.5630016 1.20192046 3.10656264 2.42975011 4.625 3.6875 C5.26050781 4.18765625 5.89601563 4.6878125 6.55078125 5.203125 C16.44710841 13.89258299 19.93628421 27.00968107 20.9375 39.625 C20.53183807 52.0230427 15.32775556 63.60298077 6.94140625 72.578125 C1.66548468 77.38250552 -4.58549175 81.40936748 -11.375 83.6875 C-15.2550701 83.37709439 -17.10453875 82.8678075 -20.375 80.6875 C-20.6417616 77.92121085 -20.72304189 75.38130369 -20.66796875 72.6171875 C-20.66372391 71.82095978 -20.65947906 71.02473206 -20.65510559 70.20437622 C-20.63828834 67.65674271 -20.60063179 65.10989511 -20.5625 62.5625 C-20.54745705 60.83725099 -20.53376796 59.11198961 -20.52148438 57.38671875 C-20.49092407 53.15309816 -20.4322119 48.92118055 -20.375 44.6875 C-14.105 44.6875 -7.835 44.6875 -1.375 44.6875 C-1.375 40.7275 -1.375 36.7675 -1.375 32.6875 C-3.30666016 32.70490234 -3.30666016 32.70490234 -5.27734375 32.72265625 C-6.95572772 32.7320327 -8.63411326 32.74113305 -10.3125 32.75 C-11.58770508 32.76256836 -11.58770508 32.76256836 -12.88867188 32.77539062 C-13.69755859 32.77861328 -14.50644531 32.78183594 -15.33984375 32.78515625 C-16.0887085 32.79039307 -16.83757324 32.79562988 -17.60913086 32.80102539 C-19.375 32.6875 -19.375 32.6875 -20.375 31.6875 C-20.44771741 29.33436445 -20.45870868 26.97916332 -20.4375 24.625 C-20.42847656 23.33464844 -20.41945313 22.04429687 -20.41015625 20.71484375 C-20.39855469 19.71582031 -20.38695312 18.71679688 -20.375 17.6875 C-24.335 17.6875 -28.295 17.6875 -32.375 17.6875 C-32.375 22.6375 -32.375 27.5875 -32.375 32.6875 C-38.315 32.6875 -44.255 32.6875 -50.375 32.6875 C-50.375 36.6475 -50.375 40.6075 -50.375 44.6875 C-44.435 44.6875 -38.495 44.6875 -32.375 44.6875 C-32.375 53.9275 -32.375 63.1675 -32.375 72.6875 C-36.67183884 70.53908058 -40.52847898 67.99955341 -44.5234375 65.34375 C-49.85209779 62.24874731 -54.63794076 61.40846562 -60.75 61.0625 C-61.99523437 60.98773438 -63.24046875 60.91296875 -64.5234375 60.8359375 C-65.93496094 60.76246094 -65.93496094 60.76246094 -67.375 60.6875 C-68.02634925 59.12729133 -68.67082964 57.56421421 -69.3125 56 C-69.67214844 55.12988281 -70.03179687 54.25976562 -70.40234375 53.36328125 C-74.52150678 42.03144722 -73.03568886 29.59579939 -68.375 18.6875 C-66.60019461 15.48430846 -64.60287008 12.58862752 -62.375 9.6875 C-61.50875 8.388125 -61.50875 8.388125 -60.625 7.0625 C-45.02285358 -9.40643233 -18.90775278 -12.66220548 0 0 Z " fill="#FCBA3B" transform="translate(405.375,231.3125)"/>
<path d="M0 0 C25.41 0 50.82 0 77 0 C77 7.92 77 15.84 77 24 C60.83 24 44.66 24 28 24 C28 28.95 28 33.9 28 39 C42.52 39 57.04 39 72 39 C72 46.59 72 54.18 72 62 C57.48 62 42.96 62 28 62 C28 72.89 28 83.78 28 95 C18.76 95 9.52 95 0 95 C0 63.65 0 32.3 0 0 Z " fill="#1A1A1A" transform="translate(58,226)"/>
<path d="M0 0 C25.41 0 50.82 0 77 0 C77 7.92 77 15.84 77 24 C60.5 24 44 24 27 24 C27 28.95 27 33.9 27 39 C41.85 39 56.7 39 72 39 C72 46.59 72 54.18 72 62 C57.15 62 42.3 62 27 62 C27 72.89 27 83.78 27 95 C18.09 95 9.18 95 0 95 C0 63.65 0 32.3 0 0 Z " fill="#171717" transform="translate(560,226)"/>
<path d="M0 0 C8.91 0 17.82 0 27 0 C27 23.43 27 46.86 27 71 C42.18 71 57.36 71 73 71 C73 78.92 73 86.84 73 95 C48.91 95 24.82 95 0 95 C0 63.65 0 32.3 0 0 Z " fill="#161616" transform="translate(662,226)"/>
<path d="M0 0 C8.91 0 17.82 0 27 0 C27 31.35 27 62.7 27 95 C18.09 95 9.18 95 0 95 C0 63.65 0 32.3 0 0 Z " fill="#151515" transform="translate(283,226)"/>
<path d="M0 0 C1.61823147 1.29511924 3.2218897 2.60860353 4.8125 3.9375 C18.11269195 14.83255677 32.30667503 17.6157374 49 17 C43.52822925 22.47177075 32.88572166 22.68161497 25.5546875 23.05859375 C12.84676022 22.84912242 3.23867875 18.14373019 -5.8125 9.5 C-14.48228052 1.39176924 -24.62792916 -2.19302301 -36.375 -2.0625 C-37.43460937 -2.05347656 -38.49421875 -2.04445313 -39.5859375 -2.03515625 C-40.38257813 -2.02355469 -41.17921875 -2.01195312 -42 -2 C-31.79734866 -12.20265134 -10.47483241 -7.04831944 0 0 Z " fill="#FCC04D" transform="translate(365,301)"/>
<path d="M0 0 C4.22434274 2.38511598 6.54517979 5.31343963 8.9375 9.5 C10.74831535 16.29055757 10.4047684 22.4876228 6.890625 28.625 C4.04963322 32.6097677 0.37283582 35.06307712 -4.3125 36.3125 C-10.34778576 36.88970015 -15.14149468 36.79992219 -20.3125 33.3125 C-25.84512061 28.40858628 -27.82687777 24.71823897 -28.3125 17.3125 C-27.83939555 11.37241076 -26.15365676 7.06999049 -22.0078125 2.75390625 C-15.626778 -2.67144336 -7.46840436 -3.41492095 0 0 Z M-21.1875 9.4375 C-22.87734251 13.75598642 -22.97210983 17.7392052 -22.3125 22.3125 C-20.14946971 26.71867281 -17.90135076 29.4769597 -13.3125 31.3125 C-9.10444267 31.86437637 -5.51024115 31.73836352 -1.5 30.3125 C2.22944505 26.90272167 4.4477258 23.0957613 4.88671875 18 C4.54767672 12.26534626 2.81277854 9.24590512 -1.3125 5.3125 C-4.35158819 3.00698482 -7.5068307 2.89055393 -11.28515625 2.99609375 C-15.64531289 3.67658062 -18.36206498 6.23534031 -21.1875 9.4375 Z " fill="#454545" transform="translate(609.3125,368.6875)"/>
<path d="M0 0 C5 0 5 0 7.32421875 2.16796875 C8.10410156 3.16441406 8.88398437 4.16085937 9.6875 5.1875 C10.1088623 5.71762695 10.53022461 6.24775391 10.96435547 6.79394531 C12.32630571 8.51690048 13.66403547 10.25683917 15 12 C15.95648968 13.23088978 16.91352234 14.46135781 17.87109375 15.69140625 C20.27006152 18.7778803 22.63246167 21.8883782 25 25 C25.33 16.75 25.66 8.5 26 0 C27.65 0 29.3 0 31 0 C31 11.88 31 23.76 31 36 C29.35 36 27.7 36 26 36 C23.99484607 33.94623628 22.41206066 32.05573851 20.75 29.75 C20.27908936 29.12335449 19.80817871 28.49670898 19.32299805 27.85107422 C18.35023421 26.55329244 17.38437398 25.25030889 16.42529297 23.94238281 C14.67917488 21.56278098 12.89961023 19.20957328 11.11743164 16.85693359 C9.40119514 14.57910726 7.70226294 12.28828788 6 10 C5.67 18.58 5.34 27.16 5 36 C3.35 36 1.7 36 0 36 C0 24.12 0 12.24 0 0 Z " fill="#414141" transform="translate(748,368)"/>
<path d="M0 0 C3.526875 -0.061875 7.05375 -0.12375 10.6875 -0.1875 C12.342052 -0.22846802 12.342052 -0.22846802 14.0300293 -0.27026367 C23.0622413 -0.34709489 23.0622413 -0.34709489 27 3 C29.30948647 5.96933975 29.4740395 9.24899217 29.390625 12.9609375 C28.67877826 16.67677749 26.73660271 18.45432306 24 21 C23.01 21 22.02 21 21 21 C23.01559427 24.73258198 24.9683503 28.10290419 27.75 31.3125 C30 34 30 34 30 36 C27.265625 36.37109375 27.265625 36.37109375 24 36 C21.796875 33.41015625 21.796875 33.41015625 19.75 30.0625 C17.61579443 26.82516443 15.97222216 24.35390514 12.19921875 22.98046875 C9.160465 22.66241657 9.160465 22.66241657 5 23 C5 27.29 5 31.58 5 36 C3.35 36 1.7 36 0 36 C0 24.12 0 12.24 0 0 Z M5 4 C5 8.62 5 13.24 5 18 C8.0628125 18.0928125 8.0628125 18.0928125 11.1875 18.1875 C12.91033203 18.23970703 12.91033203 18.23970703 14.66796875 18.29296875 C18.57912447 17.9490805 21.2059851 16.7940149 24 14 C24.41521605 9.85267198 24.41521605 9.85267198 22.75 6.1875 C19.02867292 3.66231377 15.13153922 3.88987457 10.75 3.9375 C7.90375 3.9684375 7.90375 3.9684375 5 4 Z " fill="#3D3D3D" transform="translate(696,368)"/>
<path d="M0 0 C3.526875 -0.061875 7.05375 -0.12375 10.6875 -0.1875 C12.342052 -0.22846802 12.342052 -0.22846802 14.0300293 -0.27026367 C23.0622413 -0.34709489 23.0622413 -0.34709489 27 3 C29.30948647 5.96933975 29.4740395 9.24899217 29.390625 12.9609375 C28.67877826 16.67677749 26.73660271 18.45432306 24 21 C23.01 21 22.02 21 21 21 C23.01559427 24.73258198 24.9683503 28.10290419 27.75 31.3125 C30 34 30 34 30 36 C27.265625 36.37109375 27.265625 36.37109375 24 36 C21.796875 33.41015625 21.796875 33.41015625 19.75 30.0625 C17.61579443 26.82516443 15.97222216 24.35390514 12.19921875 22.98046875 C9.160465 22.66241657 9.160465 22.66241657 5 23 C5 27.29 5 31.58 5 36 C3.35 36 1.7 36 0 36 C0 24.12 0 12.24 0 0 Z M5 4 C5 8.62 5 13.24 5 18 C8.0628125 18.0928125 8.0628125 18.0928125 11.1875 18.1875 C12.91033203 18.23970703 12.91033203 18.23970703 14.66796875 18.29296875 C18.57912447 17.9490805 21.2059851 16.7940149 24 14 C24.41521605 9.85267198 24.41521605 9.85267198 22.75 6.1875 C19.02867292 3.66231377 15.13153922 3.88987457 10.75 3.9375 C7.90375 3.9684375 7.90375 3.9684375 5 4 Z " fill="#3D3D3D" transform="translate(457,368)"/>
<path d="M0 0 C3.526875 -0.061875 7.05375 -0.12375 10.6875 -0.1875 C12.342052 -0.22846802 12.342052 -0.22846802 14.0300293 -0.27026367 C23.0622413 -0.34709489 23.0622413 -0.34709489 27 3 C29.30948647 5.96933975 29.4740395 9.24899217 29.390625 12.9609375 C28.67877826 16.67677749 26.73660271 18.45432306 24 21 C23.01 21 22.02 21 21 21 C23.01559427 24.73258198 24.9683503 28.10290419 27.75 31.3125 C30 34 30 34 30 36 C27.265625 36.37109375 27.265625 36.37109375 24 36 C21.796875 33.41015625 21.796875 33.41015625 19.75 30.0625 C17.61579443 26.82516443 15.97222216 24.35390514 12.19921875 22.98046875 C9.160465 22.66241657 9.160465 22.66241657 5 23 C5 27.29 5 31.58 5 36 C3.35 36 1.7 36 0 36 C0 24.12 0 12.24 0 0 Z M5 4 C5 8.62 5 13.24 5 18 C8.0628125 18.0928125 8.0628125 18.0928125 11.1875 18.1875 C12.91033203 18.23970703 12.91033203 18.23970703 14.66796875 18.29296875 C18.57912447 17.9490805 21.2059851 16.7940149 24 14 C24.41521605 9.85267198 24.41521605 9.85267198 22.75 6.1875 C19.02867292 3.66231377 15.13153922 3.88987457 10.75 3.9375 C7.90375 3.9684375 7.90375 3.9684375 5 4 Z " fill="#3D3D3D" transform="translate(248,368)"/>
<path d="M0 0 C1.2065625 0.0309375 1.2065625 0.0309375 2.4375 0.0625 C4.71849657 5.17009721 6.99709485 10.27875467 9.2734375 15.38842773 C10.04881347 17.12798242 10.82485411 18.867241 11.6015625 20.60620117 C12.71527518 23.09998001 13.82662456 25.5948 14.9375 28.08984375 C15.28748047 28.87213852 15.63746094 29.65443329 15.99804688 30.46043396 C18.4375 35.94862829 18.4375 35.94862829 18.4375 37.0625 C16.4575 37.0625 14.4775 37.0625 12.4375 37.0625 C11.4475 34.0925 10.4575 31.1225 9.4375 28.0625 C0.0325 28.5575 0.0325 28.5575 -9.5625 29.0625 C-10.8825 31.7025 -12.2025 34.3425 -13.5625 37.0625 C-15.2125 37.0625 -16.8625 37.0625 -18.5625 37.0625 C-17.90610418 32.65076273 -16.28299647 28.84911645 -14.4375 24.828125 C-14.13054199 24.14949402 -13.82358398 23.47086304 -13.50732422 22.77166748 C-12.86086506 21.34519306 -12.21189082 19.91985607 -11.56054688 18.49560547 C-10.56056556 16.30826865 -9.56873219 14.11737706 -8.578125 11.92578125 C-7.94838847 10.53884818 -7.31819616 9.15212195 -6.6875 7.765625 C-6.38956543 7.1083844 -6.09163086 6.4511438 -5.78466797 5.77398682 C-3.17414405 0.07741815 -3.17414405 0.07741815 0 0 Z M-0.5625 8.0625 C-1.73157584 10.37381066 -2.89785892 12.68645623 -4.0625 15 C-4.39636719 15.65935547 -4.73023438 16.31871094 -5.07421875 16.99804688 C-6.80391474 19.89555144 -6.80391474 19.89555144 -7.5625 23.0625 C-2.9425 23.0625 1.6775 23.0625 6.4375 23.0625 C4.76569664 17.80826086 3.06055301 12.93388415 0.4375 8.0625 C0.1075 8.0625 -0.2225 8.0625 -0.5625 8.0625 Z " fill="#484848" transform="translate(819.5625,366.9375)"/>
<path d="M0 0 C1.65 0 3.3 0 5 0 C5.40089844 0.86238281 5.80179687 1.72476562 6.21484375 2.61328125 C6.7890567 3.84635687 7.363276 5.07942953 7.9375 6.3125 C8.24308838 6.97024414 8.54867676 7.62798828 8.86352539 8.30566406 C10.70435683 12.25783517 12.57143767 16.19569639 14.46875 20.12109375 C14.87875244 20.97340576 15.28875488 21.82571777 15.71118164 22.70385742 C16.52073632 24.38469472 17.33493897 26.06330226 18.15405273 27.73950195 C18.52473877 28.51124756 18.8954248 29.28299316 19.27734375 30.078125 C19.60984131 30.76293945 19.94233887 31.44775391 20.28491211 32.15332031 C21 34 21 34 21 37 C19.35 37 17.7 37 16 37 C14.68 34.36 13.36 31.72 12 29 C5.73 28.67 -0.54 28.34 -7 28 C-7.99 30.97 -8.98 33.94 -10 37 C-11.98 37 -13.96 37 -16 37 C-11.51209249 24.30492462 -5.6810806 12.19248444 0 0 Z M2 7 C0.9955866 9.2898234 -0.00367612 11.5816599 -1 13.875 C-1.28617187 14.52597656 -1.57234375 15.17695313 -1.8671875 15.84765625 C-3.45925765 19.29638339 -3.45925765 19.29638339 -4 23 C0.62 23 5.24 23 10 23 C7.69 17.72 5.38 12.44 3 7 C2.67 7 2.34 7 2 7 Z " fill="#474747" transform="translate(313,367)"/>
<path d="M0 0 C8.58 0 17.16 0 26 0 C26 1.32 26 2.64 26 4 C19.07 4 12.14 4 5 4 C5 7.96 5 11.92 5 16 C11.27 16 17.54 16 24 16 C24 17.32 24 18.64 24 20 C17.73 20 11.46 20 5 20 C5 23.96 5 27.92 5 32 C12.26 32 19.52 32 27 32 C27 33.32 27 34.64 27 36 C18.09 36 9.18 36 0 36 C0 24.12 0 12.24 0 0 Z " fill="#2A2A2A" transform="translate(408,368)"/>
<path d="M0 0 C1.65 0 3.3 0 5 0 C5.01458252 0.69561035 5.02916504 1.3912207 5.04418945 2.10791016 C5.11897969 5.28081338 5.21553812 8.45270008 5.3125 11.625 C5.33505859 12.71941406 5.35761719 13.81382812 5.38085938 14.94140625 C5.62042929 22.8923258 5.62042929 22.8923258 9 30 C12.45031261 31.72515631 16.22716304 31.49677924 20 31 C23.03215675 28.80168636 23.81654398 27.55036806 25 24 C25.14889747 22.15533558 25.2479101 20.30642725 25.31640625 18.45703125 C25.35830078 17.38388672 25.40019531 16.31074219 25.44335938 15.20507812 C25.48267578 14.08552734 25.52199219 12.96597656 25.5625 11.8125 C25.60568359 10.68134766 25.64886719 9.55019531 25.69335938 8.38476562 C25.79949099 5.58996646 25.90154385 2.79507838 26 0 C27.65 0 29.3 0 31 0 C31.08765069 4.02069425 31.14061018 8.0411401 31.1875 12.0625 C31.21263672 13.19623047 31.23777344 14.32996094 31.26367188 15.49804688 C31.31866657 21.78577406 31.18178916 26.50555648 28 32 C23.33096148 36.4355866 19.51983923 37.30599197 13.28125 37.21484375 C8.60131167 36.77409613 5.81718686 34.88344526 2.6875 31.5 C0.03787944 27.57463621 -0.12023358 24.64788429 -0.09765625 20.01953125 C-0.09443359 18.85615234 -0.09121094 17.69277344 -0.08789062 16.49414062 C-0.07951172 15.27919922 -0.07113281 14.06425781 -0.0625 12.8125 C-0.05798828 11.58595703 -0.05347656 10.35941406 -0.04882812 9.09570312 C-0.03703065 6.06375332 -0.02056921 3.03190094 0 0 Z " fill="#414141" transform="translate(641,368)"/>
<path d="M0 0 C4.764375 -0.1546875 4.764375 -0.1546875 9.625 -0.3125 C11.1092749 -0.38078003 11.1092749 -0.38078003 12.62353516 -0.45043945 C17.02797962 -0.51943975 20.08156249 -0.45735553 23.5859375 2.39453125 C27.3216737 6.4264666 27.40174038 9.16520243 27.34765625 14.51953125 C27 17 27 17 24.8125 20 C20.0750932 23.36882261 16.48662609 24.25245332 10.6875 24.125 C8.810625 24.08375 6.93375 24.0425 5 24 C5 27.96 5 31.92 5 36 C3.35 36 1.7 36 0 36 C0 24.12 0 12.24 0 0 Z M5 4 C5 8.95 5 13.9 5 19 C12.88280031 19.56355473 12.88280031 19.56355473 20.25 17.4375 C22.66441945 14.07455862 22.661707 12.04376502 22 8 C19.26965788 5.17550815 16.46407436 4.05764072 12.51953125 3.90234375 C11.17955078 3.91974609 11.17955078 3.91974609 9.8125 3.9375 C7.4303125 3.9684375 7.4303125 3.9684375 5 4 Z " fill="#3B3B3B" transform="translate(199,368)"/>
<path d="M0 0 C2.73828125 -0.32421875 2.73828125 -0.32421875 6 0 C8.23046875 2.23046875 8.23046875 2.23046875 10.1875 5.1875 C10.84105469 6.15042969 11.49460937 7.11335938 12.16796875 8.10546875 C13.81946267 10.71475872 15.42990932 13.34105386 17 16 C17.33209473 15.5153125 17.66418945 15.030625 18.00634766 14.53125 C19.52550889 12.33918939 21.07448774 10.16998406 22.625 8 C23.14707031 7.236875 23.66914063 6.47375 24.20703125 5.6875 C25.70861234 3.61123972 27.1190091 1.74153226 29 0 C32.3984375 -0.5 32.3984375 -0.5 35 0 C33.98235328 1.62699749 32.96064749 3.25145607 31.9375 4.875 C31.30457031 5.88820313 30.67164063 6.90140625 30.01953125 7.9453125 C28 11 28 11 26.01171875 13.4296875 C20.11702108 20.67906725 19.91510854 26.90448649 20 36 C18.35 36 16.7 36 15 36 C15.09023438 35.23300781 15.18046875 34.46601563 15.2734375 33.67578125 C15.65661034 20.98686538 8.5297025 12.64853072 1.26928711 2.8190918 C0 1 0 1 0 0 Z " fill="#444444" transform="translate(352,368)"/>
<path d="M0 0 C1.65 0 3.3 0 5 0 C5.12422509 4.16249607 5.21462647 8.3239917 5.2746582 12.48779297 C5.29969925 13.90204682 5.33374342 15.31617257 5.37719727 16.72998047 C5.77476404 30.00403352 5.77476404 30.00403352 2.60546875 33.8984375 C-1.86222985 37.50206846 -5.40025365 37.53284784 -11 37 C-14.53786617 35.56979878 -15.63735151 34.74256596 -17.3125 31.3125 C-17.539375 30.549375 -17.76625 29.78625 -18 29 C-16.68 28.34 -15.36 27.68 -14 27 C-13.46375 27.66 -12.9275 28.32 -12.375 29 C-10.11790102 31.25893152 -10.11790102 31.25893152 -6.9375 31.4375 C-4.07941505 31.22978268 -4.07941505 31.22978268 -2.34838867 29.8737793 C-0.38033617 27.13888831 -0.56391896 24.92521821 -0.48828125 21.58203125 C-0.45283203 20.32841797 -0.41738281 19.07480469 -0.38085938 17.78320312 C-0.35830078 16.47287109 -0.33574219 15.16253906 -0.3125 13.8125 C-0.27932334 12.47717987 -0.24483334 11.14189168 -0.20898438 9.80664062 C-0.12637943 6.53784496 -0.05726771 3.26932188 0 0 Z " fill="#444444" transform="translate(554,368)"/>
<path d="M0 0 C1.65 0 3.3 0 5 0 C5 10.56 5 21.12 5 32 C11.6 32 18.2 32 25 32 C25 33.32 25 34.64 25 36 C16.75 36 8.5 36 0 36 C0 24.12 0 12.24 0 0 Z " fill="#333333" transform="translate(859,368)"/>
<path d="M0 0 C0.66 0.33 1.32 0.66 2 1 C-2.95 5.95 -7.9 10.9 -13 16 C-13 11.08924079 -9.30469813 8.39044878 -6 5 C-4.05397986 3.23549584 -2.07285289 1.6178364 0 0 Z " fill="#646464" transform="translate(778,232)"/>
<path d="M0 0 C0.66 0.33 1.32 0.66 2 1 C-1.3 4.3 -4.6 7.6 -8 11 C-8.66 10.67 -9.32 10.34 -10 10 C-6.92118304 6.12948725 -3.99926986 2.97088618 0 0 Z " fill="#FCCD72" transform="translate(352,232)"/>
<path d="M0 0 C-2.8086289 2.8086289 -5.11134294 2.72711179 -9 3 C-9.99 2.34 -10.98 1.68 -12 1 C-7.9472484 0.01751476 -4.16138263 -0.08159574 0 0 Z " fill="#FDD891" transform="translate(414,318)"/>
<path d="M0 0 C2 1 2 1 2 1 Z " fill="#FFFBF4" transform="translate(321,299)"/>
<path d="" fill="#FFFAF0" transform="translate(0,0)"/>
</svg>
