<?xml version="1.0" encoding="UTF-8"?>
<svg version="1.1" xmlns="http://www.w3.org/2000/svg" width="854" height="1280">
<path d="M0 0 C1.96626449 -0.00346592 3.93252703 -0.0082367 5.89878559 -0.01418173 C11.24637946 -0.02659311 16.59381071 -0.02056677 21.94140482 -0.01122308 C27.73018345 -0.00439209 33.51893551 -0.01493375 39.30770874 -0.02316284 C50.6260084 -0.03645941 61.94424817 -0.03364066 73.26255012 -0.02492492 C82.46626763 -0.01813268 91.66996844 -0.0172383 100.87368774 -0.02049637 C102.8432056 -0.02118592 102.8432056 -0.02118592 104.8525117 -0.0218894 C106.85149769 -0.02260813 108.85048367 -0.02332691 110.84946965 -0.02407007 C135.78745471 -0.03323045 160.72540722 -0.02495313 185.66338725 -0.00877938 C207.78008484 0.00545559 229.8967306 0.00418163 252.01342773 -0.01016235 C276.90815493 -0.0262544 301.80285343 -0.03258059 326.69758511 -0.02332556 C329.35530535 -0.02236998 332.0130256 -0.02142686 334.67074585 -0.02049637 C336.63190314 -0.01980213 336.63190314 -0.01980213 338.63267976 -0.01909386 C347.81873576 -0.01651032 357.00477328 -0.02086124 366.19082642 -0.02793503 C377.394995 -0.03637373 388.59910057 -0.03402018 399.803262 -0.0180928 C405.51298439 -0.01024194 411.22260198 -0.00706383 416.93232346 -0.01704025 C422.170563 -0.02605403 427.40860168 -0.0209455 432.64682329 -0.0051076 C434.53015903 -0.00178785 436.41351215 -0.00338959 438.2968365 -0.01073496 C453.87092574 -0.06676342 469.15644504 1.43580651 484.2097168 5.63095093 C485.36528076 5.94673096 485.36528076 5.94673096 486.54418945 6.26889038 C519.41554075 15.4868001 549.54177024 31.01366711 574.61987305 54.38095093 C576.60090874 56.22176812 578.63658934 57.95819736 580.7097168 59.69345093 C617.09660256 91.63224044 640.20959552 142.7236583 644.7722168 190.38095093 C644.93772826 193.78702228 644.98212311 197.18999458 645.01049805 200.59970093 C645.0202919 201.5671524 645.03008575 202.53460388 645.04017639 203.53137207 C645.36242152 243.57840019 645.36242152 243.57840019 640.7722168 261.38095093 C640.54727539 262.28297241 640.32233398 263.1849939 640.09057617 264.11434937 C635.5954834 281.80371581 629.31159341 298.27213153 620.7722168 314.38095093 C620.27214111 315.34702271 620.27214111 315.34702271 619.76196289 316.33261108 C611.235785 332.74560664 600.22992788 347.64924 587.27856445 360.84384155 C585.71317343 362.44120004 584.17046579 364.05864224 582.62768555 365.67782593 C575.23256366 373.3528787 567.40695589 380.13594849 558.7722168 386.38095093 C558.11157227 386.85887085 557.45092773 387.33679077 556.77026367 387.82919312 C529.6142555 407.2062695 500.20464688 418.340942 467.7722168 425.38095093 C466.03243365 425.76676974 464.29283301 426.15341303 462.5534668 426.54110718 C460.68174805 426.95682983 460.68174805 426.95682983 458.7722168 427.38095093 C459.80439331 427.56101685 459.80439331 427.56101685 460.85742188 427.74472046 C475.52895656 430.33991829 489.75180254 433.29067412 503.7722168 438.38095093 C504.4322168 438.61926636 505.0922168 438.85758179 505.7722168 439.1031189 C542.37364537 452.54270595 575.98190135 476.40865345 599.7722168 507.38095093 C600.2038916 507.94153198 600.63556641 508.50211304 601.08032227 509.0796814 C626.66568682 542.51231431 644.66427861 584.24403562 645.01049805 626.81845093 C645.02033722 627.80800781 645.03017639 628.7975647 645.04031372 629.81710815 C645.3642973 670.8164871 645.3642973 670.8164871 640.7722168 688.38095093 C640.52552246 689.36273315 640.27882813 690.34451538 640.0246582 691.35604858 C630.01520702 730.45373913 610.28181453 763.14170783 582.7722168 792.38095093 C582.11737305 793.0899353 581.4625293 793.79891968 580.7878418 794.52938843 C574.72608056 800.87610425 567.74578839 806.08968839 560.7722168 811.38095093 C559.84151367 812.09509155 558.91081055 812.80923218 557.9519043 813.54501343 C541.53825055 825.84300474 523.04036129 835.42353254 503.7722168 842.38095093 C503.08385742 842.63086792 502.39549805 842.88078491 501.6862793 843.13827515 C479.15218239 851.15638679 455.85382557 854.61225375 432.0222168 854.63095093 C431.24698669 854.63162567 430.47175659 854.63230042 429.67303467 854.63299561 C371.35102468 854.55264157 318.12734929 830.54456961 276.8972168 789.75595093 C248.42999438 761.01964599 228.54269094 722.73834373 220.70922852 683.1199646 C220.53269745 682.2295195 220.35616638 681.3390744 220.17428589 680.42164612 C220.04160309 679.74821671 219.90892029 679.07478729 219.7722168 678.38095093 C219.77075158 679.63889758 219.77075158 679.63889758 219.76925677 680.9222573 C219.71088005 730.71765136 219.63700454 780.51300212 219.54323051 830.30834275 C219.53196347 836.29836558 219.52082483 842.28838865 219.50976562 848.27841187 C219.50756194 849.47082832 219.50535826 850.66324477 219.5030878 851.89179505 C219.46779499 871.15417224 219.44288571 890.41654939 219.42186978 909.67894684 C219.40004367 929.47013528 219.36692912 949.26128207 219.32351524 969.05243504 C219.2971154 981.24709645 219.27933431 993.44170604 219.27287076 1005.63639458 C219.26758095 1014.01896349 219.25124488 1022.40146741 219.22655114 1030.7840014 C219.2126581 1035.60738865 219.20331893 1040.43065991 219.20720863 1045.25406837 C219.23880194 1094.42231649 219.23880194 1094.42231649 213.0222168 1118.31845093 C212.76400146 1119.34309448 212.50578613 1120.36773804 212.23974609 1121.4234314 C205.91427641 1145.73642268 195.28172188 1168.86978693 180.7722168 1189.38095093 C180.17280273 1190.23269897 180.17280273 1190.23269897 179.5612793 1191.10165405 C175.04659066 1197.45706306 170.16148542 1203.36808283 164.8737793 1209.09188843 C163.02700497 1211.10343073 161.27234247 1213.16097291 159.5222168 1215.25595093 C133.8797043 1244.5616795 96.24503271 1264.85935845 59.0222168 1274.75595093 C57.74942871 1275.09578003 57.74942871 1275.09578003 56.45092773 1275.44247437 C53.5691239 1276.1621137 50.68293269 1276.78807579 47.7722168 1277.38095093 C47.12833008 1277.51225403 46.48444336 1277.64355713 45.82104492 1277.77883911 C33.01993052 1280.3040359 20.47448949 1280.85045523 7.44750977 1280.77206421 C4.27536035 1280.75596688 1.10448447 1280.77201871 -2.06762695 1280.79110718 C-18.55385139 1280.80903952 -34.34106767 1279.18793398 -50.2277832 1274.63095093 C-51.59422974 1274.24689087 -51.59422974 1274.24689087 -52.98828125 1273.85507202 C-86.25305238 1264.27828151 -115.87969312 1248.04492599 -141.2277832 1224.38095093 C-142.91478538 1222.90121651 -144.6022929 1221.42205805 -146.2902832 1219.94345093 C-181.9125131 1187.70062386 -204.68468148 1137.83435873 -209.2277832 1090.38095093 C-209.39329466 1086.97487957 -209.43768951 1083.57190728 -209.46606445 1080.16220093 C-209.47585831 1079.19474945 -209.48565216 1078.22729797 -209.4957428 1077.23052979 C-209.81798792 1037.18350167 -209.81798792 1037.18350167 -205.2277832 1019.38095093 C-205.0028418 1018.47892944 -204.77790039 1017.57690796 -204.54614258 1016.64755249 C-200.05104981 998.95818604 -193.76715982 982.48977033 -185.2277832 966.38095093 C-184.89439941 965.73690308 -184.56101563 965.09285522 -184.2175293 964.42929077 C-175.69135141 948.01629521 -164.68549428 933.11266185 -151.73413086 919.9180603 C-150.16873984 918.32070181 -148.62603219 916.70325962 -147.08325195 915.08407593 C-139.68813007 907.40902316 -131.8625223 900.62595336 -123.2277832 894.38095093 C-122.56713867 893.90303101 -121.90649414 893.42511108 -121.22583008 892.93270874 C-93.38192793 873.06478797 -61.30035065 859.54986983 -27.3449707 854.74032593 C-25.18048688 854.47864708 -25.18048688 854.47864708 -23.2277832 853.38095093 C-24.17355225 853.23230591 -24.17355225 853.23230591 -25.13842773 853.08065796 C-60.22414826 847.38512844 -92.36319744 835.30595794 -121.2277832 814.38095093 C-121.82623047 813.95072632 -122.42467773 813.52050171 -123.04125977 813.07723999 C-131.69184189 806.80593512 -139.52350637 799.76410472 -147.2277832 792.38095093 C-147.97930664 791.67067749 -148.73083008 790.96040405 -149.50512695 790.22860718 C-183.1619917 757.63809854 -208.22464058 706.50615213 -209.40478516 659.44735718 C-209.43102125 657.61279564 -209.45114458 655.77813939 -209.46606445 653.94345093 C-209.47590363 652.95389404 -209.4857428 651.96433716 -209.49588013 650.9447937 C-209.8198637 609.94541476 -209.8198637 609.94541476 -205.2277832 592.38095093 C-204.8577417 590.90827759 -204.8577417 590.90827759 -204.48022461 589.40585327 C-194.47077342 550.30816272 -174.73738094 517.62019403 -147.2277832 488.38095093 C-146.57293945 487.67196655 -145.9180957 486.96298218 -145.2434082 486.23251343 C-139.17956854 479.88362148 -132.2152149 474.65863193 -125.2277832 469.38095093 C-124.40431396 468.75035767 -124.40431396 468.75035767 -123.56420898 468.10702515 C-93.73871156 445.37467174 -59.8633083 433.63611787 -23.2277832 427.38095093 C-27.54612744 426.25969664 -31.85370158 425.23386137 -36.23168945 424.37313843 C-69.98496649 417.6699714 -101.26235261 403.87355891 -128.2277832 382.38095093 C-129.2280957 381.58559937 -130.2284082 380.7902478 -131.2590332 379.97079468 C-146.54476237 367.55367542 -159.87114374 353.45733275 -171.2277832 337.38095093 C-171.91759277 336.41028687 -171.91759277 336.41028687 -172.62133789 335.42001343 C-194.48702747 304.38688412 -209.25521925 265.22101692 -209.4309082 227.02157593 C-209.43660828 226.03711487 -209.44230835 225.05265381 -209.44818115 224.0383606 C-209.45759086 221.9574184 -209.46414902 219.87646158 -209.46801758 217.79550171 C-209.47762636 214.68177568 -209.50864828 211.56873851 -209.5402832 208.45516968 C-209.62982946 191.67980984 -208.0109076 175.43765904 -203.6652832 159.19345093 C-203.41552734 158.25404663 -203.16577148 157.31464233 -202.90844727 156.34677124 C-195.96977261 131.44144554 -184.58860661 108.13058198 -169.2277832 87.38095093 C-168.56891113 86.48666382 -168.56891113 86.48666382 -167.89672852 85.5743103 C-158.67012297 73.16729588 -148.29512009 61.10304566 -136.2277832 51.38095093 C-135.17778008 50.49615567 -134.12835821 49.61067043 -133.0793457 48.72470093 C-109.3841905 28.97170834 -81.87150345 14.7290926 -52.1652832 6.56845093 C-51.16247314 6.29049683 -50.15966309 6.01254272 -49.12646484 5.72616577 C-32.80752529 1.44617253 -16.81763843 -0.06559239 0 0 Z M218.7722168 428.38095093 C218.7722168 487.78095093 218.7722168 547.18095093 218.7722168 608.38095093 C219.1022168 608.38095093 219.4322168 608.38095093 219.7722168 608.38095093 C219.88178711 607.77960327 219.99135742 607.17825562 220.10424805 606.5586853 C231.03274599 547.78469028 261.51284596 497.57708952 311.0534668 463.50204468 C325.13012083 454.05133998 339.90862668 446.34001861 355.7722168 440.38095093 C356.4940918 440.10557495 357.2159668 439.83019897 357.9597168 439.54647827 C370.89991346 434.68511363 384.21626382 431.95268125 397.7722168 429.38095093 C397.7722168 429.05095093 397.7722168 428.72095093 397.7722168 428.38095093 C338.7022168 428.38095093 279.6322168 428.38095093 218.7722168 428.38095093 Z " fill="#A259FE" transform="translate(209.227783203125,-0.380950927734375)"/>
<path d="M0 0 C1.96626449 -0.00346592 3.93252703 -0.0082367 5.89878559 -0.01418173 C11.24637946 -0.02659311 16.59381071 -0.02056677 21.94140482 -0.01122308 C27.73018345 -0.00439209 33.51893551 -0.01493375 39.30770874 -0.02316284 C50.6260084 -0.03645941 61.94424817 -0.03364066 73.26255012 -0.02492492 C82.46626763 -0.01813268 91.66996844 -0.0172383 100.87368774 -0.02049637 C102.8432056 -0.02118592 102.8432056 -0.02118592 104.8525117 -0.0218894 C106.85149769 -0.02260813 108.85048367 -0.02332691 110.84946965 -0.02407007 C135.78745471 -0.03323045 160.72540722 -0.02495313 185.66338725 -0.00877938 C207.78008484 0.00545559 229.8967306 0.00418163 252.01342773 -0.01016235 C276.90815493 -0.0262544 301.80285343 -0.03258059 326.69758511 -0.02332556 C329.35530535 -0.02236998 332.0130256 -0.02142686 334.67074585 -0.02049637 C336.63190314 -0.01980213 336.63190314 -0.01980213 338.63267976 -0.01909386 C347.81873576 -0.01651032 357.00477328 -0.02086124 366.19082642 -0.02793503 C377.394995 -0.03637373 388.59910057 -0.03402018 399.803262 -0.0180928 C405.51298439 -0.01024194 411.22260198 -0.00706383 416.93232346 -0.01704025 C422.170563 -0.02605403 427.40860168 -0.0209455 432.64682329 -0.0051076 C434.53015903 -0.00178785 436.41351215 -0.00338959 438.2968365 -0.01073496 C453.87092574 -0.06676342 469.15644504 1.43580651 484.2097168 5.63095093 C485.36528076 5.94673096 485.36528076 5.94673096 486.54418945 6.26889038 C519.41554075 15.4868001 549.54177024 31.01366711 574.61987305 54.38095093 C576.60090874 56.22176812 578.63658934 57.95819736 580.7097168 59.69345093 C617.09660256 91.63224044 640.20959552 142.7236583 644.7722168 190.38095093 C644.93772826 193.78702228 644.98212311 197.18999458 645.01049805 200.59970093 C645.0202919 201.5671524 645.03008575 202.53460388 645.04017639 203.53137207 C645.36242152 243.57840019 645.36242152 243.57840019 640.7722168 261.38095093 C640.54727539 262.28297241 640.32233398 263.1849939 640.09057617 264.11434937 C635.5954834 281.80371581 629.31159341 298.27213153 620.7722168 314.38095093 C620.27214111 315.34702271 620.27214111 315.34702271 619.76196289 316.33261108 C611.235785 332.74560664 600.22992788 347.64924 587.27856445 360.84384155 C585.71317343 362.44120004 584.17046579 364.05864224 582.62768555 365.67782593 C575.23256366 373.3528787 567.40695589 380.13594849 558.7722168 386.38095093 C558.11157227 386.85887085 557.45092773 387.33679077 556.77026367 387.82919312 C533.31991976 404.56210549 507.71914706 415.9421763 479.7722168 422.81845093 C478.34256592 423.17109009 478.34256592 423.17109009 476.8840332 423.53085327 C461.12744677 427.15747588 445.25003692 427.75823663 429.15112305 427.99813843 C428.07960054 428.01657681 427.00807804 428.03501518 425.90408516 428.0540123 C391.78663892 428.63708378 357.66023754 428.53425482 323.53910303 428.5079608 C319.7355265 428.50525891 315.93194977 428.50343291 312.12837273 428.50162989 C283.42078262 428.48790467 254.71326482 428.44683774 226.00572205 428.39409637 C221.08963573 428.38508698 216.17354898 428.37642593 211.25746155 428.36804962 C179.36069574 428.31369604 147.46404279 428.24486663 115.56739521 428.14202118 C112.91977758 428.13350003 110.27215992 428.12498815 107.62454224 428.1164856 C106.31861632 428.11228607 105.0126904 428.10808655 103.66719097 428.10375977 C94.48393631 428.07493524 85.30068206 428.05345811 76.11740112 428.0350647 C64.84742894 428.01233346 53.57754653 427.97897443 42.30764651 427.93245 C36.51292735 427.90878462 30.71829294 427.88969255 24.92352676 427.88330269 C19.56637969 427.8772196 14.20946025 427.85713298 8.85239804 427.82666755 C6.92270908 427.81801089 4.99299038 427.81414801 3.06328285 427.81594491 C-44.62407582 427.84631866 -90.84151475 412.1794149 -128.2277832 382.38095093 C-129.2280957 381.58559937 -130.2284082 380.7902478 -131.2590332 379.97079468 C-146.54476237 367.55367542 -159.87114374 353.45733275 -171.2277832 337.38095093 C-171.91759277 336.41028687 -171.91759277 336.41028687 -172.62133789 335.42001343 C-194.48702747 304.38688412 -209.25521925 265.22101692 -209.4309082 227.02157593 C-209.43660828 226.03711487 -209.44230835 225.05265381 -209.44818115 224.0383606 C-209.45759086 221.9574184 -209.46414902 219.87646158 -209.46801758 217.79550171 C-209.47762636 214.68177568 -209.50864828 211.56873851 -209.5402832 208.45516968 C-209.62982946 191.67980984 -208.0109076 175.43765904 -203.6652832 159.19345093 C-203.41552734 158.25404663 -203.16577148 157.31464233 -202.90844727 156.34677124 C-195.96977261 131.44144554 -184.58860661 108.13058198 -169.2277832 87.38095093 C-168.56891113 86.48666382 -168.56891113 86.48666382 -167.89672852 85.5743103 C-158.67012297 73.16729588 -148.29512009 61.10304566 -136.2277832 51.38095093 C-135.17778008 50.49615567 -134.12835821 49.61067043 -133.0793457 48.72470093 C-109.3841905 28.97170834 -81.87150345 14.7290926 -52.1652832 6.56845093 C-51.16247314 6.29049683 -50.15966309 6.01254272 -49.12646484 5.72616577 C-32.80752529 1.44617253 -16.81763843 -0.06559239 0 0 Z " fill="#FE7161" transform="translate(209.227783203125,-0.380950927734375)"/>
<path d="M0 0 C2.38524263 0.0009212 4.77048608 0.00051479 7.15572834 -0.00109577 C13.48629842 -0.00176714 19.81669495 0.01549472 26.14722443 0.03673553 C32.10918159 0.05394634 38.07109866 0.0546317 44.03308105 0.0567627 C61.41636372 0.07244278 78.79961478 0.11432659 96.18286133 0.15307617 C135.06098633 0.21495117 173.93911133 0.27682617 213.99536133 0.34057617 C213.99536133 140.92057617 213.99536133 281.50057617 213.99536133 426.34057617 C176.00411133 426.56745117 138.01286133 426.79432617 98.87036133 427.02807617 C86.90641113 427.10759521 74.94246094 427.18711426 62.6159668 427.26904297 C47.92529297 427.34606934 47.92529297 427.34606934 41.03225708 427.37825012 C36.2523121 427.40162979 31.47251231 427.43366776 26.69265747 427.47114563 C20.57039623 427.51885672 14.4482233 427.55124703 8.32581735 427.57317126 C6.09470153 427.58365514 3.86360147 427.59924101 1.63256621 427.62090623 C-46.99284303 428.08057376 -93.81342677 412.78061469 -132.00463867 382.34057617 C-133.00495117 381.54522461 -134.00526367 380.74987305 -135.03588867 379.93041992 C-150.32161784 367.51330066 -163.64799921 353.41695799 -175.00463867 337.34057617 C-175.69444824 336.36991211 -175.69444824 336.36991211 -176.39819336 335.37963867 C-198.26388294 304.34650937 -213.03207472 265.18064216 -213.20776367 226.98120117 C-213.21346375 225.99674011 -213.21916382 225.01227905 -213.22503662 223.99798584 C-213.23444633 221.91704365 -213.24100449 219.83608682 -213.24487305 217.75512695 C-213.25448183 214.64140092 -213.28550374 211.52836375 -213.31713867 208.41479492 C-213.40668493 191.63943509 -211.78776306 175.39728428 -207.44213867 159.15307617 C-207.19238281 158.21367187 -206.94262695 157.27426758 -206.68530273 156.30639648 C-199.74662808 131.40107078 -188.36546208 108.09020723 -173.00463867 87.34057617 C-172.3457666 86.44628906 -172.3457666 86.44628906 -171.67358398 85.53393555 C-162.44697844 73.12692112 -152.07197556 61.06267091 -140.00463867 51.34057617 C-138.95463555 50.45578092 -137.90521368 49.57029568 -136.85620117 48.68432617 C-113.16104597 28.93133358 -85.64835892 14.68871785 -55.94213867 6.52807617 C-54.93932861 6.25012207 -53.93651855 5.97216797 -52.90332031 5.68579102 C-35.26871012 1.06073482 -18.16801326 -0.0928901 0 0 Z " fill="#F24E1E" transform="translate(213.004638671875,-0.340576171875)"/>
<path d="M0 0 C2.30863433 0.00084882 4.61726946 0.00036617 6.92590332 -0.00132751 C13.11869112 -0.00217895 19.3113002 0.01530694 25.50404692 0.03639436 C32.00355309 0.05530509 38.50306455 0.05692284 45.00259399 0.06047058 C55.88750344 0.06869872 66.77234782 0.08736408 77.65722656 0.11425781 C88.85644209 0.14189899 100.05563995 0.16308296 111.25488281 0.17578125 C111.94805986 0.17656942 112.64123691 0.17735759 113.35541932 0.17816965 C116.83373793 0.18208546 120.31205666 0.18587641 123.79037547 0.18960536 C152.53428379 0.22058117 181.27812666 0.27353726 210.02197266 0.34057617 C210.09069274 28.68905547 210.14364627 57.03752412 210.17516864 85.38607069 C210.17891991 88.74737083 210.18280296 92.10867081 210.18676758 95.4699707 C210.18755451 96.13902957 210.18834144 96.80808844 210.18915222 97.49742182 C210.20133458 107.60548219 210.22235491 117.71349947 210.24829102 127.8215332 C210.27836245 139.57863168 210.29758743 151.33569157 210.30423814 163.09282744 C210.30812058 169.30770566 210.31712799 175.52247356 210.33916283 181.73731613 C210.51217624 232.50065114 210.51217624 232.50065114 207.02197266 252.34057617 C206.89750039 253.05000618 206.77302813 253.75943619 206.64478397 254.49036407 C205.9869981 258.12777328 205.20256301 261.70094957 204.27197266 265.27807617 C204.01375732 266.30271973 203.75554199 267.32736328 203.48950195 268.38305664 C197.16403227 292.69604792 186.53147774 315.82941217 172.02197266 336.34057617 C171.62236328 336.9084082 171.22275391 337.47624023 170.81103516 338.0612793 C166.29634652 344.4166883 161.41124128 350.32770807 156.12353516 356.05151367 C154.27676083 358.06305597 152.52209833 360.12059815 150.77197266 362.21557617 C125.12946016 391.52130474 87.49478857 411.81898369 50.27197266 421.71557617 C48.99918457 422.05540527 48.99918457 422.05540527 47.70068359 422.40209961 C44.81887976 423.12173895 41.93268855 423.74770104 39.02197266 424.34057617 C38.37808594 424.47187927 37.73419922 424.60318237 37.07080078 424.73846436 C24.26968638 427.26366114 11.72424535 427.81008047 -1.30273438 427.73168945 C-4.47488379 427.71559212 -7.64575967 427.73164396 -10.81787109 427.75073242 C-27.30409553 427.76866476 -43.09131181 426.14755923 -58.97802734 421.59057617 C-59.8889917 421.33453613 -60.79995605 421.07849609 -61.73852539 420.81469727 C-95.00329652 411.23790676 -124.62993726 395.00455124 -149.97802734 371.34057617 C-151.66502952 369.86084176 -153.35253704 368.3816833 -155.04052734 366.90307617 C-190.66275724 334.66024911 -213.43492562 284.79398397 -217.97802734 237.34057617 C-218.14353881 233.93450482 -218.18793365 230.53153252 -218.21630859 227.12182617 C-218.22610245 226.15437469 -218.2358963 225.18692322 -218.24598694 224.19015503 C-218.56823206 184.14312691 -218.56823206 184.14312691 -213.97802734 166.34057617 C-213.75308594 165.43855469 -213.52814453 164.5365332 -213.29638672 163.60717773 C-208.80129395 145.91781129 -202.51740396 129.44939557 -193.97802734 113.34057617 C-193.64464355 112.69652832 -193.31125977 112.05248047 -192.96777344 111.38891602 C-184.44159555 94.97592046 -173.43573842 80.0722871 -160.484375 66.87768555 C-158.91898398 65.28032706 -157.37627633 63.66288486 -155.83349609 62.04370117 C-148.43837421 54.3686484 -140.61276644 47.58557861 -131.97802734 41.34057617 C-130.98706055 40.62369629 -130.98706055 40.62369629 -129.97607422 39.89233398 C-91.15205387 12.18958758 -47.322561 -0.24814543 0 0 Z " fill="#0ACE83" transform="translate(217.97802734375,852.659423828125)"/>
<path d="M0 0 C2.44899122 -0.01636297 4.89793878 -0.04338257 7.34667969 -0.08203125 C31.72483009 -0.46361384 54.53543406 3.02087305 77.47705078 11.35009766 C78.13705078 11.58841309 78.79705078 11.82672852 79.47705078 12.07226562 C116.07847935 25.51185268 149.68673533 49.37780018 173.47705078 80.35009766 C173.90872559 80.91067871 174.34040039 81.47125977 174.78515625 82.04882812 C200.3705208 115.48146104 218.3691126 157.21318235 218.71533203 199.78759766 C218.7251712 200.77715454 218.73501038 201.76671143 218.74514771 202.78625488 C219.06913128 243.78563383 219.06913128 243.78563383 214.47705078 261.35009766 C214.10700928 262.822771 214.10700928 262.822771 213.72949219 264.32519531 C203.720041 303.42288586 183.98664851 336.11085456 156.47705078 365.35009766 C155.82220703 366.05908203 155.16736328 366.76806641 154.49267578 367.49853516 C148.43091454 373.84525098 141.45062238 379.05883512 134.47705078 384.35009766 C133.54634766 385.06423828 132.61564453 385.77837891 131.65673828 386.51416016 C115.24308454 398.81215147 96.74519527 408.39267927 77.47705078 415.35009766 C76.78869141 415.60001465 76.10033203 415.84993164 75.39111328 416.10742188 C52.85701638 424.12553352 29.55865955 427.58140048 5.72705078 427.60009766 C4.95182068 427.6007724 4.17659058 427.60144714 3.37786865 427.60214233 C-54.94414134 427.5217883 -108.16781673 403.51371633 -149.39794922 362.72509766 C-184.21412983 327.57982186 -208.48311418 276.21628599 -208.72607422 226.36572266 C-208.73177429 225.42944031 -208.73747437 224.49315796 -208.74334717 223.52850342 C-208.75274378 221.55189116 -208.75930975 219.57526361 -208.76318359 217.59863281 C-208.77278799 214.64960403 -208.80382073 211.70130423 -208.83544922 208.75244141 C-209.02446166 174.9177981 -200.7176348 142.09133186 -184.52294922 112.35009766 C-183.90935547 111.19638672 -183.29576172 110.04267578 -182.66357422 108.85400391 C-158.34126194 64.58136523 -117.71189389 30.07635715 -70.52294922 12.35009766 C-69.80107422 12.07472168 -69.07919922 11.7993457 -68.33544922 11.515625 C-55.40857652 6.65926589 -42.08296172 3.8406862 -28.52294922 1.35009766 C-27.66701172 1.17051514 -26.81107422 0.99093262 -25.92919922 0.8059082 C-17.38117136 -0.33795418 -8.61025587 0.04187978 0 0 Z " fill="#1ABBFD" transform="translate(635.52294921875,426.64990234375)"/>
</svg>
