<?xml version="1.0" encoding="UTF-8"?>
<svg version="1.1" xmlns="http://www.w3.org/2000/svg" width="1080" height="1080">
<path d="M0 0 C19.50234375 18.48155992 24.33152664 42.8830524 26.4609375 68.5625 C26.60631958 70.25475708 26.60631958 70.25475708 26.75463867 71.98120117 C26.83045166 73.03927979 26.90626465 74.0973584 26.984375 75.1875 C27.05317871 76.12851562 27.12198242 77.06953125 27.19287109 78.0390625 C27.07581333 80.80141182 26.65420238 82.29444903 25.0859375 84.5625 C21.86806368 85.63512461 19.50203186 85.70872814 16.11743164 85.73950195 C14.88928238 85.75233719 13.66113312 85.76517242 12.39576721 85.77839661 C11.0542135 85.78656278 9.71265522 85.79400675 8.37109375 85.80078125 C7.35668118 85.80689454 7.35668118 85.80689454 6.32177544 85.81313133 C2.74454939 85.83396558 -0.83263857 85.84828056 -4.40991211 85.85766602 C-8.10340719 85.86874538 -11.79630229 85.90316927 -15.48958492 85.94283772 C-18.33176291 85.96897768 -21.17379704 85.97735528 -24.01608467 85.98094749 C-25.37766144 85.98581769 -26.73923161 85.99744423 -28.10069084 86.01598549 C-30.00570039 86.04032363 -31.91100247 86.03699736 -33.81616211 86.0324707 C-34.89965439 86.03833694 -35.98314667 86.04420319 -37.09947205 86.05024719 C-40.58589454 85.4460766 -41.74458367 84.29749904 -43.9140625 81.5625 C-44.58007812 79.59887695 -44.58007812 79.59887695 -44.8203125 77.55078125 C-44.9219873 76.79684082 -45.02366211 76.04290039 -45.12841797 75.26611328 C-45.22268066 74.4770459 -45.31694336 73.68797852 -45.4140625 72.875 C-47.03394955 61.37523344 -47.03394955 61.37523344 -53.5390625 52.0625 C-58.58858543 48.87332762 -63.02662025 49.01592048 -68.9140625 49.5625 C-80.02161123 52.50795222 -88.21852033 61.77950793 -93.96484375 71.30419922 C-113.92871673 105.80889665 -127.80929324 152.87663437 -117.890625 192.59765625 C-115.40389145 200.14737931 -112.74072282 206.19343739 -105.9140625 210.5625 C-99.33540149 213.40035377 -92.69910357 213.24742473 -85.98242188 210.88232422 C-71.6395465 205.12675077 -64.99002437 196.40794486 -58.26171875 182.859375 C-56.97272854 179.70601923 -56.3175079 176.93305647 -55.9140625 173.5625 C-57.43386719 173.48902344 -57.43386719 173.48902344 -58.984375 173.4140625 C-60.33596161 173.33897436 -61.68752288 173.26342919 -63.0390625 173.1875 C-63.70421875 173.1565625 -64.369375 173.125625 -65.0546875 173.09375 C-74.96582031 172.51074219 -74.96582031 172.51074219 -77.9140625 169.5625 C-78.30176787 163.6437279 -77.18024401 158.35772294 -75.83203125 152.61328125 C-75.61718582 151.67824265 -75.40234039 150.74320404 -75.1809845 149.77983093 C-74.72665528 147.81317944 -74.26838593 145.84743448 -73.80639648 143.88256836 C-73.1020399 140.8770371 -72.41654548 137.86761482 -71.73242188 134.85742188 C-71.28759072 132.94244494 -70.84166463 131.02772194 -70.39453125 129.11328125 C-70.08965034 127.76632927 -70.08965034 127.76632927 -69.77861023 126.39216614 C-67.86846798 118.38794147 -67.86846798 118.38794147 -64.9140625 115.5625 C-62.16824072 114.64722607 -60.54277583 114.43338199 -57.71463013 114.42205811 C-56.85948822 114.41634796 -56.00434631 114.41063782 -55.12329102 114.40475464 C-54.18815674 114.40363678 -53.25302246 114.40251892 -52.28955078 114.40136719 C-51.30227997 114.39640228 -50.31500916 114.39143738 -49.29782104 114.38632202 C-46.02666532 114.37169797 -42.75555807 114.36489829 -39.484375 114.359375 C-37.21377562 114.35362415 -34.94317625 114.34786641 -32.6725769 114.34210205 C-27.90948256 114.33159165 -23.1464051 114.3257491 -18.38330078 114.32226562 C-12.27767919 114.31677807 -6.17228029 114.29274444 -0.06672859 114.26429367 C4.62412165 114.24567856 9.3149181 114.24046231 14.00580215 114.23892975 C16.25688012 114.23590061 18.50795709 114.22786334 20.75899887 114.21474457 C23.90705109 114.19770648 27.05455721 114.19955892 30.20263672 114.20605469 C31.59926544 114.19223251 31.59926544 114.19223251 33.02410889 114.1781311 C37.88922973 114.20960785 41.10092313 114.43400625 45.0859375 117.5625 C44.55188456 124.1368163 43.62590953 130.4656753 42.16015625 136.89453125 C41.97129349 137.73416916 41.78243073 138.57380707 41.58784485 139.43888855 C41.19016564 141.19494647 40.78918856 142.95026062 40.38500977 144.70483398 C39.77163064 147.38288888 39.17950242 150.06511065 38.58789062 152.74804688 C38.19660185 154.46383621 37.80406724 156.17934202 37.41015625 157.89453125 C37.23707443 158.69043167 37.06399261 159.48633209 36.88566589 160.30635071 C35.7983477 164.91122058 34.60474433 168.18515274 31.0859375 171.5625 C27.61235755 172.25721599 24.41447576 172.50566414 20.89453125 172.65625 C18.49532747 172.78792544 18.49532747 172.78792544 15.0859375 173.5625 C12.75883053 176.75565401 11.47385907 179.98168578 10.32421875 183.73828125 C10.01411865 184.72344727 9.70401855 185.70861328 9.38452148 186.72363281 C9.05911377 187.76358398 8.73370605 188.80353516 8.3984375 189.875 C5.12392399 200.00217309 1.25736104 209.27483226 -3.9140625 218.5625 C-4.79384766 220.17318359 -4.79384766 220.17318359 -5.69140625 221.81640625 C-11.87483599 232.79514885 -19.29811937 242.39526252 -27.9140625 251.5625 C-28.46449219 252.18898438 -29.01492188 252.81546875 -29.58203125 253.4609375 C-39.36241714 264.13484013 -53.73834747 270.14517117 -67.3515625 274.25 C-68.35268066 274.55393677 -68.35268066 274.55393677 -69.37402344 274.86401367 C-79.50774124 277.77654623 -89.57657194 278.93207516 -100.1015625 278.875 C-101.18727539 278.87008545 -102.27298828 278.8651709 -103.39160156 278.86010742 C-125.43803159 278.54203596 -146.8465785 272.64782884 -162.61645508 256.44335938 C-183.58369411 233.79998536 -190.66483943 201.51026732 -190.1015625 171.41015625 C-187.39182481 115.80408077 -172.65881521 52.65087875 -129.9140625 13.5625 C-129.18832031 12.89089844 -128.46257812 12.21929687 -127.71484375 11.52734375 C-122.21699491 6.5625 -122.21699491 6.5625 -119.9140625 6.5625 C-119.9140625 5.9025 -119.9140625 5.2425 -119.9140625 4.5625 C-87.58643909 -21.17725256 -33.20269484 -27.77276352 0 0 Z " fill="#0CE149" transform="translate(328.9140625,410.4375)"/>
<path d="M0 0 C0.86383301 -0.00365067 1.72766602 -0.00730133 2.61767578 -0.01106262 C5.47114764 -0.01916436 8.32405102 -0.00556223 11.17749023 0.0090332 C13.1599884 0.00955181 15.14248708 0.00903409 17.12498474 0.00752258 C21.27855105 0.00761229 25.43192319 0.01803887 29.58544922 0.03613281 C34.91436939 0.05883463 40.24300617 0.05936119 45.5719614 0.05261517 C49.66483589 0.049277 53.75764554 0.05590217 57.85050774 0.0657444 C59.81574095 0.0695982 61.78098137 0.07074387 63.74621773 0.06915855 C66.48980633 0.0687885 69.23302879 0.08139094 71.9765625 0.09765625 C72.79170822 0.09517883 73.60685394 0.09270142 74.44670105 0.09014893 C78.29654882 0.1266523 80.14454659 0.18628952 83.42358398 2.37231445 C83.79963148 4.4254517 83.79963148 4.4254517 83.80110741 7.01412868 C83.80893065 7.99857824 83.81675389 8.98302779 83.8248142 9.99730915 C83.81477595 11.63137221 83.81477595 11.63137221 83.80453491 13.29844666 C83.80921488 14.44960057 83.81389486 15.60075449 83.81871665 16.78679186 C83.82864531 19.99184054 83.82502741 23.19655115 83.81575799 26.40159166 C83.80899389 29.85428932 83.8194356 33.30693988 83.82769775 36.7596283 C83.84106606 43.52757468 83.8381435 50.29542148 83.82945983 57.06337183 C83.82269527 62.56244933 83.82176123 68.06149884 83.82503128 73.5605793 C83.82549098 74.34209402 83.82595068 75.12360874 83.82642431 75.92880573 C83.82738345 77.51625947 83.82835609 79.10371321 83.82934208 80.69116694 C83.83790519 95.59133315 83.82804773 110.49144407 83.81194098 125.39160121 C83.79853958 138.18524883 83.80086263 150.97881479 83.81469727 163.77246094 C83.83074137 178.61635307 83.83707836 193.46019669 83.82786047 208.30409628 C83.82690479 209.88614213 83.82596168 211.46818798 83.82503128 213.05023384 C83.82456845 213.82870082 83.82410563 214.60716781 83.82362878 215.4092247 C83.82103518 220.90316314 83.82541789 226.39707088 83.83246994 231.89100456 C83.84087229 238.58428156 83.83863167 245.27745298 83.82262771 251.97071784 C83.81472743 255.38778715 83.81168299 258.80468024 83.82157516 262.22174835 C83.82972028 265.92107666 83.8195539 269.61990268 83.80453491 273.31919861 C83.81122708 274.40634326 83.81791924 275.49348792 83.8248142 276.61357635 C83.81699096 277.60063365 83.80916772 278.58769095 83.80110741 279.60465908 C83.80037682 280.88629772 83.80037682 280.88629772 83.79963148 282.19382805 C83.33646 284.87703373 82.59099351 285.76450792 80.42358398 287.37231445 C77.61535645 287.74653625 77.61535645 287.74653625 74.16381836 287.74462891 C72.87237915 287.7508577 71.58093994 287.75708649 70.25036621 287.76350403 C68.83935155 287.75481595 67.42834065 287.74549797 66.01733398 287.7355957 C64.57149252 287.73507704 63.12565034 287.73559497 61.67980957 287.73710632 C58.65012073 287.73701662 55.62069807 287.72659092 52.59106445 287.70849609 C48.70705748 287.68580878 44.82343946 287.68526493 40.93938446 287.69201374 C37.95396466 287.69535483 34.96863357 287.68872103 31.98323059 287.67888451 C30.55109623 287.67503461 29.11895201 287.67388342 27.68681335 287.67547035 C25.68563626 287.67584109 23.68447223 287.66174279 21.68334961 287.64697266 C20.54434204 287.64236526 19.40533447 287.63775787 18.23181152 287.63301086 C15.42358398 287.37231445 15.42358398 287.37231445 12.42358398 285.37231445 C12.15631384 282.88890542 12.07492064 280.65759378 12.13061523 278.17700195 C12.13486008 277.46955841 12.13910492 276.76211487 12.14347839 276.03323364 C12.16028851 273.77087541 12.19794271 271.50940397 12.23608398 269.24731445 C12.25112791 267.71477522 12.26481683 266.18222205 12.27709961 264.6496582 C12.31019936 260.89020127 12.36199574 257.13140827 12.42358398 253.37231445 C5.31637216 252.52789265 -1.68793844 252.21247353 -8.84204102 252.2043457 C-9.87907166 252.2010173 -10.91610229 252.1976889 -11.98455811 252.19425964 C-14.15937867 252.18923112 -16.33420683 252.18685005 -18.5090332 252.18701172 C-21.83110104 252.18481135 -25.15284364 252.16657456 -28.47485352 252.14770508 C-30.59724822 252.14477304 -32.71964449 252.14278698 -34.84204102 252.1418457 C-36.32344574 252.13106743 -36.32344574 252.13106743 -37.83477783 252.12007141 C-44.91987501 252.1297752 -44.91987501 252.1297752 -51.57641602 254.37231445 C-53.11898586 256.24257798 -53.11898586 256.24257798 -53.99047852 258.59106445 C-54.54348633 259.86723633 -54.54348633 259.86723633 -55.10766602 261.16918945 C-55.46860352 262.0612207 -55.82954102 262.95325195 -56.20141602 263.87231445 C-56.57008789 264.7334082 -56.93875977 265.59450195 -57.31860352 266.48168945 C-58.82022836 270.01368029 -60.27446235 273.55095434 -61.59887695 277.15356445 C-61.92919922 278.04043945 -62.25952148 278.92731445 -62.59985352 279.84106445 C-62.88521973 280.63963867 -63.17058594 281.43821289 -63.46459961 282.26098633 C-64.85175091 284.89517263 -66.01584473 285.84414548 -68.57641602 287.37231445 C-71.54286194 287.75999451 -71.54286194 287.75999451 -75.04150391 287.77636719 C-77.00858055 287.79539345 -77.00858055 287.79539345 -79.01539612 287.81480408 C-80.44328977 287.81275294 -81.87118235 287.80976516 -83.29907227 287.8059082 C-84.76590721 287.81046984 -86.23274001 287.81577536 -87.6995697 287.8217926 C-90.77034197 287.83071984 -93.84085409 287.82830406 -96.91162109 287.81835938 C-100.84851022 287.80685247 -104.78450469 287.82710823 -108.72127628 287.85627651 C-111.74875088 287.87461026 -114.77600976 287.87435211 -117.80352592 287.86863899 C-119.25521541 287.86848552 -120.70691928 287.87455118 -122.15855598 287.88693047 C-124.185895 287.90178744 -126.21338132 287.88856091 -128.24072266 287.87402344 C-129.39447891 287.87385727 -130.54823517 287.8736911 -131.73695374 287.8735199 C-134.57641602 287.37231445 -134.57641602 287.37231445 -136.51052856 285.5776062 C-137.9505856 282.59816789 -137.25893857 280.55285415 -136.32632446 277.47128296 C-135.16377715 274.21735216 -133.81147309 271.07604858 -132.33813477 267.9543457 C-131.86285591 266.92469948 -131.86285591 266.92469948 -131.37797546 265.87425232 C-130.69891645 264.40504177 -130.0167519 262.93726319 -129.33172607 261.4708252 C-127.87222363 258.34626364 -126.42800696 255.2147141 -124.98278809 252.08352661 C-124.24454814 250.48443465 -123.50553182 248.88570088 -122.76574707 247.287323 C-119.4367882 240.09090811 -116.18317796 232.862874 -112.95141602 225.62231445 C-111.90717138 223.29027147 -110.86290039 220.95824029 -109.81860352 218.6262207 C-108.12127162 214.83209231 -106.42653594 211.03686343 -104.73754883 207.23901367 C-103.16186315 203.69614336 -101.58041883 200.15588878 -99.9956665 196.61706543 C-99.39221196 195.26655491 -98.79086392 193.91510076 -98.1918335 192.56262207 C-95.44085178 186.35314619 -92.69124291 180.32130853 -88.94848633 174.63867188 C-85.43011323 168.82709582 -82.64742643 162.5514268 -79.70141602 156.43481445 C-79.33225067 155.67164917 -78.96308533 154.90848389 -78.58273315 154.12219238 C-70.62710631 137.66833981 -63.011602 121.06699326 -55.57641602 104.37231445 C-55.07464844 103.24744629 -54.57288086 102.12257813 -54.0559082 100.96362305 C-45.79426532 82.44326448 -45.79426532 82.44326448 -38.94287109 63.3671875 C-36.81661427 56.67095245 -34.02337741 50.33564245 -31.13891602 43.93481445 C-30.6168457 42.77208008 -30.09477539 41.6093457 -29.55688477 40.41137695 C-28.4591336 37.97163812 -27.35934748 35.53292833 -26.2565918 33.09545898 C-24.85358979 29.99209562 -23.46538358 26.88235042 -22.08079529 23.77073669 C-20.75560705 20.80026632 -19.41498243 17.83677479 -18.07641602 14.87231445 C-17.58471924 13.76315674 -17.09302246 12.65399902 -16.58642578 11.51123047 C-16.11906006 10.48570068 -15.65169434 9.4601709 -15.17016602 8.40356445 C-14.76475586 7.50186523 -14.3593457 6.60016602 -13.94165039 5.67114258 C-10.52235634 -0.08638117 -6.24530825 -0.05870894 0 0 Z M19.42358398 76.37231445 C9.56571537 99.83983618 -0.08402004 123.38357801 -9.52539062 147.02172852 C-11.21906464 151.26182597 -12.91841716 155.4996247 -14.61905575 159.73693275 C-15.94681537 163.04721565 -17.27140661 166.35875904 -18.59503365 169.67069626 C-19.22195073 171.23806541 -19.84993208 172.80500933 -20.47901726 174.37150955 C-21.34282057 176.52363692 -22.20226695 178.6774522 -23.06054688 180.83178711 C-23.54825058 182.05112946 -24.03595428 183.2704718 -24.53843689 184.52676392 C-25.6906446 187.18063892 -25.6906446 187.18063892 -25.57641602 189.37231445 C-20.05886797 189.44634238 -14.54160746 189.50085811 -9.02368164 189.53710938 C-7.14570075 189.5522177 -5.26775526 189.57270539 -3.38989258 189.59863281 C-0.69416583 189.63492692 2.00109544 189.65201991 4.69702148 189.6652832 C5.53977631 189.68076706 6.38253113 189.69625092 7.25082397 189.71220398 C9.86080674 189.74820582 9.86080674 189.74820582 13.42358398 189.37231445 C16.94162866 184.09524744 16.63472679 178.05573278 16.90429688 171.86694336 C16.94345718 171.03345367 16.98261749 170.19996399 17.02296448 169.34121704 C17.15103337 166.59392467 17.27381006 163.84642596 17.39624023 161.09887695 C17.48428015 159.17279101 17.57253544 157.24671489 17.66099548 155.32064819 C17.84569457 151.28084438 18.02777226 147.24093308 18.20800781 143.20092773 C18.43729772 138.066006 18.67302936 132.93140491 18.91079044 127.79686928 C19.09447016 123.81427781 19.27463102 119.83153277 19.45379448 115.84873581 C19.53923952 113.95838981 19.62573289 112.06809085 19.71336555 110.177845 C20.23402354 98.89864797 20.54370136 87.66458955 20.42358398 76.37231445 C20.09358398 76.37231445 19.76358398 76.37231445 19.42358398 76.37231445 Z " fill="#0BE248" transform="translate(636.576416015625,397.627685546875)"/>
<path d="M0 0 C0.83178268 -0.00140991 1.66356537 -0.00281982 2.52055359 -0.00427246 C5.24551559 -0.00641933 7.97036213 -0.00008823 10.6953125 0.0078125 C11.62125214 0.0093634 12.54719177 0.01091431 13.50119019 0.01251221 C90.21675388 0.16366933 90.21675388 0.16366933 114.8203125 22.1328125 C115.56667969 22.78636719 116.31304688 23.43992187 117.08203125 24.11328125 C133.73247979 39.63296928 139.010559 61.26200746 139.90722656 83.265625 C141.28733106 124.49406306 128.11659373 160.68056528 100.78515625 191.421875 C77.20253755 216.37096319 43.50386519 227.49929038 9.87559509 228.51428223 C8.39675163 228.55588807 6.91787338 228.59627356 5.43896484 228.63549805 C3.22087855 228.69463092 1.00304026 228.75992595 -1.21484375 228.82617188 C-10.53918863 229.09401452 -19.85149546 229.18654043 -29.1796875 229.1328125 C-26.31773584 232.25318723 -23.60070937 234.1751631 -19.828125 236.078125 C-18.81234375 236.59761719 -17.7965625 237.11710938 -16.75 237.65234375 C-15.69554687 238.18214844 -14.64109375 238.71195313 -13.5546875 239.2578125 C-11.45663592 240.31956918 -9.36019692 241.38452024 -7.265625 242.453125 C-5.8741626 243.15332764 -5.8741626 243.15332764 -4.45458984 243.86767578 C-2.1796875 245.1328125 -2.1796875 245.1328125 -0.1796875 247.1328125 C0.49589306 254.57308783 -1.31159614 261.58946673 -2.9296875 268.8203125 C-3.18234375 270.03009766 -3.435 271.23988281 -3.6953125 272.48632812 C-3.953125 273.65228516 -4.2109375 274.81824219 -4.4765625 276.01953125 C-4.70698242 277.07358154 -4.93740234 278.12763184 -5.17480469 279.21362305 C-6.35455217 282.6407952 -7.63542507 284.54827606 -10.1796875 287.1328125 C-12.99427795 287.74754333 -12.99427795 287.74754333 -16.27758789 287.73217773 C-17.50888931 287.73825546 -18.74019073 287.74433319 -20.00880432 287.75059509 C-21.34832938 287.73169173 -22.68784272 287.71194177 -24.02734375 287.69140625 C-25.40449069 287.68715423 -26.7816448 287.68482736 -28.15879822 287.68434143 C-31.04149986 287.67818169 -33.92342271 287.65550997 -36.8059082 287.61987305 C-40.50047391 287.57455782 -44.19433553 287.55984462 -47.88915348 287.55613613 C-50.73134807 287.55170738 -53.57339497 287.53640408 -56.41552544 287.5172596 C-57.777875 287.50838253 -59.14024028 287.50165003 -60.50261116 287.49709892 C-62.40554433 287.48805474 -64.30838819 287.46397854 -66.21118164 287.43920898 C-67.83522667 287.42324928 -67.83522667 287.42324928 -69.49208069 287.40696716 C-72.1796875 287.1328125 -72.1796875 287.1328125 -75.1796875 285.1328125 C-75.71301847 279.66274993 -74.61853131 274.71186523 -73.37329102 269.42919922 C-73.17882731 268.57680412 -72.98436361 267.72440903 -72.78400707 266.84618378 C-72.13274607 263.99991352 -71.47065385 261.15627607 -70.80859375 258.3125 C-70.33837954 256.26737619 -69.86885369 254.22209401 -69.39996338 252.17666626 C-68.12321537 246.6156181 -66.83718281 241.05675331 -65.5496254 235.49819946 C-64.19174284 229.62835411 -62.84268508 223.75648186 -61.49291992 217.88476562 C-59.22000094 208.00134939 -56.94245478 198.11900992 -54.66210938 188.23730469 C-49.88613111 167.53744637 -45.14261057 146.83015009 -40.39730167 126.12324429 C-38.5393758 118.01690103 -36.67845554 109.91124909 -34.81616211 101.8059082 C-28.52339724 74.41810209 -28.52339724 74.41810209 -22.31596184 47.01086807 C-21.83600279 44.87661919 -21.35513501 42.74257732 -20.87391663 40.60861206 C-19.5041076 34.53275936 -18.14026426 28.4557278 -16.79223633 22.375 C-16.34100527 20.36841136 -15.88945316 18.36189487 -15.4375 16.35546875 C-15.24811356 15.48620255 -15.05872711 14.61693634 -14.86360168 13.72132874 C-13.82781941 9.16546514 -12.60170676 5.19063122 -10.1796875 1.1328125 C-6.98124503 -0.46640873 -3.51234154 -0.00869155 0 0 Z M6.8203125 63.1328125 C6.7901705 65.04901244 6.7901705 65.04901244 7.8203125 67.1328125 C10.12181561 68.42177442 12.27186778 69.44844497 14.6953125 70.4453125 C32.33480525 78.16179801 32.33480525 78.16179801 34.8203125 83.1328125 C34.81043084 91.02158672 32.70135875 98.80558887 30.9366436 106.44541359 C30.43101173 108.63485312 29.93300844 110.82591249 29.43678284 113.01750183 C28.38381501 117.66164264 27.32131392 122.30357441 26.2578125 126.9453125 C25.02103305 132.34616664 23.78824069 137.74788229 22.56410408 143.15161705 C22.07440734 145.3046654 21.57819753 147.45614326 21.08164978 149.60762024 C20.78125694 150.92950556 20.48115679 152.25145743 20.18139648 153.57348633 C19.9179393 154.72246902 19.65448212 155.87145172 19.38304138 157.05525208 C18.87188366 159.85077016 18.62626231 162.30224009 18.8203125 165.1328125 C20.54135399 166.85385399 22.64937362 166.50819222 25.0078125 166.6328125 C34.63702559 166.58673971 43.76138678 161.50081563 50.8203125 155.1328125 C52.54698756 153.05358482 54.14046863 151.01867786 55.6953125 148.8203125 C56.12658447 148.21074707 56.55785645 147.60118164 57.00219727 146.97314453 C67.59137666 131.54673829 71.9952322 114.82673749 72.0078125 96.1953125 C72.02005859 95.24462891 72.03230469 94.29394531 72.04492188 93.31445312 C72.06184902 85.12735816 70.91151886 78.37110068 66.8203125 71.1328125 C66.2634375 70.1015625 65.7065625 69.0703125 65.1328125 68.0078125 C61.74942317 63.80143658 57.973596 61.67747375 52.62524414 60.75366211 C46.03449286 60.13618881 39.5004254 59.98250614 32.8828125 60.0078125 C31.87541016 60.00394531 30.86800781 60.00007813 29.83007812 59.99609375 C17.78289447 59.45437234 17.78289447 59.45437234 6.8203125 63.1328125 Z " fill="#0CE148" transform="translate(802.1796875,397.8671875)"/>
<path d="M0 0 C0.94875 0.41894531 1.8975 0.83789062 2.875 1.26953125 C17.59766899 8.52630134 28.74508056 21.40965211 34.29711914 36.78808594 C38.0188216 47.82691367 39.34677629 58.45654922 39.3125 70.0625 C39.32861328 71.18849609 39.34472656 72.31449219 39.36132812 73.47460938 C39.36197266 74.54646484 39.36261719 75.61832031 39.36328125 76.72265625 C39.36626221 77.68953369 39.36924316 78.65641113 39.37231445 79.65258789 C39.24945068 80.42723389 39.12658691 81.20187988 39 82 C35.54742504 84.30171664 34.19591519 84.26570664 30.12329102 84.30639648 C28.91516251 84.32238388 27.707034 84.33837128 26.46229553 84.35484314 C25.15602707 84.36020584 23.84975861 84.36556854 22.50390625 84.37109375 C21.15014038 84.38006117 19.79637553 84.38918304 18.44261169 84.39845276 C15.60551546 84.41493773 12.76853718 84.42264208 9.93139648 84.42553711 C6.29823182 84.43092455 2.66617715 84.46861881 -0.96667385 84.51428127 C-3.76255837 84.54404119 -6.55817504 84.55126038 -9.35420418 84.55226326 C-11.34402917 84.5585088 -13.3337373 84.58798623 -15.323349 84.61778259 C-17.14027 84.608666 -17.14027 84.608666 -18.99389648 84.59936523 C-20.59248756 84.60697121 -20.59248756 84.60697121 -22.22337341 84.61473083 C-25.957365 83.78804432 -26.97311467 82.15196696 -29 79 C-29.65014648 76.96704102 -29.65014648 76.96704102 -29.87109375 75.00390625 C-29.97099609 74.28009766 -30.07089844 73.55628906 -30.17382812 72.81054688 C-30.34910488 71.31615027 -30.5210004 69.82135307 -30.68945312 68.32617188 C-31.46510272 62.76817321 -32.89392657 59.89809576 -37 56 C-41.80303694 53.70185815 -46.74156612 53.58947413 -51.8125 55.0625 C-56.81918618 57.07932765 -59.92060564 59.78981156 -62.3125 64.6875 C-64.37422052 74.62124432 -62.81310255 83.90477681 -57.375 92.5 C-53.67031639 97.70485179 -49.33800618 102.32387393 -45 107 C-43.49822993 108.68592494 -41.99821396 110.3734141 -40.5 112.0625 C-37.54700598 115.3498923 -34.51815305 118.5191386 -31.375 121.625 C-27.37064653 125.59477356 -23.59430173 129.65532212 -20 134 C-19.22785156 134.92167969 -18.45570313 135.84335937 -17.66015625 136.79296875 C-0.41770363 157.91111095 7.99485293 183.65389102 6 211 C3.63474349 233.72409822 -5.56503734 254.80306567 -23 270 C-44.18342524 286.98490853 -70.70270627 291.87515783 -97.25 289.3125 C-117.23917987 287.10560211 -135.82911011 280.5825 -149.50390625 265.1796875 C-154.73524 258.57803733 -158.36660829 251.98763093 -161 244 C-161.57041016 242.31777344 -161.57041016 242.31777344 -162.15234375 240.6015625 C-164.72322196 231.87338523 -165.51999147 223.33143549 -165.9375 214.25 C-165.99518555 213.10644043 -166.05287109 211.96288086 -166.11230469 210.78466797 C-166.14614258 209.70588379 -166.17998047 208.62709961 -166.21484375 207.515625 C-166.24698975 206.54915039 -166.27913574 205.58267578 -166.31225586 204.58691406 C-165.93294489 201.4444754 -165.31756282 200.15465024 -163 198 C-160.53125 197.39501953 -160.53125 197.39501953 -157.5 197.2578125 C-155.75589844 197.17515137 -155.75589844 197.17515137 -153.9765625 197.09082031 C-147.14919042 196.93489065 -140.32725509 196.85219377 -133.49804688 196.86962891 C-131.00384445 196.87499173 -128.50982202 196.869649 -126.015625 196.86328125 C-105.64635374 196.85166994 -105.64635374 196.85166994 -99 198 C-96.59932762 200.40067238 -96.64281423 201.31233939 -96.2890625 204.61328125 C-96.17820312 205.53173828 -96.06734375 206.45019531 -95.953125 207.39648438 C-95.73577365 209.3280651 -95.52475077 211.26036928 -95.3203125 213.19335938 C-94.66174217 218.54798517 -94.11327683 222.14626071 -90 226 C-86.02916043 228.25371975 -82.50943346 228.39556434 -78 228 C-73.33066536 226.26044396 -70.59622117 224.26522049 -68 220 C-64.61501312 209.76810783 -65.82330526 200.7806642 -70.3359375 191.1484375 C-76.16265092 180.37612342 -84.80266107 172.09671923 -93.4453125 163.578125 C-95.71300699 161.27624416 -97.8264602 158.85844327 -99.9296875 156.40625 C-101.52215098 154.55538679 -103.13186869 152.72730707 -104.7578125 150.90625 C-125.302324 127.71115645 -136.92993202 103.20086574 -135.22753906 71.72265625 C-134.65855034 64.91432772 -133.12558072 58.47865357 -131 52 C-130.78569336 51.34563965 -130.57138672 50.6912793 -130.35058594 50.01708984 C-122.87032538 28.00639594 -108.05077095 12.11509269 -87.44677734 1.85229492 C-60.82034129 -10.71906745 -26.99592059 -12.01731669 0 0 Z " fill="#0CE149" transform="translate(509,400)"/>
<path d="M0 0 C0.94875 0.41894531 1.8975 0.83789062 2.875 1.26953125 C17.59766899 8.52630134 28.74508056 21.40965211 34.29711914 36.78808594 C38.0188216 47.82691367 39.34677629 58.45654922 39.3125 70.0625 C39.32861328 71.18849609 39.34472656 72.31449219 39.36132812 73.47460938 C39.36197266 74.54646484 39.36261719 75.61832031 39.36328125 76.72265625 C39.36626221 77.68953369 39.36924316 78.65641113 39.37231445 79.65258789 C39.24945068 80.42723389 39.12658691 81.20187988 39 82 C35.54742504 84.30171664 34.19591519 84.26570664 30.12329102 84.30639648 C28.91516251 84.32238388 27.707034 84.33837128 26.46229553 84.35484314 C25.15602707 84.36020584 23.84975861 84.36556854 22.50390625 84.37109375 C21.15014038 84.38006117 19.79637553 84.38918304 18.44261169 84.39845276 C15.60551546 84.41493773 12.76853718 84.42264208 9.93139648 84.42553711 C6.29823182 84.43092455 2.66617715 84.46861881 -0.96667385 84.51428127 C-3.76255837 84.54404119 -6.55817504 84.55126038 -9.35420418 84.55226326 C-11.34402917 84.5585088 -13.3337373 84.58798623 -15.323349 84.61778259 C-17.14027 84.608666 -17.14027 84.608666 -18.99389648 84.59936523 C-20.59248756 84.60697121 -20.59248756 84.60697121 -22.22337341 84.61473083 C-25.957365 83.78804432 -26.97311467 82.15196696 -29 79 C-29.65014648 76.96704102 -29.65014648 76.96704102 -29.87109375 75.00390625 C-29.97099609 74.28009766 -30.07089844 73.55628906 -30.17382812 72.81054688 C-30.34910488 71.31615027 -30.5210004 69.82135307 -30.68945312 68.32617188 C-31.46510272 62.76817321 -32.89392657 59.89809576 -37 56 C-41.80303694 53.70185815 -46.74156612 53.58947413 -51.8125 55.0625 C-56.81918618 57.07932765 -59.92060564 59.78981156 -62.3125 64.6875 C-64.37422052 74.62124432 -62.81310255 83.90477681 -57.375 92.5 C-53.67031639 97.70485179 -49.33800618 102.32387393 -45 107 C-43.49822993 108.68592494 -41.99821396 110.3734141 -40.5 112.0625 C-37.54700598 115.3498923 -34.51815305 118.5191386 -31.375 121.625 C-27.37064653 125.59477356 -23.59430173 129.65532212 -20 134 C-19.22785156 134.92167969 -18.45570313 135.84335937 -17.66015625 136.79296875 C-0.41770363 157.91111095 7.99485293 183.65389102 6 211 C3.63474349 233.72409822 -5.56503734 254.80306567 -23 270 C-44.18342524 286.98490853 -70.70270627 291.87515783 -97.25 289.3125 C-117.23917987 287.10560211 -135.82911011 280.5825 -149.50390625 265.1796875 C-154.73524 258.57803733 -158.36660829 251.98763093 -161 244 C-161.57041016 242.31777344 -161.57041016 242.31777344 -162.15234375 240.6015625 C-164.72322196 231.87338523 -165.51999147 223.33143549 -165.9375 214.25 C-165.99518555 213.10644043 -166.05287109 211.96288086 -166.11230469 210.78466797 C-166.14614258 209.70588379 -166.17998047 208.62709961 -166.21484375 207.515625 C-166.24698975 206.54915039 -166.27913574 205.58267578 -166.31225586 204.58691406 C-165.93294489 201.4444754 -165.31756282 200.15465024 -163 198 C-160.53125 197.39501953 -160.53125 197.39501953 -157.5 197.2578125 C-155.75589844 197.17515137 -155.75589844 197.17515137 -153.9765625 197.09082031 C-147.14919042 196.93489065 -140.32725509 196.85219377 -133.49804688 196.86962891 C-131.00384445 196.87499173 -128.50982202 196.869649 -126.015625 196.86328125 C-105.64635374 196.85166994 -105.64635374 196.85166994 -99 198 C-96.59932762 200.40067238 -96.64281423 201.31233939 -96.2890625 204.61328125 C-96.17820312 205.53173828 -96.06734375 206.45019531 -95.953125 207.39648438 C-95.73577365 209.3280651 -95.52475077 211.26036928 -95.3203125 213.19335938 C-94.66174217 218.54798517 -94.11327683 222.14626071 -90 226 C-86.02916043 228.25371975 -82.50943346 228.39556434 -78 228 C-73.33066536 226.26044396 -70.59622117 224.26522049 -68 220 C-64.61501312 209.76810783 -65.82330526 200.7806642 -70.3359375 191.1484375 C-76.16085138 180.37945037 -84.79715789 172.10165929 -93.4375 163.5859375 C-100.08606749 156.8376415 -105.96098999 149.29055534 -112 142 C-111.01 141.67 -110.02 141.34 -109 141 C-104.06919858 145.79591628 -99.48599357 150.78966252 -95 156 C-94.03071497 157.10614137 -93.06059141 158.21154826 -92.08984375 159.31640625 C-88.69688647 163.1857578 -85.34129403 167.08599494 -82 171 C-81.45553223 171.63421875 -80.91106445 172.2684375 -80.35009766 172.921875 C-70.78547778 184.1409626 -61.63387343 195.15687458 -62.5078125 210.73046875 C-63.63279416 218.20356121 -65.9719855 224.1775884 -72 229 C-76.72796455 231.86112876 -81.63433512 231.6307966 -87 231 C-92.44894006 228.32506579 -95.98619832 224.70347115 -98.125 219 C-99.30321479 214.30799421 -99.87552024 209.48176223 -100.53515625 204.6953125 C-100.71772372 202.09006176 -100.71772372 202.09006176 -102 201 C-103.83572631 200.90094848 -105.67527575 200.87200793 -107.51367188 200.87060547 C-109.28055359 200.86587723 -109.28055359 200.86587723 -111.08312988 200.86105347 C-112.36538452 200.8630777 -113.64763916 200.86510193 -114.96875 200.8671875 C-116.27453003 200.86623077 -117.58031006 200.86527405 -118.92565918 200.86428833 C-121.69312722 200.86281167 -124.46056304 200.86496489 -127.22802734 200.86962891 C-130.78262649 200.87532619 -134.33715014 200.87204702 -137.89174652 200.86605644 C-141.27158714 200.86158253 -144.65140723 200.86471114 -148.03125 200.8671875 C-149.31350464 200.86516327 -150.59575928 200.86313904 -151.91687012 200.86105347 C-153.09479126 200.86420563 -154.2727124 200.86735779 -155.48632812 200.87060547 C-156.52921997 200.87140106 -157.57211182 200.87219666 -158.64660645 200.87301636 C-160.95760635 200.73494593 -160.95760635 200.73494593 -162 202 C-163.81571523 224.10163713 -160.78616484 244.35333508 -147.1875 262.375 C-133.60002227 278.253087 -116.69417317 282.291357 -97 286 C-95.45505859 286.30357422 -95.45505859 286.30357422 -93.87890625 286.61328125 C-70.07906004 289.81027552 -46.1583353 283.35577157 -27 269 C-10.0604928 255.62024431 -1.07987823 237.16106813 2 216 C2.2391842 212.18177478 2.23610292 208.38678248 2.1875 204.5625 C2.18685547 203.60279297 2.18621094 202.64308594 2.18554688 201.65429688 C2.12659677 191.92753027 1.54264998 182.51144988 -1.125 173.125 C-1.34381836 172.35470459 -1.56263672 171.58440918 -1.78808594 170.79077148 C-6.74451785 154.25271868 -17.57596399 142.44843107 -29.1015625 130.11328125 C-32.29280306 126.69676443 -35.40550371 123.2130296 -38.515625 119.72265625 C-40.45746002 117.59457605 -42.42360404 115.50775533 -44.421875 113.43359375 C-55.45999209 101.93677637 -65.76823696 90.13473409 -66.5 73.375 C-66.21244303 66.94671031 -64.64073913 60.95282648 -60.28125 56.078125 C-54.78097241 51.18381019 -50.21229404 50.64385766 -42.9453125 50.72265625 C-37.45136376 51.23999095 -34.91948192 54.03872345 -31.25 57.875 C-26.98383238 63.8002328 -26.45908423 70.18491482 -25.5625 77.26953125 C-25.376875 78.17058594 -25.19125 79.07164062 -25 80 C-22.39775736 81.30112132 -20.48628274 81.13417958 -17.57226562 81.14526367 C-16.43768921 81.15164352 -15.30311279 81.15802338 -14.13415527 81.16459656 C-12.90394653 81.16570938 -11.67373779 81.1668222 -10.40625 81.16796875 C-9.14864868 81.17129715 -7.89104736 81.17462555 -6.59533691 81.17805481 C-3.93217436 81.18312512 -1.26911383 81.18589475 1.39404297 81.18530273 C4.81069086 81.185201 8.22713146 81.19886531 11.64373016 81.21607494 C14.89789583 81.22984805 18.15205911 81.22928305 21.40625 81.23046875 C22.63645874 81.23765427 23.86666748 81.24483978 25.13415527 81.25224304 C26.26873169 81.24916641 27.40330811 81.24608978 28.57226562 81.24291992 C29.57439087 81.24434494 30.57651611 81.24576996 31.60900879 81.24723816 C34.18562086 81.23479686 34.18562086 81.23479686 36 79 C37.95911879 59.12070635 33.83551072 36.38287504 21.71435547 20.29345703 C14.38855415 11.38585783 5.5115455 6.40044059 -5 2 C-6.00417969 1.56945312 -7.00835937 1.13890625 -8.04296875 0.6953125 C-31.55064636 -8.59920939 -59.95857126 -5.95710839 -82.75 3.6875 C-90.92091722 7.30234432 -98.29701062 11.00774807 -105 17 C-105.69480469 17.59941406 -106.38960938 18.19882812 -107.10546875 18.81640625 C-122.48557557 33.06606034 -131.16241401 53.88718903 -132.30859375 74.66015625 C-132.96228405 94.66941136 -128.3482132 114.725866 -116.125 131 C-113.89565435 134.14731151 -113.27856742 136.19291199 -113 140 C-126.80378076 127.4141999 -134.43983462 104.71185694 -135.31640625 86.60546875 C-135.67065925 74.56086675 -134.76213645 63.46678574 -131 52 C-130.78569336 51.34563965 -130.57138672 50.6912793 -130.35058594 50.01708984 C-122.87032538 28.00639594 -108.05077095 12.11509269 -87.44677734 1.85229492 C-60.82034129 -10.71906745 -26.99592059 -12.01731669 0 0 Z " fill="#2EBD57" transform="translate(509,400)"/>
<path d="M0 0 C0.86368698 -0.00350464 1.72737396 -0.00700928 2.61723328 -0.01062012 C5.47602341 -0.01943234 8.33456666 -0.01359006 11.19335938 -0.00683594 C13.17728727 -0.00818273 15.16121484 -0.01012339 17.1451416 -0.01263428 C21.30463806 -0.01558485 25.46404867 -0.01129001 29.62353516 -0.00195312 C34.96031782 0.00944134 40.29689934 0.00288152 45.63367462 -0.00909805 C49.73083009 -0.01631843 53.82793771 -0.0140279 57.9250946 -0.00884247 C59.8931226 -0.00750647 61.8611549 -0.00915196 63.82917786 -0.01380157 C66.57764219 -0.01886969 69.32577887 -0.01115252 72.07421875 0 C72.89093552 -0.00404846 73.70765228 -0.00809692 74.54911804 -0.01226807 C78.40484772 0.01677756 80.25286692 0.06929409 83.53710938 2.25878906 C83.91315687 4.31192631 83.91315687 4.31192631 83.9146328 6.90060329 C83.92245604 7.88505285 83.93027928 8.8695024 83.93833959 9.88378376 C83.92830134 11.51784682 83.92830134 11.51784682 83.9180603 13.18492126 C83.92274027 14.33607518 83.92742025 15.4872291 83.93224204 16.67326647 C83.9421707 19.87831515 83.9385528 23.08302576 83.92928338 26.28806627 C83.92251928 29.74076393 83.93296099 33.19341449 83.94122314 36.64610291 C83.95459145 43.41404929 83.95166889 50.18189609 83.94298522 56.94984644 C83.93622066 62.44892394 83.93528662 67.94797345 83.93855667 73.44705391 C83.93901637 74.22856863 83.93947607 75.01008335 83.9399497 75.81528034 C83.94090884 77.40273408 83.94188148 78.99018782 83.94286747 80.57764155 C83.95143058 95.47780776 83.94157312 110.37791868 83.92546637 125.27807582 C83.91206497 138.07172344 83.91438802 150.8652894 83.92822266 163.65893555 C83.94426677 178.50282768 83.95060375 193.34667129 83.94138587 208.19057089 C83.94043018 209.77261674 83.93948707 211.35466259 83.93855667 212.93670845 C83.93809384 213.71517543 83.93763102 214.49364242 83.93715417 215.29569931 C83.93456057 220.78963775 83.93894328 226.28354549 83.94599533 231.77747917 C83.95439769 238.47075617 83.95215706 245.16392759 83.9361531 251.85719245 C83.92825282 255.27426175 83.92520838 258.69115484 83.93510056 262.10822296 C83.94324567 265.80755127 83.93307929 269.50637729 83.9180603 273.20567322 C83.92475247 274.29281787 83.93144463 275.37996253 83.93833959 276.50005096 C83.93051635 277.48710826 83.92269311 278.47416556 83.9146328 279.49113369 C83.91390221 280.77277233 83.91390221 280.77277233 83.91315687 282.08030266 C83.44998539 284.76350834 82.7045189 285.65098253 80.53710938 287.25878906 C77.72888184 287.63301086 77.72888184 287.63301086 74.27734375 287.63110352 C72.98590454 287.63733231 71.69446533 287.6435611 70.3638916 287.64997864 C68.95287694 287.64129056 67.54186604 287.63197258 66.13085938 287.62207031 C64.68501791 287.62155165 63.23917573 287.62206958 61.79333496 287.62358093 C58.76364612 287.62349123 55.73422346 287.61306552 52.70458984 287.5949707 C48.82058287 287.57228339 44.93696485 287.57173954 41.05290985 287.57848835 C38.06749005 287.58182944 35.08215896 287.57519564 32.09675598 287.56535912 C30.66462163 287.56150922 29.2324774 287.56035803 27.80033875 287.56194496 C25.79916165 287.5623157 23.79799762 287.5482174 21.796875 287.53344727 C20.65786743 287.52883987 19.51885986 287.52423248 18.34533691 287.51948547 C15.53710938 287.25878906 15.53710938 287.25878906 12.53710938 285.25878906 C12.26983923 282.77538003 12.18844603 280.54406838 12.24414062 278.06347656 C12.24838547 277.35603302 12.25263031 276.64858948 12.25700378 275.91970825 C12.27381391 273.65735002 12.3114681 271.39587858 12.34960938 269.13378906 C12.3646533 267.60124983 12.37834222 266.06869666 12.390625 264.53613281 C12.42372475 260.77667588 12.47552113 257.01788288 12.53710938 253.25878906 C5.42989755 252.41436726 -1.57441305 252.09894814 -8.72851562 252.09082031 C-9.76554626 252.08749191 -10.8025769 252.08416351 -11.87103271 252.08073425 C-14.04585328 252.07570573 -16.22068144 252.07332466 -18.39550781 252.07348633 C-21.71757565 252.07128596 -25.03931824 252.05304917 -28.36132812 252.03417969 C-30.48372283 252.03124765 -32.6061191 252.02926159 -34.72851562 252.02832031 C-36.20992035 252.01754204 -36.20992035 252.01754204 -37.72125244 252.00654602 C-44.80634962 252.01624981 -44.80634962 252.01624981 -51.46289062 254.25878906 C-53.00546046 256.12905258 -53.00546046 256.12905258 -53.87695312 258.47753906 C-54.42996094 259.75371094 -54.42996094 259.75371094 -54.99414062 261.05566406 C-55.35507812 261.94769531 -55.71601562 262.83972656 -56.08789062 263.75878906 C-56.4565625 264.61988281 -56.82523438 265.48097656 -57.20507812 266.36816406 C-58.70670297 269.90015489 -60.16093696 273.43742895 -61.48535156 277.04003906 C-61.81567383 277.92691406 -62.14599609 278.81378906 -62.48632812 279.72753906 C-62.77169434 280.52611328 -63.05706055 281.3246875 -63.35107422 282.14746094 C-64.73822552 284.78164724 -65.90231933 285.73062009 -68.46289062 287.25878906 C-71.42933655 287.64646912 -71.42933655 287.64646912 -74.92797852 287.6628418 C-76.89505516 287.68186806 -76.89505516 287.68186806 -78.90187073 287.70127869 C-80.32976438 287.69922755 -81.75765696 287.69623977 -83.18554688 287.69238281 C-84.65238182 287.69694445 -86.11921462 287.70224997 -87.58604431 287.70826721 C-90.65681658 287.71719445 -93.7273287 287.71477867 -96.7980957 287.70483398 C-100.73498483 287.69332708 -104.6709793 287.71358284 -108.60775089 287.74275112 C-111.63522549 287.76108487 -114.66248437 287.76082672 -117.69000053 287.7551136 C-119.14169002 287.75496013 -120.59339389 287.76102579 -122.04503059 287.77340508 C-124.07236961 287.78826205 -126.09985593 287.77503552 -128.12719727 287.76049805 C-129.28095352 287.76033188 -130.43470978 287.76016571 -131.62342834 287.75999451 C-134.46289062 287.25878906 -134.46289062 287.25878906 -136.39700317 285.46408081 C-137.83706021 282.4846425 -137.14541318 280.43932876 -136.21279907 277.35775757 C-135.05025176 274.10382677 -133.6979477 270.96252318 -132.22460938 267.84082031 C-131.74933052 266.81117409 -131.74933052 266.81117409 -131.26445007 265.76072693 C-130.58539105 264.29151638 -129.90322651 262.8237378 -129.21820068 261.3572998 C-127.75869824 258.23273825 -126.31448157 255.10118871 -124.8692627 251.97000122 C-124.13102274 250.37090926 -123.39200643 248.77217549 -122.65222168 247.17379761 C-119.32326234 239.9773817 -116.06970527 232.74932599 -112.83789062 225.50878906 C-111.79753344 223.18586908 -110.7571688 220.86295244 -109.71679688 218.54003906 C-107.67111717 213.96741755 -105.63256558 209.39171982 -103.59881592 204.81378174 C-102.30887194 201.91378917 -101.01363589 199.01617931 -99.71734619 196.11901855 C-99.09318926 194.72074202 -98.47137281 193.32141822 -97.85198975 191.92102051 C-96.99506404 189.98406417 -96.13031135 188.05078949 -95.26367188 186.11816406 C-94.77036377 185.00924805 -94.27705566 183.90033203 -93.76879883 182.7578125 C-92.46289062 180.25878906 -92.46289062 180.25878906 -90.46289062 179.25878906 C-91.05409969 184.43970061 -92.72444545 188.5385886 -94.89257812 193.20800781 C-95.23860077 193.96964233 -95.58462341 194.73127686 -95.94113159 195.51599121 C-96.68265965 197.14772081 -97.42710257 198.77812837 -98.17419434 200.40731812 C-100.14373981 204.70450354 -102.0906221 209.01185813 -104.03320312 213.32128906 C-104.41968018 214.17853073 -104.80615723 215.0357724 -105.2043457 215.91899109 C-108.39190994 223.0256533 -111.34896479 230.20262694 -114.21289062 237.44628906 C-118.42718996 248.103878 -123.23155758 258.37477711 -128.40136719 268.59545898 C-129.19559082 270.18837769 -129.19559082 270.18837769 -130.00585938 271.81347656 C-130.48047607 272.74659668 -130.95509277 273.6797168 -131.4440918 274.64111328 C-132.52049383 277.40679327 -132.74868489 279.31946772 -132.46289062 282.25878906 C-127.56010639 287.1615733 -106.80922952 284.4317612 -100.10351562 284.44433594 C-99.15669922 284.44425537 -98.20988281 284.4441748 -97.234375 284.4440918 C-94.30780171 284.44631189 -91.38158678 284.46463877 -88.45507812 284.48339844 C-86.5800794 284.4863274 -84.70507891 284.48831552 -82.83007812 284.48925781 C-81.96236786 284.49644333 -81.09465759 284.50362885 -80.20065308 284.5110321 C-75.88137681 284.49466857 -72.33494747 284.41701542 -68.46289062 282.25878906 C-65.85715887 278.72421992 -64.28612759 274.73074931 -62.58789062 270.69628906 C-62.32959473 270.09075195 -62.07129883 269.48521484 -61.80517578 268.86132812 C-60.52126599 265.83952938 -59.28898627 262.80953616 -58.10351562 259.74707031 C-57.68585938 258.6784375 -57.26820313 257.60980469 -56.83789062 256.50878906 C-56.474375 255.54457031 -56.11085938 254.58035156 -55.73632812 253.58691406 C-54.20610935 250.78933619 -53.40709765 250.37258016 -50.46289062 249.25878906 C-47.64830017 249.00482178 -47.64830017 249.00482178 -44.36499023 249 C-43.13368881 248.99369568 -41.90238739 248.98739136 -40.6337738 248.980896 C-39.2942592 248.98447552 -37.95474591 248.98857741 -36.61523438 248.99316406 C-35.23808219 248.99181632 -33.86093047 248.98987488 -32.48377991 248.98736572 C-29.60136371 248.98442056 -26.71907167 248.98869313 -23.83666992 248.99804688 C-20.14215454 249.0094519 -16.44792942 249.00287165 -12.75342464 248.99090195 C-9.91127839 248.98367602 -7.06920101 248.98597444 -4.22705269 248.99115753 C-2.86469043 248.99249145 -1.50232192 248.99085532 -0.13996696 248.98619843 C1.76288865 248.9811203 3.6657662 248.99023238 5.56860352 249 C6.6513002 249.00159119 7.73399689 249.00318237 8.84950256 249.00482178 C11.53710938 249.25878906 11.53710938 249.25878906 14.53710938 251.25878906 C15.8832463 254.6523467 15.65116339 258.16690478 15.63476562 261.77441406 C15.63154297 263.02480469 15.62832031 264.27519531 15.625 265.56347656 C15.61662109 266.86542969 15.60824219 268.16738281 15.59960938 269.50878906 C15.59509766 270.82621094 15.59058594 272.14363281 15.5859375 273.50097656 C15.57415254 276.75362647 15.55769949 280.00618491 15.53710938 283.25878906 C27.19271599 284.38820332 38.8097291 284.41250668 50.5090332 284.38916016 C53.75606824 284.38373652 57.00296882 284.38916738 60.25 284.39550781 C62.31835968 284.39484807 64.38671928 284.39356907 66.45507812 284.39160156 C67.42374313 284.39362579 68.39240814 284.39565002 69.39042664 284.3977356 C70.2859877 284.39458344 71.18154877 284.39143127 72.10424805 284.38818359 C72.8903093 284.387388 73.67637054 284.38659241 74.48625183 284.38577271 C76.73825822 284.33451481 76.73825822 284.33451481 79.53710938 283.25878906 C80.64556938 280.37736841 80.66391806 277.57291093 80.66853714 274.51143551 C80.67237828 273.55435442 80.67621943 272.59727333 80.68017697 271.61118978 C80.67931049 270.56265862 80.67844401 269.51412746 80.67755127 268.43382263 C80.68052239 267.31771184 80.68349351 266.20160104 80.68655467 265.0516687 C80.69525128 261.29835429 80.69675071 257.54507174 80.69824219 253.79174805 C80.70286954 251.10640308 80.70787336 248.42106103 80.71328735 245.73571777 C80.72686339 238.43226878 80.73289367 231.12882529 80.73729801 223.82536578 C80.7400605 219.26704527 80.74429775 214.70872687 80.74880219 210.15040779 C80.76099169 197.53405993 80.77129307 184.91771376 80.77467728 172.30136013 C80.77489684 171.49409743 80.77511641 170.68683473 80.77534263 169.85510952 C80.77556091 169.04590749 80.77577918 168.23670547 80.77600408 167.40298218 C80.77644754 165.76320231 80.77689411 164.12342244 80.77734375 162.48364258 C80.77756518 161.67025368 80.77778661 160.85686479 80.77801475 160.01882774 C80.78196649 146.82613604 80.79943337 133.63349943 80.82270327 120.44082903 C80.8463915 106.90200713 80.8588779 93.36321293 80.86004519 79.82436997 C80.86096315 72.22028447 80.86674594 64.61627086 80.88486481 57.01220512 C80.90023141 50.5404061 80.90540655 44.06870119 80.8971267 37.5968874 C80.89320849 34.29319644 80.89582445 30.98973579 80.90818405 27.68605995 C80.92078454 24.10946454 80.91509175 20.53336288 80.90460205 16.95677185 C80.91265846 15.90600997 80.92071486 14.85524809 80.9290154 13.77264494 C80.92242555 12.81817159 80.91583571 11.86369825 80.90904617 10.88030148 C80.90994181 9.64129885 80.90994181 9.64129885 80.91085553 8.37726587 C80.44167534 5.71784763 79.70490175 4.8369683 77.53710938 3.25878906 C74.79941789 2.95751031 72.28812239 2.83868952 69.54907227 2.85473633 C68.73575943 2.84787308 67.92244659 2.84100983 67.08448792 2.8339386 C64.39273683 2.81561917 61.70156575 2.81951542 59.00976562 2.82519531 C57.14033314 2.82063584 55.27090235 2.81533098 53.401474 2.80931091 C49.48152868 2.80036962 45.56178698 2.80281434 41.6418457 2.81274414 C36.61660489 2.82423285 31.59206684 2.80402912 26.56691837 2.774827 C22.70559722 2.75648654 18.84444513 2.75675319 14.98309135 2.76246452 C13.13031466 2.76261801 11.2775267 2.75655075 9.42479134 2.74417305 C6.83425874 2.72930596 4.24503254 2.73990797 1.65454102 2.75708008 C0.50498932 2.74257813 0.50498932 2.74257813 -0.66778564 2.7277832 C-4.19664322 2.77680243 -6.09008746 2.9653551 -8.90388489 5.18009949 C-10.29656688 7.03702244 -11.37856301 8.69301769 -12.32226562 10.80566406 C-12.78282349 11.81391235 -12.78282349 11.81391235 -13.25268555 12.8425293 C-13.72798706 13.91482788 -13.72798706 13.91482788 -14.21289062 15.00878906 C-14.91040151 16.53691352 -15.60966555 18.06423878 -16.31054688 19.59082031 C-16.6652002 20.36635254 -17.01985352 21.14188477 -17.38525391 21.94091797 C-19.06883816 25.56211164 -20.85295746 29.13055177 -22.65039062 32.69628906 C-22.98200195 33.35532227 -23.31361328 34.01435547 -23.65527344 34.69335938 C-24.29279489 35.95882989 -24.93095139 37.22398073 -25.56982422 38.48876953 C-26.87478475 41.07514565 -28.16879943 43.66696135 -29.46289062 46.25878906 C-30.12955729 47.5921224 -30.79622396 48.92545573 -31.46289062 50.25878906 C-32.79774005 46.25424079 -31.72705423 44.98738141 -29.99804688 41.18457031 C-29.72950394 40.58765381 -29.460961 39.9907373 -29.1842804 39.37573242 C-28.30807155 37.43615174 -27.41747186 35.50361491 -26.52539062 33.57128906 C-25.92228809 32.24945033 -25.31958658 30.92742856 -24.71728516 29.60522461 C-21.49695584 22.56046874 -18.24404626 15.52834731 -14.83789062 8.57128906 C-14.53246338 7.93811768 -14.22703613 7.30494629 -13.91235352 6.65258789 C-10.58987352 0.04238385 -6.84877544 -0.03394935 0 0 Z " fill="#27BE53" transform="translate(636.462890625,397.7412109375)"/>
<path d="M0 0 C0.66 0.33 1.32 0.66 2 1 C1.09121094 1.83917969 1.09121094 1.83917969 0.1640625 2.6953125 C-29.29894819 30.88914735 -44.00263557 73.01735818 -52 112 C-52.21172852 113.01239746 -52.42345703 114.02479492 -52.64160156 115.06787109 C-55.65695704 130.08491482 -56.38550326 144.85655237 -56.4375 160.125 C-56.44376404 160.98746338 -56.45002808 161.84992676 -56.45648193 162.73852539 C-56.52443066 177.5069881 -55.24717822 192.00714051 -50.375 206.0625 C-49.99541138 207.16791138 -49.99541138 207.16791138 -49.6081543 208.2956543 C-42.01113111 229.36494228 -28.72337653 245.93967839 -8.5 255.875 C2.64062986 260.42117631 13.39662441 261.46735863 25.27514648 261.33618164 C27.56334603 261.31249124 29.85037957 261.31565984 32.13867188 261.32226562 C55.40500331 261.27969271 77.06538913 255.42762226 95 240 C95.82242188 239.29875 96.64484375 238.5975 97.4921875 237.875 C118.02847269 219.89794792 129.8491623 194.08901107 137.68188477 168.22998047 C139.23361784 163.31764893 140.91672475 160.38852858 145 157 C148.20953363 155.39523319 151.72410534 155.71293928 155.2734375 155.57421875 C158.82463827 154.82632976 159.86751189 153.93737516 162 151 C162.97916715 148.17649113 163.75638758 145.51839403 164.4375 142.625 C164.74228271 141.39305908 164.74228271 141.39305908 165.05322266 140.13623047 C165.48690006 138.36601706 165.91306938 136.5939509 166.33251953 134.8203125 C167.02687613 131.88643999 167.74570521 128.95913726 168.46484375 126.03125 C168.93670502 124.06293283 169.4067952 122.09419013 169.875 120.125 C170.10243896 119.19252441 170.32987793 118.26004883 170.56420898 117.29931641 C170.76731689 116.41937012 170.9704248 115.53942383 171.1796875 114.6328125 C171.36257324 113.85824707 171.54545898 113.08368164 171.73388672 112.28564453 C172.04609081 109.60412645 171.76844954 107.58276723 171 105 C168.73647742 103.86823871 167.50233615 103.86978995 164.99002075 103.85955811 C164.15163666 103.85384796 163.31325256 103.84813782 162.44946289 103.84225464 C161.06706421 103.84057785 161.06706421 103.84057785 159.65673828 103.83886719 C158.68751434 103.83390228 157.71829041 103.82893738 156.71969604 103.82382202 C153.50322773 103.8091789 150.28680872 103.80239499 147.0703125 103.796875 C144.84072874 103.79112554 142.611145 103.78536779 140.38156128 103.77960205 C135.70245126 103.76908609 131.02335846 103.76324724 126.34423828 103.75976562 C120.34274097 103.75427812 114.34147022 103.73024699 108.34004402 103.70179367 C103.73330008 103.68318887 99.12661096 103.67796285 94.51983261 103.67642975 C92.30700313 103.67339807 90.09417473 103.66535229 87.88138199 103.65224457 C84.78809518 103.63522853 81.69536514 103.6370535 78.60205078 103.64355469 C77.68450012 103.6343399 76.76694946 103.62512512 75.82159424 103.6156311 C70.96987219 103.63953674 70.96987219 103.63953674 66.47889709 105.28616333 C63.95990444 108.20532654 63.46219488 111.83040849 62.67578125 115.5078125 C62.38818184 116.76789627 62.38818184 116.76789627 62.09477234 118.05343628 C61.69181885 119.83215235 61.29639302 121.6125881 60.90795898 123.39453125 C60.31847927 126.09758212 59.70737921 128.79497464 59.09179688 131.4921875 C58.7018375 133.22627347 58.31312623 134.96064068 57.92578125 136.6953125 C57.74662674 137.49252716 57.56747223 138.28974182 57.38288879 139.1111145 C56.23600063 144.39588398 55.52155993 149.61669651 55 155 C55.61564819 155.02223633 56.23129639 155.04447266 56.86560059 155.06738281 C59.34839817 155.15947697 61.83032471 155.26746894 64.3125 155.375 C65.19357422 155.4059375 66.07464844 155.436875 66.98242188 155.46875 C68.25375977 155.52675781 68.25375977 155.52675781 69.55078125 155.5859375 C70.33106689 155.6173584 71.11135254 155.6487793 71.9152832 155.68115234 C74 156 74 156 77 158 C76.70766 164.31454394 75.66727777 169.72670749 72 175 C71.01 175.66 70.02 176.32 69 177 C69.19335938 176.443125 69.38671875 175.88625 69.5859375 175.3125 C71.31374425 170.24882873 72.7693067 165.20677935 74 160 C72.48019531 159.92652344 72.48019531 159.92652344 70.9296875 159.8515625 C69.57810089 159.77647436 68.22653962 159.70092919 66.875 159.625 C66.20984375 159.5940625 65.5446875 159.563125 64.859375 159.53125 C54.94824219 158.94824219 54.94824219 158.94824219 52 156 C51.61229463 150.0812279 52.73381849 144.79522294 54.08203125 139.05078125 C54.29687668 138.11574265 54.51172211 137.18070404 54.733078 136.21733093 C55.18740722 134.25067944 55.64567657 132.28493448 56.10766602 130.32006836 C56.8120226 127.3145371 57.49751702 124.30511482 58.18164062 121.29492188 C58.62647178 119.37994494 59.07239787 117.46522194 59.51953125 115.55078125 C59.82441216 114.20382927 59.82441216 114.20382927 60.13545227 112.82966614 C62.04559452 104.82544147 62.04559452 104.82544147 65 102 C67.74582178 101.08472607 69.37128667 100.87088199 72.19943237 100.85955811 C73.48214523 100.85099289 73.48214523 100.85099289 74.79077148 100.84225464 C75.72590576 100.84113678 76.66104004 100.84001892 77.62451172 100.83886719 C78.61178253 100.83390228 79.59905334 100.82893738 80.61624146 100.82382202 C83.88739718 100.80919797 87.15850443 100.80239829 90.4296875 100.796875 C92.70028688 100.79112415 94.97088625 100.78536641 97.2414856 100.77960205 C102.00457994 100.76909165 106.7676574 100.7632491 111.53076172 100.75976562 C117.63638331 100.75427807 123.74178221 100.73024444 129.84733391 100.70179367 C134.53818415 100.68317856 139.2289806 100.67796231 143.91986465 100.67642975 C146.17094262 100.67340061 148.42201959 100.66536334 150.67306137 100.65224457 C153.82111359 100.63520648 156.96861971 100.63705892 160.11669922 100.64355469 C161.51332794 100.62973251 161.51332794 100.62973251 162.93817139 100.6156311 C167.80329223 100.64710785 171.01498563 100.87150625 175 104 C174.46594706 110.5743163 173.53997203 116.9031753 172.07421875 123.33203125 C171.88535599 124.17166916 171.69649323 125.01130707 171.50190735 125.87638855 C171.10422814 127.63244647 170.70325106 129.38776062 170.29907227 131.14233398 C169.68569314 133.82038888 169.09356492 136.50261065 168.50195312 139.18554688 C168.11066435 140.90133621 167.71812974 142.61684202 167.32421875 144.33203125 C167.15113693 145.12793167 166.97805511 145.92383209 166.79972839 146.74385071 C165.7124102 151.34872058 164.51880683 154.62265274 161 158 C157.52642005 158.69471599 154.32853826 158.94316414 150.80859375 159.09375 C148.40938997 159.22542544 148.40938997 159.22542544 145 160 C142.67289303 163.19315401 141.38792157 166.41918578 140.23828125 170.17578125 C139.92818115 171.16094727 139.61808105 172.14611328 139.29858398 173.16113281 C138.97317627 174.20108398 138.64776855 175.24103516 138.3125 176.3125 C135.03798649 186.43967309 131.17142354 195.71233226 126 205 C125.12021484 206.61068359 125.12021484 206.61068359 124.22265625 208.25390625 C118.03922651 219.23264885 110.61594313 228.83276252 102 238 C101.44957031 238.62648438 100.89914062 239.25296875 100.33203125 239.8984375 C90.55164536 250.57234013 76.17571503 256.58267117 62.5625 260.6875 C61.56138184 260.99143677 61.56138184 260.99143677 60.54003906 261.30151367 C50.40632126 264.21404623 40.33749056 265.36957516 29.8125 265.3125 C28.72678711 265.30758545 27.64107422 265.3026709 26.52246094 265.29760742 C4.47603091 264.97953596 -16.932516 259.08532884 -32.70239258 242.88085938 C-53.66963161 220.23748536 -60.75077693 187.94776732 -60.1875 157.84765625 C-57.46821596 102.04568168 -42.65062514 39.35100657 0 0 Z " fill="#30C259" transform="translate(199,424)"/>
<path d="M0 0 C19.50234375 18.48155992 24.33152664 42.8830524 26.4609375 68.5625 C26.60631958 70.25475708 26.60631958 70.25475708 26.75463867 71.98120117 C26.83045166 73.03927979 26.90626465 74.0973584 26.984375 75.1875 C27.05317871 76.12851562 27.12198242 77.06953125 27.19287109 78.0390625 C27.07581333 80.80141182 26.65420238 82.29444903 25.0859375 84.5625 C21.86806368 85.63512461 19.50203186 85.70872814 16.11743164 85.73950195 C14.88928238 85.75233719 13.66113312 85.76517242 12.39576721 85.77839661 C11.0542135 85.78656278 9.71265522 85.79400675 8.37109375 85.80078125 C7.35668118 85.80689454 7.35668118 85.80689454 6.32177544 85.81313133 C2.74454939 85.83396558 -0.83263857 85.84828056 -4.40991211 85.85766602 C-8.10340719 85.86874538 -11.79630229 85.90316927 -15.48958492 85.94283772 C-18.33176291 85.96897768 -21.17379704 85.97735528 -24.01608467 85.98094749 C-25.37766144 85.98581769 -26.73923161 85.99744423 -28.10069084 86.01598549 C-30.00570039 86.04032363 -31.91100247 86.03699736 -33.81616211 86.0324707 C-34.89965439 86.03833694 -35.98314667 86.04420319 -37.09947205 86.05024719 C-40.58589454 85.4460766 -41.74458367 84.29749904 -43.9140625 81.5625 C-44.58007812 79.59887695 -44.58007812 79.59887695 -44.8203125 77.55078125 C-44.9219873 76.79684082 -45.02366211 76.04290039 -45.12841797 75.26611328 C-45.22268066 74.4770459 -45.31694336 73.68797852 -45.4140625 72.875 C-47.03394955 61.37523344 -47.03394955 61.37523344 -53.5390625 52.0625 C-58.58858543 48.87332762 -63.02662025 49.01592048 -68.9140625 49.5625 C-80.02161123 52.50795222 -88.21852033 61.77950793 -93.96484375 71.30419922 C-113.92871673 105.80889665 -127.80929324 152.87663437 -117.890625 192.59765625 C-115.40389145 200.14737931 -112.74072282 206.19343739 -105.9140625 210.5625 C-99.89950941 213.1570131 -94.1884883 213.13675569 -87.9140625 211.5625 C-81.29719158 208.90194307 -74.84216464 205.51456809 -68.9140625 201.5625 C-71.414531 207.43923562 -76.90451717 210.82632183 -82.6015625 213.375 C-90.48641533 216.20164535 -99.07534571 216.92195005 -106.9140625 213.5625 C-117.81908748 205.62988388 -120.78158108 197.52896747 -122.9140625 184.5625 C-123.30397157 179.76063498 -123.34408211 175.0031471 -123.2890625 170.1875 C-123.27963623 168.88893066 -123.27020996 167.59036133 -123.26049805 166.25244141 C-122.72110038 131.15935782 -114.17532032 87.57935747 -89.9140625 60.5625 C-88.89892578 59.42748047 -88.89892578 59.42748047 -87.86328125 58.26953125 C-80.84526035 50.83939858 -75.19429966 46.35185671 -64.7265625 46 C-57.23595359 46.30573914 -53.76064959 48.48587517 -48.7265625 53.8125 C-43.42505821 60.37363064 -42.46472138 67.38387055 -41.44140625 75.609375 C-40.95053068 78.35827816 -40.20870595 80.13206104 -38.9140625 82.5625 C-31.14289942 82.63198809 -23.37180902 82.68530502 -15.60041332 82.71793652 C-11.99187947 82.7335975 -8.38355806 82.75484315 -4.77514648 82.78881836 C-1.29328128 82.82139717 2.18837951 82.83934975 5.67038536 82.84713173 C7.64635847 82.85537856 9.62224925 82.87880038 11.59809875 82.90238953 C12.79911728 82.90261612 14.0001358 82.90284271 15.23754883 82.90307617 C16.82639641 82.91306892 16.82639641 82.91306892 18.44734192 82.92326355 C21.09488074 82.76646219 21.09488074 82.76646219 22.93193054 81.26777649 C27.77180147 74.1158975 22.69727992 56.53619291 21.12109375 48.35546875 C16.85554455 27.91746923 8.00485245 8.49343584 -9.9140625 -3.4375 C-30.37515556 -15.44426318 -55.67178722 -16.58066189 -78.51171875 -11.33203125 C-79.63449219 -11.03683594 -80.75726563 -10.74164063 -81.9140625 -10.4375 C-82.96464844 -10.19386719 -84.01523438 -9.95023437 -85.09765625 -9.69921875 C-94.72216313 -7.16392418 -103.1813153 -2.32117703 -111.84716797 2.44189453 C-114.50368455 3.88217461 -117.20022797 5.23389722 -119.9140625 6.5625 C-119.9140625 5.9025 -119.9140625 5.2425 -119.9140625 4.5625 C-87.58643909 -21.17725256 -33.20269484 -27.77276352 0 0 Z " fill="#30C259" transform="translate(328.9140625,410.4375)"/>
</svg>
