<?xml version="1.0" encoding="UTF-8"?>
<svg version="1.1" xmlns="http://www.w3.org/2000/svg" width="1418" height="1375">
<path d="M0 0 C0.65368054 -0.00140232 1.30736108 -0.00280463 1.98085012 -0.00424945 C4.196931 -0.00776152 6.41294357 -0.00407622 8.62902355 -0.00049198 C10.23044107 -0.00153401 11.83185835 -0.00301443 13.4332751 -0.00489634 C17.8703663 -0.00881893 22.30743597 -0.00644558 26.74452685 -0.00311839 C31.55790905 -0.00059632 36.37128778 -0.00383576 41.18466949 -0.00636172 C49.63279895 -0.00998548 58.08092202 -0.00985647 66.52905178 -0.00731456 C79.09134792 -0.00354497 91.65363863 -0.00545909 104.21593472 -0.00852287 C126.64716934 -0.01379955 149.07840112 -0.01332788 171.50963601 -0.01044396 C191.1390979 -0.00793252 210.76855873 -0.00726977 230.39802074 -0.0084666 C231.69798629 -0.00854299 232.99795185 -0.00861937 234.33731029 -0.00869807 C239.61374176 -0.00900939 244.89017322 -0.00932779 250.16660469 -0.00965784 C264.9175664 -0.01056955 279.66852812 -0.01114548 294.41948986 -0.01144397 C295.09128399 -0.01145762 295.76307812 -0.01147126 296.45522965 -0.01148532 C317.87018625 -0.01189477 339.2851425 -0.01076686 360.70009899 -0.00859439 C361.39495038 -0.00852414 362.08980176 -0.0084539 362.80570925 -0.00838152 C374.09054034 -0.00723649 385.37537142 -0.00601706 396.6602025 -0.00479134 C441.42065911 0.00006521 486.18111273 -0.0001602 530.94156933 -0.00502193 C542.22062715 -0.00624306 553.49968496 -0.00745409 564.77874279 -0.00859439 C565.4731805 -0.00866484 566.16761822 -0.00873529 566.8830995 -0.00880787 C588.27518369 -0.01096318 609.66726763 -0.0118785 631.05935192 -0.01144397 C632.06630861 -0.0114236 632.06630861 -0.0114236 633.09360785 -0.01140281 C648.4889628 -0.01107635 663.8843177 -0.01037267 679.27967262 -0.00940967 C684.54672209 -0.00908893 689.81377157 -0.00877609 695.08082104 -0.0084666 C697.02627199 -0.00834799 697.02627199 -0.00834799 699.01102499 -0.00822697 C718.63245565 -0.0070875 738.25388516 -0.00842348 757.87531567 -0.01094615 C780.17644791 -0.01379898 802.47757686 -0.01310437 824.7787087 -0.00766541 C837.2736195 -0.00471893 849.76852317 -0.00455207 862.26343379 -0.00831159 C870.59467269 -0.01054275 878.92590584 -0.00917888 887.25714388 -0.00480682 C892.01389624 -0.00241284 896.77063436 -0.00164591 901.52738631 -0.0052128 C905.84588947 -0.00841827 910.16436563 -0.00710704 914.48286678 -0.00203214 C916.04390081 -0.00101638 917.60493703 -0.00171329 919.16596936 -0.00423808 C921.27029372 -0.00740279 923.37452203 -0.00451432 925.47884178 0 C926.64856095 0.00006776 927.81828011 0.00013552 929.02344531 0.00020533 C931.73942089 0.12534916 931.73942089 0.12534916 933.73942089 1.12534916 C935.31783834 1.34512187 936.90282998 1.51854819 938.48942089 1.66831791 C1002.98180809 8.25432679 1064.37098397 38.38351485 1106.36442089 88.43784916 C1115.54841483 100.0871118 1124.47786832 112.17525938 1131.73942089 125.12534916 C1132.40989452 126.31692631 1132.40989452 126.31692631 1133.09391308 127.53257573 C1141.09373851 141.91327707 1147.52913927 156.51855174 1152.73942089 172.12534916 C1153.17592968 173.42689946 1153.17592968 173.42689946 1153.62125683 174.7547437 C1161.54357503 198.93694348 1164.90426217 224.24287104 1164.87084866 249.61616528 C1164.87250153 251.16057961 1164.87458928 252.70499353 1164.87706876 254.24940675 C1164.88260349 258.48176811 1164.88196889 262.71410911 1164.88029117 266.94647292 C1164.87955726 271.55566597 1164.88458959 276.16485341 1164.88886619 280.77404404 C1164.89643118 289.91074388 1164.89863848 299.04743788 1164.89919524 308.18414053 C1164.90011037 319.13059544 1164.90678238 330.07704497 1164.91354207 341.02349757 C1164.92958955 367.47942782 1164.93550405 393.93535749 1164.94029081 420.39129174 C1164.94262814 432.91187062 1164.94623096 445.43244903 1164.94998619 457.95302755 C1164.96261989 500.15780798 1164.97343304 542.36258841 1164.97682665 584.56737068 C1164.97698889 586.58358377 1164.97715445 588.59979686 1164.97732103 590.61600995 C1164.97765482 594.65935858 1164.9779853 598.70270721 1164.97831559 602.74605584 C1164.97870248 607.4795379 1164.97909209 612.21301996 1164.97948666 616.94650202 C1164.97959908 618.30124788 1164.97971049 619.65599375 1164.97982091 621.01073961 C1164.98336858 664.49909535 1164.99844027 707.98743454 1165.02175865 751.47578396 C1165.04677533 798.15031148 1165.06114483 844.82483155 1165.06235671 891.49936676 C1165.06252816 896.55212216 1165.06274358 901.60487755 1165.06299114 906.65763295 C1165.06304691 907.90172368 1165.06310268 909.14581441 1165.06316014 910.42760486 C1165.06430923 930.42066914 1165.07531925 950.41371626 1165.0898782 970.40677476 C1165.10426794 990.51573037 1165.10746622 1010.62466405 1165.09943822 1030.7336234 C1165.09499357 1042.66811702 1165.09879584 1054.6025397 1165.11467673 1066.53702394 C1165.12446999 1074.52498137 1165.12320724 1082.51288944 1165.1132405 1090.50084648 C1165.10787964 1095.04170661 1165.10703639 1099.58243114 1165.11974922 1104.12327971 C1165.31462314 1178.50011935 1143.68239177 1245.87694453 1090.67692089 1299.43784916 C1085.33857817 1304.7287974 1079.65098682 1309.48397105 1073.73942089 1314.12534916 C1072.67048747 1314.99493915 1071.60282956 1315.86609884 1070.53629589 1316.73863041 C1026.57007898 1352.43372267 970.90198922 1370.32823364 914.57894897 1370.25677693 C912.97367918 1370.25843004 911.36840979 1370.26051789 909.76314107 1370.26299703 C905.36647452 1370.26852876 900.96982759 1370.26789772 896.57315869 1370.26621944 C891.78411754 1370.26548524 886.99508177 1370.27051855 882.20604295 1370.27479446 C872.71400308 1370.2823577 863.22196885 1370.28456667 853.72992629 1370.28512351 C842.35736633 1370.28603881 830.98481155 1370.29271129 819.61225383 1370.29947034 C792.1276489 1370.31551571 764.64304453 1370.32143198 737.15843576 1370.32621909 C724.15128641 1370.32855652 711.1441375 1370.33215934 698.13698849 1370.33591446 C654.29236996 1370.34854769 610.44775172 1370.3593611 566.60313144 1370.36275492 C564.50870822 1370.36291716 562.414285 1370.36308272 560.31986178 1370.36324931 C556.11967249 1370.3635831 551.91948319 1370.36391358 547.71929389 1370.36424387 C542.80220565 1370.36463076 537.88511741 1370.36502036 532.96802917 1370.36541493 C531.56073472 1370.36552735 530.15344027 1370.36563877 528.74614582 1370.36574918 C483.56696458 1370.36929716 438.38779925 1370.38437042 393.20862408 1370.40768693 C360.73381673 1370.42444006 328.25901239 1370.43990839 295.78420067 1370.44442189 C295.1156353 1370.44451537 294.44706993 1370.44460886 293.75824501 1370.44470518 C278.41912549 1370.44681534 263.08000606 1370.44790158 247.74088639 1370.44828498 C242.49211387 1370.44845643 237.24334135 1370.44867186 231.99456882 1370.44891942 C230.70221433 1370.44897518 229.40985983 1370.44903095 228.07834308 1370.44908841 C207.30706371 1370.45023765 186.53580086 1370.4612488 165.76452706 1370.47580647 C144.87490913 1370.49019359 123.9853123 1370.49339595 103.09569076 1370.48536649 C90.69683998 1370.48092069 78.29805746 1370.48472875 65.89921568 1370.500605 C57.6017662 1370.51039419 49.30436425 1370.50913935 41.00691515 1370.49916877 C36.28930636 1370.49380504 31.57182813 1370.49297421 26.85423044 1370.50567749 C2.27471619 1370.56773113 -22.01169056 1370.07724879 -46.07307911 1364.37534916 C-47.73778248 1363.99128911 -47.73778248 1363.99128911 -49.43611622 1363.59947026 C-78.31049325 1356.72530918 -107.12144787 1344.54719239 -131.26057911 1327.12534916 C-132.18870411 1326.46921635 -133.11682911 1325.81308354 -134.07307911 1325.13706791 C-145.17548591 1317.19576305 -155.39158617 1308.53244063 -165.26057911 1299.12534916 C-165.75767384 1298.6516187 -166.25476856 1298.17788823 -166.76692677 1297.68980229 C-173.48749091 1291.23842264 -179.52049302 1284.4554591 -185.26057911 1277.12534916 C-186.06237598 1276.12890385 -186.86417286 1275.13245854 -187.69026661 1274.10581791 C-196.83908366 1262.62284519 -204.51401065 1250.15687877 -211.26057911 1237.12534916 C-211.87417286 1235.97292729 -212.48776661 1234.82050541 -213.11995411 1233.63316166 C-227.83676111 1205.54498124 -236.23886292 1174.51555208 -238.86604786 1142.99253666 C-239.00866417 1139.33407418 -239.00866417 1139.33407418 -240.26057911 1137.12534916 C-240.35645914 1135.11300865 -240.38580718 1133.09740242 -240.38592827 1131.08277905 C-240.38843179 1129.78298776 -240.39093531 1128.48319648 -240.39351469 1127.14401758 C-240.39123749 1125.68492395 -240.38886929 1124.22583046 -240.38642025 1122.7667371 C-240.3874623 1121.22330412 -240.38894274 1119.67987139 -240.39082462 1118.1364392 C-240.39474691 1113.860344 -240.39237401 1109.58427113 -240.38904666 1105.30817625 C-240.38652445 1100.66931669 -240.38976409 1096.03046074 -240.39229 1091.39160168 C-240.39591365 1083.24989311 -240.39578481 1075.10819116 -240.39324284 1066.96648228 C-240.38947315 1054.85982875 -240.39138741 1042.75318084 -240.39445114 1030.64652735 C-240.39972775 1009.02885235 -240.39925618 987.4111803 -240.39637223 965.79350501 C-240.39386077 946.87598221 -240.39319806 927.95846048 -240.39439487 909.04093754 C-240.39447126 907.78810778 -240.39454764 906.53527802 -240.39462634 905.24448372 C-240.39493766 900.15936847 -240.39525606 895.07425321 -240.39558611 889.98913796 C-240.39786335 854.48069836 -240.39826043 818.97225909 -240.39452267 783.46381962 C-240.39445242 782.7941689 -240.39438217 782.12451817 -240.39430979 781.43457499 C-240.39316476 770.5590269 -240.39194534 759.68347882 -240.39071962 748.80793074 C-240.38586307 705.6708973 -240.38608848 662.53386697 -240.3909502 619.39683354 C-240.39217134 608.5268486 -240.39338236 597.65686366 -240.39452267 586.78687871 C-240.39459312 586.1176266 -240.39466356 585.44837449 -240.39473615 584.75884202 C-240.39851091 548.65188699 -240.39768146 512.54493209 -240.39533794 476.43797696 C-240.3950172 471.3619049 -240.39470436 466.28583284 -240.39439487 461.20976079 C-240.3943158 459.9598206 -240.39423672 458.70988041 -240.39415525 457.42206325 C-240.39301579 438.51230605 -240.39435174 419.60255005 -240.39687443 400.69279301 C-240.39972728 379.20047214 -240.39903257 357.7081547 -240.39359368 336.21583426 C-240.39064726 324.1741675 -240.39048026 312.13250814 -240.39423986 300.09084157 C-240.39647109 292.06172239 -240.39510703 284.03260918 -240.39073509 276.00349089 C-240.38834121 271.41929543 -240.38757399 266.83511473 -240.39114107 262.2509197 C-240.39434679 258.088991 -240.39303496 253.92709031 -240.38796041 249.76516369 C-240.38694474 248.26080928 -240.38764135 246.7564526 -240.39016635 245.25209996 C-240.39333153 243.22404171 -240.3898345 241.19597624 -240.38592827 239.16791928 C-240.38586051 238.04062684 -240.38579276 236.91333441 -240.38572294 235.7518816 C-240.26057911 233.12534916 -240.26057911 233.12534916 -239.26057911 231.12534916 C-239.0408064 229.54693172 -238.86738008 227.96194007 -238.71761036 226.37534916 C-233.46071708 174.86535889 -213.85851406 125.98386067 -179.26057911 87.12534916 C-178.73141895 86.51151371 -178.2022588 85.89767827 -177.65706348 85.26524174 C-167.8732156 73.93026239 -157.21776895 63.16333541 -145.26057911 54.12534916 C-144.69516407 53.69415776 -144.12974903 53.26296635 -143.5472002 52.81870854 C-135.07244772 46.3776264 -126.41407318 40.56666004 -117.26057911 35.12534916 C-116.4806963 34.62777104 -115.70081348 34.13019291 -114.89729786 33.61753666 C-84.32072764 14.28934202 -46.12860527 3.69080486 -10.19417286 1.33628666 C-6.58785534 0.94287021 -3.85270343 0.00022318 0 0 Z M665.94408989 302.18053544 C664.08739141 305.17798345 664.33733357 308.20544769 664.37865734 311.62331975 C664.37609407 312.39359086 664.37353079 313.16386198 664.37088984 313.95747465 C664.36593633 316.54643993 664.38247036 319.134826 664.39884472 321.72373784 C664.39969065 323.5763734 664.39921651 325.42900997 664.3975172 327.28164494 C664.39665452 332.31858437 664.41432453 337.35531059 664.43523908 342.39220035 C664.45396032 347.65328074 664.45575272 352.91436572 664.4593153 358.17547429 C664.46864917 368.14147485 664.4932811 378.10737699 664.52336377 388.07333416 C664.55686605 399.41779314 664.57338329 410.76225676 664.58845007 422.10675287 C664.61982948 445.44633959 664.67261604 468.78583887 664.73942089 492.12534916 C663.87688355 492.06519281 663.01434622 492.00503645 662.12567139 491.94305718 C658.8863199 491.71839791 655.64681626 491.49611073 652.40719604 491.27536309 C651.01242903 491.17985022 649.61772401 491.083427 648.22308731 490.98602974 C638.41996035 490.30221578 628.75403969 489.85106427 618.92692089 490.31284916 C617.65397167 490.36400883 616.38102245 490.4151685 615.06949902 490.46787846 C602.86599615 491.0322067 590.81875002 492.33327187 578.73942089 494.12534916 C577.33466503 494.32402592 577.33466503 494.32402592 575.90153027 494.52671635 C546.71059967 498.72736246 518.72326458 507.41841001 492.62760448 521.13853276 C490.75340253 522.11804198 488.86747285 523.07081741 486.97770214 524.01988041 C466.80109004 534.28448185 449.00881152 548.49817132 432.73942089 564.12534916 C431.84223339 564.98128666 430.94504589 565.83722416 430.02067089 566.71909916 C424.1005966 572.49299878 418.85014068 578.6312104 413.73942089 585.12534916 C412.97113964 586.06507573 412.20285839 587.00480229 411.41129589 587.97300541 C399.90607917 602.35452631 390.37414987 618.37898275 382.73942089 635.12534916 C382.41135448 635.83272221 382.08328808 636.54009526 381.74528027 637.26890385 C365.94842087 671.65652225 359.2067556 710.38613951 360.73942089 748.12534916 C360.78050976 749.14338627 360.82159863 750.16142338 360.86393261 751.2103101 C363.54381109 810.4073703 379.68299468 864.40211581 420.73942089 908.12534916 C421.2315205 908.6514478 421.72362011 909.17754643 422.23063183 909.71958745 C439.80621755 928.35530495 460.60864658 942.30503691 483.73942089 953.12534916 C484.78485058 953.62421635 485.83028027 954.12308354 486.90738964 954.63706791 C520.01118368 969.64686273 557.90952892 978.15128358 594.30192089 978.32847416 C595.27876339 978.3355338 596.25560589 978.34259343 597.26204967 978.34986699 C653.18773231 978.66108576 708.62845882 972.48674552 761.73942089 954.12534916 C763.50223338 953.5309809 765.26525668 952.93723749 767.02848339 952.34409916 C783.24031165 947.67031122 783.24031165 947.67031122 797.59098339 939.50816166 C799.36345449 935.83058557 799.13543259 932.18143925 799.05192089 928.18784916 C799.03935727 927.29264683 799.02679365 926.3974445 799.01384932 925.47511482 C798.91303308 920.49766915 798.73195747 915.55800903 798.2809391 910.59916699 C796.05470405 885.9738253 796.44822404 861.26813619 796.4654252 836.56549938 C796.46990601 829.48978566 796.46249401 822.41409535 796.4547205 815.33838623 C796.44064006 802.28613962 796.43521036 789.23390383 796.43446064 776.18165028 C796.43327642 758.3700863 796.41802213 740.55855283 796.39896547 722.74699999 C796.39007251 714.42885275 796.38180121 706.11070488 796.37364388 697.79255688 C796.37282612 696.96031683 796.37200837 696.12807677 796.37116584 695.27061732 C796.35188184 675.5197235 796.3383053 655.7688266 796.32609081 636.01792729 C796.32555402 635.15502998 796.32501723 634.29213267 796.32446417 633.40308695 C796.31194682 613.23460108 796.30116403 593.06611484 796.29239941 572.897627 C796.28932844 565.87945885 796.28623637 558.86129072 796.28312206 551.8431226 C796.28274025 550.97675145 796.28235844 550.11038031 796.28196505 549.21775549 C796.27320588 529.44567214 796.26206516 509.67359535 796.24199104 489.90151989 C796.24114838 489.07132148 796.24030571 488.24112306 796.23943751 487.38576711 C796.23095657 479.09993717 796.22196178 470.81410793 796.21224574 462.52827934 C796.20748443 458.45314428 796.20286898 454.37800907 796.19835758 450.30287373 C796.1974697 449.50094778 796.19658182 448.69902183 796.19566703 447.87279509 C796.18172586 434.95680484 796.17909608 422.04083559 796.18103724 409.12483894 C796.18282804 396.17086785 796.17422843 383.2169392 796.15472884 370.26298229 C796.14349011 362.56272474 796.14075777 354.86256993 796.14992519 347.16230908 C796.1558519 341.42607558 796.14632525 335.68995334 796.13061082 329.95374216 C796.1267033 327.62415666 796.12794778 325.29455609 796.1346677 322.96497701 C796.14303645 319.81591664 796.1332314 316.66743833 796.11859512 313.51841366 C796.12886771 312.1396695 796.12886771 312.1396695 796.13934782 310.73307192 C796.13168497 309.89807835 796.12402213 309.06308477 796.11612707 308.20278835 C796.11562844 307.1219825 796.11562844 307.1219825 796.11511973 306.01934218 C795.62588512 303.5529866 794.69691052 302.65746106 792.73942089 301.12534916 C790.36092471 300.67385424 790.36092471 300.67385424 787.65336132 300.74439824 C786.60180355 300.73593876 785.55024578 300.72747929 784.46682262 300.71876347 C783.31347927 300.72483616 782.16013592 300.73090886 780.97184277 300.73716557 C779.75702724 300.73190861 778.54221172 300.72665165 777.29058361 300.72123539 C773.95782524 300.71028278 770.62562452 300.71286544 767.29289722 300.72237265 C763.80692444 300.72996256 760.32097565 300.72292551 756.83500195 300.71821415 C750.98066963 300.71275463 745.12645082 300.7199533 739.27213573 300.73423588 C732.50160454 300.75056287 725.73134435 300.7452745 718.96081972 300.72875667 C713.15012112 300.71514733 707.33950415 300.7132194 701.52879477 300.72107267 C698.05728652 300.72575227 694.58590571 300.7263663 691.11440563 300.71646321 C687.24516274 300.7061967 683.37622395 300.720422 679.50699902 300.73716557 C677.77698399 300.72805653 677.77698399 300.72805653 676.01201916 300.71876347 C674.96046139 300.72722294 673.90890362 300.73568242 672.82548046 300.74439824 C671.91034931 300.74552931 670.99521816 300.74666039 670.05235577 300.74782574 C667.73361376 300.98334694 667.73361376 300.98334694 665.94408989 302.18053544 Z M140.73942089 354.12534916 C139.81809186 356.88933626 139.6137227 358.51460159 139.61177039 361.36275566 C139.60875442 362.23348795 139.60573845 363.10422024 139.60263109 364.00133836 C139.60440056 364.96048104 139.60617003 365.91962371 139.60799313 366.90783131 C139.60594049 367.92897337 139.60388786 368.95011544 139.60177302 370.0022012 C139.596074 373.4578742 139.59756384 376.91350771 139.598979 380.36918461 C139.59639702 382.85816482 139.59338434 385.34714461 139.5899756 387.83612382 C139.58273281 393.98107674 139.58020201 400.12601712 139.57964654 406.27097381 C139.57873392 413.62850054 139.57206941 420.98601921 139.56529972 428.34354248 C139.54922706 446.12795642 139.54333508 463.91236951 139.53855097 481.69678941 C139.53621637 490.1070198 139.53261388 498.51724951 139.52885559 506.92747937 C139.51601922 535.70649236 139.5052999 564.48550497 139.50185299 593.26452076 C139.50163136 595.07166309 139.50140957 596.87880541 139.50118764 598.68594773 C139.500967 600.49749932 139.50074651 602.3090509 139.50052619 604.12060249 C139.50008363 607.75499721 139.49963652 611.38939194 139.49918652 615.02378666 C139.49907712 615.92490768 139.49896773 616.82602869 139.49885503 617.7544564 C139.49522351 646.98058313 139.47930031 676.20668506 139.45599615 705.43280229 C139.43141285 736.31948149 139.41768086 767.20614651 139.41648507 798.09283578 C139.41631361 801.48192116 139.41609818 804.87100653 139.41585064 808.2600919 C139.41579487 809.09460333 139.4157391 809.92911476 139.41568164 810.78891441 C139.41452991 824.23183564 139.40349755 837.67473148 139.38896358 851.11764413 C139.37461354 864.62374946 139.37135315 878.12982216 139.37940356 891.63593301 C139.38386683 899.66404701 139.37997145 907.69205583 139.36416506 915.72015605 C139.35329608 921.70863202 139.3580341 927.6969871 139.36893693 933.68546751 C139.37090565 936.11280942 139.36776176 938.54016175 139.35909256 940.96748897 C139.34807995 944.25834496 139.3554317 947.54866199 139.36748409 950.83950245 C139.3598889 951.78928046 139.35229371 952.73905847 139.34446836 953.71761763 C139.38857669 959.26887173 140.05214728 963.22705815 142.73942089 968.12534916 C145.1841929 969.34773517 146.76829595 969.25651448 149.50194836 969.26579106 C151.00978138 969.27435627 151.00978138 969.27435627 152.54807568 969.28309453 C153.65511852 969.28421238 154.76216137 969.28533024 155.90275097 969.28648198 C157.06544003 969.29144688 158.22812908 969.29641179 159.42605114 969.30152714 C163.28702408 969.31617768 167.14795593 969.32295566 171.00895214 969.32847416 C173.00870176 969.3327711 175.00845138 969.33706854 177.00820082 969.34144866 C182.58195936 969.35326526 188.15570791 969.36079889 193.7294777 969.36424387 C200.93732482 969.36872324 208.14498217 969.38626436 215.35277158 969.41524446 C220.92397316 969.43686651 226.49512138 969.44694845 232.06636447 969.44828498 C235.39379108 969.44933279 238.72099874 969.45668037 242.04839039 969.4731046 C245.76170955 969.49012495 249.47456507 969.48829431 253.18790722 969.48179448 C254.28887737 969.49100926 255.38984753 969.50022404 256.52418041 969.50971806 C263.68485969 969.60124913 263.68485969 969.60124913 269.73942089 966.12534916 C270.66212158 963.35724709 270.8651232 961.72609124 270.86707139 958.87281728 C270.87008736 957.9987057 270.87310333 957.12459412 270.87621069 956.22399431 C270.87444122 955.26107126 270.87267175 954.2981482 270.87084866 953.30604565 C270.87392761 951.76836865 270.87392761 951.76836865 270.87706876 950.19962746 C270.88276786 946.73044907 270.88127794 943.26131001 270.87986279 939.79212773 C270.88244475 937.29347254 270.88545743 934.79481776 270.88886619 932.29616356 C270.89610898 926.12734575 270.89863977 919.95854042 270.89919524 913.78971885 C270.90010785 906.40372486 270.90677229 899.0177389 270.91354207 891.63174835 C270.92961419 873.7793773 270.93550647 855.9270071 270.94029081 838.07463012 C270.94262529 829.63316918 270.94622775 821.19170892 270.94998619 812.75024851 C270.96282202 783.8669166 270.97354178 754.98358507 270.97698879 726.10025036 C270.97721043 724.28660466 270.97743221 722.47295896 270.97765414 720.65931325 C270.97787479 718.84123559 270.97809527 717.02315793 270.97831559 715.20508027 C270.97875815 711.55757225 270.97920526 707.91006422 270.97965527 704.2625562 C270.97976466 703.35818398 270.97987405 702.45381176 270.97998675 701.52203432 C270.98361896 672.18492447 270.99954499 642.8478393 271.02284563 613.5107389 C271.04742289 582.50974173 271.06116063 551.50875867 271.06235671 520.50775146 C271.06252817 517.10690629 271.0627436 513.70606112 271.06299114 510.30521595 C271.06304691 509.46780338 271.06310268 508.6303908 271.06316014 507.76760209 C271.06431235 494.27221527 271.07534862 480.77685372 271.0898782 467.28147544 C271.10422041 453.72611561 271.10749307 440.1707883 271.09943822 426.61542298 C271.09497137 418.55578364 271.09888455 410.496249 271.11467673 402.43662335 C271.12553053 396.428233 271.12081908 390.41996337 271.10990486 384.41156863 C271.10793326 381.97349522 271.11109293 379.53541148 271.11974922 377.09735264 C271.13073084 373.79682799 271.12343292 370.49684373 271.11135769 367.19633496 C271.11895288 366.23809423 271.12654808 365.2798535 271.13437343 364.29257518 C271.09575074 359.44070108 270.97328424 356.02811016 267.73942089 352.12534916 C265.29464888 350.90296316 263.71054583 350.99418385 260.97689342 350.98490727 C259.97167141 350.97919713 258.96644939 350.97348698 257.93076611 350.9676038 C256.82372326 350.96648594 255.71668041 350.96536808 254.57609081 350.96421635 C253.41340176 350.95925145 252.2507127 350.95428654 251.05279064 350.94917119 C247.1918177 350.93452065 243.33088585 350.92774267 239.46988964 350.92222416 C237.47014002 350.91792723 235.4703904 350.91362979 233.47064096 350.90924966 C227.89688242 350.89743306 222.32313387 350.88989944 216.74936408 350.88645446 C209.54151696 350.88197509 202.33385961 350.86443397 195.1260702 350.83545387 C189.55486862 350.81383182 183.98372041 350.80374988 178.41247731 350.80241334 C175.0850507 350.80136554 171.75784304 350.79401796 168.43045139 350.77759373 C164.71713223 350.76057338 161.00427671 350.76240402 157.29093456 350.76890385 C155.63947933 350.75508168 155.63947933 350.75508168 153.95466137 350.74098027 C146.79398209 350.6494492 146.79398209 350.6494492 140.73942089 354.12534916 Z " fill="#000000" transform="translate(252.2605791091919,4.874650835990906)"/>
<path d="M0 0 C1.1232518 -0.00855011 1.1232518 -0.00855011 2.26919556 -0.01727295 C3.85083631 -0.02667245 5.43249621 -0.0332367 7.01416016 -0.03710938 C9.37309514 -0.0467083 11.73111653 -0.07773414 14.08984375 -0.109375 C15.64322412 -0.11591792 17.19661059 -0.1211633 18.75 -0.125 C19.42775482 -0.1373468 20.10550964 -0.1496936 20.80380249 -0.16241455 C29.21442997 -0.1261938 36.44081532 1.68578726 45.0390625 3.203125 C45.0390625 88.343125 45.0390625 173.483125 45.0390625 261.203125 C18.42192976 271.8499781 -21.21116211 266.4544477 -47.9609375 258.203125 C-49.11851562 257.85636719 -50.27609375 257.50960938 -51.46875 257.15234375 C-65.36936984 252.62764534 -77.10247044 244.90528276 -87.9609375 235.203125 C-88.89099609 234.39681641 -88.89099609 234.39681641 -89.83984375 233.57421875 C-108.72018551 216.0956657 -118.91905712 188.99522225 -122.9609375 164.203125 C-123.16460938 162.98753906 -123.36828125 161.77195312 -123.578125 160.51953125 C-128.67769966 126.58709654 -125.52449627 87.05663203 -105.96484375 57.9140625 C-82.45886126 26.11454623 -50.66010779 7.11102095 -11.67260742 0.65893555 C-7.76868037 0.17951492 -3.92665816 0.02390815 0 0 Z " fill="#000000" transform="translate(871.9609375,604.796875)"/>
</svg>
