<?xml version="1.0" encoding="UTF-8"?>
<svg version="1.1" xmlns="http://www.w3.org/2000/svg" width="2507" height="2507">
<path d="M0 0 C3.53423272 0.00193685 7.0684601 -0.00196899 10.60269131 -0.00509679 C16.81215862 -0.00979457 23.02161796 -0.01079921 29.23108676 -0.00936845 C38.52718281 -0.00724226 47.82327065 -0.01086778 57.11936543 -0.01558322 C72.96504894 -0.02344746 88.8107302 -0.02654481 104.65641551 -0.02702915 C120.71324735 -0.02753178 136.77007667 -0.03018109 152.82690768 -0.03543675 C153.84137484 -0.03576688 154.855842 -0.03609701 155.90105058 -0.03643715 C160.0329095 -0.03778717 164.16476841 -0.03914984 168.29662732 -0.04052926 C217.20070305 -0.05682674 266.10477829 -0.06321738 315.00885628 -0.06797713 C339.36546601 -0.07036106 363.72207546 -0.07406469 388.07868498 -0.07801422 C466.22503598 -0.09067878 544.37138698 -0.10146225 622.51773899 -0.10485468 C626.25231639 -0.10501692 629.98689379 -0.10518248 633.72147119 -0.10534907 C641.21110507 -0.10568286 648.70073894 -0.10601334 656.19037281 -0.10634363 C664.95873454 -0.10673052 673.72709628 -0.10712013 682.49545801 -0.10751469 C685.00502533 -0.10762711 687.51459265 -0.10773853 690.02415997 -0.10784894 C770.60346849 -0.11139752 851.18276808 -0.12647237 931.7620732 -0.14978669 C989.66737082 -0.16653386 1047.57266676 -0.18200572 1105.47796683 -0.18652165 C1106.66943783 -0.18661513 1107.86090884 -0.18670862 1109.08848502 -0.18680494 C1135.247586 -0.18882423 1161.40668696 -0.18998007 1187.56578801 -0.19033352 C1196.92678542 -0.19046969 1206.28778283 -0.19067868 1215.64878023 -0.19092678 C1217.97749875 -0.19098834 1220.30621726 -0.19104666 1222.63493577 -0.19110173 C1259.70529044 -0.19202063 1296.77563577 -0.20197796 1333.84598736 -0.21655921 C1371.1996306 -0.23119305 1408.55326242 -0.23620601 1445.90690801 -0.22813967 C1451.07641203 -0.2270244 1456.24591606 -0.22601371 1461.4154201 -0.22506535 C1462.42872063 -0.22487538 1463.44202116 -0.22468541 1464.48602777 -0.22448969 C1480.48688656 -0.22176325 1496.48772412 -0.22907478 1512.4885783 -0.24063872 C1528.24858615 -0.25181747 1544.0085642 -0.25217298 1559.76857255 -0.24126853 C1568.99030703 -0.23520571 1578.21195117 -0.23717629 1587.43367699 -0.2515205 C1593.58222821 -0.26024853 1599.73071394 -0.25780458 1605.87926127 -0.24682179 C1609.34928514 -0.24092046 1612.81899357 -0.2409674 1616.28902621 -0.25150665 C1630.85532466 -0.29279517 1645.26369115 0.1837842 1659.76455186 1.51517213 C1660.43666302 1.57665939 1661.10877417 1.63814666 1661.80125233 1.70149717 C1748.28674542 9.77801834 1835.58151512 44.37554426 1901.45150523 101.61692608 C1904.26964731 104.04648899 1907.14859765 106.37484011 1910.05697398 108.69505108 C1914.60304506 112.38873382 1918.72976904 116.35674593 1922.78744273 120.57786358 C1924.87243786 122.64077857 1926.98184938 124.5430085 1929.20541148 126.44895733 C1933.35055841 130.04196739 1937.09270726 133.9136176 1940.80697398 137.94505108 C1941.4602064 138.6493626 1942.11343882 139.35367412 1942.78646617 140.07932842 C1944.07582755 141.47192821 1945.36318129 142.86639016 1946.64828257 144.26292217 C1948.07685737 145.81469888 1949.51319445 147.35932538 1950.95150523 148.90208233 C1956.61787837 155.05852017 1961.7709701 161.56904881 1966.87191539 168.19358623 C1968.41772802 170.19502802 1969.9769084 172.18554165 1971.53744273 174.17551983 C2009.89064382 223.34776684 2036.59764928 281.3363664 2051.05697398 341.88255108 C2051.31825084 342.96125469 2051.57952769 344.0399583 2051.84872203 345.1513499 C2052.76381887 349.13123596 2053.57800813 353.12668823 2054.36947398 357.13255108 C2054.56712816 358.13210727 2054.76478233 359.13166347 2054.96842603 360.16150924 C2058.6424643 379.19766545 2060.0903124 397.38125303 2060.001473 416.80443561 C2060.00423198 419.67658879 2060.01452511 422.54870505 2060.02440269 425.4208414 C2060.04183131 431.62702064 2060.04115944 437.83298141 2060.02796257 444.03916808 C2060.00829951 453.33009141 2060.01792043 462.62083666 2060.03279185 471.91176086 C2060.05730988 487.75491509 2060.05834503 503.59799118 2060.04625087 519.44115627 C2060.03408963 535.4799987 2060.0328672 551.5187872 2060.04477267 567.55763042 C2060.04551902 568.57347509 2060.04626536 569.58931977 2060.04703432 570.63594761 C2060.0501093 574.77384357 2060.05325986 578.91173945 2060.05650661 583.04963528 C2060.08937774 624.98231844 2060.0902567 666.91495937 2060.07864762 708.84765103 C2060.07705725 714.63523972 2060.07551859 720.42282843 2060.07403307 726.21041715 C2060.07373788 727.36008084 2060.07344269 728.50974454 2060.07313856 729.69424652 C2060.06652918 756.3698437 2060.07121291 783.04543619 2060.07749133 809.72103298 C2060.07802576 812.05225767 2060.07855814 814.38348236 2060.07908845 816.71470705 C2060.08122446 826.08360497 2060.08338871 835.45250289 2060.08560099 844.8214008 C2060.09174174 871.0099937 2060.09612509 897.19858676 2060.09909301 923.38718021 C2060.0992282 924.57964968 2060.09936339 925.77211916 2060.09950268 927.00072407 C2060.10367417 964.98519785 2060.09996154 1002.96966675 2060.09100394 1040.95413959 C2060.09057074 1042.80149216 2060.09057074 1042.80149216 2060.09012878 1044.68616498 C2060.08542319 1064.68445711 2060.08038211 1084.68274916 2060.07530628 1104.68104121 C2060.05520527 1183.97528134 2060.06341843 1263.26946804 2060.0967689 1342.56370342 C2060.10515515 1362.5449026 2060.11346901 1382.52610181 2060.12132316 1402.50730121 C2060.12180782 1403.73773243 2060.12229249 1404.96816365 2060.12279184 1406.23588066 C2060.13763904 1444.17630866 2060.14505386 1482.1167322 2060.14457946 1520.05716312 C2060.14456507 1521.24883148 2060.14455068 1522.44049983 2060.14453586 1523.66827935 C2060.14413913 1549.83174434 2060.14186522 1575.99520892 2060.13788813 1602.15867361 C2060.13647517 1611.52095537 2060.13517079 1620.88323714 2060.13390656 1630.24551892 C2060.13358909 1632.57447317 2060.13326396 1634.90342742 2060.13293115 1637.23238167 C2060.12767227 1674.29099982 2060.1390537 1711.34958891 2060.15848554 1748.40820159 C2060.17844035 1786.78397163 2060.17588448 1825.15968288 2060.14804823 1863.53544875 C2060.14513955 1867.66332089 2060.14232593 1871.79119309 2060.13958697 1875.91906536 C2060.13890606 1876.9320658 2060.13822514 1877.94506624 2060.13752359 1878.98876366 C2060.1273135 1894.97620001 2060.13708746 1910.96355773 2060.15533418 1926.95098428 C2060.17288275 1942.70236197 2060.1687295 1958.45361384 2060.14208569 1974.20497997 C2060.12842971 1982.61760028 2060.12392807 1991.02995566 2060.14716698 1999.4425623 C2060.31471677 2063.61155259 2060.31471677 2063.61155259 2053.36947398 2093.13255108 C2053.05608383 2094.52698249 2052.74452921 2095.92182743 2052.43460597 2097.31703349 C2045.200916 2129.76766887 2034.43816611 2161.0227957 2020.36947398 2191.13255108 C2019.89654918 2192.1447874 2019.42362437 2193.15702373 2018.93636851 2194.19993389 C2001.81298142 2230.41617112 1978.96063402 2264.20769104 1952.36947398 2294.13255108 C1951.63986461 2294.96141826 1950.91025523 2295.79028545 1950.15853648 2296.64426983 C1947.91888273 2299.16283957 1945.65087898 2301.65169809 1943.36947398 2304.13255108 C1942.51965953 2305.05801738 1942.51965953 2305.05801738 1941.65267711 2306.00217998 C1939.70955662 2308.11324303 1937.75924894 2310.21745311 1935.80697398 2312.32005108 C1935.19362193 2312.98569072 1934.58026988 2313.65133037 1933.9483314 2314.33714092 C1930.24726258 2318.30197314 1926.39990218 2321.95297361 1922.28231578 2325.48240459 C1920.001075 2327.45035691 1917.80269207 2329.49493259 1915.60555797 2331.55564678 C1893.01834352 2352.73271824 1867.17739516 2370.71361602 1840.36947398 2386.13255108 C1839.72607066 2386.50766826 1839.08266734 2386.88278545 1838.41976695 2387.26926983 C1781.86691072 2420.13899654 1718.41973299 2438.62596244 1653.36947398 2444.13255108 C1652.32053564 2444.22184479 1651.27159729 2444.3111385 1650.19087294 2444.40313809 C1637.34875115 2445.34592416 1624.51146949 2445.27633177 1611.64067764 2445.26510215 C1608.12765218 2445.26316108 1604.61463203 2445.26707382 1601.10160808 2445.27019894 C1594.93262969 2445.27489152 1588.76365932 2445.27590275 1582.59467943 2445.2744706 C1573.35918354 2445.27234236 1564.12369589 2445.27597281 1554.88820128 2445.28068537 C1539.14488416 2445.28854546 1523.40156931 2445.29164675 1507.65825038 2445.29213131 C1491.70707229 2445.29263409 1475.75589675 2445.29528499 1459.80471949 2445.3005389 C1458.7965958 2445.30086903 1457.78847211 2445.30119917 1456.74979922 2445.3015393 C1452.64371481 2445.30288934 1448.53763041 2445.30425201 1444.43154602 2445.30563141 C1395.84380468 2445.32192491 1347.25606382 2445.32831904 1298.66832021 2445.33307928 C1274.46737666 2445.33546363 1250.26643338 2445.33916735 1226.06549003 2445.34311638 C1148.410355 2445.35578061 1070.75521997 2445.36656409 993.10008392 2445.36995683 C989.38933945 2445.37011907 985.67859499 2445.37028463 981.96785052 2445.37045122 C974.52607201 2445.37078501 967.0842935 2445.37111549 959.64251499 2445.37144578 C950.93026683 2445.37183267 942.21801868 2445.37222228 933.50577052 2445.37261684 C931.01226787 2445.37272926 928.51876522 2445.37284068 926.02526257 2445.3729511 C845.96523594 2445.37649951 765.90521829 2445.39157391 685.84519508 2445.41488884 C628.30963672 2445.43163745 570.77408006 2445.44710846 513.23851924 2445.4516238 C512.05450242 2445.45171729 510.87048559 2445.45181077 509.65058948 2445.45190709 C483.65436793 2445.45392644 457.65814641 2445.45508224 431.66192479 2445.45543568 C422.35906802 2445.45557184 413.05621126 2445.45578083 403.75335449 2445.45602893 C401.43912312 2445.45609049 399.12489175 2445.45614881 396.81066038 2445.45620388 C359.98047131 2445.45712255 323.15029163 2445.46707701 286.32010565 2445.48166136 C249.2054865 2445.49629949 212.09087886 2445.50130551 174.97625734 2445.49324182 C169.83825481 2445.49212657 164.70025227 2445.49111588 159.56224971 2445.4901675 C158.55513764 2445.48997753 157.54802558 2445.48978756 156.51039496 2445.48959184 C140.61627289 2445.4868669 124.72217221 2445.49417209 108.82805478 2445.50574087 C93.1678327 2445.51692796 77.50764061 2445.5172669 61.84741803 2445.50637068 C53.48342325 2445.50084071 45.11949618 2445.49990435 36.75550778 2445.5128794 C-62.72750082 2445.65964509 -155.841586 2430.60336869 -285.71255727 2342.64817608 C-288.53069935 2340.21861316 -291.40964969 2337.89026204 -294.31802602 2335.57005108 C-298.95398163 2331.80333714 -303.13794602 2327.72983088 -307.30630727 2323.45676983 C-309.30503466 2321.45804243 -311.33825816 2319.62983145 -313.50552602 2317.82005108 C-318.84034823 2313.24888285 -323.44486858 2307.97165076 -328.14761586 2302.76829326 C-329.52505928 2301.24888745 -330.91517901 2299.74099996 -332.30630727 2298.23411358 C-337.99670707 2292.05697663 -343.43867057 2285.73372624 -348.63052602 2279.13255108 C-349.20577016 2278.40278057 -349.7810143 2277.67301006 -350.37369008 2276.92112529 C-360.1789085 2264.42159038 -369.25183464 2251.62960623 -377.63052602 2238.13255108 C-378.0488268 2237.46030498 -378.46712758 2236.78805889 -378.89810414 2236.0954417 C-381.54671773 2231.81489816 -384.10903368 2227.48898521 -386.63052602 2223.13255108 C-387.19537709 2222.1652708 -387.19537709 2222.1652708 -387.7716393 2221.17844951 C-413.96139457 2176.11074435 -431.1371551 2126.54714864 -439.94302602 2075.25755108 C-440.11889241 2074.2654211 -440.11889241 2074.2654211 -440.29831166 2073.2532481 C-441.23497228 2067.89845737 -441.94863748 2062.52510598 -442.63052602 2057.13255108 C-442.75651534 2056.15564001 -442.88250466 2055.17872894 -443.01231184 2054.17221451 C-446.61586166 2024.75637411 -446.05994293 1995.14129045 -446.01899113 1965.56158798 C-446.00838247 1957.42837365 -446.01574891 1949.29519607 -446.02335983 1941.16198187 C-446.03707547 1925.96855721 -446.03675131 1910.77516281 -446.0285172 1895.58173549 C-446.02023516 1880.20573491 -446.018545 1864.8297542 -446.02472921 1849.4537524 C-446.02511672 1848.47906798 -446.02550424 1847.50438355 -446.0259035 1846.50016323 C-446.02750349 1842.52979181 -446.02914964 1838.55942041 -446.03085433 1834.58904903 C-446.04668559 1797.69038877 -446.04781472 1760.79174182 -446.03941198 1723.89307964 C-446.03916359 1722.80181271 -446.0389152 1721.71054578 -446.03865929 1720.58621015 C-446.0384105 1719.49317721 -446.03816171 1718.40014427 -446.03790538 1717.27398911 C-446.03032546 1683.92767768 -446.02838647 1650.58137174 -446.03197332 1617.23505962 C-446.03220575 1614.99904331 -446.03243722 1612.76302699 -446.03266773 1610.52701067 C-446.03359919 1601.54060796 -446.03455519 1592.55420525 -446.03554702 1583.56780255 C-446.03829757 1558.4495895 -446.04000972 1533.33137644 -446.04090543 1508.21316326 C-446.04094637 1507.06949206 -446.0409873 1505.92582087 -446.04102948 1504.74749297 C-446.04225668 1468.32403107 -446.03887991 1431.90057109 -446.03235669 1395.47710979 C-446.03214595 1394.29634861 -446.0319352 1393.11558742 -446.03171807 1391.89904559 C-446.02828353 1372.72619196 -446.024625 1353.55333838 -446.02094754 1334.38048479 C-446.00637937 1258.34633752 -446.00705556 1182.31220609 -446.0216393 1106.27805889 C-446.02530309 1087.1147034 -446.02893634 1067.9513479 -446.03235669 1048.78799236 C-446.03256804 1047.60791542 -446.03277938 1046.42783848 -446.03299713 1045.21200163 C-446.03946902 1008.8253138 -446.04220788 972.43862728 -446.04090543 936.05193889 C-446.04086468 934.90911543 -446.04082392 933.76629198 -446.04078194 932.5888375 C-446.03984436 907.49818202 -446.03794316 882.40752667 -446.03517392 857.31687133 C-446.03418657 848.33866916 -446.03324731 839.36046698 -446.03232179 830.3822648 C-446.03208962 828.14887452 -446.03185343 825.91548425 -446.0316132 823.68209398 C-446.02803746 790.34769099 -446.03107194 757.01329421 -446.03865929 723.678892 C-446.03890768 722.58762507 -446.03915606 721.49635814 -446.03941198 720.37202251 C-446.03966002 719.28278296 -446.03990807 718.19354341 -446.04016363 717.07129659 C-446.04845131 680.27557288 -446.0453681 643.47986511 -446.02956974 606.68414366 C-446.02791281 602.72654571 -446.02630268 598.76894774 -446.02472921 594.81134975 C-446.02433858 593.84013705 -446.02394796 592.86892436 -446.02354551 591.86828097 C-446.01764661 576.5390113 -446.02172849 561.20976158 -446.03003622 545.88049372 C-446.03800541 530.77861373 -446.03512603 515.67676712 -446.02099396 500.57489132 C-446.01373231 492.50894721 -446.01104805 484.44307183 -446.02221191 476.37713027 C-446.15313628 375.95322947 -427.70161506 281.76427053 -342.63052602 159.13255108 C-342.101527 158.49913799 -341.57252797 157.8657249 -341.02749868 157.21311748 C-335.75681368 150.92344414 -330.4664573 144.75303688 -324.54995961 139.05467022 C-322.72549213 137.22765006 -321.05642338 135.34031492 -319.38833852 133.37083233 C-315.76750027 129.20338907 -311.87525964 125.43308815 -307.81802602 121.69505108 C-307.1137145 121.04181865 -306.40940297 120.38858623 -305.68374868 119.71555889 C-304.29114889 118.4261975 -302.89668693 117.13884377 -301.50015493 115.85374248 C-299.94837822 114.42516768 -298.40375172 112.98883061 -296.86099477 111.55051983 C-290.70455692 105.88414669 -284.19402829 100.73105496 -277.56949086 95.63010967 C-275.56804908 94.08429704 -273.57753545 92.52511666 -271.58755727 90.96458233 C-209.44052117 42.4913496 -133.45426823 12.32295919 -55.38052602 2.88255108 C-54.35211095 2.75792492 -54.35211095 2.75792492 -53.30291982 2.63078106 C-48.74960252 2.08593031 -44.19648273 1.55856081 -39.63052602 1.13255108 C-38.39296997 1.00715495 -38.39296997 1.00715495 -37.13041279 0.87922557 C-24.77447886 -0.19450447 -12.39212694 -0.01071655 0 0 Z " fill="#000000" transform="translate(447.6305260192603,34.86744892410934)"/>
</svg>
