<?xml version="1.0" encoding="UTF-8"?>
<svg version="1.1" xmlns="http://www.w3.org/2000/svg" width="400" height="400">
<path d="M0 0 C5.91451583 4.73976334 11.27958653 10.11681267 16.64746094 15.45458984 C17.47125748 16.27020889 18.29505402 17.08582794 19.14381409 17.92616272 C21.8436822 20.60140294 24.53956173 23.28060593 27.234375 25.9609375 C28.15981361 26.88105244 29.08525223 27.80116737 30.03873444 28.74916458 C33.92722323 32.61608775 37.81429647 36.48442466 41.6976738 40.35648155 C47.23321123 45.87576374 52.77709034 51.38635407 58.33286262 56.88526952 C62.25778558 60.77140315 66.17299325 64.66715864 70.08120751 68.5700947 C72.40801316 70.89326391 74.73996254 73.21082889 77.07994843 75.52073288 C79.68858876 78.09771623 82.28097274 80.69007038 84.87011719 83.28662109 C85.6379805 84.03807907 86.40584381 84.78953705 87.19697571 85.56376648 C93.61201669 92.05405827 97.57340543 98.59154415 97.5625 107.9375 C97.3860157 114.73214548 95.43640658 119.26514442 92 125 C91.67 125.99 91.34 126.98 91 128 C89.33720673 129.0064275 87.67016516 130.00585407 86 131 C84.95374591 132.29735507 83.95298777 133.63266972 83 135 C81.68671343 136.35308313 80.35500919 137.68870078 79 139 C78.34 139.66 77.68 140.32 77 141 C75.93831343 141.90680382 74.87105645 142.80710245 73.80014038 143.70298767 C70.07848985 146.88026489 66.62732723 150.26492178 63.19775391 153.75219727 C62.23767174 154.72169815 62.23767174 154.72169815 61.25819397 155.71078491 C59.88002855 157.1027106 58.50294485 158.495708 57.12685013 159.88968086 C54.94301001 162.10037126 52.75463905 164.30647893 50.56478882 166.51121521 C44.34258717 172.77595966 38.12308563 179.04330139 31.91992188 185.3269043 C28.11450372 189.18100384 24.29925437 193.02513246 20.47751999 196.86305046 C19.02987301 198.32055254 17.58587827 199.78169217 16.14574051 201.24661446 C14.12676295 203.29957083 12.09544893 205.33955217 10.06103516 207.37719727 C9.47789047 207.9762941 8.89474579 208.57539093 8.29393005 209.19264221 C1.85262491 215.58781729 -5.40529461 220.02719967 -14.625 220.3125 C-28.83931383 220.10346597 -37.3851027 209.76566891 -46.77099609 200.37426758 C-47.60775879 199.54086349 -48.44452148 198.70745941 -49.30664062 197.84880066 C-52.048206 195.11666955 -54.78604605 192.38084389 -57.5234375 189.64453125 C-58.47180462 188.69758942 -59.42025719 187.75073316 -60.36879349 186.8039608 C-65.32731851 181.85465029 -70.28329181 176.90280141 -75.23681641 171.94848633 C-79.84709809 167.33760174 -84.46295383 162.73234931 -89.08140123 158.12964517 C-93.05795478 154.1661627 -97.03064802 150.19883895 -101.00035155 146.22849578 C-103.36666434 143.86192829 -105.73493722 141.49741427 -108.10621262 139.13581276 C-110.74402335 136.50776616 -113.37546246 133.8734998 -116.00537109 131.23754883 C-116.7897757 130.45876373 -117.5741803 129.67997864 -118.38235474 128.87759399 C-119.09716003 128.15859421 -119.81196533 127.43959442 -120.5484314 126.69880676 C-121.17039083 126.07739209 -121.79235027 125.45597742 -122.43315697 124.815732 C-127.11897875 119.38557953 -127.37709986 112.55235041 -127.2734375 105.6484375 C-125.97775869 93.09886271 -116.15204259 85.00788267 -107.74487305 76.55200195 C-106.95036743 75.74931885 -106.15586182 74.94663574 -105.33728027 74.11962891 C-102.7317753 71.48950112 -100.1223129 68.8633573 -97.51171875 66.23828125 C-96.61491709 65.33615591 -95.71811543 64.43403057 -94.79413795 63.5045681 C-91.02395222 59.71321396 -87.25275331 55.92288208 -83.47763348 52.13644123 C-78.10048241 46.74304517 -72.73202043 41.34132004 -67.37526101 35.92766792 C-63.1300747 31.63896083 -58.87112806 27.36417695 -54.60730934 23.0939846 C-52.80542868 21.28540613 -51.00779322 19.47258741 -49.21460533 17.65538979 C-46.70251717 15.11157724 -44.17499592 12.58410377 -41.64331055 10.05981445 C-40.91414932 9.31424789 -40.1849881 8.56868134 -39.43373108 7.80052185 C-28.19414545 -3.3058792 -14.53147111 -7.79308733 0 0 Z M-15 65 C-28.53 78.53 -42.06 92.06 -56 106 C-55.67 106.99 -55.34 107.98 -55 109 C-55.99 109.495 -55.99 109.495 -57 110 C-56.34 110 -55.68 110 -55 110 C-54.7412056 110.58214767 -54.48241119 111.16429535 -54.21577454 111.76408386 C-52.90410488 114.17635955 -51.46564094 115.81437938 -49.54760742 117.7746582 C-48.84314987 118.49833084 -48.13869232 119.22200348 -47.41288757 119.96760559 C-46.27071526 121.12252754 -46.27071526 121.12252754 -45.10546875 122.30078125 C-44.3210994 123.09655075 -43.53673004 123.89232025 -42.72859192 124.71220398 C-41.06954008 126.39013058 -39.40757391 128.06517992 -37.74291992 129.73754883 C-35.19349872 132.30645543 -32.66617468 134.89587749 -30.13867188 137.48632812 C-28.52476058 139.1132927 -26.9095687 140.73898818 -25.29296875 142.36328125 C-24.53759323 143.14335037 -23.78221771 143.92341949 -23.00395203 144.72712708 C-22.29003799 145.43503891 -21.57612396 146.14295074 -20.84057617 146.87231445 C-19.90697517 147.81685234 -19.90697517 147.81685234 -18.95451355 148.7804718 C-17.03371283 150.22898412 -17.03371283 150.22898412 -14.52493286 149.93206787 C-11.5198079 148.8227392 -10.00855924 147.49120761 -7.76049805 145.21459961 C-6.96004562 144.41384506 -6.1595932 143.61309052 -5.33488464 142.78807068 C-4.4857399 141.91828079 -3.63659515 141.04849091 -2.76171875 140.15234375 C-1.88095169 139.2659169 -1.00018463 138.37949005 -0.09272766 137.46620178 C2.24079242 135.11409483 4.56526099 132.75372162 6.88580322 130.38885498 C9.25835267 127.97529976 11.64234532 125.57310647 14.02539062 123.16992188 C18.6942014 118.45700575 23.35140807 113.73285557 28 109 C26.61437164 106.11723885 25.2806067 104.00780064 23 101.75 C22.484375 101.22921875 21.96875 100.7084375 21.4375 100.171875 C20.05074629 98.78937985 20.05074629 98.78937985 18 99 C17.773125 98.443125 17.54625 97.88625 17.3125 97.3125 C15.62622733 94.34144815 13.469646 92.35477875 11 90 C10.175 89.154375 9.35 88.30875 8.5 87.4375 C6.07084467 84.97984112 6.07084467 84.97984112 3.4375 83 C1 81 1 81 -0.8125 78.6875 C-3.28241804 75.65302926 -6.01990421 73.26637007 -9 70.74609375 C-11.08607403 68.92485334 -13.04186039 66.95813961 -15 65 Z " fill="#8BB5F8" transform="translate(217,69)"/>
<path d="M0 0 C1 3 1 3 0 6 C-0.8430794 14.30640527 -0.05486971 21.8514667 5.23828125 28.57226562 C8.64118244 32.56106578 12.30178027 36.28717243 16 40 C16.82242188 40.84820312 17.64484375 41.69640625 18.4921875 42.5703125 C21.9050366 46.2374081 21.9050366 46.2374081 26 49 C26.30480078 52.04699376 26.34716925 53.52347705 24.51268005 56.04148865 C23.81683304 56.70511917 23.12098602 57.36874969 22.40405273 58.05249023 C21.62001572 58.81355576 20.8359787 59.57462128 20.02818298 60.35874939 C19.17196854 61.16719803 18.31575409 61.97564667 17.43359375 62.80859375 C15.65147933 64.54209838 13.86958499 66.27582927 12.08789062 68.00976562 C9.25975173 70.7320739 6.42610161 73.44838485 3.5871582 76.15942383 C0.85453757 78.77768108 -1.85657966 81.41678311 -4.56640625 84.05859375 C-5.42464493 84.86501816 -6.28288361 85.67144257 -7.16712952 86.50230408 C-7.94801437 87.26652176 -8.72889923 88.03073944 -9.53344727 88.81811523 C-10.22849869 89.48254135 -10.92355011 90.14696747 -11.6396637 90.83152771 C-13.27590108 92.99859404 -13.27590108 92.99859404 -12.93504333 96.01048279 C-11.91643494 99.2671739 -10.93447426 100.66060023 -8.50585938 103.01416016 C-7.76839478 103.74156403 -7.03093018 104.4689679 -6.27111816 105.21841431 C-5.47008667 105.98422821 -4.66905518 106.75004211 -3.84375 107.5390625 C-3.02628296 108.34233978 -2.20881592 109.14561707 -1.36657715 109.97323608 C1.24401336 112.53601871 3.87055075 115.08158099 6.5 117.625 C9.12765501 120.17724982 11.75149499 122.73305435 14.36657715 125.29818726 C15.99367244 126.89323054 17.62832466 128.48060839 19.27111816 130.05947876 C20.00858276 130.78057831 20.74604736 131.50167786 21.50585938 132.24462891 C22.15792358 132.87495026 22.80998779 133.50527161 23.48181152 134.1546936 C25.11962528 136.14540046 25.46865522 137.52195219 26 140 C27.31102574 140.70953064 28.64974247 141.3683143 30 142 C31.69247643 143.55487672 33.33474465 145.16529226 34.9375 146.8125 C35.77152344 147.66457031 36.60554688 148.51664063 37.46484375 149.39453125 C38.30144531 150.25433594 39.13804687 151.11414063 40 152 C40.86496094 152.86238281 41.72992188 153.72476563 42.62109375 154.61328125 C50.14847093 162.16537888 54.11649305 167.55653908 54.375 178.5 C54.23946314 184.24337428 53.9934033 188.11077461 51 193 C50.5978125 193.66386719 50.195625 194.32773437 49.78125 195.01171875 C45.85059662 200.91861729 40.8156837 204.521168 34.015625 206.609375 C26.19226488 208.12553006 18.86916036 207.09073878 12 203 C6.05879958 198.16854203 0.63643931 192.78487623 -4.77099609 187.37426758 C-5.60775879 186.54086349 -6.44452148 185.70745941 -7.30664062 184.84880066 C-10.048206 182.11666955 -12.78604605 179.38084389 -15.5234375 176.64453125 C-16.47180462 175.69758942 -17.42025719 174.75073316 -18.36879349 173.8039608 C-23.32731851 168.85465029 -28.28329181 163.90280141 -33.23681641 158.94848633 C-37.84709809 154.33760174 -42.46295383 149.73234931 -47.08140123 145.12964517 C-51.05795478 141.1661627 -55.03064802 137.19883895 -59.00035155 133.22849578 C-61.36666434 130.86192829 -63.73493722 128.49741427 -66.10621262 126.13581276 C-68.74402335 123.50776616 -71.37546246 120.8734998 -74.00537109 118.23754883 C-74.7897757 117.45876373 -75.5741803 116.67997864 -76.38235474 115.87759399 C-77.09716003 115.15859421 -77.81196533 114.43959442 -78.5484314 113.69880676 C-79.17039083 113.07739209 -79.79235027 112.45597742 -80.43315697 111.815732 C-85.11897875 106.38557953 -85.37709986 99.55235041 -85.2734375 92.6484375 C-84.02301157 80.53716922 -74.89226599 72.74117192 -66.73535156 64.59008789 C-66.04664474 63.89802246 -65.35793793 63.20595703 -64.64836121 62.49291992 C-62.39839378 60.23354463 -60.14476074 57.9778724 -57.890625 55.72265625 C-56.31590617 54.14472091 -54.74126135 52.56671172 -53.16668701 50.9886322 C-49.88031202 47.69629375 -46.59190134 44.40600407 -43.30224609 41.11694336 C-39.08145392 36.89625337 -34.86761589 32.66869228 -30.65546036 28.43938541 C-27.41274213 25.18557645 -24.16551737 21.93629442 -20.91698456 18.68829155 C-19.36040503 17.13053021 -17.80545083 15.57114305 -16.25214386 14.01011848 C-14.08848312 11.83670468 -11.91863255 9.66966541 -9.74707031 7.50415039 C-9.10495102 6.85641159 -8.46283173 6.20867279 -7.80125427 5.54130554 C-6.91413506 4.66047806 -6.91413506 4.66047806 -6.00909424 3.76185608 C-5.49737293 3.24959001 -4.98565163 2.73732393 -4.45842361 2.20953465 C-3 1 -3 1 0 0 Z " fill="#4787F4" transform="translate(175,82)"/>
<path d="M0 0 C5.31611185 4.21314285 8.9637492 9.03610469 10.83984375 15.59375 C11.68374589 23.3430437 11.987393 30.81941957 7.83984375 37.59375 C7.43765625 38.25761719 7.03546875 38.92148437 6.62109375 39.60546875 C2.69044037 45.51236729 -2.34447255 49.114918 -9.14453125 51.203125 C-18.11134917 52.94088041 -25.86478205 51.11791283 -33.42578125 46.0859375 C-38.56234509 41.99571074 -40.95851648 37.7011236 -43.16015625 31.59375 C-43.49015625 30.93375 -43.82015625 30.27375 -44.16015625 29.59375 C-45.04830901 20.86447715 -44.43215654 13.77838295 -39.16015625 6.59375 C-28.81192162 -4.93489162 -13.65684395 -8.89053132 0 0 Z " fill="#2670DA" transform="translate(218.16015625,237.40625)"/>
<path d="M0 0 C2.31 0 4.62 0 7 0 C7 0.66 7 1.32 7 2 C8.11375 2.1546875 8.11375 2.1546875 9.25 2.3125 C12.20429618 3.05107404 13.74617801 3.98765894 16 6 C16.33 6.66 16.66 7.32 17 8 C16.67 8.66 16.34 9.32 16 10 C16.66 10 17.32 10 18 10 C18.0928125 9.1646875 18.0928125 9.1646875 18.1875 8.3125 C19.32993544 5.06095298 21.53205381 3.34138484 24 1 C24 0.67 24 0.34 24 0 C26.25 -0.1875 26.25 -0.1875 29 0 C29.928125 0.804375 29.928125 0.804375 30.875 1.625 C31.57625 2.07875 32.2775 2.5325 33 3 C36.71295284 2.28485606 36.71295284 2.28485606 40 1 C42 3 42 3 42.24291992 5.18310547 C42.23881104 6.06885254 42.23470215 6.95459961 42.23046875 7.8671875 C42.22853516 8.83527344 42.22660156 9.80335938 42.22460938 10.80078125 C42.20624023 12.32251953 42.20624023 12.32251953 42.1875 13.875 C42.18685547 14.88175781 42.18621094 15.88851563 42.18554688 16.92578125 C42.13376474 25.59065817 42.13376474 25.59065817 41 29 C39.4765625 30.265625 39.4765625 30.265625 37.625 31.25 C37.01914063 31.58515625 36.41328125 31.9203125 35.7890625 32.265625 C34 33 34 33 31 33 C30.505 33.99 30.505 33.99 30 35 C23.97463002 35.602537 23.97463002 35.602537 21.19921875 33.88671875 C19.74400545 32.65378147 18.36520843 31.33191067 17 30 C17.39803561 27.11424181 17.79009069 26.17810487 20.0625 24.25 C20.701875 23.8375 21.34125 23.425 22 23 C20.35 21.02 18.7 19.04 17 17 C16.71769531 17.5053125 16.43539062 18.010625 16.14453125 18.53125 C13.76529077 22.04778138 12.13985904 23.76574326 7.8828125 24.640625 C2.79619665 24.80210487 -0.84118123 24.65593515 -5.3125 22.125 C-7.38794051 18.28159165 -7.36522556 15.59814581 -7.078125 11.3046875 C-6.86060682 8.83786867 -6.86060682 8.83786867 -8 6 C-6.865625 5.566875 -5.73125 5.13375 -4.5625 4.6875 C-2.7990625 3.8521875 -2.7990625 3.8521875 -1 3 C-0.67 2.01 -0.34 1.02 0 0 Z M3 8 C0.99280504 10.17862819 0.99280504 10.17862819 0 13 C0.69140351 15.30287793 0.69140351 15.30287793 2 17 C2.78375 16.814375 3.5675 16.62875 4.375 16.4375 C7 16 7 16 9 17 C9.76716851 14.14921909 9.76716851 14.14921909 10 11 C8.93654948 9.01970318 8.93654948 9.01970318 7 8 C5.68 8 4.36 8 3 8 Z M27 8 C25.515 9.98 25.515 9.98 24 12 C24.66 13.32 25.32 14.64 26 16 C26.66 16 27.32 16 28 16 C29.33783393 16.31478446 30.67203709 16.64587656 32 17 C33.35439668 14.29120665 33.06501451 11.99066732 33 9 C30.03 8.505 30.03 8.505 27 8 Z M33 11 C34 14 34 14 34 14 Z M33 22 C32.67 22.66 32.34 23.32 32 24 C32.66 24 33.32 24 34 24 C33.67 23.34 33.34 22.68 33 22 Z M25 24 C25.33 24.66 25.66 25.32 26 26 C27.65 25.67 29.3 25.34 31 25 C31 24.67 31 24.34 31 24 C29.02 24 27.04 24 25 24 Z M26 26 C26 26.33 26 26.66 26 27 C27.98 27 29.96 27 32 27 C32 26.67 32 26.34 32 26 C30.02 26 28.04 26 26 26 Z " fill="#909090" transform="translate(77,312)"/>
<path d="M0 0 C2.97 0 5.94 0 9 0 C9.33 0.66 9.66 1.32 10 2 C10.350625 2.66 10.70125 3.32 11.0625 4 C12 6 12 6 12 8 C13.95927063 9.7143618 15.95880212 11.38405168 18 13 C18.33 12.01 18.66 11.02 19 10 C19.495 9.525625 19.99 9.05125 20.5 8.5625 C22.15039453 7.10235284 22.15039453 7.10235284 22.5 5 C23.14335911 2.42656356 23.81327367 1.50808712 26 0 C29.09501208 -0.25265405 31.20129973 -0.39935013 34 1 C34.4140625 3.50390625 34.4140625 3.50390625 34.625 6.5625 C34.69976562 7.57441406 34.77453125 8.58632813 34.8515625 9.62890625 C34.90054688 10.41136719 34.94953125 11.19382812 35 12 C35.37125 11.175 35.7425 10.35 36.125 9.5 C38 7 38 7 40.6875 6.375 C45.13416235 7.2139929 48.45999239 9.21192718 52 12 C53.65497356 15.30994713 53.10084335 18.99123 53.0625 22.625 C53.05798828 23.42679687 53.05347656 24.22859375 53.04882812 25.0546875 C53.03703168 27.03649006 53.01909605 29.01825433 53 31 C52.09636719 31.06058594 51.19273437 31.12117188 50.26171875 31.18359375 C48.49248047 31.30927734 48.49248047 31.30927734 46.6875 31.4375 C44.92986328 31.55931641 44.92986328 31.55931641 43.13671875 31.68359375 C39.97409042 31.8867371 39.97409042 31.8867371 37 33 C36.34 32.01 35.68 31.02 35 30 C32.03 30.33 29.06 30.66 26 31 C25.67 26.38 25.34 21.76 25 17 C22.84706477 18.77647928 22.84706477 18.77647928 22.625 21 C22 23 22 23 20.1875 24.3125 C16.92281631 25.33854345 14.9747525 24.48737625 12 23 C11.375 20.4375 11.375 20.4375 11 18 C10.67 18 10.34 18 10 18 C9.67 21.96 9.34 25.92 9 30 C8.67 30 8.34 30 8 30 C8 24.39 8 18.78 8 13 C7.67 18.94 7.34 24.88 7 31 C4.69 31 2.38 31 0 31 C0 20.77 0 10.54 0 0 Z M1 2 C1 10.91 1 19.82 1 29 C1.33 29 1.66 29 2 29 C2 20.09 2 11.18 2 2 C1.67 2 1.34 2 1 2 Z M25 12 C24.67 12.99 24.34 13.98 24 15 C24.66 15 25.32 15 26 15 C25.67 14.01 25.34 13.02 25 12 Z M32 13 C32 15.31 32 17.62 32 20 C35.23165844 19.28269264 38.18707922 18.18684926 41.25 16.9375 C42.14203125 16.57527344 43.0340625 16.21304687 43.953125 15.83984375 C44.62859375 15.56269531 45.3040625 15.28554688 46 15 C43.05404308 13.74440224 43.05404308 13.74440224 40.125 14.5625 C36.67081125 15.04608642 35.07208237 14.53604119 32 13 Z M9 15 C10 17 10 17 10 17 Z M33 21 C32.67 22.65 32.34 24.3 32 26 C32.99 26.495 32.99 26.495 34 27 C34 25.02 34 23.04 34 21 C33.67 21 33.34 21 33 21 Z M41 21 C40.34 22.32 39.68 23.64 39 25 C39.66 25.66 40.32 26.32 41 27 C43.54713404 26.99077298 43.54713404 26.99077298 46 26 C47.36020151 24.03241727 47.36020151 24.03241727 48 22 C46.87465895 20.64381501 46.87465895 20.64381501 43.9375 20.9375 C42.968125 20.958125 41.99875 20.97875 41 21 Z " fill="#A6A6A6" transform="translate(233,305)"/>
<path d="M0 0 C1.875 2.5 1.875 2.5 3 5 C5.92528027 4.37315423 8.41225673 3.51695295 11 2 C11.33 1.34 11.66 0.68 12 0 C14.85022418 -0.16286995 16.77324639 -0.09302712 19.4375 1 C22.47312593 2.36354249 22.47312593 2.36354249 28 2 C28 11.24 28 20.48 28 30 C26.02 30.99 26.02 30.99 24 32 C23.5875 32.53625 23.175 33.0725 22.75 33.625 C20.31416554 35.53886993 18.02983014 35.53332708 15.00390625 35.421875 C11.57006914 34.69896193 10.04073223 32.72097631 8 30 C7.1875 27.6875 7.1875 27.6875 7 26 C10.465 25.505 10.465 25.505 14 25 C13.236875 24.566875 12.47375 24.13375 11.6875 23.6875 C9.41906232 22.26313215 7.7800277 20.96739903 6 19 C5.01 21.475 5.01 21.475 4 24 C1.03 24.33 -1.94 24.66 -5 25 C-5 25.66 -5 26.32 -5 27 C-9.09081162 26.54546538 -11.33266483 26.20080221 -14 23 C-14.66 22.67 -15.32 22.34 -16 22 C-15.88512252 20.41590006 -15.75765492 18.83271037 -15.625 17.25 C-15.55539063 16.36828125 -15.48578125 15.4865625 -15.4140625 14.578125 C-15.00149945 12.00933618 -14.28839043 10.24158985 -13 8 C-13.99 7.01 -14.98 6.02 -16 5 C-4.8337364 -1.1789601 -4.8337364 -1.1789601 0 0 Z M-8 7 C-7.67 7.66 -7.34 8.32 -7 9 C-3.97065509 9.65772428 -3.97065509 9.65772428 -1 10 C-1.33 9.01 -1.66 8.02 -2 7 C-3.98 7 -5.96 7 -8 7 Z M4 7 C5 9 5 9 5 9 Z M14 7 C12.73138857 11.28156357 12.5810081 14.74302431 14 19 C15.8522367 20.00478037 15.8522367 20.00478037 18 20 C19.87359395 18.96040481 19.87359395 18.96040481 21 17 C21.25069913 14.37429296 21.25069913 14.37429296 21 12 C21.66 11.67 22.32 11.34 23 11 C21.91256712 8.88077873 21.91256712 8.88077873 20 7 C16.87413125 6.66602213 16.87413125 6.66602213 14 7 Z M-9 8 C-9.66 8.66 -10.32 9.32 -11 10 C-10.01 10 -9.02 10 -8 10 C-8.33 9.34 -8.66 8.68 -9 8 Z M5 9 C5 11.64 5 14.28 5 17 C5.33 17 5.66 17 6 17 C6 14.36 6 11.72 6 9 C5.67 9 5.34 9 5 9 Z M-8 14 C-8.66 15.32 -9.32 16.64 -10 18 C-9.34 18.66 -8.68 19.32 -8 20 C-5.45286596 19.99077298 -5.45286596 19.99077298 -3 19 C-1.63979849 17.03241727 -1.63979849 17.03241727 -1 15 C-2.12534105 13.64381501 -2.12534105 13.64381501 -5.0625 13.9375 C-6.031875 13.958125 -7.00125 13.97875 -8 14 Z M16 25 C16.33 25.66 16.66 26.32 17 27 C17.66 26.67 18.32 26.34 19 26 C18.01 25.67 17.02 25.34 16 25 Z M21 25 C22 27 22 27 22 27 Z " fill="#A6A6A6" transform="translate(194,312)"/>
<path d="M0 0 C0.66902344 0.38542969 1.33804687 0.77085937 2.02734375 1.16796875 C4.3919501 2.49777616 6.36705731 3.48953994 8.96484375 4.35546875 C9.62484375 5.01546875 10.28484375 5.67546875 10.96484375 6.35546875 C11.70734375 5.57171875 12.44984375 4.78796875 13.21484375 3.98046875 C17.03801448 0.33107851 17.03801448 0.33107851 19.96484375 -0.64453125 C22.96484375 0.35546875 22.96484375 0.35546875 25.96484375 2.35546875 C26.29484375 2.02546875 26.62484375 1.69546875 26.96484375 1.35546875 C28.6310149 1.31483043 30.2987247 1.31274775 31.96484375 1.35546875 C32.39529263 5.55962396 32.72052504 9.76563076 33.02734375 13.98046875 C33.15044922 15.17027344 33.27355469 16.36007812 33.40039062 17.5859375 C33.62310046 21.0524645 33.70318829 23.95761169 32.96484375 27.35546875 C29.59884332 31.16468228 25.77227149 32.9939832 20.83984375 33.98046875 C16.94899034 33.13463105 14.32997829 31.4910349 10.96484375 29.35546875 C10.30484375 29.02546875 9.64484375 28.69546875 8.96484375 28.35546875 C10.03031328 26.22452969 11.25644094 24.98959318 12.96484375 23.35546875 C12.13151042 21.18880208 12.13151042 21.18880208 9.96484375 20.35546875 C9.63484375 21.34546875 9.30484375 22.33546875 8.96484375 23.35546875 C7.41796875 23.32453125 7.41796875 23.32453125 5.83984375 23.29296875 C2.07684643 23.23471224 2.07684643 23.23471224 -1.09765625 23.98046875 C-4.61478153 24.42946347 -6.76271308 23.61982179 -10.03515625 22.35546875 C-10.69515625 22.35546875 -11.35515625 22.35546875 -12.03515625 22.35546875 C-12.11594266 20.23108536 -12.17424766 18.10583645 -12.22265625 15.98046875 C-12.25746094 14.79710937 -12.29226563 13.61375 -12.328125 12.39453125 C-12.23144531 11.39164062 -12.13476562 10.38875 -12.03515625 9.35546875 C-11.04515625 8.69546875 -10.05515625 8.03546875 -9.03515625 7.35546875 C-9.69515625 6.03546875 -10.35515625 4.71546875 -11.03515625 3.35546875 C-10.29265625 3.06671875 -9.55015625 2.77796875 -8.78515625 2.48046875 C-6.10891293 1.47330427 -6.10891293 1.47330427 -4.1171875 0.171875 C-2.03515625 -0.64453125 -2.03515625 -0.64453125 0 0 Z M-7.03515625 9.35546875 C-3.73515625 9.35546875 -0.43515625 9.35546875 2.96484375 9.35546875 C2.63484375 8.36546875 2.30484375 7.37546875 1.96484375 6.35546875 C-3.13049825 5.94736291 -3.13049825 5.94736291 -7.03515625 9.35546875 Z M7.96484375 6.35546875 C8.96484375 8.35546875 8.96484375 8.35546875 8.96484375 8.35546875 Z M15.96484375 8.48046875 C14.68937719 11.36894248 14.68937719 11.36894248 15.58984375 14.54296875 C16.79463732 17.60590465 16.79463732 17.60590465 19.96484375 19.35546875 C22.06715616 19.35077669 22.06715616 19.35077669 23.96484375 18.35546875 C26.30672665 15.19392684 26.29841411 12.19152787 25.96484375 8.35546875 C24.08109913 6.07490576 24.08109913 6.07490576 21.02734375 5.91796875 C17.83674599 6.04879134 17.83674599 6.04879134 15.96484375 8.48046875 Z M8.96484375 9.35546875 C8.96484375 11.66546875 8.96484375 13.97546875 8.96484375 16.35546875 C9.29484375 16.35546875 9.62484375 16.35546875 9.96484375 16.35546875 C9.96484375 14.04546875 9.96484375 11.73546875 9.96484375 9.35546875 C9.63484375 9.35546875 9.30484375 9.35546875 8.96484375 9.35546875 Z M25.96484375 11.35546875 C26.96484375 14.35546875 26.96484375 14.35546875 26.96484375 14.35546875 Z M-3.03515625 13.35546875 C-4.04626718 16.40460103 -4.04626718 16.40460103 -3.03515625 19.35546875 C-2.37515625 19.02546875 -1.71515625 18.69546875 -1.03515625 18.35546875 C0.29817708 17.68880208 1.63151042 17.02213542 2.96484375 16.35546875 C2.96484375 15.36546875 2.96484375 14.37546875 2.96484375 13.35546875 C0.98484375 13.35546875 -0.99515625 13.35546875 -3.03515625 13.35546875 Z M16.96484375 23.35546875 C17.29484375 24.67546875 17.62484375 25.99546875 17.96484375 27.35546875 C18.62484375 27.35546875 19.28484375 27.35546875 19.96484375 27.35546875 C19.63484375 26.03546875 19.30484375 24.71546875 18.96484375 23.35546875 C18.30484375 23.35546875 17.64484375 23.35546875 16.96484375 23.35546875 Z M20.96484375 23.35546875 C24.96484375 24.35546875 24.96484375 24.35546875 24.96484375 24.35546875 Z M24.96484375 24.35546875 C25.96484375 26.35546875 25.96484375 26.35546875 25.96484375 26.35546875 Z M21.96484375 25.35546875 C22.29484375 26.01546875 22.62484375 26.67546875 22.96484375 27.35546875 C23.62484375 27.02546875 24.28484375 26.69546875 24.96484375 26.35546875 C23.97484375 26.02546875 22.98484375 25.69546875 21.96484375 25.35546875 Z " fill="#A7A7A7" transform="translate(321.03515625,312.64453125)"/>
<path d="M0 0 C1.79150148 0.26872522 3.59965582 0.42086571 5.40625 0.5546875 C6.2725 0.8021875 7.13875 1.0496875 8.03125 1.3046875 C9.40625 3.8671875 9.40625 3.8671875 10.03125 6.3046875 C9.226875 6.7584375 8.4225 7.2121875 7.59375 7.6796875 C4.94268428 9.05194415 4.94268428 9.05194415 4.03125 11.3046875 C3.37125 11.3046875 2.71125 11.3046875 2.03125 11.3046875 C1.37125 10.3146875 0.71125 9.3246875 0.03125 8.3046875 C-3.26875 8.6346875 -6.56875 8.9646875 -9.96875 9.3046875 C-9.96875 10.6246875 -9.96875 11.9446875 -9.96875 13.3046875 C-10.95875 13.3046875 -11.94875 13.3046875 -12.96875 13.3046875 C-12.19530962 18.62250601 -12.19530962 18.62250601 -9.28125 22.8046875 C-6.14237617 23.48336292 -3.167716 23.42772465 0.03125 23.3046875 C0.36125 22.6446875 0.69125 21.9846875 1.03125 21.3046875 C-0.94875 20.6446875 -2.92875 19.9846875 -4.96875 19.3046875 C-5.01129356 17.30514004 -5.00955783 15.30427114 -4.96875 13.3046875 C-3.21315058 11.54908808 -0.93292558 12.17246831 1.40234375 12.16796875 C2.10488281 12.17183594 2.80742188 12.17570312 3.53125 12.1796875 C4.23378906 12.17582031 4.93632813 12.17195313 5.66015625 12.16796875 C10.90463622 12.17807372 10.90463622 12.17807372 12.03125 13.3046875 C12.54793705 19.40159466 12.1090786 22.45537781 8.03125 27.3046875 C4.12399636 31.04567503 1.33991145 31.93703581 -4.03125 32.3046875 C-5.84302734 32.459375 -5.84302734 32.459375 -7.69140625 32.6171875 C-11.63539862 32.24112148 -12.46802711 31.24540395 -14.96875 28.3046875 C-15.95875 27.9746875 -16.94875 27.6446875 -17.96875 27.3046875 C-20.21751746 21.62359076 -21.3242647 15.22489764 -19.28125 9.31640625 C-16.72456334 4.34152013 -13.13660935 1.67742655 -8.09375 -0.5078125 C-5.33932923 -0.75084963 -2.72506361 -0.41689406 0 0 Z M-11.96875 10.3046875 C-10.96875 12.3046875 -10.96875 12.3046875 -10.96875 12.3046875 Z " fill="#999999" transform="translate(33.96875,304.6953125)"/>
<path d="M0 0 C3.37817553 -0.28521182 6.63148195 -0.44222036 10 0 C11.875 2.25 11.875 2.25 13 5 C13.721875 5.66 14.44375 6.32 15.1875 7 C17 9 17 9 17.3125 11.6875 C17 14 17 14 16 15 C13.65012738 15.23527773 11.29443961 15.41386417 8.9375 15.5625 C7.00197266 15.68818359 7.00197266 15.68818359 5.02734375 15.81640625 C4.02832031 15.87699219 3.02929688 15.93757813 2 16 C3.03060547 15.98259766 3.03060547 15.98259766 4.08203125 15.96484375 C4.98308594 15.95582031 5.88414062 15.94679688 6.8125 15.9375 C7.70582031 15.92589844 8.59914062 15.91429687 9.51953125 15.90234375 C12 16 12 16 15 17 C15.6875 19.0625 15.6875 19.0625 16 21 C15.38125 21.28875 14.7625 21.5775 14.125 21.875 C11.86674235 22.93720042 11.86674235 22.93720042 10 25 C6.30553464 25.50432384 2.69708801 25.4710364 -1 25 C-3.5625 23 -3.5625 23 -5 21 C-5.66 21 -6.32 21 -7 21 C-7 16.05 -7 11.1 -7 6 C-5.68 5.34 -4.36 4.68 -3 4 C-1.26973898 2.52109931 -1.26973898 2.52109931 0 1 C0 0.67 0 0.34 0 0 Z M2 8 C1.67 8.66 1.34 9.32 1 10 C3.64 10 6.28 10 9 10 C8.67 9.34 8.34 8.68 8 8 C6.02 8 4.04 8 2 8 Z M2 17 C2 17.33 2 17.66 2 18 C3.65 18 5.3 18 7 18 C7 17.67 7 17.34 7 17 C5.35 17 3.7 17 2 17 Z " fill="#979797" transform="translate(136,312)"/>
<path d="M0 0 C2.31 0 4.62 0 7 0 C7 0.66 7 1.32 7 2 C7.721875 2.04125 8.44375 2.0825 9.1875 2.125 C12.38418466 3.11952412 14.02223455 4.53117873 16.0546875 7.18359375 C17.81220272 10.56063746 17.42360816 13.24804198 17 17 C16.0625 19.375 16.0625 19.375 15 21 C14.67 21.66 14.34 22.32 14 23 C11.12890625 23.66796875 11.12890625 23.66796875 7.5625 24.1875 C5.80099609 24.45626953 5.80099609 24.45626953 4.00390625 24.73046875 C1 25 1 25 -1 24 C-3.125 22.0625 -3.125 22.0625 -5 20 C-5 19.34 -5 18.68 -5 18 C-5.99 17.67 -6.98 17.34 -8 17 C-7.67 16.67 -7.34 16.34 -7 16 C-6.9175 14.783125 -6.835 13.56625 -6.75 12.3125 C-6.23332387 7.51602325 -4.27656161 5.44038969 -1 2 C-0.67 1.34 -0.34 0.68 0 0 Z M3 8 C0.65026182 9.89755144 0.65026182 9.89755144 0.875 13.125 C0.91625 14.07375 0.9575 15.0225 1 16 C1.99 16.495 1.99 16.495 3 17 C5.60931266 16.10636395 5.60931266 16.10636395 8 15 C7.67 12.69 7.34 10.38 7 8 C5.68 8 4.36 8 3 8 Z M9 11 C9 12.65 9 14.3 9 16 C9.33 16 9.66 16 10 16 C10 14.35 10 12.7 10 11 C9.67 11 9.34 11 9 11 Z " fill="#9B9B9B" transform="translate(53,312)"/>
<path d="M0 0 C0 0.66 0 1.32 0 2 C1.2375 2.99 1.2375 2.99 2.5 4 C3.7375 4.99 3.7375 4.99 5 6 C5 6.66 5 7.32 5 8 C5.66 8 6.32 8 7 8 C6.34 10.31 5.68 12.62 5 15 C4.00097656 14.98839844 3.00195312 14.97679687 1.97265625 14.96484375 C0.68230469 14.95582031 -0.60804688 14.94679688 -1.9375 14.9375 C-3.86916016 14.92009766 -3.86916016 14.92009766 -5.83984375 14.90234375 C-8.86298403 14.63467451 -8.86298403 14.63467451 -10 16 C-4.72 16 0.56 16 6 16 C6.33 17.32 6.66 18.64 7 20 C4.95356828 23.0131943 2.59317867 23.62202674 -0.875 24.3125 C-6.59229395 25.31947608 -9.23354331 24.1776378 -14 21 C-14.33 22.65 -14.66 24.3 -15 26 C-15.33 26 -15.66 26 -16 26 C-16 18.08 -16 10.16 -16 2 C-15.34 2.66 -14.68 3.32 -14 4 C-13.40832031 3.71125 -12.81664062 3.4225 -12.20703125 3.125 C-4.35852373 -0.56239016 -4.35852373 -0.56239016 0 0 Z M-8 7 C-8.33 7.99 -8.66 8.98 -9 10 C-6.03 10 -3.06 10 0 10 C-0.33 9.01 -0.66 8.02 -1 7 C-3.31 7 -5.62 7 -8 7 Z M-7 17 C-7.33 17.66 -7.66 18.32 -8 19 C-5.60280568 19.67958603 -5.60280568 19.67958603 -3 20 C-2.34 19.34 -1.68 18.68 -1 18 C-2.06645115 16.70366379 -2.06645115 16.70366379 -4.5625 16.9375 C-5.366875 16.958125 -6.17125 16.97875 -7 17 Z " fill="#A7A7A7" transform="translate(370,312)"/>
<path d="M0 0 C3.1875 -0.375 3.1875 -0.375 7 0 C9.89476395 2.59530561 11.69357613 4.3194654 12.39770508 8.18115234 C12.4911672 10.5980676 12.43769233 12.95975103 12.3125 15.375 C12.28994141 16.20644531 12.26738281 17.03789062 12.24414062 17.89453125 C12.18563654 19.93047353 12.09596795 21.96547945 12 24 C10.35 24 8.7 24 7 24 C6.67 18.72 6.34 13.44 6 8 C2.25724788 8.57125354 2.25724788 8.57125354 1 10 C0.76472227 12.34987262 0.58613583 14.70556039 0.4375 17.0625 C0.35371094 18.35285156 0.26992188 19.64320313 0.18359375 20.97265625 C0.12300781 21.97167969 0.06242187 22.97070312 0 24 C-2.31 24 -4.62 24 -7 24 C-7 16.74 -7 9.48 -7 2 C-4.66666667 2 -2.33333333 2 0 2 C0 1.34 0 0.68 0 0 Z " fill="#A6A6A6" transform="translate(296,312)"/>
<path d="M0 0 C0.99 0.66 1.98 1.32 3 2 C3.33 1.67 3.66 1.34 4 1 C5.65 1 7.3 1 9 1 C9.33 9.58 9.66 18.16 10 27 C8.68 26.34 7.36 25.68 6 25 C5.34 25.33 4.68 25.66 4 26 C4.33 24.02 4.66 22.04 5 20 C4.01 20.66 3.02 21.32 2 22 C-1.1875 21.625 -1.1875 21.625 -4 21 C-4 20.67 -4 20.34 -4 20 C-3.05125 19.731875 -2.1025 19.46375 -1.125 19.1875 C2.25267273 18.25013412 2.25267273 18.25013412 4 15 C4.4167552 11.95788569 4.4167552 11.95788569 4 9 C0.53001271 6.68667514 -0.92509248 6.66042437 -5 7 C-5.99 7.66 -6.98 8.32 -8 9 C-8.73606499 12.56769552 -8.73606499 12.56769552 -9 16 C-10.32 16 -11.64 16 -13 16 C-13.35572249 9.95271771 -12.45480787 6.88173098 -8.5625 2.3125 C-5.44903423 -0.30281125 -3.97851675 -1.32617225 0 0 Z " fill="#B6B6B6" transform="translate(344,313)"/>
<path d="M0 0 C7.59 0 15.18 0 23 0 C23 1.65 23 3.3 23 5 C20.03 5 17.06 5 14 5 C14 13.58 14 22.16 14 31 C12.35 31 10.7 31 9 31 C9 22.42 9 13.84 9 5 C6.03 5 3.06 5 0 5 C0 3.35 0 1.7 0 0 Z " fill="#919191" transform="translate(159,305)"/>
<path d="M0 0 C2.97 0 5.94 0 9 0 C9 3.96 9 7.92 9 12 C8.67 12 8.34 12 8 12 C7.67 18.27 7.34 24.54 7 31 C4.69 31 2.38 31 0 31 C0 20.77 0 10.54 0 0 Z " fill="#9C9C9C" transform="translate(121,305)"/>
<path d="M0 0 C5.2741376 -0.6592672 8.09539559 0.93071484 12.36328125 3.7109375 C14 5 14 5 15 7 C15.07194869 9.88370333 15.09291708 12.74239664 15.0625 15.625 C15.05798828 16.42679687 15.05347656 17.22859375 15.04882812 18.0546875 C15.03703168 20.03649006 15.01909605 22.01825433 15 24 C13.20759337 23.88610125 11.41605165 23.75852313 9.625 23.625 C8.12839844 23.52058594 8.12839844 23.52058594 6.6015625 23.4140625 C4 23 4 23 2 21 C5.465 20.505 5.465 20.505 9 20 C9 18.35 9 16.7 9 15 C6.69 14.34 4.38 13.68 2 13 C2.33 12.34 2.66 11.68 3 11 C5.64 11 8.28 11 11 11 C11 10.34 11 9.68 11 9 C9.58366664 8.83052421 8.16691467 8.66454493 6.75 8.5 C5.96109375 8.4071875 5.1721875 8.314375 4.359375 8.21875 C1.73109603 7.93845381 1.73109603 7.93845381 -2 8 C-2 4.23312136 -1.76462683 3.08809695 0 0 Z " fill="#8E8E8E" transform="translate(271,312)"/>
<path d="M0 0 C5.75 -0.125 5.75 -0.125 8 1 C8.484375 3.765625 8.484375 3.765625 8.75 7.25 C8.89695312 8.95929688 8.89695312 8.95929688 9.046875 10.703125 C8.99981003 14.01336143 8.44061089 16.05228849 7 19 C7.680625 18.690625 8.36125 18.38125 9.0625 18.0625 C13.68647499 16.38999841 18.10366217 16 23 16 C23 16.66 23 17.32 23 18 C19.04 18.495 19.04 18.495 15 19 C16.65 19.33 18.3 19.66 20 20 C20 20.33 20 20.66 20 21 C18.02 21.66 16.04 22.32 14 23 C14.33 23.99 14.66 24.98 15 26 C16.98 25.67 18.96 25.34 21 25 C21 25.66 21 26.32 21 27 C19.35 27.66 17.7 28.32 16 29 C17.65 29.33 19.3 29.66 21 30 C17.55549263 32.29633824 15.06187717 32.54016485 11 33 C10.34 32.01 9.68 31.02 9 30 C6.03 30.33 3.06 30.66 0 31 C-0.04898437 30.00097656 -0.09796875 29.00195312 -0.1484375 27.97265625 C-0.22320312 26.68230469 -0.29796875 25.39195312 -0.375 24.0625 C-0.44460938 22.77472656 -0.51421875 21.48695313 -0.5859375 20.16015625 C-0.72257812 19.11730469 -0.85921875 18.07445312 -1 17 C-1.66 16.67 -2.32 16.34 -3 16 C-2.67 15.34 -2.34 14.68 -2 14 C-1.34 14.33 -0.68 14.66 0 15 C-0.20625 14.38125 -0.4125 13.7625 -0.625 13.125 C-0.810625 12.073125 -0.810625 12.073125 -1 11 C-0.34 10.34 0.32 9.68 1 9 C1 15.93 1 22.86 1 30 C2.32 30 3.64 30 5 30 C5 20.43 5 10.86 5 1 C3.35 1.33 1.7 1.66 0 2 C0 1.34 0 0.68 0 0 Z M7 21 C6.67 22.65 6.34 24.3 6 26 C6.99 26.495 6.99 26.495 8 27 C8 25.02 8 23.04 8 21 C7.67 21 7.34 21 7 21 Z " fill="#CFCFCF" transform="translate(259,305)"/>
<path d="M0 0 C0 9.57 0 19.14 0 29 C-1.32 29 -2.64 29 -4 29 C-4.33 22.73 -4.66 16.46 -5 10 C-5.33 10.99 -5.66 11.98 -6 13 C-6.66 13 -7.32 13 -8 13 C-8.33 13.66 -8.66 14.32 -9 15 C-9.99 15 -10.98 15 -12 15 C-12.1875 12.1875 -12.1875 12.1875 -12 9 C-10.5625 7.375 -10.5625 7.375 -9 6 C-8.855625 5.319375 -8.71125 4.63875 -8.5625 3.9375 C-8 2 -8 2 -6.1875 0.75 C-4 0 -4 0 0 0 Z " fill="#8A8A8A" transform="translate(264,306)"/>
<path d="M0 0 C0.79019531 0.10183594 1.58039063 0.20367187 2.39453125 0.30859375 C2.98621094 0.39238281 3.57789063 0.47617187 4.1875 0.5625 C4.5175 1.5525 4.8475 2.5425 5.1875 3.5625 C4.5275 3.5625 3.8675 3.5625 3.1875 3.5625 C3.1875 4.2225 3.1875 4.8825 3.1875 5.5625 C2.218125 5.85125 1.24875 6.14 0.25 6.4375 C-2.91914203 7.20464682 -2.91914203 7.20464682 -3.8125 9.5625 C-4.04200319 11.766864 -4.22325933 13.97642173 -4.375 16.1875 C-4.45878906 17.37601562 -4.54257812 18.56453125 -4.62890625 19.7890625 C-4.68949219 20.70429688 -4.75007813 21.61953125 -4.8125 22.5625 C-6.4625 22.5625 -8.1125 22.5625 -9.8125 22.5625 C-9.8125 15.3025 -9.8125 8.0425 -9.8125 0.5625 C-5.80028676 -0.23994265 -3.82357745 -0.51361488 0 0 Z " fill="#B3B3B3" transform="translate(387.8125,313.4375)"/>
<path d="M0 0 C1.485 0.99 1.485 0.99 3 2 C3 3.32 3 4.64 3 6 C4.59845385 7.94038759 4.59845385 7.94038759 6.75 9.625 C7.79414063 10.51058594 7.79414063 10.51058594 8.859375 11.4140625 C10.84526351 12.88535946 12.75581655 13.97899762 15 15 C14.67 15.66 14.34 16.32 14 17 C13.8453125 17.99 13.8453125 17.99 13.6875 19 C13 21 13 21 11.1875 22.3125 C7.92281631 23.33854345 5.9747525 22.48737625 3 21 C2.375 18.4375 2.375 18.4375 2 16 C1.67 16 1.34 16 1 16 C0.67 19.96 0.34 23.92 0 28 C-0.33 28 -0.66 28 -1 28 C-1 21.73 -1 15.46 -1 9 C-0.34 9 0.32 9 1 9 C0.84402344 8.43410156 0.68804687 7.86820312 0.52734375 7.28515625 C0.33269531 6.55167969 0.13804687 5.81820313 -0.0625 5.0625 C-0.35833984 3.96615234 -0.35833984 3.96615234 -0.66015625 2.84765625 C-0.77230469 2.23792969 -0.88445312 1.62820313 -1 1 C-0.67 0.67 -0.34 0.34 0 0 Z M0 13 C1 15 1 15 1 15 Z " fill="#A6A6A6" transform="translate(242,307)"/>
<path d="M0 0 C0.33 0.66 0.66 1.32 1 2 C1.639375 2.28875 2.27875 2.5775 2.9375 2.875 C5.46451648 4.25337262 6.02836444 5.32800222 7 8 C7 8.99 7 9.98 7 11 C1.72 11 -3.56 11 -9 11 C-9.33 12.32 -9.66 13.64 -10 15 C-10.66 15.66 -11.32 16.32 -12 17 C-12.62674095 7.87743733 -12.62674095 7.87743733 -10.125 4.375 C-8 3 -8 3 -6 3 C-6 2.34 -6 1.68 -6 1 C-4.02 0.67 -2.04 0.34 0 0 Z M-6 5 C-6.33 5.99 -6.66 6.98 -7 8 C-4.03 8 -1.06 8 2 8 C1.67 7.01 1.34 6.02 1 5 C-1.31 5 -3.62 5 -6 5 Z " fill="#898989" transform="translate(368,314)"/>
<path d="M0 0 C2.9375 1 2.9375 1 5 2 C5.66 1.34 6.32 0.68 7 0 C9.125 0.375 9.125 0.375 11 1 C11.33 2.32 11.66 3.64 12 5 C11.401875 5.268125 10.80375 5.53625 10.1875 5.8125 C7.95263501 6.83420657 7.95263501 6.83420657 6.75 8.625 C4.31416554 10.53886993 2.02983014 10.53332708 -0.99609375 10.421875 C-4.42993086 9.69896193 -5.95926777 7.72097631 -8 5 C-8.8125 2.6875 -8.8125 2.6875 -9 1 C-5.96967558 -0.51516221 -3.34885038 -0.17028053 0 0 Z " fill="#B0B0B0" transform="translate(210,337)"/>
<path d="M0 0 C0.66 0 1.32 0 2 0 C2 1.32 2 2.64 2 4 C-0.64 4.33 -3.28 4.66 -6 5 C-3.03 5.495 -3.03 5.495 0 6 C0 6.99 0 7.98 0 9 C-1.65 9.33 -3.3 9.66 -5 10 C-5 10.99 -5 11.98 -5 13 C-4.54625 12.505 -4.0925 12.01 -3.625 11.5 C-2 10 -2 10 0 10 C0.66 9.01 1.32 8.02 2 7 C1.25 11.75 1.25 11.75 -1 14 C-4.5625 13.75 -4.5625 13.75 -8 13 C-8.33 12.34 -8.66 11.68 -9 11 C-9.45375 11.825 -9.9075 12.65 -10.375 13.5 C-10.91125 14.325 -11.4475 15.15 -12 16 C-12.66 16 -13.32 16 -14 16 C-14 11.71 -14 7.42 -14 3 C-8.67679061 2.27410781 -4.29623639 1.7777916 1 3 C0.67 2.01 0.34 1.02 0 0 Z " fill="#B4B4B4" transform="translate(323,319)"/>
<path d="M0 0 C3.55098628 -0.33032431 5.5397787 -0.2568677 8.6875 1.5 C11.38118387 4.41209067 11.52815519 6.13617155 11.43945312 10.0390625 C11.39755859 10.76867187 11.35566406 11.49828125 11.3125 12.25 C11.27866211 13.36761719 11.27866211 13.36761719 11.24414062 14.5078125 C11.18543561 16.339409 11.09575757 18.16996653 11 20 C10.360625 19.814375 9.72125 19.62875 9.0625 19.4375 C8.0415625 19.2209375 8.0415625 19.2209375 7 19 C6.67 19.33 6.34 19.66 6 20 C4.33382885 20.04063832 2.66611905 20.042721 1 20 C0.67 19.34 0.34 18.68 0 18 C0.61875 17.938125 1.2375 17.87625 1.875 17.8125 C4.25342272 17.17434156 4.25342272 17.17434156 5.25 14.5625 C6.09363292 12.12508773 6.09363292 12.12508773 6 10 C3.69 10 1.38 10 -1 10 C-0.67 9.34 -0.34 8.68 0 8 C2.64 8 5.28 8 8 8 C7.43923199 5.50995496 7.43923199 5.50995496 6 3 C2.97017694 1.62810173 2.97017694 1.62810173 0 1 C0 0.67 0 0.34 0 0 Z " fill="#7E7E7E" transform="translate(186,315)"/>
<path d="M0 0 C1.45922693 0.11409593 2.91740598 0.24165544 4.375 0.375 C5.59316406 0.47941406 5.59316406 0.47941406 6.8359375 0.5859375 C9 1 9 1 11 3 C11.22705078 4.87939453 11.22705078 4.87939453 11.1953125 7.1328125 C11.18564453 8.34130859 11.18564453 8.34130859 11.17578125 9.57421875 C11.15902344 10.41597656 11.14226562 11.25773437 11.125 12.125 C11.11597656 12.97449219 11.10695313 13.82398438 11.09765625 14.69921875 C11.07405647 16.79959884 11.03818483 18.89983444 11 21 C9.35 21 7.7 21 6 21 C5.67 15.06 5.34 9.12 5 3 C2.69 3 0.38 3 -2 3 C-1.34 2.01 -0.68 1.02 0 0 Z " fill="#8D8D8D" transform="translate(297,315)"/>
<path d="M0 0 C0.33 0.99 0.66 1.98 1 3 C-0.98 3 -2.96 3 -5 3 C-5.33 3.99 -5.66 4.98 -6 6 C-6.66 6 -7.32 6 -8 6 C-7.67 8.97 -7.34 11.94 -7 15 C-3.535 16.485 -3.535 16.485 0 18 C-0.33 18.66 -0.66 19.32 -1 20 C-6.39509537 20.49046322 -6.39509537 20.49046322 -9.3125 18.125 C-12.39591981 14.24217505 -12.3728559 10.81844544 -12 6 C-11.15078005 3.3108035 -10.52822835 2.37730596 -8.25 0.75 C-5.42246362 -0.19251213 -2.96006696 -0.1345485 0 0 Z " fill="#787878" transform="translate(213,315)"/>
<path d="M0 0 C2.9375 -0.5 2.9375 -0.5 6 0 C7.875 2.5 7.875 2.5 9 5 C10.65 4.67 12.3 4.34 14 4 C14.33 4.99 14.66 5.98 15 7 C14.67 7.66 14.34 8.32 14 9 C13.76666713 15.08516056 13.76666713 15.08516056 15 21 C14.01 20.34 13.02 19.68 12 19 C11.01 21.475 11.01 21.475 10 24 C8.35 24 6.7 24 5 24 C5 23.01 5 22.02 5 21 C5.33 21.66 5.66 22.32 6 23 C6.99 23 7.98 23 9 23 C8.94000853 20.39337049 8.85303451 17.79248111 8.75 15.1875 C8.73582031 14.44951172 8.72164062 13.71152344 8.70703125 12.95117188 C8.52916251 8.56698896 8.52916251 8.56698896 6.15625 5.03125 C3.46554424 3.74439072 0.95118471 3.3353619 -2 3 C-1.34 2.01 -0.68 1.02 0 0 Z M10 7 C11 9 11 9 11 9 Z M11 9 C11 11.64 11 14.28 11 17 C11.33 17 11.66 17 12 17 C12 14.36 12 11.72 12 9 C11.67 9 11.34 9 11 9 Z " fill="#DCDCDC" transform="translate(188,312)"/>
<path d="M0 0 C0.99 0 1.98 0 3 0 C3 7.59 3 15.18 3 23 C2.01 23 1.02 23 0 23 C-1.24546405 20.50907189 -0.7767578 19.58919267 0 17 C-0.99 17.66 -1.98 18.32 -3 19 C-6.1875 18.625 -6.1875 18.625 -9 18 C-9 17.67 -9 17.34 -9 17 C-8.05125 16.731875 -7.1025 16.46375 -6.125 16.1875 C-2.74732727 15.25013412 -2.74732727 15.25013412 -1 12 C-0.83329727 9.04173894 -0.83329727 9.04173894 -1 6 C-1 2 -1 2 0 0 Z " fill="#787878" transform="translate(349,316)"/>
<path d="M0 0 C0.495 1.485 0.495 1.485 1 3 C-28.40307617 32.40307617 -28.40307617 32.40307617 -30.28768921 34.27987671 C-31.78789471 35.78692697 -33.26205828 37.3198091 -34.73168945 38.85668945 C-36.81528605 40.8254651 -38.44415649 41.80882888 -41 43 C-36.5816828 37.70517977 -31.91489416 32.79505481 -27.01171875 27.94921875 C-26.26791458 27.2092012 -25.52411041 26.46918365 -24.75776672 25.70674133 C-22.40343581 23.36453873 -20.04587744 21.02562764 -17.6875 18.6875 C-14.56356139 15.59008629 -11.44290221 12.48942259 -8.32421875 9.38671875 C-7.60449387 8.67529221 -6.88476898 7.96386566 -6.14323425 7.23088074 C-5.48197037 6.57292007 -4.82070648 5.91495941 -4.1394043 5.23706055 C-3.55571579 4.65860886 -2.97202728 4.08015717 -2.37065125 3.48417664 C-0.89773755 2.02737708 -0.89773755 2.02737708 0 0 Z " fill="#B9D2FB" transform="translate(245,176)"/>
<path d="M0 0 C0.33 0.66 0.66 1.32 1 2 C0.67 2.66 0.34 3.32 0 4 C1.670625 3.9690625 1.670625 3.9690625 3.375 3.9375 C7 4 7 4 9 5 C8 8 8 8 6 9 C0.38421745 9.65299797 -2.39781106 7.9206199 -7 5 C-7.66 4.67 -8.32 4.34 -9 4 C-6.94469992 -0.11060016 -4.15744224 -0.22472661 0 0 Z " fill="#B2B2B2" transform="translate(339,337)"/>
<path d="M0 0 C2 2 2 2 2.24291992 4.18310547 C2.23881104 5.06885254 2.23470215 5.95459961 2.23046875 6.8671875 C2.22853516 7.83527344 2.22660156 8.80335938 2.22460938 9.80078125 C2.21236328 10.81527344 2.20011719 11.82976562 2.1875 12.875 C2.18685547 13.88175781 2.18621094 14.88851563 2.18554688 15.92578125 C2.13669301 24.10066108 2.13669301 24.10066108 1 28 C0.01 28 -0.98 28 -2 28 C-1.86189095 23.52055965 -1.71322584 19.04153217 -1.5625 14.5625 C-1.52318359 13.28310547 -1.48386719 12.00371094 -1.44335938 10.68554688 C-1.40146484 9.47060547 -1.35957031 8.25566406 -1.31640625 7.00390625 C-1.27974854 5.87799072 -1.24309082 4.7520752 -1.20532227 3.59204102 C-1 1 -1 1 0 0 Z " fill="#E4E4E4" transform="translate(117,313)"/>
<path d="M0 0 C1.485 0.99 1.485 0.99 3 2 C3 3.32 3 4.64 3 6 C4.91666921 8.25065102 4.91666921 8.25065102 7 10 C6.67 10.99 6.34 11.98 6 13 C5.01 13 4.02 13 3 13 C3.33 14.65 3.66 16.3 4 18 C3.01 17.34 2.02 16.68 1 16 C0.67 19.96 0.34 23.92 0 28 C-0.33 28 -0.66 28 -1 28 C-1 21.73 -1 15.46 -1 9 C-0.34 9 0.32 9 1 9 C0.84402344 8.43410156 0.68804687 7.86820312 0.52734375 7.28515625 C0.33269531 6.55167969 0.13804687 5.81820313 -0.0625 5.0625 C-0.35833984 3.96615234 -0.35833984 3.96615234 -0.66015625 2.84765625 C-0.77230469 2.23792969 -0.88445312 1.62820313 -1 1 C-0.67 0.67 -0.34 0.34 0 0 Z M0 13 C1 15 1 15 1 15 Z " fill="#CCCCCC" transform="translate(242,307)"/>
<path d="M0 0 C0.99 0 1.98 0 3 0 C2.95875 1.093125 2.9175 2.18625 2.875 3.3125 C2.67925334 7.08892229 2.67925334 7.08892229 5 10 C6.98 9.34 8.96 8.68 11 8 C10.34 9.65 9.68 11.3 9 13 C9.66 13.33 10.32 13.66 11 14 C10.67 15.32 10.34 16.64 10 18 C8.3713449 17.57630928 6.74712622 17.1355377 5.125 16.6875 C4.22007812 16.44386719 3.31515625 16.20023437 2.3828125 15.94921875 C0 15 0 15 -2 12 C0.97 12.33 3.94 12.66 7 13 C6.05125 12.5875 5.1025 12.175 4.125 11.75 C1 10 1 10 -0.4375 8.1875 C-1.19618194 5.23707024 -0.66792254 2.9388592 0 0 Z " fill="#C6C6C6" transform="translate(205,321)"/>
<path d="M0 0 C4.48986797 0.8471449 7.62758482 3.00627855 11.3125 5.625 C10.9825 6.285 10.6525 6.945 10.3125 7.625 C9.735 7.13 9.1575 6.635 8.5625 6.125 C6.20849371 4.25519987 6.20849371 4.25519987 2.3125 4.625 C3.3025 5.615 4.2925 6.605 5.3125 7.625 C2.3425 8.285 -0.6275 8.945 -3.6875 9.625 C-4.3475 8.305 -5.0075 6.985 -5.6875 5.625 C-4.41336679 2.12113366 -3.69293013 0.85882096 0 0 Z " fill="#989898" transform="translate(273.6875,311.375)"/>
<path d="M0 0 C-0.99 1.485 -0.99 1.485 -2 3 C-5.125 3.1875 -5.125 3.1875 -8 3 C-8 3.66 -8 4.32 -8 5 C-9.2065625 5.7734375 -9.2065625 5.7734375 -10.4375 6.5625 C-13.68480677 9.65140156 -13.6874512 11.55833946 -13.95703125 15.87890625 C-13.99160612 17.58564742 -14 19.29290866 -14 21 C-14.31088368 22.67099977 -14.64080332 24.33871537 -15 26 C-15.33 26 -15.66 26 -16 26 C-16 18.08 -16 10.16 -16 2 C-15.34 2.66 -14.68 3.32 -14 4 C-13.40832031 3.71125 -12.81664062 3.4225 -12.20703125 3.125 C-4.35852373 -0.56239016 -4.35852373 -0.56239016 0 0 Z " fill="#EAEAEA" transform="translate(370,312)"/>
<path d="M0 0 C0.99 0 1.98 0 3 0 C2.67 1.98 2.34 3.96 2 6 C2.66 6 3.32 6 4 6 C4 10.29 4 14.58 4 19 C2.68 19 1.36 19 0 19 C0 12.73 0 6.46 0 0 Z " fill="#7E7E7E" transform="translate(378,316)"/>
<path d="M0 0 C0 0.33 0 0.66 0 1 C-1.65 1.33 -3.3 1.66 -5 2 C-5.12375 2.639375 -5.2475 3.27875 -5.375 3.9375 C-5.58125 4.618125 -5.7875 5.29875 -6 6 C-6.99 6.495 -6.99 6.495 -8 7 C-8.40729228 9.32156597 -8.74438677 11.6568787 -9 14 C-10.32 14 -11.64 14 -13 14 C-13.29254918 9.02666392 -13.16504232 5.9563029 -10 2 C-6.77841364 -0.33287288 -3.89042645 -0.17683757 0 0 Z " fill="#959595" transform="translate(344,315)"/>
<path d="M0 0 C1.485 0.86625 1.485 0.86625 3 1.75 C0 2.75 0 2.75 -4 2.75 C-2.68 3.74 -1.36 4.73 0 5.75 C-8.19256018 8.18326039 -8.19256018 8.18326039 -11.5625 6.375 C-12.036875 5.83875 -12.51125 5.3025 -13 4.75 C-11.49450142 1.73900283 -9.16597886 0.82727839 -6.2109375 -0.62890625 C-3.57008508 -1.37077115 -2.48291308 -1.08944145 0 0 Z " fill="#AEAEAE" transform="translate(323,313.25)"/>
<path d="M0 0 C0 0.66 0 1.32 0 2 C-2.64 2.33 -5.28 2.66 -8 3 C-6.35 3.33 -4.7 3.66 -3 4 C-3 4.33 -3 4.66 -3 5 C-3.94875 5.28875 -4.8975 5.5775 -5.875 5.875 C-9.05211578 6.76825109 -9.05211578 6.76825109 -11 9 C-11 8.34 -11 7.68 -11 7 C-11.66 7 -12.32 7 -13 7 C-13.66 7.99 -14.32 8.98 -15 10 C-14.875 6.6875 -14.875 6.6875 -14 3 C-9.46335253 -0.43014809 -5.44114142 -0.28143835 0 0 Z " fill="#A9A9A9" transform="translate(282,321)"/>
<path d="M0 0 C2.47923801 -0.02685095 4.9581884 -0.04676547 7.4375 -0.0625 C8.14455078 -0.07087891 8.85160156 -0.07925781 9.58007812 -0.08789062 C11.38693559 -0.09653588 13.19387603 -0.05220011 15 0 C16 1 16 1 16.25 4.75 C16.22237076 8.59046467 15.33942004 10.88077328 13 14 C12.67 12.68 12.34 11.36 12 10 C12.66 10 13.32 10 14 10 C14 7.69 14 5.38 14 3 C9.05 3 4.1 3 -1 3 C-0.67 2.01 -0.34 1.02 0 0 Z " fill="#C6C6C6" transform="translate(30,317)"/>
<path d="M0 0 C4.875 2.625 4.875 2.625 6 6 C6.66 6 7.32 6 8 6 C7.34 8.31 6.68 10.62 6 13 C5.01257813 12.98839844 4.02515625 12.97679687 3.0078125 12.96484375 C1.72648437 12.95582031 0.44515625 12.94679688 -0.875 12.9375 C-2.78925781 12.92009766 -2.78925781 12.92009766 -4.7421875 12.90234375 C-7.88664652 12.76823431 -7.88664652 12.76823431 -10 14 C-10 13.01 -10 12.02 -10 11 C-4.72 11 0.56 11 6 11 C3.81940167 4.15174105 3.81940167 4.15174105 0 2 C0 1.34 0 0.68 0 0 Z " fill="#C3C3C3" transform="translate(369,314)"/>
<path d="M0 0 C1.33333333 0.66666667 2.66666667 1.33333333 4 2 C5.99110401 2.38290462 7.99100513 2.72604615 10 3 C10 3.99 10 4.98 10 6 C8.37536158 6.05395478 6.75021459 6.09277195 5.125 6.125 C4.22007812 6.14820313 3.31515625 6.17140625 2.3828125 6.1953125 C0 6 0 6 -2 4 C-2 3.01 -2 2.02 -2 1 C-1.34 0.67 -0.68 0.34 0 0 Z " fill="#868686" transform="translate(204,338)"/>
<path d="M0 0 C0.33 0.66 0.66 1.32 1 2 C-1.71350273 3.35675137 -4.00060968 3.06381682 -7 3 C-9.08428209 3 -11.09817964 4.21976601 -13 5 C-12.34 6.65 -11.68 8.3 -11 10 C-12.9375 9.1875 -12.9375 9.1875 -15 8 C-15.33 7.01 -15.66 6.02 -16 5 C-12.13725992 0.75098591 -5.66564303 -2.83282151 0 0 Z " fill="#E6E6E6" transform="translate(110,335)"/>
<path d="M0 0 C0.20625 0.639375 0.4125 1.27875 0.625 1.9375 C1.305625 2.9584375 1.305625 2.9584375 2 4 C3.99285937 4.37366113 5.99363529 4.70740515 8 5 C8.99 6.485 8.99 6.485 10 8 C5.58937864 9.0257259 3.07369424 9.03684712 -1 7 C-0.67 4.69 -0.34 2.38 0 0 Z " fill="#929292" transform="translate(313,328)"/>
<path d="M0 0 C0.33 0.99 0.66 1.98 1 3 C-0.98 3 -2.96 3 -5 3 C-5.33 3.99 -5.66 4.98 -6 6 C-7.9375 6.625 -7.9375 6.625 -10 7 C-10.99 7.495 -10.99 7.495 -12 8 C-10.546875 2.4296875 -10.546875 2.4296875 -8.25 0.625 C-5.43546104 -0.15681638 -2.90641633 -0.13210983 0 0 Z " fill="#808080" transform="translate(213,315)"/>
<path d="M0 0 C2.4932534 0.99730136 3.77467439 1.65074531 5.25 3.9375 C6 6 6 6 6 9 C1.05 9 -3.9 9 -9 9 C-9 8.67 -9 8.34 -9 8 C-5.37 8 -1.74 8 2 8 C1.34 5.36 0.68 2.72 0 0 Z " fill="#757575" transform="translate(369,316)"/>
<path d="M0 0 C6.7685324 -0.10152799 13.30324864 -0.03026944 20 1 C15.42680479 3.65540367 11.16036812 3.42191689 6 3 C2.375 2 2.375 2 0 1 C0 0.67 0 0.34 0 0 Z " fill="#9CBEF0" transform="translate(191,286)"/>
<path d="M0 0 C0.99 0 1.98 0 3 0 C2.67 1.32 2.34 2.64 2 4 C2.66 4 3.32 4 4 4 C4.33 2.68 4.66 1.36 5 0 C6.31157516 2.62315032 5.89649988 4.23033436 5.5625 7.125 C5.46066406 8.03507812 5.35882813 8.94515625 5.25390625 9.8828125 C5.17011719 10.58148438 5.08632812 11.28015625 5 12 C4.01 11.67 3.02 11.34 2 11 C1.34 7.37 0.68 3.74 0 0 Z " fill="#D1D1D1" transform="translate(91,318)"/>
<path d="M0 0 C-0.99 1.485 -0.99 1.485 -2 3 C-5.125 3.1875 -5.125 3.1875 -8 3 C-8 3.66 -8 4.32 -8 5 C-9.96147874 6.38938077 -11.96166576 7.7260411 -14 9 C-14 7.35 -14 5.7 -14 4 C-4.58997722 -0.59225513 -4.58997722 -0.59225513 0 0 Z " fill="#C2C2C2" transform="translate(370,312)"/>
<path d="M0 0 C3.3 0 6.6 0 10 0 C10.33 1.32 10.66 2.64 11 4 C10.32453125 3.98839844 9.6490625 3.97679687 8.953125 3.96484375 C8.06109375 3.95582031 7.1690625 3.94679688 6.25 3.9375 C5.36828125 3.92589844 4.4865625 3.91429687 3.578125 3.90234375 C1.2181162 3.99173802 -0.74498524 4.33087179 -3 5 C-2.505 4.360625 -2.01 3.72125 -1.5 3.0625 C0.09802862 1.29025661 0.09802862 1.29025661 0 0 Z " fill="#D1D1D1" transform="translate(136,312)"/>
<path d="M0 0 C0.66 0.33 1.32 0.66 2 1 C1.484375 1.515625 0.96875 2.03125 0.4375 2.5625 C-1.57087014 5.96799719 -0.70214841 8.2083986 0 12 C-0.33 12.66 -0.66 13.32 -1 14 C-1.66 14 -2.32 14 -3 14 C-3 9.71 -3 5.42 -3 1 C-2.01 0.67 -1.02 0.34 0 0 Z " fill="#F5F5F5" transform="translate(312,321)"/>
<path d="M0 0 C3.60296594 -0.41176754 4.78402067 -0.1535853 7.8125 2 C8.534375 2.66 9.25625 3.32 10 4 C9.39671875 3.98839844 8.7934375 3.97679687 8.171875 3.96484375 C7.37265625 3.95582031 6.5734375 3.94679688 5.75 3.9375 C4.96109375 3.92589844 4.1721875 3.91429687 3.359375 3.90234375 C1.09308998 3.99614694 -0.8288895 4.36758937 -3 5 C-3 4.01 -3 3.02 -3 2 C-2.01 1.67 -1.02 1.34 0 1 C0 0.67 0 0.34 0 0 Z " fill="#CDCDCD" transform="translate(206,312)"/>
<path d="M0 0 C2.9375 -0.5 2.9375 -0.5 6 0 C7.9375 2.375 7.9375 2.375 9 5 C8.67 5.66 8.34 6.32 8 7 C7.46375 6.525625 6.9275 6.05125 6.375 5.5625 C3.57157164 3.71813924 1.30379742 3.37543153 -2 3 C-1.34 2.01 -0.68 1.02 0 0 Z " fill="#CACACA" transform="translate(188,312)"/>
<path d="M0 0 C2.4375 2 2.4375 2 4 4 C2.02 4 0.04 4 -2 4 C-2.33 3.34 -2.66 2.68 -3 2 C-4.65 2 -6.3 2 -8 2 C-8.33 2.66 -8.66 3.32 -9 4 C-9 3.01 -9 2.02 -9 1 C-5.90826248 -0.54586876 -3.40570448 -0.29359521 0 0 Z " fill="#E2E2E2" transform="translate(210,337)"/>
<path d="M0 0 C0.33 0 0.66 0 1 0 C1 7.92 1 15.84 1 24 C0.67 24 0.34 24 0 24 C0 16.08 0 8.16 0 0 Z " fill="#FFFFFF" transform="translate(166,311)"/>
<path d="M0 0 C0 0.66 0 1.32 0 2 C-6.625 3.25 -6.625 3.25 -10 1 C-3.71428571 -1.42857143 -3.71428571 -1.42857143 0 0 Z " fill="#7C7C7C" transform="translate(348,342)"/>
<path d="M0 0 C3.91211733 1.15585285 6.8745041 2.35534962 10 5 C9.67 5.66 9.34 6.32 9 7 C8.484375 6.525625 7.96875 6.05125 7.4375 5.5625 C4.33217325 3.57190593 1.63367496 3.34939182 -2 3 C-1.34 2.01 -0.68 1.02 0 0 Z " fill="#C5C5C5" transform="translate(275,312)"/>
<path d="M0 0 C1.32 0.33 2.64 0.66 4 1 C1.36 3.64 -1.28 6.28 -4 9 C-4 5.00095031 -2.27413033 3.19799578 0 0 Z " fill="#C3D9FB" transform="translate(228,270)"/>
<path d="M0 0 C0.99 0 1.98 0 3 0 C2.67 1.65 2.34 3.3 2 5 C0.35 5 -1.3 5 -3 5 C-1.6875 2.5 -1.6875 2.5 0 0 Z " fill="#878787" transform="translate(371,330)"/>
<path d="M0 0 C4.875 2.625 4.875 2.625 6 6 C6.66 6 7.32 6 8 6 C7.67 7.98 7.34 9.96 7 12 C6.731875 11.443125 6.46375 10.88625 6.1875 10.3125 C3.93288201 5.37424914 3.93288201 5.37424914 0 2 C0 1.34 0 0.68 0 0 Z " fill="#CDCDCD" transform="translate(369,314)"/>
<path d="M0 0 C6.93 0 13.86 0 21 0 C21 0.33 21 0.66 21 1 C14.07 1 7.14 1 0 1 C0 0.67 0 0.34 0 0 Z " fill="#FFFFFF" transform="translate(160,303)"/>
<path d="M0 0 C1.65 0 3.3 0 5 0 C5.6875 1.8125 5.6875 1.8125 6 4 C4.5625 5.75 4.5625 5.75 3 7 C2.67 6.34 2.34 5.68 2 5 C2.33 4.01 2.66 3.02 3 2 C2.01 2 1.02 2 0 2 C0 1.34 0 0.68 0 0 Z " fill="#E3E3E3" transform="translate(371,328)"/>
<path d="M0 0 C0.99 0 1.98 0 3 0 C2.74438677 2.3431213 2.40729228 4.67843403 2 7 C1.01 7.495 1.01 7.495 0 8 C-1.125 2.25 -1.125 2.25 0 0 Z " fill="#E8E8E8" transform="translate(205,321)"/>
<path d="M0 0 C0.66 0 1.32 0 2 0 C1.88637738 1.4800841 1.75877092 2.95910074 1.625 4.4375 C1.52058594 5.67306641 1.52058594 5.67306641 1.4140625 6.93359375 C1.27742188 7.61550781 1.14078125 8.29742187 1 9 C0.01 9.495 0.01 9.495 -1 10 C-1.02689216 8.52093108 -1.04634621 7.04172517 -1.0625 5.5625 C-1.07410156 4.73878906 -1.08570313 3.91507812 -1.09765625 3.06640625 C-1 1 -1 1 0 0 Z " fill="#747474" transform="translate(334,320)"/>
<path d="M0 0 C2.31 0 4.62 0 7 0 C7.66 1.32 8.32 2.64 9 4 C6.03 3.67 3.06 3.34 0 3 C0 2.01 0 1.02 0 0 Z " fill="#D1D1D1" transform="translate(296,312)"/>
<path d="M0 0 C0.99 0.33 1.98 0.66 3 1 C2.34 1 1.68 1 1 1 C-0.01540112 5.10223585 -0.01540112 5.10223585 1 9 C-0.32 8.34 -1.64 7.68 -3 7 C-1.125 1.125 -1.125 1.125 0 0 Z " fill="#BFBFBF" transform="translate(271,312)"/>
<path d="M0 0 C0.99 0.99 1.98 1.98 3 3 C-0.63 3 -4.26 3 -8 3 C-6.14481495 -0.71037009 -3.79223618 -1.26407873 0 0 Z " fill="#CCCCCC" transform="translate(344,313)"/>
<path d="M0 0 C2.25 -0.25 2.25 -0.25 5 0 C7.3125 2 7.3125 2 9 4 C6.03 3.67 3.06 3.34 0 3 C0 2.01 0 1.02 0 0 Z " fill="#CECECE" transform="translate(101,312)"/>
<path d="M0 0 C0.66 0.99 1.32 1.98 2 3 C1.67 3.99 1.34 4.98 1 6 C-1.97 5.505 -1.97 5.505 -5 5 C-4 3 -4 3 -1 2 C-0.67 1.34 -0.34 0.68 0 0 Z " fill="#A1A1A1" transform="translate(368,314)"/>
<path d="M0 0 C1.98 0.99 3.96 1.98 6 3 C5.67 3.66 5.34 4.32 5 5 C3.35 4.67 1.7 4.34 0 4 C0 2.68 0 1.36 0 0 Z " fill="#DADADA" transform="translate(103,326)"/>
<path d="M0 0 C-0.33 0.99 -0.66 1.98 -1 3 C-2.98 3 -4.96 3 -7 3 C-7 2.34 -7 1.68 -7 1 C-4.53721199 -0.231394 -2.7204945 -0.07159196 0 0 Z " fill="#757575" transform="translate(391,315)"/>
<path d="M0 0 C0.66 0 1.32 0 2 0 C2 4.95 2 9.9 2 15 C1.67 15 1.34 15 1 15 C0.67 10.05 0.34 5.1 0 0 Z " fill="#FEFEFE" transform="translate(300,320)"/>
<path d="M0 0 C0.33 0 0.66 0 1 0 C1 4.29 1 8.58 1 13 C0.67 13 0.34 13 0 13 C0 8.71 0 4.42 0 0 Z " fill="#F9F9F9" transform="translate(287,322)"/>
<path d="M0 0 C0.33 0 0.66 0 1 0 C1 3.96 1 7.92 1 12 C0.67 12 0.34 12 0 12 C0 8.04 0 4.08 0 0 Z " fill="#FCFCFC" transform="translate(384,323)"/>
<path d="M0 0 C0.33 0 0.66 0 1 0 C1 3.96 1 7.92 1 12 C0.67 12 0.34 12 0 12 C0 8.04 0 4.08 0 0 Z " fill="#FDFEFE" transform="translate(315,171)"/>
<path d="M0 0 C2.0625 0.4375 2.0625 0.4375 4 1 C3.01 1.33 2.02 1.66 1 2 C0.67 3.65 0.34 5.3 0 7 C-0.33 7 -0.66 7 -1 7 C-1.04254356 5.00045254 -1.04080783 2.99958364 -1 1 C-0.67 0.67 -0.34 0.34 0 0 Z " fill="#FCFCFC" transform="translate(80,321)"/>
<path d="M0 0 C1.0625 1.8125 1.0625 1.8125 2 4 C1.67 4.99 1.34 5.98 1 7 C0.67 4.69 0.34 2.38 0 0 Z " fill="#FCFCFC" transform="translate(22,319)"/>
<path d="M0 0 C1.32 0.33 2.64 0.66 4 1 C2.68 1.33 1.36 1.66 0 2 C0 1.34 0 0.68 0 0 Z " fill="#FAFAFA" transform="translate(341,329)"/>
<path d="M0 0 C1.98 0 3.96 0 6 0 C5.67 0.66 5.34 1.32 5 2 C3.35 1.67 1.7 1.34 0 1 C0 0.67 0 0.34 0 0 Z " fill="#FCFCFC" transform="translate(274,327)"/>
<path d="M0 0 C0.99 0.495 0.99 0.495 2 1 C1.67 2.65 1.34 4.3 1 6 C0.67 6 0.34 6 0 6 C0 4.02 0 2.04 0 0 Z " fill="#FCFCFC" transform="translate(55,322)"/>
<path d="M0 0 C2.31 0 4.62 0 7 0 C7 0.33 7 0.66 7 1 C4.69 1 2.38 1 0 1 C0 0.67 0 0.34 0 0 Z " fill="#FFFFFF" transform="translate(362,320)"/>
<path d="M0 0 C0.33 0 0.66 0 1 0 C1 1.98 1 3.96 1 6 C-0.0625 4.125 -0.0625 4.125 -1 2 C-0.67 1.34 -0.34 0.68 0 0 Z " fill="#FAFAFA" transform="translate(287,315)"/>
<path d="M0 0 C2.31 0 4.62 0 7 0 C7 0.33 7 0.66 7 1 C4.69 1 2.38 1 0 1 C0 0.67 0 0.34 0 0 Z " fill="#FEFEFE" transform="translate(121,303)"/>
<path d="M0 0 C1.98 0 3.96 0 6 0 C6 0.33 6 0.66 6 1 C4.02 1 2.04 1 0 1 C0 0.67 0 0.34 0 0 Z " fill="#FDFDFD" transform="translate(121,337)"/>
<path d="M0 0 C0.99 0.99 1.98 1.98 3 3 C2.01 3.495 2.01 3.495 1 4 C0.67 2.68 0.34 1.36 0 0 Z " fill="#F9F9F9" transform="translate(201,333)"/>
<path d="M0 0 C1.65 0 3.3 0 5 0 C4.67 0.66 4.34 1.32 4 2 C2.68 1.34 1.36 0.68 0 0 Z " fill="#FBFBFB" transform="translate(187,327)"/>
<path d="M0 0 C1.98 0 3.96 0 6 0 C6 0.33 6 0.66 6 1 C4.02 1 2.04 1 0 1 C0 0.67 0 0.34 0 0 Z " fill="#FEFEFE" transform="translate(235,303)"/>
<path d="M0 0 C1.98 0.99 1.98 0.99 4 2 C3.01 2 2.02 2 1 2 C0.67 1.34 0.34 0.68 0 0 Z " fill="#FCFDFE" transform="translate(295,145)"/>
<path d="M0 0 C1.65 0 3.3 0 5 0 C5 0.33 5 0.66 5 1 C3.35 1 1.7 1 0 1 C0 0.67 0 0.34 0 0 Z " fill="#FCFCFC" transform="translate(378,337)"/>
<path d="M0 0 C1.65 0 3.3 0 5 0 C5 0.33 5 0.66 5 1 C3.35 1 1.7 1 0 1 C0 0.67 0 0.34 0 0 Z " fill="#FCFCFC" transform="translate(303,337)"/>
<path d="M0 0 C1.65 0 3.3 0 5 0 C5 0.33 5 0.66 5 1 C3.35 1 1.7 1 0 1 C0 0.67 0 0.34 0 0 Z " fill="#FDFDFD" transform="translate(289,337)"/>
<path d="M0 0 C1.65 0 3.3 0 5 0 C5 0.33 5 0.66 5 1 C3.35 1 1.7 1 0 1 C0 0.67 0 0.34 0 0 Z " fill="#FCFCFC" transform="translate(259,337)"/>
<path d="M0 0 C1.65 0 3.3 0 5 0 C5 0.33 5 0.66 5 1 C3.35 1 1.7 1 0 1 C0 0.67 0 0.34 0 0 Z " fill="#FDFDFD" transform="translate(235,337)"/>
<path d="M0 0 C1.65 0 3.3 0 5 0 C5 0.33 5 0.66 5 1 C3.35 1 1.7 1 0 1 C0 0.67 0 0.34 0 0 Z " fill="#FCFCFC" transform="translate(168,337)"/>
<path d="M0 0 C0.99 0.99 1.98 1.98 3 3 C2.01 2.67 1.02 2.34 0 2 C0 1.34 0 0.68 0 0 Z " fill="#FAFAFA" transform="translate(273,328)"/>
<path d="M0 0 C0.66 0.99 1.32 1.98 2 3 C1.01 2.67 0.02 2.34 -1 2 C-0.67 1.34 -0.34 0.68 0 0 Z " fill="#FAFAFA" transform="translate(186,328)"/>
<path d="M0 0 C1.65 0 3.3 0 5 0 C5 0.33 5 0.66 5 1 C3.35 1 1.7 1 0 1 C0 0.67 0 0.34 0 0 Z " fill="#FBFBFB" transform="translate(386,320)"/>
<path d="M0 0 C0.99 0.33 1.98 0.66 3 1 C2.67 1.66 2.34 2.32 2 3 C1.34 2.01 0.68 1.02 0 0 Z " fill="#FBFBFB" transform="translate(212,320)"/>
<path d="M0 0 C1.65 0 3.3 0 5 0 C5 0.33 5 0.66 5 1 C3.35 1 1.7 1 0 1 C0 0.67 0 0.34 0 0 Z " fill="#FEFEFE" transform="translate(112,312)"/>
<path d="M0 0 C1.65 0 3.3 0 5 0 C5 0.33 5 0.66 5 1 C3.35 1 1.7 1 0 1 C0 0.67 0 0.34 0 0 Z " fill="#FDFDFD" transform="translate(28,302)"/>
<path d="M0 0 C0.99 0.33 1.98 0.66 3 1 C2.67 1.66 2.34 2.32 2 3 C1.34 2.01 0.68 1.02 0 0 Z " fill="#FEFEFE" transform="translate(241,175)"/>
<path d="M0 0 C0.99 0.33 1.98 0.66 3 1 C2.67 1.66 2.34 2.32 2 3 C1.34 2.01 0.68 1.02 0 0 Z " fill="#FEFEFE" transform="translate(236,170)"/>
<path d="M0 0 C0.99 0.33 1.98 0.66 3 1 C2.67 1.66 2.34 2.32 2 3 C1.34 2.01 0.68 1.02 0 0 Z " fill="#FEFEFE" transform="translate(218,152)"/>
<path d="M0 0 C0.66 0.33 1.32 0.66 2 1 C1.01 1 0.02 1 -1 1 C-0.67 0.67 -0.34 0.34 0 0 Z " fill="#FCFCFC" transform="translate(347,345)"/>
<path d="M0 0 C4 1 4 1 4 1 Z " fill="#FDFDFD" transform="translate(325,337)"/>
<path d="M0 0 C4 1 4 1 4 1 Z " fill="#FDFDFD" transform="translate(282,337)"/>
<path d="M0 0 C4 1 4 1 4 1 Z " fill="#FDFDFD" transform="translate(194,337)"/>
<path d="M0 0 C4 1 4 1 4 1 Z " fill="#FCFCFC" transform="translate(77,337)"/>
<path d="M0 0 C4 1 4 1 4 1 Z " fill="#FCFCFC" transform="translate(25,337)"/>
<path d="M0 0 C0.66 0 1.32 0 2 0 C2 0.66 2 1.32 2 2 C1.34 2 0.68 2 0 2 C0 1.34 0 0.68 0 0 Z " fill="#F9F9F9" transform="translate(210,329)"/>
<path d="M0 0 C0.99 0.495 0.99 0.495 2 1 C1.34 1.66 0.68 2.32 0 3 C0 2.01 0 1.02 0 0 Z " fill="#FDFDFD" transform="translate(177,325)"/>
<path d="M0 0 C0.99 1.485 0.99 1.485 2 3 C1.34 3 0.68 3 0 3 C0 2.01 0 1.02 0 0 Z " fill="#FDFDFD" transform="translate(12,323)"/>
<path d="M0 0 C1 4 1 4 1 4 Z " fill="#FDFDFD" transform="translate(85,323)"/>
<path d="M0 0 C4 1 4 1 4 1 Z " fill="#FCFCFC" transform="translate(104,321)"/>
<path d="M0 0 C0 3 0 3 0 3 Z " fill="#FCFCFC" transform="translate(48,316)"/>
<path d="M0 0 C0.66 0.33 1.32 0.66 2 1 C1.01 1 0.02 1 -1 1 C-0.67 0.67 -0.34 0.34 0 0 Z " fill="#FCFCFC" transform="translate(50,314)"/>
<path d="M0 0 C0.99 0.495 0.99 0.495 2 1 C1.67 1.66 1.34 2.32 1 3 C0.67 2.01 0.34 1.02 0 0 Z " fill="#FBFBFB" transform="translate(305,313)"/>
<path d="M0 0 C4 1 4 1 4 1 Z " fill="#FDFDFD" transform="translate(379,312)"/>
<path d="M0 0 C4 1 4 1 4 1 Z " fill="#FEFEFE" transform="translate(217,312)"/>
<path d="M0 0 C0 3 0 3 0 3 Z " fill="#FCFCFC" transform="translate(16,309)"/>
<path d="M0 0 C4 1 4 1 4 1 Z " fill="#FFFFFF" transform="translate(260,303)"/>
<path d="M0 0 C0.99 0.495 0.99 0.495 2 1 C1.67 1.66 1.34 2.32 1 3 C0.67 2.01 0.34 1.02 0 0 Z " fill="#FEFEFE" transform="translate(165,181)"/>
<path d="M0 0 C3 1 3 1 3 1 Z " fill="#FCFCFC" transform="translate(364,338)"/>
<path d="M0 0 C3 1 3 1 3 1 Z " fill="#FCFCFC" transform="translate(317,338)"/>
<path d="M0 0 C3 1 3 1 3 1 Z " fill="#FCFCFC" transform="translate(274,338)"/>
<path d="M0 0 C3 1 3 1 3 1 Z " fill="#FBFBFB" transform="translate(320,337)"/>
<path d="M0 0 C3 1 3 1 3 1 Z " fill="#FCFCFC" transform="translate(314,337)"/>
<path d="M0 0 C3 1 3 1 3 1 Z " fill="#FCFCFC" transform="translate(189,337)"/>
<path d="M0 0 C3 1 3 1 3 1 Z " fill="#FCFCFC" transform="translate(142,337)"/>
<path d="M0 0 C3 1 3 1 3 1 Z " fill="#FEFEFE" transform="translate(84,337)"/>
<path d="M0 0 C3 1 3 1 3 1 Z " fill="#FEFEFE" transform="translate(60,337)"/>
<path d="M0 0 C3 1 3 1 3 1 Z " fill="#FCFCFC" transform="translate(54,337)"/>
<path d="M0 0 C3 1 3 1 3 1 Z " fill="#FBFBFB" transform="translate(33,337)"/>
<path d="M0 0 C0.33 0.66 0.66 1.32 1 2 C0.34 1.67 -0.32 1.34 -1 1 C-0.67 0.67 -0.34 0.34 0 0 Z " fill="#FEFEFE" transform="translate(91,333)"/>
<path d="M0 0 C0.33 0.66 0.66 1.32 1 2 C0.34 1.67 -0.32 1.34 -1 1 C-0.67 0.67 -0.34 0.34 0 0 Z " fill="#FBFBFB" transform="translate(93,331)"/>
<path d="M0 0 C0.33 0.66 0.66 1.32 1 2 C0.34 1.67 -0.32 1.34 -1 1 C-0.67 0.67 -0.34 0.34 0 0 Z " fill="#FDFDFD" transform="translate(69,331)"/>
<path d="" fill="#FCFCFC" transform="translate(0,0)"/>
<path d="" fill="#FCFCFC" transform="translate(0,0)"/>
<path d="" fill="#FDFDFD" transform="translate(0,0)"/>
<path d="M0 0 C0.66 0 1.32 0 2 0 C1.67 0.66 1.34 1.32 1 2 C0.67 1.34 0.34 0.68 0 0 Z " fill="#FEFEFE" transform="translate(325,313)"/>
<path d="M0 0 C3 1 3 1 3 1 Z " fill="#FEFEFE" transform="translate(349,312)"/>
<path d="M0 0 C3 1 3 1 3 1 Z " fill="#FDFDFD" transform="translate(321,312)"/>
<path d="M0 0 C3 1 3 1 3 1 Z " fill="#FEFEFE" transform="translate(290,312)"/>
<path d="" fill="#FEFEFF" transform="translate(0,0)"/>
<path d="M0 0 C0.66 0 1.32 0 2 0 C1.67 0.66 1.34 1.32 1 2 C0.67 1.34 0.34 0.68 0 0 Z " fill="#FDFEFE" transform="translate(230,164)"/>
<path d="M0 0 C0.66 0 1.32 0 2 0 C1.67 0.66 1.34 1.32 1 2 C0.67 1.34 0.34 0.68 0 0 Z " fill="#FDFEFE" transform="translate(224,158)"/>
<path d="M0 0 C0.66 0 1.32 0 2 0 C1.67 0.66 1.34 1.32 1 2 C0.67 1.34 0.34 0.68 0 0 Z " fill="#FDFEFF" transform="translate(307,157)"/>
<path d="M0 0 C0.66 0 1.32 0 2 0 C1.67 0.66 1.34 1.32 1 2 C0.67 1.34 0.34 0.68 0 0 Z " fill="#FDFEFE" transform="translate(212,146)"/>
<path d="M0 0 C0.66 0.66 1.32 1.32 2 2 C1.34 2 0.68 2 0 2 C0 1.34 0 0.68 0 0 Z " fill="#FEFEFF" transform="translate(291,140)"/>
<path d="M0 0 C0.66 0 1.32 0 2 0 C1.67 0.66 1.34 1.32 1 2 C0.67 1.34 0.34 0.68 0 0 Z " fill="#FDFEFE" transform="translate(207,141)"/>
<path d="M0 0 C0.33 0.66 0.66 1.32 1 2 C0.34 1.67 -0.32 1.34 -1 1 C-0.67 0.67 -0.34 0.34 0 0 Z " fill="#FDFEFF" transform="translate(202,135)"/>
<path d="M0 0 C2 1 2 1 2 1 Z " fill="#FCFCFC" transform="translate(337,346)"/>
<path d="M0 0 C2 1 2 1 2 1 Z " fill="#FCFCFC" transform="translate(109,346)"/>
<path d="" fill="#FBFBFB" transform="translate(0,0)"/>
<path d="M0 0 C2 1 2 1 2 1 Z " fill="#FEFEFE" transform="translate(368,337)"/>
<path d="M0 0 C2 1 2 1 2 1 Z " fill="#FDFDFD" transform="translate(361,337)"/>
<path d="M0 0 C2 1 2 1 2 1 Z " fill="#FEFEFE" transform="translate(277,337)"/>
<path d="M0 0 C2 1 2 1 2 1 Z " fill="#FEFEFE" transform="translate(137,337)"/>
<path d="" fill="#FFFFFF" transform="translate(0,0)"/>
<path d="M0 0 C2 1 2 1 2 1 Z " fill="#F8F8F8" transform="translate(365,330)"/>
<path d="M0 0 C2 1 2 1 2 1 Z " fill="#FFFFFF" transform="translate(25,327)"/>
<path d="" fill="#FDFDFD" transform="translate(0,0)"/>
<path d="" fill="#FDFDFD" transform="translate(0,0)"/>
<path d="" fill="#FCFCFC" transform="translate(0,0)"/>
<path d="" fill="#FCFCFC" transform="translate(0,0)"/>
<path d="M0 0 C2 1 2 1 2 1 Z " fill="#FAFAFA" transform="translate(343,320)"/>
<path d="M0 0 C2 1 2 1 2 1 Z " fill="#FAFAFA" transform="translate(339,320)"/>
<path d="M0 0 C2 1 2 1 2 1 Z " fill="#FCFCFC" transform="translate(208,320)"/>
<path d="M0 0 C2 1 2 1 2 1 Z " fill="#FAFAFA" transform="translate(190,320)"/>
<path d="M0 0 C2 1 2 1 2 1 Z " fill="#FFFFFF" transform="translate(359,313)"/>
<path d="M0 0 C2 1 2 1 2 1 Z " fill="#FEFEFE" transform="translate(313,313)"/>
<path d="M0 0 C2 1 2 1 2 1 Z " fill="#FEFEFE" transform="translate(294,313)"/>
<path d="" fill="#FDFDFD" transform="translate(0,0)"/>
<path d="M0 0 C2 1 2 1 2 1 Z " fill="#FEFEFE" transform="translate(109,313)"/>
<path d="M0 0 C2 1 2 1 2 1 Z " fill="#FAFAFA" transform="translate(389,312)"/>
<path d="" fill="#FEFEFE" transform="translate(0,0)"/>
<path d="M0 0 C2 1 2 1 2 1 Z " fill="#FFFFFF" transform="translate(107,312)"/>
<path d="M0 0 C2 1 2 1 2 1 Z " fill="#FFFFFF" transform="translate(85,312)"/>
<path d="M0 0 C2 1 2 1 2 1 Z " fill="#FFFFFF" transform="translate(22,304)"/>
<path d="M0 0 C2 1 2 1 2 1 Z " fill="#FFFFFF" transform="translate(34,303)"/>
<path d="M0 0 C2 1 2 1 2 1 Z " fill="#FFFFFF" transform="translate(25,303)"/>
<path d="M0 0 C2 1 2 1 2 1 Z " fill="#FCFEFF" transform="translate(215,286)"/>
<path d="M0 0 C2 1 2 1 2 1 Z " fill="#FDFEFF" transform="translate(187,286)"/>
<path d="" fill="#FEFEFF" transform="translate(0,0)"/>
<path d="" fill="#FDFDFF" transform="translate(0,0)"/>
<path d="" fill="#FDFEFF" transform="translate(0,0)"/>
<path d="" fill="#FEFEFF" transform="translate(0,0)"/>
<path d="" fill="#FFFFFE" transform="translate(0,0)"/>
<path d="" fill="#FFFFFE" transform="translate(0,0)"/>
<path d="" fill="#FEFEFF" transform="translate(0,0)"/>
<path d="" fill="#FEFEFF" transform="translate(0,0)"/>
<path d="" fill="#FDFEFF" transform="translate(0,0)"/>
<path d="" fill="#FEFEFF" transform="translate(0,0)"/>
<path d="" fill="#FCFDFF" transform="translate(0,0)"/>
<path d="" fill="#FDFDFF" transform="translate(0,0)"/>
<path d="" fill="#FEFEFF" transform="translate(0,0)"/>
<path d="M0 0 C2 1 2 1 2 1 Z " fill="#FFFFFF" transform="translate(215,67)"/>
<path d="M0 0 C2 1 2 1 2 1 Z " fill="#FFFFFF" transform="translate(213,66)"/>
<path d="M0 0 C2 1 2 1 2 1 Z " fill="#FFFFFF" transform="translate(189,66)"/>
<path d="M0 0 C2 1 2 1 2 1 Z " fill="#FFFFFF" transform="translate(211,65)"/>
<path d="M0 0 C2 1 2 1 2 1 Z " fill="#FFFFFF" transform="translate(191,65)"/>
<path d="" fill="#FCFCFC" transform="translate(0,0)"/>
<path d="" fill="#FBFBFB" transform="translate(0,0)"/>
<path d="" fill="#FDFDFD" transform="translate(0,0)"/>
<path d="" fill="#FBFBFB" transform="translate(0,0)"/>
<path d="" fill="#FDFDFD" transform="translate(0,0)"/>
<path d="" fill="#FBFBFB" transform="translate(0,0)"/>
<path d="" fill="#FDFDFD" transform="translate(0,0)"/>
<path d="" fill="#FBFBFB" transform="translate(0,0)"/>
<path d="" fill="#FDFDFD" transform="translate(0,0)"/>
<path d="" fill="#FDFDFD" transform="translate(0,0)"/>
<path d="" fill="#FEFEFE" transform="translate(0,0)"/>
<path d="" fill="#FEFEFE" transform="translate(0,0)"/>
<path d="" fill="#FBFBFB" transform="translate(0,0)"/>
<path d="" fill="#FBFBFB" transform="translate(0,0)"/>
<path d="" fill="#FCFCFC" transform="translate(0,0)"/>
<path d="" fill="#FEFEFE" transform="translate(0,0)"/>
<path d="" fill="#FEFEFE" transform="translate(0,0)"/>
<path d="" fill="#FBFBFB" transform="translate(0,0)"/>
<path d="" fill="#FDFDFD" transform="translate(0,0)"/>
<path d="" fill="#FDFDFD" transform="translate(0,0)"/>
<path d="" fill="#FFFFFF" transform="translate(0,0)"/>
<path d="" fill="#FBFBFB" transform="translate(0,0)"/>
<path d="" fill="#FDFDFD" transform="translate(0,0)"/>
<path d="" fill="#FBFBFB" transform="translate(0,0)"/>
<path d="" fill="#FEFEFE" transform="translate(0,0)"/>
<path d="" fill="#FDFDFD" transform="translate(0,0)"/>
<path d="" fill="#FDFDFD" transform="translate(0,0)"/>
<path d="" fill="#FBFBFB" transform="translate(0,0)"/>
<path d="" fill="#FFFFFF" transform="translate(0,0)"/>
<path d="" fill="#FCFCFC" transform="translate(0,0)"/>
<path d="" fill="#FCFCFC" transform="translate(0,0)"/>
<path d="" fill="#FCFCFC" transform="translate(0,0)"/>
<path d="" fill="#FDFDFD" transform="translate(0,0)"/>
<path d="" fill="#FDFDFD" transform="translate(0,0)"/>
<path d="" fill="#FDFDFD" transform="translate(0,0)"/>
<path d="" fill="#FEFEFE" transform="translate(0,0)"/>
<path d="" fill="#FBFBFB" transform="translate(0,0)"/>
<path d="" fill="#FCFCFC" transform="translate(0,0)"/>
<path d="" fill="#FFFFFF" transform="translate(0,0)"/>
<path d="" fill="#FFFFFF" transform="translate(0,0)"/>
<path d="" fill="#FDFDFD" transform="translate(0,0)"/>
<path d="" fill="#FEFEFE" transform="translate(0,0)"/>
<path d="" fill="#FEFEFE" transform="translate(0,0)"/>
<path d="" fill="#FCFCFC" transform="translate(0,0)"/>
<path d="" fill="#FEFEFE" transform="translate(0,0)"/>
<path d="" fill="#FDFDFD" transform="translate(0,0)"/>
<path d="" fill="#FDFDFD" transform="translate(0,0)"/>
<path d="" fill="#FFFFFF" transform="translate(0,0)"/>
<path d="" fill="#FEFEFE" transform="translate(0,0)"/>
<path d="" fill="#FEFEFE" transform="translate(0,0)"/>
<path d="" fill="#FEFEFE" transform="translate(0,0)"/>
<path d="" fill="#FDFDFD" transform="translate(0,0)"/>
<path d="" fill="#FCFCFC" transform="translate(0,0)"/>
<path d="" fill="#FAFAFA" transform="translate(0,0)"/>
<path d="" fill="#FFFFFF" transform="translate(0,0)"/>
<path d="" fill="#FFFFFF" transform="translate(0,0)"/>
<path d="" fill="#FFFFFF" transform="translate(0,0)"/>
<path d="" fill="#FFFFFF" transform="translate(0,0)"/>
<path d="" fill="#FDFDFD" transform="translate(0,0)"/>
<path d="" fill="#FBFBFB" transform="translate(0,0)"/>
<path d="" fill="#FBFBFB" transform="translate(0,0)"/>
<path d="" fill="#FCFCFC" transform="translate(0,0)"/>
<path d="" fill="#FEFEFE" transform="translate(0,0)"/>
<path d="" fill="#FBFBFB" transform="translate(0,0)"/>
<path d="" fill="#FBFBFB" transform="translate(0,0)"/>
<path d="" fill="#FFFFFF" transform="translate(0,0)"/>
<path d="" fill="#FFFFFF" transform="translate(0,0)"/>
<path d="" fill="#FAFAFA" transform="translate(0,0)"/>
<path d="" fill="#FBFBFB" transform="translate(0,0)"/>
<path d="" fill="#FFFFFF" transform="translate(0,0)"/>
<path d="" fill="#FDFDFD" transform="translate(0,0)"/>
<path d="" fill="#FEFEFE" transform="translate(0,0)"/>
<path d="" fill="#FFFFFF" transform="translate(0,0)"/>
<path d="" fill="#FDFDFD" transform="translate(0,0)"/>
<path d="" fill="#FFFFFF" transform="translate(0,0)"/>
<path d="" fill="#FFFFFF" transform="translate(0,0)"/>
<path d="" fill="#FFFFFF" transform="translate(0,0)"/>
<path d="" fill="#FFFFFF" transform="translate(0,0)"/>
<path d="" fill="#FDFDFD" transform="translate(0,0)"/>
<path d="" fill="#FFFFFF" transform="translate(0,0)"/>
<path d="" fill="#FFFFFF" transform="translate(0,0)"/>
<path d="" fill="#FBFBFB" transform="translate(0,0)"/>
<path d="" fill="#FDFDFD" transform="translate(0,0)"/>
<path d="" fill="#FEFEFE" transform="translate(0,0)"/>
<path d="" fill="#FFFFFF" transform="translate(0,0)"/>
<path d="" fill="#FFFFFF" transform="translate(0,0)"/>
<path d="" fill="#FFFFFF" transform="translate(0,0)"/>
<path d="" fill="#FFFFFF" transform="translate(0,0)"/>
<path d="" fill="#FFFFFF" transform="translate(0,0)"/>
<path d="" fill="#FEFEFE" transform="translate(0,0)"/>
<path d="" fill="#FDFDFD" transform="translate(0,0)"/>
<path d="" fill="#FFFFFF" transform="translate(0,0)"/>
<path d="" fill="#FBFBFB" transform="translate(0,0)"/>
<path d="" fill="#FFFFFF" transform="translate(0,0)"/>
<path d="" fill="#FFFFFF" transform="translate(0,0)"/>
<path d="" fill="#FFFFFF" transform="translate(0,0)"/>
<path d="" fill="#FFFFFF" transform="translate(0,0)"/>
<path d="" fill="#FFFFFF" transform="translate(0,0)"/>
<path d="" fill="#FFFFFF" transform="translate(0,0)"/>
<path d="" fill="#FFFFFF" transform="translate(0,0)"/>
<path d="" fill="#FFFFFF" transform="translate(0,0)"/>
<path d="" fill="#FFFFFF" transform="translate(0,0)"/>
<path d="" fill="#FCFCFC" transform="translate(0,0)"/>
<path d="" fill="#FDFDFD" transform="translate(0,0)"/>
<path d="" fill="#FFFFFF" transform="translate(0,0)"/>
<path d="" fill="#FFFFFF" transform="translate(0,0)"/>
<path d="" fill="#FFFFFF" transform="translate(0,0)"/>
<path d="" fill="#FFFFFF" transform="translate(0,0)"/>
<path d="" fill="#FFFFFF" transform="translate(0,0)"/>
<path d="" fill="#FFFFFF" transform="translate(0,0)"/>
<path d="" fill="#FFFFFF" transform="translate(0,0)"/>
<path d="" fill="#FBFBFB" transform="translate(0,0)"/>
<path d="" fill="#FEFEFE" transform="translate(0,0)"/>
<path d="" fill="#FFFFFF" transform="translate(0,0)"/>
<path d="" fill="#FFFFFF" transform="translate(0,0)"/>
<path d="" fill="#FFFFFF" transform="translate(0,0)"/>
<path d="" fill="#FFFFFF" transform="translate(0,0)"/>
<path d="" fill="#FFFFFF" transform="translate(0,0)"/>
<path d="" fill="#FFFFFF" transform="translate(0,0)"/>
<path d="" fill="#FFFFFF" transform="translate(0,0)"/>
<path d="" fill="#FFFFFF" transform="translate(0,0)"/>
<path d="" fill="#FFFFFF" transform="translate(0,0)"/>
<path d="" fill="#FFFFFF" transform="translate(0,0)"/>
<path d="" fill="#FCFCFC" transform="translate(0,0)"/>
<path d="" fill="#FBFBFB" transform="translate(0,0)"/>
<path d="" fill="#F9F9F9" transform="translate(0,0)"/>
<path d="" fill="#FDFDFD" transform="translate(0,0)"/>
<path d="" fill="#F9F9F9" transform="translate(0,0)"/>
<path d="" fill="#FFFFFF" transform="translate(0,0)"/>
<path d="" fill="#F9F9F9" transform="translate(0,0)"/>
<path d="" fill="#FFFFFF" transform="translate(0,0)"/>
<path d="" fill="#F9F9F9" transform="translate(0,0)"/>
<path d="" fill="#FEFEFE" transform="translate(0,0)"/>
<path d="" fill="#FCFCFC" transform="translate(0,0)"/>
<path d="" fill="#FBFBFB" transform="translate(0,0)"/>
<path d="" fill="#FBFBFB" transform="translate(0,0)"/>
<path d="" fill="#FEFEFE" transform="translate(0,0)"/>
<path d="" fill="#FEFEFE" transform="translate(0,0)"/>
<path d="" fill="#FFFFFF" transform="translate(0,0)"/>
<path d="" fill="#FCFCFC" transform="translate(0,0)"/>
<path d="" fill="#FCFCFC" transform="translate(0,0)"/>
<path d="" fill="#FDFDFD" transform="translate(0,0)"/>
<path d="" fill="#FFFFFF" transform="translate(0,0)"/>
<path d="" fill="#FFFFFF" transform="translate(0,0)"/>
<path d="" fill="#FDFEFE" transform="translate(0,0)"/>
<path d="" fill="#FDFEFE" transform="translate(0,0)"/>
<path d="" fill="#FAFCFE" transform="translate(0,0)"/>
<path d="" fill="#FDFEFF" transform="translate(0,0)"/>
<path d="" fill="#FDFDFF" transform="translate(0,0)"/>
<path d="" fill="#FDFEFF" transform="translate(0,0)"/>
<path d="" fill="#FDFDFF" transform="translate(0,0)"/>
<path d="" fill="#FDFEFF" transform="translate(0,0)"/>
<path d="" fill="#FCFDFF" transform="translate(0,0)"/>
<path d="" fill="#FDFEFF" transform="translate(0,0)"/>
<path d="" fill="#FBFCFE" transform="translate(0,0)"/>
<path d="" fill="#FDFEFF" transform="translate(0,0)"/>
<path d="" fill="#FDFEFF" transform="translate(0,0)"/>
<path d="" fill="#FCFDFE" transform="translate(0,0)"/>
<path d="" fill="#FBFCFE" transform="translate(0,0)"/>
<path d="" fill="#FCFCFC" transform="translate(0,0)"/>
<path d="" fill="#F8F9FD" transform="translate(0,0)"/>
<path d="" fill="#FEFEFF" transform="translate(0,0)"/>
<path d="" fill="#FCFCFE" transform="translate(0,0)"/>
<path d="" fill="#FEFEFF" transform="translate(0,0)"/>
<path d="" fill="#FDFEFF" transform="translate(0,0)"/>
<path d="" fill="#FCFDFF" transform="translate(0,0)"/>
<path d="" fill="#FEFEFF" transform="translate(0,0)"/>
<path d="" fill="#FCFDFF" transform="translate(0,0)"/>
<path d="" fill="#FEFFFF" transform="translate(0,0)"/>
<path d="" fill="#FCFDFF" transform="translate(0,0)"/>
<path d="" fill="#FEFFFF" transform="translate(0,0)"/>
<path d="" fill="#FCFDFF" transform="translate(0,0)"/>
<path d="" fill="#FEFFFF" transform="translate(0,0)"/>
<path d="" fill="#FDFEFF" transform="translate(0,0)"/>
<path d="" fill="#FEFFFF" transform="translate(0,0)"/>
<path d="" fill="#FDFEFF" transform="translate(0,0)"/>
<path d="" fill="#FEFFFF" transform="translate(0,0)"/>
<path d="" fill="#FCFEFF" transform="translate(0,0)"/>
<path d="" fill="#FEFEFF" transform="translate(0,0)"/>
<path d="" fill="#FCFEFF" transform="translate(0,0)"/>
<path d="" fill="#FEFFFF" transform="translate(0,0)"/>
<path d="" fill="#FCFDFF" transform="translate(0,0)"/>
<path d="" fill="#FEFFFF" transform="translate(0,0)"/>
<path d="" fill="#FBFBFE" transform="translate(0,0)"/>
<path d="" fill="#FEFFFF" transform="translate(0,0)"/>
<path d="" fill="#FAFAFD" transform="translate(0,0)"/>
<path d="" fill="#FEFFFF" transform="translate(0,0)"/>
<path d="" fill="#FBFBFF" transform="translate(0,0)"/>
<path d="" fill="#FDFEFF" transform="translate(0,0)"/>
<path d="" fill="#FAFBFD" transform="translate(0,0)"/>
<path d="" fill="#FDFEFF" transform="translate(0,0)"/>
<path d="" fill="#FCFDFF" transform="translate(0,0)"/>
<path d="" fill="#FDFEFF" transform="translate(0,0)"/>
<path d="" fill="#FCFDFF" transform="translate(0,0)"/>
<path d="" fill="#FDFEFF" transform="translate(0,0)"/>
<path d="" fill="#FDFDFF" transform="translate(0,0)"/>
<path d="" fill="#FDFEFF" transform="translate(0,0)"/>
<path d="" fill="#FDFEFF" transform="translate(0,0)"/>
<path d="" fill="#FDFEFF" transform="translate(0,0)"/>
<path d="" fill="#FDFEFF" transform="translate(0,0)"/>
<path d="" fill="#FCFDFF" transform="translate(0,0)"/>
<path d="" fill="#FDFEFF" transform="translate(0,0)"/>
<path d="" fill="#FCFDFF" transform="translate(0,0)"/>
<path d="" fill="#FEFEFF" transform="translate(0,0)"/>
<path d="" fill="#FCFDFF" transform="translate(0,0)"/>
<path d="" fill="#FEFEFF" transform="translate(0,0)"/>
<path d="" fill="#FDFDFF" transform="translate(0,0)"/>
<path d="" fill="#FEFEFF" transform="translate(0,0)"/>
<path d="" fill="#FDFEFF" transform="translate(0,0)"/>
<path d="" fill="#FEFEFF" transform="translate(0,0)"/>
<path d="" fill="#FFFFFF" transform="translate(0,0)"/>
<path d="" fill="#FCFEFF" transform="translate(0,0)"/>
<path d="" fill="#FEFEFF" transform="translate(0,0)"/>
<path d="" fill="#FCFEFF" transform="translate(0,0)"/>
<path d="" fill="#FDFDFE" transform="translate(0,0)"/>
<path d="" fill="#FAFBFE" transform="translate(0,0)"/>
<path d="" fill="#FEFEFF" transform="translate(0,0)"/>
<path d="" fill="#FAFBFD" transform="translate(0,0)"/>
<path d="" fill="#FEFEFF" transform="translate(0,0)"/>
<path d="" fill="#FBFCFF" transform="translate(0,0)"/>
<path d="" fill="#FEFEFF" transform="translate(0,0)"/>
<path d="" fill="#FAFBFF" transform="translate(0,0)"/>
<path d="" fill="#FFFEFF" transform="translate(0,0)"/>
<path d="" fill="#FAFBFD" transform="translate(0,0)"/>
<path d="" fill="#FEFEFF" transform="translate(0,0)"/>
<path d="" fill="#FCFDFF" transform="translate(0,0)"/>
<path d="" fill="#FDFDFE" transform="translate(0,0)"/>
<path d="" fill="#FCFDFF" transform="translate(0,0)"/>
<path d="" fill="#FDFEFF" transform="translate(0,0)"/>
<path d="" fill="#FDFEFF" transform="translate(0,0)"/>
<path d="" fill="#FEFEFF" transform="translate(0,0)"/>
<path d="" fill="#FDFEFF" transform="translate(0,0)"/>
<path d="" fill="#FDFEFF" transform="translate(0,0)"/>
<path d="" fill="#FCFDFF" transform="translate(0,0)"/>
<path d="" fill="#FEFEFF" transform="translate(0,0)"/>
<path d="" fill="#FCFDFF" transform="translate(0,0)"/>
<path d="" fill="#FDFEFF" transform="translate(0,0)"/>
<path d="" fill="#FCFDFF" transform="translate(0,0)"/>
<path d="" fill="#FDFEFF" transform="translate(0,0)"/>
<path d="" fill="#FDFDFF" transform="translate(0,0)"/>
<path d="" fill="#FDFEFF" transform="translate(0,0)"/>
<path d="" fill="#FEFEFF" transform="translate(0,0)"/>
<path d="" fill="#FDFEFF" transform="translate(0,0)"/>
<path d="" fill="#FDFEFF" transform="translate(0,0)"/>
<path d="" fill="#FCFEFF" transform="translate(0,0)"/>
<path d="" fill="#FDFEFF" transform="translate(0,0)"/>
<path d="" fill="#FCFEFF" transform="translate(0,0)"/>
<path d="" fill="#FDFEFF" transform="translate(0,0)"/>
<path d="" fill="#FCFEFF" transform="translate(0,0)"/>
<path d="" fill="#FEFEFF" transform="translate(0,0)"/>
<path d="" fill="#FBFCFE" transform="translate(0,0)"/>
<path d="" fill="#FEFFFF" transform="translate(0,0)"/>
<path d="" fill="#FAFBFD" transform="translate(0,0)"/>
<path d="" fill="#FBFBFF" transform="translate(0,0)"/>
<path d="" fill="#FEFFFF" transform="translate(0,0)"/>
<path d="" fill="#FBFBFF" transform="translate(0,0)"/>
<path d="" fill="#FEFEFF" transform="translate(0,0)"/>
<path d="" fill="#FAFBFE" transform="translate(0,0)"/>
<path d="" fill="#FDFEFF" transform="translate(0,0)"/>
<path d="" fill="#FCFDFF" transform="translate(0,0)"/>
<path d="" fill="#FEFEFF" transform="translate(0,0)"/>
<path d="" fill="#FDFEFF" transform="translate(0,0)"/>
<path d="" fill="#FEFFFF" transform="translate(0,0)"/>
<path d="" fill="#FEFFFF" transform="translate(0,0)"/>
<path d="" fill="#FDFEFF" transform="translate(0,0)"/>
<path d="" fill="#FEFFFF" transform="translate(0,0)"/>
<path d="" fill="#FBFCFF" transform="translate(0,0)"/>
<path d="" fill="#FFFEFF" transform="translate(0,0)"/>
<path d="" fill="#F9FAFD" transform="translate(0,0)"/>
<path d="" fill="#FEFEFF" transform="translate(0,0)"/>
<path d="" fill="#FAFAFD" transform="translate(0,0)"/>
<path d="" fill="#FDFEFE" transform="translate(0,0)"/>
<path d="" fill="#FCFDFE" transform="translate(0,0)"/>
<path d="" fill="#FEFFFF" transform="translate(0,0)"/>
<path d="" fill="#FFFFFF" transform="translate(0,0)"/>
<path d="" fill="#FDFDFF" transform="translate(0,0)"/>
<path d="" fill="#FFFFFF" transform="translate(0,0)"/>
<path d="" fill="#FFFFFF" transform="translate(0,0)"/>
<path d="" fill="#FDFEFF" transform="translate(0,0)"/>
<path d="" fill="#FEFEFF" transform="translate(0,0)"/>
<path d="" fill="#FFFFFF" transform="translate(0,0)"/>
<path d="" fill="#FCFDFF" transform="translate(0,0)"/>
<path d="" fill="#FCFEFF" transform="translate(0,0)"/>
<path d="" fill="#FFFEFF" transform="translate(0,0)"/>
<path d="" fill="#FEFFFF" transform="translate(0,0)"/>
<path d="" fill="#FEFEFF" transform="translate(0,0)"/>
<path d="" fill="#FDFEFF" transform="translate(0,0)"/>
<path d="" fill="#FFFFFF" transform="translate(0,0)"/>
<path d="" fill="#FFFFFF" transform="translate(0,0)"/>
<path d="" fill="#FEFFFF" transform="translate(0,0)"/>
<path d="" fill="#FBFCFE" transform="translate(0,0)"/>
<path d="" fill="#FEFFFF" transform="translate(0,0)"/>
<path d="" fill="#FFFFFF" transform="translate(0,0)"/>
<path d="" fill="#FFFFFF" transform="translate(0,0)"/>
<path d="" fill="#FAFBFD" transform="translate(0,0)"/>
<path d="" fill="#FFFFFF" transform="translate(0,0)"/>
<path d="" fill="#FFFFFF" transform="translate(0,0)"/>
<path d="" fill="#FBFBFF" transform="translate(0,0)"/>
<path d="" fill="#FDFEFF" transform="translate(0,0)"/>
<path d="" fill="#FFFFFF" transform="translate(0,0)"/>
<path d="" fill="#FFFEFF" transform="translate(0,0)"/>
<path d="" fill="#FAFBFE" transform="translate(0,0)"/>
<path d="" fill="#FFFFFF" transform="translate(0,0)"/>
<path d="" fill="#FEFEFF" transform="translate(0,0)"/>
<path d="" fill="#FAFBFE" transform="translate(0,0)"/>
<path d="" fill="#FFFFFF" transform="translate(0,0)"/>
<path d="" fill="#FEFEFF" transform="translate(0,0)"/>
<path d="" fill="#FDFEFF" transform="translate(0,0)"/>
<path d="" fill="#FCFDFF" transform="translate(0,0)"/>
<path d="" fill="#FFFFFE" transform="translate(0,0)"/>
<path d="" fill="#FFFFFF" transform="translate(0,0)"/>
<path d="" fill="#FDFEFF" transform="translate(0,0)"/>
<path d="" fill="#FFFFFF" transform="translate(0,0)"/>
<path d="" fill="#FFFFFF" transform="translate(0,0)"/>
<path d="" fill="#FDFEFF" transform="translate(0,0)"/>
<path d="" fill="#FFFFFF" transform="translate(0,0)"/>
<path d="" fill="#FCFCFD" transform="translate(0,0)"/>
<path d="" fill="#FDFEFF" transform="translate(0,0)"/>
<path d="" fill="#FDFEFF" transform="translate(0,0)"/>
<path d="" fill="#FFFFFF" transform="translate(0,0)"/>
<path d="" fill="#FFFFFF" transform="translate(0,0)"/>
<path d="" fill="#FCFDFF" transform="translate(0,0)"/>
<path d="" fill="#FEFEFF" transform="translate(0,0)"/>
<path d="" fill="#F9FAFD" transform="translate(0,0)"/>
<path d="" fill="#FEFFFF" transform="translate(0,0)"/>
<path d="" fill="#FEFEFF" transform="translate(0,0)"/>
<path d="" fill="#FAFBFD" transform="translate(0,0)"/>
<path d="" fill="#FFFFFF" transform="translate(0,0)"/>
<path d="" fill="#FFFFFF" transform="translate(0,0)"/>
<path d="" fill="#FCFDFE" transform="translate(0,0)"/>
<path d="" fill="#FFFFFF" transform="translate(0,0)"/>
<path d="" fill="#FFFFFF" transform="translate(0,0)"/>
<path d="" fill="#FDFEFF" transform="translate(0,0)"/>
<path d="" fill="#FFFFFF" transform="translate(0,0)"/>
<path d="" fill="#FFFFFF" transform="translate(0,0)"/>
<path d="" fill="#FDFFFF" transform="translate(0,0)"/>
<path d="" fill="#FFFFFE" transform="translate(0,0)"/>
<path d="" fill="#FFFFFF" transform="translate(0,0)"/>
<path d="" fill="#FCFEFF" transform="translate(0,0)"/>
<path d="" fill="#FCFDFF" transform="translate(0,0)"/>
<path d="" fill="#FEFEFF" transform="translate(0,0)"/>
<path d="" fill="#FDFEFF" transform="translate(0,0)"/>
<path d="" fill="#FEFEFF" transform="translate(0,0)"/>
<path d="" fill="#FFFFFF" transform="translate(0,0)"/>
<path d="" fill="#FFFFFF" transform="translate(0,0)"/>
<path d="" fill="#FEFEFE" transform="translate(0,0)"/>
<path d="" fill="#FEFEFF" transform="translate(0,0)"/>
<path d="" fill="#FFFFFF" transform="translate(0,0)"/>
<path d="" fill="#FFFFFF" transform="translate(0,0)"/>
<path d="" fill="#FDFEFF" transform="translate(0,0)"/>
<path d="" fill="#FFFFFF" transform="translate(0,0)"/>
<path d="" fill="#FFFFFF" transform="translate(0,0)"/>
<path d="" fill="#FEFEFF" transform="translate(0,0)"/>
<path d="" fill="#FFFFFF" transform="translate(0,0)"/>
<path d="" fill="#FFFFFF" transform="translate(0,0)"/>
<path d="" fill="#FEFEFF" transform="translate(0,0)"/>
<path d="" fill="#FEFFFF" transform="translate(0,0)"/>
<path d="" fill="#FFFFFF" transform="translate(0,0)"/>
<path d="" fill="#FFFFFF" transform="translate(0,0)"/>
<path d="" fill="#FEFEFF" transform="translate(0,0)"/>
<path d="" fill="#FFFFFF" transform="translate(0,0)"/>
<path d="" fill="#FFFFFF" transform="translate(0,0)"/>
<path d="" fill="#FFFFFF" transform="translate(0,0)"/>
<path d="" fill="#FFFFFF" transform="translate(0,0)"/>
<path d="" fill="#FFFFFF" transform="translate(0,0)"/>
<path d="" fill="#FFFFFF" transform="translate(0,0)"/>
<path d="" fill="#FFFFFF" transform="translate(0,0)"/>
<path d="" fill="#FFFFFF" transform="translate(0,0)"/>
<path d="" fill="#FFFFFF" transform="translate(0,0)"/>
<path d="" fill="#FFFFFF" transform="translate(0,0)"/>
<path d="" fill="#FFFFFF" transform="translate(0,0)"/>
<path d="" fill="#FDFEFE" transform="translate(0,0)"/>
<path d="" fill="#FFFFFF" transform="translate(0,0)"/>
<path d="" fill="#FEFEFF" transform="translate(0,0)"/>
<path d="" fill="#FFFFFF" transform="translate(0,0)"/>
<path d="" fill="#FFFFFF" transform="translate(0,0)"/>
<path d="" fill="#FCFDFF" transform="translate(0,0)"/>
<path d="" fill="#FCFDFF" transform="translate(0,0)"/>
<path d="" fill="#FCFDFF" transform="translate(0,0)"/>
<path d="" fill="#FCFDFF" transform="translate(0,0)"/>
<path d="" fill="#FCFDFF" transform="translate(0,0)"/>
<path d="" fill="#FEFEFF" transform="translate(0,0)"/>
<path d="" fill="#FCFDFF" transform="translate(0,0)"/>
<path d="" fill="#FCFDFF" transform="translate(0,0)"/>
<path d="" fill="#FFFFFF" transform="translate(0,0)"/>
<path d="" fill="#FCFDFF" transform="translate(0,0)"/>
<path d="" fill="#FCFDFF" transform="translate(0,0)"/>
<path d="" fill="#FCFDFF" transform="translate(0,0)"/>
<path d="" fill="#FCFDFF" transform="translate(0,0)"/>
<path d="" fill="#FEFEFF" transform="translate(0,0)"/>
<path d="" fill="#FCFDFF" transform="translate(0,0)"/>
<path d="" fill="#FEFEFF" transform="translate(0,0)"/>
<path d="" fill="#FCFDFF" transform="translate(0,0)"/>
<path d="" fill="#FEFEFF" transform="translate(0,0)"/>
<path d="" fill="#FFFFFF" transform="translate(0,0)"/>
<path d="" fill="#FEFEFF" transform="translate(0,0)"/>
<path d="" fill="#FCFDFF" transform="translate(0,0)"/>
<path d="" fill="#FFFFFF" transform="translate(0,0)"/>
<path d="" fill="#FCFDFE" transform="translate(0,0)"/>
<path d="" fill="#FFFEFF" transform="translate(0,0)"/>
<path d="" fill="#FCFDFF" transform="translate(0,0)"/>
<path d="" fill="#FEFEFF" transform="translate(0,0)"/>
<path d="" fill="#FDFEFF" transform="translate(0,0)"/>
<path d="" fill="#FCFDFF" transform="translate(0,0)"/>
<path d="" fill="#FEFEFF" transform="translate(0,0)"/>
<path d="" fill="#FCFEFF" transform="translate(0,0)"/>
<path d="" fill="#FCFDFF" transform="translate(0,0)"/>
<path d="" fill="#FCFDFF" transform="translate(0,0)"/>
<path d="" fill="#FCFDFF" transform="translate(0,0)"/>
<path d="" fill="#FDFEFF" transform="translate(0,0)"/>
<path d="" fill="#FCFDFF" transform="translate(0,0)"/>
<path d="" fill="#FDFEFF" transform="translate(0,0)"/>
<path d="" fill="#FCFDFF" transform="translate(0,0)"/>
<path d="" fill="#FEFEFF" transform="translate(0,0)"/>
<path d="" fill="#FFFFFF" transform="translate(0,0)"/>
<path d="" fill="#FCFDFF" transform="translate(0,0)"/>
<path d="" fill="#FDFDFF" transform="translate(0,0)"/>
<path d="" fill="#FCFDFF" transform="translate(0,0)"/>
<path d="" fill="#FCFDFF" transform="translate(0,0)"/>
<path d="" fill="#FDFDFE" transform="translate(0,0)"/>
<path d="" fill="#FCFDFF" transform="translate(0,0)"/>
<path d="" fill="#FCFDFF" transform="translate(0,0)"/>
<path d="" fill="#FCFDFE" transform="translate(0,0)"/>
<path d="" fill="#FCFDFF" transform="translate(0,0)"/>
<path d="" fill="#FDFEFF" transform="translate(0,0)"/>
<path d="" fill="#FBFDFF" transform="translate(0,0)"/>
<path d="" fill="#FCFDFF" transform="translate(0,0)"/>
<path d="" fill="#FDFEFF" transform="translate(0,0)"/>
<path d="" fill="#FCFDFF" transform="translate(0,0)"/>
<path d="" fill="#FDFEFF" transform="translate(0,0)"/>
<path d="" fill="#FCFDFF" transform="translate(0,0)"/>
<path d="" fill="#FCFDFF" transform="translate(0,0)"/>
<path d="" fill="#FCFDFF" transform="translate(0,0)"/>
<path d="" fill="#FCFDFF" transform="translate(0,0)"/>
<path d="" fill="#FEFEFF" transform="translate(0,0)"/>
<path d="" fill="#FCFDFF" transform="translate(0,0)"/>
<path d="" fill="#FDFDFF" transform="translate(0,0)"/>
<path d="" fill="#FEFEFF" transform="translate(0,0)"/>
<path d="" fill="#FCFDFF" transform="translate(0,0)"/>
<path d="" fill="#FEFEFF" transform="translate(0,0)"/>
<path d="" fill="#FEFFFF" transform="translate(0,0)"/>
<path d="" fill="#FCFDFF" transform="translate(0,0)"/>
<path d="" fill="#FEFEFF" transform="translate(0,0)"/>
<path d="" fill="#FCFDFF" transform="translate(0,0)"/>
<path d="" fill="#FDFEFF" transform="translate(0,0)"/>
<path d="" fill="#FCFDFF" transform="translate(0,0)"/>
<path d="" fill="#FCFEFF" transform="translate(0,0)"/>
<path d="" fill="#FDFEFF" transform="translate(0,0)"/>
<path d="" fill="#FCFDFF" transform="translate(0,0)"/>
<path d="" fill="#FCFDFF" transform="translate(0,0)"/>
<path d="" fill="#FDFDFF" transform="translate(0,0)"/>
<path d="" fill="#FDFEFF" transform="translate(0,0)"/>
<path d="" fill="#FCFDFF" transform="translate(0,0)"/>
<path d="" fill="#FDFDFF" transform="translate(0,0)"/>
<path d="" fill="#FDFEFF" transform="translate(0,0)"/>
<path d="" fill="#FDFEFF" transform="translate(0,0)"/>
<path d="" fill="#FCFDFF" transform="translate(0,0)"/>
<path d="" fill="#FDFEFF" transform="translate(0,0)"/>
<path d="" fill="#FCFEFF" transform="translate(0,0)"/>
<path d="" fill="#FDFEFF" transform="translate(0,0)"/>
<path d="" fill="#FCFDFF" transform="translate(0,0)"/>
<path d="" fill="#FDFEFF" transform="translate(0,0)"/>
<path d="" fill="#FDFEFF" transform="translate(0,0)"/>
<path d="" fill="#FDFEFF" transform="translate(0,0)"/>
<path d="" fill="#FEFFFF" transform="translate(0,0)"/>
<path d="" fill="#FCFDFF" transform="translate(0,0)"/>
<path d="" fill="#FDFEFF" transform="translate(0,0)"/>
<path d="" fill="#FDFEFF" transform="translate(0,0)"/>
<path d="" fill="#FCFDFE" transform="translate(0,0)"/>
<path d="" fill="#FEFFFF" transform="translate(0,0)"/>
<path d="" fill="#FEFEFF" transform="translate(0,0)"/>
<path d="" fill="#FEFEFF" transform="translate(0,0)"/>
<path d="" fill="#FDFEFF" transform="translate(0,0)"/>
<path d="" fill="#FEFEFF" transform="translate(0,0)"/>
<path d="" fill="#FCFDFF" transform="translate(0,0)"/>
<path d="" fill="#FEFEFF" transform="translate(0,0)"/>
<path d="" fill="#FDFEFF" transform="translate(0,0)"/>
<path d="" fill="#FFFEFF" transform="translate(0,0)"/>
<path d="" fill="#FEFEFF" transform="translate(0,0)"/>
<path d="" fill="#FEFEFF" transform="translate(0,0)"/>
<path d="" fill="#FFFFFF" transform="translate(0,0)"/>
<path d="" fill="#FEFEFF" transform="translate(0,0)"/>
<path d="" fill="#FDFEFF" transform="translate(0,0)"/>
<path d="" fill="#FCFDFF" transform="translate(0,0)"/>
<path d="" fill="#FDFEFF" transform="translate(0,0)"/>
<path d="" fill="#FEFEFF" transform="translate(0,0)"/>
<path d="" fill="#FEFEFF" transform="translate(0,0)"/>
<path d="" fill="#FDFFFF" transform="translate(0,0)"/>
<path d="" fill="#FEFEFF" transform="translate(0,0)"/>
<path d="" fill="#FEFEFF" transform="translate(0,0)"/>
<path d="" fill="#FEFFFF" transform="translate(0,0)"/>
<path d="" fill="#FEFEFF" transform="translate(0,0)"/>
<path d="" fill="#FDFEFF" transform="translate(0,0)"/>
<path d="" fill="#FDFDFF" transform="translate(0,0)"/>
<path d="" fill="#FDFEFF" transform="translate(0,0)"/>
<path d="" fill="#FDFFFF" transform="translate(0,0)"/>
<path d="" fill="#FEFEFF" transform="translate(0,0)"/>
<path d="" fill="#FDFDFE" transform="translate(0,0)"/>
<path d="" fill="#FFFFFF" transform="translate(0,0)"/>
<path d="" fill="#FDFDFF" transform="translate(0,0)"/>
<path d="" fill="#FEFFFF" transform="translate(0,0)"/>
<path d="" fill="#FEFEFF" transform="translate(0,0)"/>
<path d="" fill="#FDFEFF" transform="translate(0,0)"/>
<path d="" fill="#FDFEFF" transform="translate(0,0)"/>
<path d="" fill="#FDFEFF" transform="translate(0,0)"/>
<path d="" fill="#FFFFFF" transform="translate(0,0)"/>
<path d="" fill="#FEFFFF" transform="translate(0,0)"/>
<path d="" fill="#FEFFFF" transform="translate(0,0)"/>
<path d="" fill="#FEFFFF" transform="translate(0,0)"/>
<path d="" fill="#FFFFFF" transform="translate(0,0)"/>
<path d="" fill="#FDFDFF" transform="translate(0,0)"/>
<path d="" fill="#FDFEFF" transform="translate(0,0)"/>
<path d="" fill="#FDFEFF" transform="translate(0,0)"/>
<path d="" fill="#FDFEFF" transform="translate(0,0)"/>
<path d="" fill="#FEFFFF" transform="translate(0,0)"/>
<path d="" fill="#FFFFFF" transform="translate(0,0)"/>
<path d="" fill="#FEFFFF" transform="translate(0,0)"/>
<path d="" fill="#FEFFFF" transform="translate(0,0)"/>
<path d="" fill="#FEFFFF" transform="translate(0,0)"/>
<path d="" fill="#FCFEFF" transform="translate(0,0)"/>
<path d="" fill="#FDFEFF" transform="translate(0,0)"/>
<path d="" fill="#FDFEFE" transform="translate(0,0)"/>
<path d="" fill="#FEFEFF" transform="translate(0,0)"/>
<path d="" fill="#FEFEFF" transform="translate(0,0)"/>
<path d="" fill="#FEFEFF" transform="translate(0,0)"/>
<path d="" fill="#FFFFFF" transform="translate(0,0)"/>
<path d="" fill="#FEFEFE" transform="translate(0,0)"/>
<path d="" fill="#FFFEFF" transform="translate(0,0)"/>
<path d="" fill="#FCFDFE" transform="translate(0,0)"/>
<path d="" fill="#FEFEFF" transform="translate(0,0)"/>
<path d="" fill="#FCFEFF" transform="translate(0,0)"/>
<path d="" fill="#FDFEFF" transform="translate(0,0)"/>
<path d="" fill="#FDFEFF" transform="translate(0,0)"/>
<path d="" fill="#FDFEFF" transform="translate(0,0)"/>
<path d="" fill="#FDFFFF" transform="translate(0,0)"/>
<path d="" fill="#FEFEFF" transform="translate(0,0)"/>
<path d="" fill="#FFFEFF" transform="translate(0,0)"/>
<path d="" fill="#FFFEFF" transform="translate(0,0)"/>
<path d="" fill="#FFFFFF" transform="translate(0,0)"/>
<path d="" fill="#FEFEFF" transform="translate(0,0)"/>
<path d="" fill="#FEFEFF" transform="translate(0,0)"/>
<path d="" fill="#FEFEFF" transform="translate(0,0)"/>
<path d="" fill="#FDFEFF" transform="translate(0,0)"/>
<path d="" fill="#FDFEFF" transform="translate(0,0)"/>
<path d="" fill="#FDFEFF" transform="translate(0,0)"/>
<path d="" fill="#FEFEFF" transform="translate(0,0)"/>
<path d="" fill="#FEFFFF" transform="translate(0,0)"/>
<path d="" fill="#FEFFFF" transform="translate(0,0)"/>
<path d="" fill="#FEFFFF" transform="translate(0,0)"/>
<path d="" fill="#FFFFFF" transform="translate(0,0)"/>
<path d="" fill="#FEFFFF" transform="translate(0,0)"/>
<path d="" fill="#FFFFFF" transform="translate(0,0)"/>
<path d="" fill="#FDFEFF" transform="translate(0,0)"/>
<path d="" fill="#FEFEFE" transform="translate(0,0)"/>
<path d="" fill="#FDFEFF" transform="translate(0,0)"/>
<path d="" fill="#FEFEFE" transform="translate(0,0)"/>
<path d="" fill="#FEFEFF" transform="translate(0,0)"/>
<path d="" fill="#FEFEFE" transform="translate(0,0)"/>
<path d="" fill="#FEFFFF" transform="translate(0,0)"/>
<path d="" fill="#FFFFFF" transform="translate(0,0)"/>
<path d="" fill="#FEFFFF" transform="translate(0,0)"/>
<path d="" fill="#FFFFFF" transform="translate(0,0)"/>
<path d="" fill="#FEFEFF" transform="translate(0,0)"/>
<path d="" fill="#FFFFFF" transform="translate(0,0)"/>
<path d="" fill="#FEFEFF" transform="translate(0,0)"/>
<path d="" fill="#FEFEFF" transform="translate(0,0)"/>
<path d="" fill="#FDFEFF" transform="translate(0,0)"/>
<path d="" fill="#FEFEFF" transform="translate(0,0)"/>
<path d="" fill="#FEFEFF" transform="translate(0,0)"/>
<path d="" fill="#FEFEFF" transform="translate(0,0)"/>
<path d="" fill="#FEFFFF" transform="translate(0,0)"/>
<path d="" fill="#FEFEFF" transform="translate(0,0)"/>
<path d="" fill="#FEFFFF" transform="translate(0,0)"/>
<path d="" fill="#FFFFFF" transform="translate(0,0)"/>
<path d="" fill="#FDFEFF" transform="translate(0,0)"/>
<path d="" fill="#FFFFFE" transform="translate(0,0)"/>
<path d="" fill="#FCFDFE" transform="translate(0,0)"/>
<path d="" fill="#FEFEFF" transform="translate(0,0)"/>
<path d="" fill="#FEFEFF" transform="translate(0,0)"/>
<path d="" fill="#FEFFFF" transform="translate(0,0)"/>
<path d="" fill="#FFFFFF" transform="translate(0,0)"/>
<path d="" fill="#FFFFFF" transform="translate(0,0)"/>
<path d="" fill="#FFFFFF" transform="translate(0,0)"/>
<path d="" fill="#FFFFFF" transform="translate(0,0)"/>
</svg>
