<?xml version="1.0" encoding="UTF-8"?>
<svg version="1.1" xmlns="http://www.w3.org/2000/svg" width="1080" height="608">
<path d="M0 0 C14.19 0 28.38 0 43 0 C43 33 43 66 43 100 C56.2 100 69.4 100 83 100 C83 67 83 34 83 0 C97.19 0 111.38 0 126 0 C126 47.52 126 95.04 126 144 C108.71625 144.04125 91.4325 144.0825 73.625 144.125 C68.18209473 144.14320801 62.73918945 144.16141602 57.13134766 144.18017578 C50.44799805 144.18920898 50.44799805 144.18920898 47.31210327 144.19088745 C45.13753438 144.19394414 42.96296873 144.20094807 40.78842163 144.21115112 C37.48079605 144.22588515 34.17337635 144.22780882 30.86572266 144.22705078 C29.43012465 144.23784511 29.43012465 144.23784511 27.96552467 144.2488575 C19.26414215 144.22233386 11.24547775 143.83327912 4.47265625 137.92578125 C-0.67115371 131.19926054 -0.41504513 124.51808483 -0.34057617 116.36352539 C-0.34101425 115.1042926 -0.34145233 113.84505981 -0.34190369 112.54766846 C-0.34276087 109.11211193 -0.32518052 105.67687263 -0.30418181 102.24138951 C-0.28536847 98.64462109 -0.28366092 95.04784458 -0.28010559 91.45103455 C-0.27079875 84.64779057 -0.24620355 77.84469203 -0.21605712 71.04151195 C-0.18247059 63.2930291 -0.16601644 55.54453913 -0.15097082 47.79600155 C-0.11965263 31.86390259 -0.06465776 15.93200384 0 0 Z " fill="#F18F27" transform="translate(109,197)"/>
<path d="M0 0 C18.89787773 -0.11295076 37.79548136 -0.20502101 56.69361115 -0.25906086 C65.46871542 -0.28482155 74.24359479 -0.31993104 83.01855469 -0.37719727 C90.66853155 -0.42709786 98.31834549 -0.45930654 105.96848059 -0.47044247 C110.01771055 -0.47695005 114.06647449 -0.49219947 118.11555481 -0.52865028 C121.9307185 -0.56271543 125.74522646 -0.57303208 129.5605278 -0.56553841 C130.95690353 -0.5669083 132.35330232 -0.57677877 133.74954605 -0.59602737 C141.7263691 -0.70055515 147.88470639 -0.52246226 154 5 C158.16780856 9.2730809 160.12598022 12.22468971 160.12025452 18.21377563 C160.12231651 19.8712809 160.12231651 19.8712809 160.12442017 21.56227112 C160.12082489 22.78002731 160.11722961 23.99778351 160.11352539 25.25244141 C160.11367142 26.5304512 160.11381744 27.808461 160.1139679 29.12519836 C160.11425549 32.63531254 160.10836491 36.14539273 160.10139394 39.65549898 C160.09515406 43.32171234 160.0945561 46.98792643 160.09336853 50.65414429 C160.09025709 57.59915641 160.08204621 64.54415283 160.07201904 71.48915803 C160.06085211 79.39473502 160.05534599 87.30031275 160.05032361 95.20589566 C160.03986345 111.47060775 160.02152029 127.73529822 160 144 C145.81 144 131.62 144 117 144 C117 110.67 117 77.34 117 43 C78.39 43 39.78 43 0 43 C0 28.81 0 14.62 0 0 Z " fill="#595B60" transform="translate(669,197)"/>
<path d="M0 0 C14.52 0 29.04 0 44 0 C44 16.5 44 33 44 50 C56.87 50 69.74 50 83 50 C83 33.5 83 17 83 0 C97.52 0 112.04 0 127 0 C127.16043524 19.43494639 127.16043524 19.43494639 127.1953125 27.74023438 C127.21919362 33.40013693 127.24739881 39.05977983 127.30175781 44.71948242 C127.34532374 49.28417742 127.36915985 53.84859384 127.37950897 58.41348076 C127.38688109 60.15216899 127.40127722 61.89084254 127.42292023 63.6294117 C127.45209784 66.07106201 127.45595013 68.51157163 127.45410156 70.95336914 C127.46848267 71.66691055 127.48286377 72.38045197 127.49768066 73.11561584 C127.45334716 78.55256005 125.90749634 81.58027344 123 86 C122.34 86 121.68 86 121 86 C120.814375 86.598125 120.62875 87.19625 120.4375 87.8125 C117.98907983 91.53835678 113.97215612 92.48905708 109.78849792 93.57295227 C106.08829868 94.13962355 102.42999026 94.14745965 98.6965332 94.14526367 C97.46132179 94.15030159 97.46132179 94.15030159 96.20115662 94.15544128 C93.48434938 94.16492326 90.767604 94.16689326 88.05078125 94.16796875 C86.15374222 94.17118411 84.25670343 94.17454839 82.35966492 94.17805481 C78.3827558 94.18403981 74.40586838 94.18589544 70.42895508 94.18530273 C65.35300404 94.18520135 60.27719362 94.19883215 55.20127583 94.21607494 C51.28142162 94.22724034 47.36160088 94.22922052 43.44173241 94.22869301 C41.57159123 94.22986711 39.70144903 94.23425662 37.83132362 94.24202538 C12.44160384 94.33759329 12.44160384 94.33759329 6.5625 88.8125 C5.94503906 88.26207031 5.32757812 87.71164062 4.69140625 87.14453125 C0.50417869 81.83555219 -0.44193737 76.66288846 -0.34057617 70.04516602 C-0.34101425 69.28336533 -0.34145233 68.52156464 -0.34190369 67.73667908 C-0.33982929 65.24215215 -0.31656311 62.74831439 -0.29296875 60.25390625 C-0.28736798 58.51513537 -0.28310015 56.77635972 -0.28010559 55.0375824 C-0.2686947 50.4787572 -0.23926017 45.92022234 -0.20599365 41.36151123 C-0.16979187 35.88237762 -0.15611371 30.40314649 -0.13863373 24.92392731 C-0.1096203 16.6157501 -0.05210723 8.30820896 0 0 Z " fill="#5B5D62" transform="translate(527,247)"/>
<path d="M0 0 C14.44753423 -0.11306978 28.89477342 -0.20475677 43.34265041 -0.25906086 C50.05175609 -0.2847919 56.76056639 -0.31984358 63.46948242 -0.37719727 C69.94692676 -0.43162034 76.42406467 -0.46144277 82.90172005 -0.47438622 C85.37002446 -0.48360744 87.83831256 -0.50161442 90.30648613 -0.52865028 C93.77036335 -0.56507558 97.2329828 -0.56993945 100.69702148 -0.56762695 C102.21940933 -0.59459152 102.21940933 -0.59459152 103.77255249 -0.62210083 C110.56627229 -0.57319267 115.55139859 0.82722649 121 5 C125.29938806 9.68579124 127.12639399 13.94058413 127.12025452 20.25810242 C127.12231651 21.89242722 127.12231651 21.89242722 127.12442017 23.55976868 C127.11902725 25.35295784 127.11902725 25.35295784 127.11352539 27.18237305 C127.11367142 28.44102173 127.11381744 29.69967041 127.1139679 30.99645996 C127.1142551 34.44866579 127.1083707 37.90083696 127.10139394 41.35303473 C127.0951477 44.96051849 127.09455559 48.56800301 127.09336853 52.17549133 C127.09025897 59.00713919 127.08205062 65.83877107 127.07201904 72.67041188 C127.06084628 80.44784034 127.05534452 88.22526955 127.05032361 96.00270402 C127.03986771 112.00181352 127.02152687 128.00090099 127 144 C112.81 144 98.62 144 84 144 C84 110.67 84 77.34 84 43 C56.28 43 28.56 43 0 43 C0 28.81 0 14.62 0 0 Z " fill="#5A5C60" transform="translate(845,197)"/>
<path d="M0 0 C14.44753423 -0.11306978 28.89477342 -0.20475677 43.34265041 -0.25906086 C50.05175609 -0.2847919 56.76056639 -0.31984358 63.46948242 -0.37719727 C69.94692676 -0.43162034 76.42406467 -0.46144277 82.90172005 -0.47438622 C85.37002446 -0.48360744 87.83831256 -0.50161442 90.30648613 -0.52865028 C93.77036335 -0.56507558 97.2329828 -0.56993945 100.69702148 -0.56762695 C102.21940933 -0.59459152 102.21940933 -0.59459152 103.77255249 -0.62210083 C110.56627229 -0.57319267 115.55139859 0.82722649 121 5 C125.29938806 9.68579124 127.12639399 13.94058413 127.12025452 20.25810242 C127.12231651 21.89242722 127.12231651 21.89242722 127.12442017 23.55976868 C127.11902725 25.35295784 127.11902725 25.35295784 127.11352539 27.18237305 C127.11367142 28.44102173 127.11381744 29.69967041 127.1139679 30.99645996 C127.1142551 34.44866579 127.1083707 37.90083696 127.10139394 41.35303473 C127.0951477 44.96051849 127.09455559 48.56800301 127.09336853 52.17549133 C127.09025897 59.00713919 127.08205062 65.83877107 127.07201904 72.67041188 C127.06084628 80.44784034 127.05534452 88.22526955 127.05032361 96.00270402 C127.03986771 112.00181352 127.02152687 128.00090099 127 144 C112.81 144 98.62 144 84 144 C84 110.67 84 77.34 84 43 C56.28 43 28.56 43 0 43 C0 28.81 0 14.62 0 0 Z " fill="#F19028" transform="translate(251,197)"/>
<path d="M0 0 C14.19 0 28.38 0 43 0 C43 16.5 43 33 43 50 C70.72 50 98.44 50 127 50 C126.02964322 53.88142714 124.91373894 55.95735378 122.75 59.25 C120.10315067 63.30451663 117.5278285 67.38349501 115.04296875 71.5390625 C114 73 114 73 112 74 C111.608125 74.804375 111.21625 75.60875 110.8125 76.4375 C108.72960082 80.53147426 106.19837286 84.10353146 103.5234375 87.828125 C101.98372451 89.90963166 101.98372451 89.90963166 101 92 C100.34 92 99.68 92 99 92 C99 92.66 99 93.32 99 94 C88.85513537 94.04646189 78.71029631 94.08193939 68.56534672 94.10362434 C63.85399158 94.11403513 59.14270956 94.12814467 54.43139648 94.15087891 C49.87968165 94.17270408 45.32803688 94.18458895 40.77627373 94.18975449 C39.04485408 94.19343293 37.31343801 94.2006158 35.58204842 94.21146011 C12.63836165 94.34937216 12.63836165 94.34937216 7.1875 89.3125 C6.66542969 88.85488281 6.14335937 88.39726562 5.60546875 87.92578125 C1.04532747 82.45583076 -0.59701212 78.04410482 -0.45410156 70.95336914 C-0.45468567 70.18181488 -0.45526978 69.41026062 -0.45587158 68.61532593 C-0.45310503 66.08813038 -0.42208282 63.56214339 -0.390625 61.03515625 C-0.38315748 59.27396794 -0.37746696 57.51277127 -0.37347412 55.75157166 C-0.35825796 51.13346099 -0.31901124 46.5158597 -0.2746582 41.89794922 C-0.22639313 36.34794388 -0.20815232 30.79776748 -0.18484497 25.247612 C-0.14615735 16.8313879 -0.06947628 8.41627977 0 0 Z " fill="#5B5D62" transform="translate(393,247)"/>
<path d="M0 0 C1.40030708 -0.0098568 1.40030708 -0.0098568 2.8289032 -0.01991272 C5.92874223 -0.03967604 9.02853267 -0.05131691 12.12841797 -0.0612793 C13.18675716 -0.06535482 14.24509636 -0.06943035 15.33550644 -0.07362938 C20.9403031 -0.09450602 26.54507518 -0.10879915 32.14990234 -0.11816406 C37.93360583 -0.12921385 43.71692302 -0.16359293 49.50049019 -0.20333576 C53.95127058 -0.22951542 58.40195929 -0.23785727 62.85280991 -0.24144554 C64.98419673 -0.24631032 67.11557948 -0.25792118 69.24689102 -0.27648354 C72.23651679 -0.3008964 75.22514829 -0.29990547 78.21484375 -0.29296875 C79.52751976 -0.31218384 79.52751976 -0.31218384 80.86671448 -0.33178711 C87.00313902 -0.28009325 90.86574508 0.69699701 95.99560547 4.17700195 C102.99560547 14.17700195 102.99560547 14.17700195 102.99560547 43.17700195 C61.08560547 43.17700195 19.17560547 43.17700195 -24.00439453 43.17700195 C-24.00439453 16.17700195 -24.00439453 16.17700195 -20.00439453 7.17700195 C-17.71533203 5.02075195 -17.71533203 5.02075195 -15.37939453 3.67700195 C-14.60337891 3.21293945 -13.82736328 2.74887695 -13.02783203 2.27075195 C-8.64608721 -0.09775876 -4.91389311 0.01489185 0 0 Z " fill="#5A5C61" transform="translate(551.00439453125,196.822998046875)"/>
<path d="M0 0 C0.81973801 -0.00014603 1.63947601 -0.00029205 2.48405457 -0.0004425 C5.19488161 0.00025443 7.90564003 0.00803661 10.61645508 0.01586914 C12.49546776 0.0177341 14.37448092 0.01915763 16.25349426 0.02015686 C21.20023947 0.02397592 26.14695535 0.03380101 31.09368896 0.04486084 C36.14098717 0.05508809 41.18829012 0.0596573 46.2355957 0.06469727 C56.13990547 0.0754238 66.04419346 0.09249292 75.94848633 0.11352539 C76.93848633 2.09352539 76.93848633 2.09352539 77.94848633 4.11352539 C78.60848633 4.11352539 79.26848633 4.11352539 79.94848633 4.11352539 C81.21020508 5.94946289 81.21020508 5.94946289 82.63598633 8.48852539 C85.7840715 13.9226284 89.31199744 18.99915309 92.94848633 24.11352539 C94.30126748 26.1004227 95.63416938 28.10097757 96.94848633 30.11352539 C97.83793945 31.46897461 97.83793945 31.46897461 98.74536133 32.85180664 C99.7121582 34.34260742 99.7121582 34.34260742 100.69848633 35.86352539 C101.31208008 36.80711914 101.92567383 37.75071289 102.55786133 38.72290039 C103.94848633 41.11352539 103.94848633 41.11352539 103.94848633 43.11352539 C62.03848633 43.11352539 20.12848633 43.11352539 -23.05151367 43.11352539 C-23.05151367 15.11352539 -23.05151367 15.11352539 -18.05151367 6.11352539 C-11.90786155 1.02912363 -7.74251187 -0.03593303 0 0 Z " fill="#55575C" transform="translate(416.051513671875,196.886474609375)"/>
<path d="M0 0 C14.52 0 29.04 0 44 0 C44 31.02 44 62.04 44 94 C29.48 94 14.96 94 0 94 C0 62.98 0 31.96 0 0 Z " fill="#5C5E63" transform="translate(845,247)"/>
<path d="M0 0 C14.52 0 29.04 0 44 0 C44 31.02 44 62.04 44 94 C29.48 94 14.96 94 0 94 C0 62.98 0 31.96 0 0 Z " fill="#5D5F63" transform="translate(669,247)"/>
<path d="M0 0 C14.19 0 28.38 0 43 0 C43 31.02 43 62.04 43 94 C28.81 94 14.62 94 0 94 C0 62.98 0 31.96 0 0 Z " fill="#5A5C61" transform="translate(728,247)"/>
<path d="M0 0 C14.19 0 28.38 0 43 0 C43 31.02 43 62.04 43 94 C28.81 94 14.62 94 0 94 C0 62.98 0 31.96 0 0 Z " fill="#F18F27" transform="translate(251,247)"/>
<path d="M0 0 C2.31 0 4.62 0 7 0 C7 2.31 7 4.62 7 7 C8.98 7 10.96 7 13 7 C13 8.98 13 10.96 13 13 C11.02 13 9.04 13 7 13 C7.495 18.445 7.495 18.445 8 24 C9.65 24 11.3 24 13 24 C13 26.31 13 28.62 13 31 C8.31667771 32.11507674 5.44276449 31.85976188 1 30 C0 29 0 29 -0.09765625 25.40234375 C-0.0909822 23.91403133 -0.07902183 22.42573568 -0.0625 20.9375 C-0.05798828 20.17888672 -0.05347656 19.42027344 -0.04882812 18.63867188 C-0.0370068 16.75908129 -0.01907078 14.87953101 0 13 C-4.2753333 12.94600114 -4.2753333 12.94600114 -8.5 13.5 C-11.37781883 14.07556377 -14.07271757 14.06807634 -17 14 C-17.68493373 16.85778033 -17.68493373 16.85778033 -18 20 C-17.34 20.99 -16.68 21.98 -16 23 C-13.58380177 23.25030977 -13.58380177 23.25030977 -11 23 C-9.68 23 -8.36 23 -7 23 C-5 26 -5 26 -5.375 28.1875 C-5.684375 29.0846875 -5.684375 29.0846875 -6 30 C-11.77128647 31.82251152 -15.21110616 32.44914739 -21 30 C-24.37836691 27.24396384 -25.77590716 25.1343925 -26.23828125 20.73046875 C-26.40578134 14.99138656 -26.08173882 11.42188372 -22 7 C-15.0903008 4.62972896 -7.06695835 6.10260846 0 7 C0 4.69 0 2.38 0 0 Z " fill="#797B7F" transform="translate(947,370)"/>
<path d="M0 0 C0.66 -0.33 1.32 -0.66 2 -1 C9.30434783 -1.23188406 9.30434783 -1.23188406 13 0 C15.76692182 4.5718344 15.22499342 9.65514705 15.125 14.8125 C15.11597656 15.69615234 15.10695313 16.57980469 15.09765625 17.49023438 C15.07419637 19.66027359 15.03832865 21.83017247 15 24 C12.36 24 9.72 24 7 24 C7 18.06 7 12.12 7 6 C5.02 6 3.04 6 1 6 C0.67 11.94 0.34 17.88 0 24 C-2.31 24 -4.62 24 -7 24 C-7.33 18.39 -7.66 12.78 -8 7 C-9.65 6.67 -11.3 6.34 -13 6 C-13.33 11.94 -13.66 17.88 -14 24 C-16.64 24 -19.28 24 -22 24 C-22 16.08 -22 8.16 -22 0 C-7.33333333 -1.46666667 -7.33333333 -1.46666667 0 0 Z " fill="#75777B" transform="translate(847,377)"/>
<path d="M0 0 C2.60367524 5.23475758 2.53454989 10.27514315 2 16 C0.60561449 19.93708851 -0.60498535 20.75989306 -4.1875 22.9375 C-9.04108996 24.29013983 -11.286961 23.571013 -16 22 C-16 25.63 -16 29.26 -16 33 C-18.64 33 -21.28 33 -24 33 C-24 21.78 -24 10.56 -24 -1 C-4.49056604 -2.77358491 -4.49056604 -2.77358491 0 0 Z M-14 5 C-16.15502531 8.23253796 -16.46856135 9.25150923 -16 13 C-15.06402685 15.01951062 -15.06402685 15.01951062 -13 16 C-9.38537214 15.92421045 -9.38537214 15.92421045 -6 15 C-4.61874982 12.23749964 -4.80920694 10.05268901 -5 7 C-6.94458314 4.6278031 -6.94458314 4.6278031 -10.5 4.6875 C-11.655 4.790625 -12.81 4.89375 -14 5 Z " fill="#7D7F83" transform="translate(890,378)"/>
<path d="M0 0 C3.02912693 2.49457512 4.90415878 4.41500489 5.55859375 8.37109375 C5.56903253 15.89745753 5.56903253 15.89745753 3.5625 19.75 C0.4750182 22.2833184 -2.02337341 23.64020929 -5.875 24.75 C-8.45371923 24.40884648 -10.42205197 23.70114311 -12.875 22.75 C-13.205 26.38 -13.535 30.01 -13.875 33.75 C-16.185 33.75 -18.495 33.75 -20.875 33.75 C-20.875 22.53 -20.875 11.31 -20.875 -0.25 C-4.70685841 -2.04646018 -4.70685841 -2.04646018 0 0 Z M-11.875 5.75 C-14.20796251 8.57717213 -14.20796251 8.57717213 -13.625 11.8125 C-13.1156756 14.849459 -13.1156756 14.849459 -10.875 16.75 C-8.46082128 17.33402133 -8.46082128 17.33402133 -5.875 16.75 C-3.53869252 14.35140956 -3.53869252 14.35140956 -1.875 11.75 C-2.96284968 8.50016865 -2.96284968 8.50016865 -4.875 5.75 C-8.33312169 5.41661404 -8.33312169 5.41661404 -11.875 5.75 Z " fill="#77797D" transform="translate(685.875,377.25)"/>
<path d="M0 0 C3.04177084 4.40532328 3.89228738 8.74767202 3 14 C1.52481339 18.4079981 -0.31053213 20.56245308 -4.25 23.0625 C-9.02575511 24.25643878 -11.38327073 23.53890976 -16 22 C-16 25.63 -16 29.26 -16 33 C-18.31 33 -20.62 33 -23 33 C-23 21.78 -23 10.56 -23 -1 C-4.52941176 -2.84705882 -4.52941176 -2.84705882 0 0 Z M-14.9375 6.125 C-16.24650629 8.07582485 -16.24650629 8.07582485 -16 11 C-15.2374996 14.13864805 -15.2374996 14.13864805 -12.6875 16 C-10.11511084 17.21114852 -10.11511084 17.21114852 -7.75 16.625 C-5.66496611 14.98344717 -5.66496611 14.98344717 -5.125 11.5625 C-4.64937195 7.89377824 -4.64937195 7.89377824 -7 5 C-10.15728506 4.59694233 -12.15230863 4.50779211 -14.9375 6.125 Z " fill="#787A7E" transform="translate(416,378)"/>
<path d="M0 0 C3.10605182 2.6492795 4.82033521 4.80245545 5.4453125 8.92578125 C5.64897406 12.96506876 5.2830653 15.47107895 3.5625 19.1875 C0.5634974 22.41719511 -1.61927298 23.65840454 -5.875 24.8125 C-8.45218073 24.46653605 -10.42279459 23.76335516 -12.875 22.8125 C-13.205 26.4425 -13.535 30.0725 -13.875 33.8125 C-16.185 33.8125 -18.495 33.8125 -20.875 33.8125 C-20.875 22.5925 -20.875 11.3725 -20.875 -0.1875 C-4.7828341 -1.97551843 -4.7828341 -1.97551843 0 0 Z M-11.875 5.8125 C-14.44187367 9.6628105 -13.70788724 11.39819763 -12.875 15.8125 C-10.4 16.8025 -10.4 16.8025 -7.875 17.8125 C-5.17568019 16.30460521 -5.17568019 16.30460521 -2.875 13.8125 C-2.83268738 9.4565042 -2.83268738 9.4565042 -4.875 5.8125 C-8.33312169 5.47911404 -8.33312169 5.47911404 -11.875 5.8125 Z " fill="#75777B" transform="translate(610.875,377.1875)"/>
<path d="M0 0 C2.83582815 2.83582815 2.36710656 4.85804476 2.4375 8.8125 C2.32826379 15.48273584 2.32826379 15.48273584 -0.0625 19.25 C-3.44800825 21.26689853 -6.09625454 22.38361914 -10 23 C-13.4375 22.125 -13.4375 22.125 -16 21 C-16.33 24.63 -16.66 28.26 -17 32 C-18.98 32 -20.96 32 -23 32 C-23 20.78 -23 9.56 -23 -2 C-5.06741573 -3.99250936 -5.06741573 -3.99250936 0 0 Z M-15.9375 6.5 C-16.288125 7.325 -16.63875 8.15 -17 9 C-15.12050295 12.57104439 -13.82946843 14.54744301 -10 16 C-6.08396696 13.20579508 -6.08396696 13.20579508 -4 9 C-4.8650707 6.19640473 -4.8650707 6.19640473 -7 4 C-11.34065922 3.22488228 -13.14938768 2.90243572 -15.9375 6.5 Z " fill="#727478" transform="translate(502,379)"/>
<path d="M0 0 C0.7528125 -0.01417969 1.505625 -0.02835937 2.28125 -0.04296875 C4.80868352 0.21956396 6.35758235 0.83246662 8.5 2.1875 C11.66528847 7.04847872 11.5 8.97063192 11.5 15.1875 C6.22 15.1875 0.94 15.1875 -4.5 15.1875 C-2.83045181 18.41154978 -2.83045181 18.41154978 0.125 18.875 C0.90875 18.978125 1.6925 19.08125 2.5 19.1875 C2.83 18.1975 3.16 17.2075 3.5 16.1875 C5.875 16.4375 5.875 16.4375 8.5 17.1875 C9.8125 19.25 9.8125 19.25 10.5 21.1875 C6.61205314 24.83981372 3.85757865 26.09669358 -1.5 26.1875 C-4.37223644 25.56287817 -7.05194648 24.84142884 -9.5 23.1875 C-10.2265625 21.07421875 -10.2265625 21.07421875 -10.5 19.1875 C-11.16 19.1875 -11.82 19.1875 -12.5 19.1875 C-13.62355908 13.75881852 -14.23757562 9.53877032 -11.3125 4.625 C-9.86566854 2.45256727 -9.06461881 1.39704925 -6.60546875 0.484375 C-4.38129679 0.17076263 -2.24655148 0.01923417 0 0 Z M-3.5 6.1875 C-3.83 7.1775 -4.16 8.1675 -4.5 9.1875 C-1.86 9.1875 0.78 9.1875 3.5 9.1875 C2.84 8.1975 2.18 7.2075 1.5 6.1875 C-1.08380177 5.93719023 -1.08380177 5.93719023 -3.5 6.1875 Z " fill="#7F8084" transform="translate(532.5,375.8125)"/>
<path d="M0 0 C3.45027939 4.35824765 4.30040741 6.89411107 3.75 12.4375 C3.52281543 13.96190847 3.28053484 15.48450199 3 17 C2.34 17 1.68 17 1 17 C0.86078125 17.93199219 0.86078125 17.93199219 0.71875 18.8828125 C0 21 0 21 -3.5 22.875 C-8.33351173 24.45435213 -12.34766106 23.97613635 -17 22 C-20.19985305 19.4001194 -21.69883332 17.90350005 -23 14 C-23.58958195 8.10418052 -22.99955707 5.11051097 -19.484375 0.34765625 C-14.99570298 -3.72758545 -4.78682919 -3.14563061 0 0 Z M-13.9375 6.125 C-15.24650629 8.07582485 -15.24650629 8.07582485 -15 11 C-14.25799346 14.1908205 -14.25799346 14.1908205 -11.4375 15.875 C-10.633125 16.24625 -9.82875 16.6175 -9 17 C-6.333492 14.83411155 -6.333492 14.83411155 -4 12 C-4.13136656 9.175619 -4.74737631 7.50524739 -6 5 C-10.14984647 4.67768793 -10.14984647 4.67768793 -13.9375 6.125 Z " fill="#7E8084" transform="translate(716,378)"/>
<path d="M0 0 C2.55963546 4.1441717 2.15981417 8.2854819 2 13 C-2.95 13.33 -7.9 13.66 -13 14 C-11.10244856 16.34973818 -11.10244856 16.34973818 -7.875 16.125 C-6.92625 16.08375 -5.9775 16.0425 -5 16 C-5 15.34 -5 14.68 -5 14 C-3.35 14.33 -1.7 14.66 0 15 C0.33 16.65 0.66 18.3 1 20 C-2.44898681 23.17306787 -5.36281224 23.76421079 -10 24 C-14.44977478 23.38623796 -17.10285993 22.37899259 -19.9375 18.9375 C-22.57591963 14.74398535 -22.9468144 10.82174001 -22 6 C-20.30111384 2.53930597 -19.03753581 0.63404966 -15.75 -1.375 C-10.44434909 -2.58082975 -4.77739226 -2.95074228 0 0 Z M-12 4 C-12.99 5.485 -12.99 5.485 -14 7 C-11.03 7 -8.06 7 -5 7 C-5 6.34 -5 5.68 -5 5 C-7.31 4.67 -9.62 4.34 -12 4 Z " fill="#7E8083" transform="translate(765,378)"/>
<path d="M0 0 C3.30222981 2.03961253 4.43814302 4.93878603 6.125 8.3125 C6.24786008 13.27078167 5.90259835 17.18144786 3.0625 21.3125 C-1.82051633 24.63710686 -5.70459198 25.64357919 -11.5625 24.75 C-15.28296493 23.13545861 -17.29677662 21.42153408 -19.875 18.3125 C-21.12755236 14.55484292 -21.64215326 11.19798919 -20.875 7.3125 C-15.91881853 -0.89029402 -8.99174178 -2.15019912 0 0 Z M-11.8125 7.4375 C-13.12150629 9.38832485 -13.12150629 9.38832485 -12.875 12.3125 C-12.1124996 15.45114805 -12.1124996 15.45114805 -9.5625 17.3125 C-6.99011084 18.52364852 -6.99011084 18.52364852 -4.625 17.9375 C-2.53996611 16.29594717 -2.53996611 16.29594717 -2 12.875 C-1.52437195 9.20627824 -1.52437195 9.20627824 -3.875 6.3125 C-7.03228506 5.90944233 -9.02730863 5.82029211 -11.8125 7.4375 Z " fill="#7F8084" transform="translate(468.875,376.6875)"/>
<path d="M0 0 C2.2926749 1.94529992 3.20672374 2.87147985 4.0625 5.75 C4.0625 8.39 4.0625 11.03 4.0625 13.75 C-3.8575 14.245 -3.8575 14.245 -11.9375 14.75 C-11.9375 15.41 -11.9375 16.07 -11.9375 16.75 C-8.6195713 16.90432227 -6.37028711 16.94578464 -3.3125 15.5625 C-2.52875 15.294375 -1.745 15.02625 -0.9375 14.75 C1.375 16.125 1.375 16.125 3.0625 17.75 C2.04967538 21.01354601 0.9698405 21.80673031 -2 23.625 C-6.57417764 25.35344708 -10.51844638 24.66629989 -14.9375 22.75 C-18.48703233 19.92486202 -19.66787628 18.53527551 -20.33984375 14.0859375 C-20.48039835 9.91427705 -20.26508373 6.5948212 -18.75 2.6875 C-13.95445828 -2.43876873 -6.2075413 -2.64150694 0 0 Z M-9.9375 4.75 C-10.9275 5.74 -11.9175 6.73 -12.9375 7.75 C-9.9675 7.75 -6.9975 7.75 -3.9375 7.75 C-3.9375 7.09 -3.9375 6.43 -3.9375 5.75 C-6.78828091 4.98283149 -6.78828091 4.98283149 -9.9375 4.75 Z " fill="#7D7F82" transform="translate(441.9375,377.25)"/>
<path d="M0 0 C0.99052833 2.87116455 1.11805587 5.52773085 1.09765625 8.546875 C1.09443359 9.39121094 1.09121094 10.23554688 1.08789062 11.10546875 C1.07951172 11.97816406 1.07113281 12.85085938 1.0625 13.75 C1.05798828 14.63816406 1.05347656 15.52632813 1.04882812 16.44140625 C1.037074 18.62767329 1.02064249 20.81380179 1 23 C-0.25425781 22.98710937 -1.50851562 22.97421875 -2.80078125 22.9609375 C-5.4517233 22.93369246 -7.55253637 23.10834046 -10.1875 23.625 C-14.20990328 24.16132044 -16.4974136 22.98445316 -19.8125 20.8125 C-21.74117087 17.8687392 -21.3597051 15.41719841 -21 12 C-20.0625 9.6875 -20.0625 9.6875 -18 8 C-15.66443451 7.30143447 -13.36268252 6.81036736 -10.9609375 6.39453125 C-9.00465786 6.18923914 -9.00465786 6.18923914 -8 5 C-8.62648438 5.09539062 -9.25296875 5.19078125 -9.8984375 5.2890625 C-10.71570313 5.39992188 -11.53296875 5.51078125 -12.375 5.625 C-13.18710937 5.74101562 -13.99921875 5.85703125 -14.8359375 5.9765625 C-15.55007813 5.98429687 -16.26421875 5.99203125 -17 6 C-17.66 5.34 -18.32 4.68 -19 4 C-18.625 1.375 -18.625 1.375 -18 -1 C-12.27888748 -2.62163053 -5.21792506 -3.26120317 0 0 Z M-13 14 C-13 14.99 -13 15.98 -13 17 C-10.58354218 17.16687448 -10.58354218 17.16687448 -8 17 C-7.34 16.34 -6.68 15.68 -6 15 C-6 14.01 -6 13.02 -6 12 C-10.04622502 11.63019987 -10.04622502 11.63019987 -13 14 Z " fill="#7F8185" transform="translate(916,378)"/>
<path d="M0 0 C2.64 0 5.28 0 8 0 C8.33 4.95 8.66 9.9 9 15 C10.32 15.33 11.64 15.66 13 16 C15.03219488 12.59648662 15.36891039 9.6767073 15.625 5.75 C15.69976563 4.67234375 15.77453125 3.5946875 15.8515625 2.484375 C15.90054688 1.66453125 15.94953125 0.8446875 16 0 C17.98 0 19.96 0 22 0 C22 7.92 22 15.84 22 24 C19.36 24 16.72 24 14 24 C12.4221875 24.309375 12.4221875 24.309375 10.8125 24.625 C7.44224528 25.0743673 5.9147838 24.73311469 3 23 C-0.68629101 18.47591558 -0.35818697 14.23263833 -0.1875 8.6875 C-0.17396484 7.85154297 -0.16042969 7.01558594 -0.14648438 6.15429688 C-0.11131217 4.10258502 -0.05751048 2.05120725 0 0 Z " fill="#6D6F73" transform="translate(619,377)"/>
<path d="M0 0 C-0.1875 1.875 -0.1875 1.875 -1 4 C-3.89111788 5.52164099 -5.71823412 6 -9 6 C-4.545 7.98 -4.545 7.98 0 10 C0.390625 17.51953125 0.390625 17.51953125 0 20 C-3.33597555 23.27112937 -6.38247576 23.76521063 -11 24 C-14.8125 23.3125 -14.8125 23.3125 -18 22 C-19.4375 19.875 -19.4375 19.875 -20 18 C-19.34 18 -18.68 18 -18 18 C-17.34 16.68 -16.68 15.36 -16 14 C-13.03 14.99 -10.06 15.98 -7 17 C-9.7425957 14.2574043 -10.74411385 13.49792802 -14.1875 12.3125 C-14.90292969 12.06113281 -15.61835937 11.80976563 -16.35546875 11.55078125 C-16.89816406 11.36902344 -17.44085937 11.18726563 -18 11 C-18.901316 6.40328841 -19.53629129 3.10637637 -17 -1 C-11.93885846 -3.53057077 -4.87981771 -2.43990885 0 0 Z " fill="#838488" transform="translate(741,378)"/>
<path d="M0 0 C2.31 0 4.62 0 7 0 C7 2.31 7 4.62 7 7 C8.98 7 10.96 7 13 7 C13 8.98 13 10.96 13 13 C11.02 13 9.04 13 7 13 C7.33 16.63 7.66 20.26 8 24 C9.65 24 11.3 24 13 24 C13 26.31 13 28.62 13 31 C8.31667771 32.11507674 5.44276449 31.85976188 1 30 C0 29 0 29 -0.09765625 25.18359375 C-0.09098089 23.60153318 -0.07901875 22.01948841 -0.0625 20.4375 C-0.05798828 19.63119141 -0.05347656 18.82488281 -0.04882812 17.99414062 C-0.03700518 15.99606244 -0.01906914 13.99802217 0 12 C-1.32 12 -2.64 12 -4 12 C-4 10.35 -4 8.7 -4 7 C-2.68 7 -1.36 7 0 7 C0 4.69 0 2.38 0 0 Z " fill="#75777B" transform="translate(947,370)"/>
<path d="M0 0 C2.64 0 5.28 0 8 0 C8 12.54 8 25.08 8 38 C5.36 38 2.72 38 0 38 C0 25.46 0 12.92 0 0 Z " fill="#848589" transform="translate(508,363)"/>
<path d="M0 0 C0.81973801 -0.00014603 1.63947601 -0.00029205 2.48405457 -0.0004425 C5.19488161 0.00025443 7.90564003 0.00803661 10.61645508 0.01586914 C12.49546776 0.0177341 14.37448092 0.01915763 16.25349426 0.02015686 C21.20023947 0.02397592 26.14695535 0.03380101 31.09368896 0.04486084 C36.14098717 0.05508809 41.18829012 0.0596573 46.2355957 0.06469727 C56.13990547 0.0754238 66.04419346 0.09249292 75.94848633 0.11352539 C75.94848633 0.44352539 75.94848633 0.77352539 75.94848633 1.11352539 C74.40539543 1.12232475 74.40539543 1.12232475 72.83113098 1.13130188 C63.13459586 1.188524 53.43828511 1.261283 43.74197865 1.3492403 C38.75703868 1.39396078 33.77218075 1.43321327 28.78710938 1.45996094 C23.97589574 1.48597709 19.16499754 1.52636766 14.35397911 1.57671165 C12.5188254 1.59339177 10.68361711 1.60489892 8.84839821 1.6111393 C6.27701401 1.62076795 3.70643891 1.648812 1.13525391 1.68115234 C-0.00194847 1.67899971 -0.00194847 1.67899971 -1.16212463 1.67680359 C-8.05019049 1.79926203 -11.59214356 4.36820589 -16.30151367 9.11352539 C-16.98729492 9.79415039 -17.67307617 10.47477539 -18.37963867 11.17602539 C-25.16291983 19.03702411 -21.7638875 34.6352449 -22.05151367 42.11352539 C19.52848633 41.78352539 61.10848633 41.45352539 103.94848633 41.11352539 C103.94848633 41.77352539 103.94848633 42.43352539 103.94848633 43.11352539 C62.03848633 43.11352539 20.12848633 43.11352539 -23.05151367 43.11352539 C-23.05151367 15.11352539 -23.05151367 15.11352539 -18.05151367 6.11352539 C-11.90786155 1.02912363 -7.74251187 -0.03593303 0 0 Z " fill="#C4C5C7" transform="translate(416.051513671875,196.886474609375)"/>
<path d="M0 0 C0 2.31 0 4.62 0 7 C-2.31 7.66 -4.62 8.32 -7 9 C-7.33 14.28 -7.66 19.56 -8 25 C-10.31 25 -12.62 25 -15 25 C-15 17.08 -15 9.16 -15 1 C-4.875 -0.125 -4.875 -0.125 0 0 Z " fill="#747579" transform="translate(662,376)"/>
<path d="M0 0 C2.64 0 5.28 0 8 0 C8 7.92 8 15.84 8 24 C5.36 24 2.72 24 0 24 C0 16.08 0 8.16 0 0 Z " fill="#88898D" transform="translate(813,377)"/>
<path d="M0 0 C3.0625 0.1875 3.0625 0.1875 5.0625 2.1875 C4.49431818 7.75568182 4.49431818 7.75568182 3.0625 9.1875 C0.0625 9.3125 0.0625 9.3125 -2.9375 9.1875 C-3.9375 8.1875 -3.9375 8.1875 -4.0625 4.6875 C-3.90398896 0.24919078 -3.90398896 0.24919078 0 0 Z " fill="#919295" transform="translate(551.9375,391.8125)"/>
<path d="M0 0 C0.94875 0.04125 1.8975 0.0825 2.875 0.125 C3.5 3.5 3.5 3.5 3.875 7.125 C1.875 9.125 1.875 9.125 -0.625 9.375 C-3.125 9.125 -3.125 9.125 -5.125 7.125 C-5.375 4.625 -5.375 4.625 -5.125 2.125 C-3.125 0.125 -3.125 0.125 0 0 Z " fill="#8F9194" transform="translate(968.125,391.875)"/>
<path d="M0 0 C2.875 -0.125 2.875 -0.125 6 0 C6.66 0.66 7.32 1.32 8 2 C7.625 5.125 7.625 5.125 7 8 C4.75 8.75 4.75 8.75 2 9 C-0.3125 7.0625 -0.3125 7.0625 -2 5 C-1.34 3.35 -0.68 1.7 0 0 Z " fill="#CFD0D1" transform="translate(814,365)"/>
<path d="M0 0 C2.10209857 3.15314785 2.2434761 3.86103081 2.1953125 7.44921875 C2.18564453 8.72055664 2.18564453 8.72055664 2.17578125 10.01757812 C2.15902344 10.89865234 2.14226563 11.77972656 2.125 12.6875 C2.11597656 13.58017578 2.10695313 14.47285156 2.09765625 15.39257812 C2.07409748 17.59532314 2.04120329 19.79752588 2 22 C-0.64 22 -3.28 22 -6 22 C-6 16.06 -6 10.12 -6 4 C-5.01 4.495 -5.01 4.495 -4 5 C-4 9.95 -4 14.9 -4 20 C-2.35 20 -0.7 20 1 20 C0.67 13.4 0.34 6.8 0 0 Z " fill="#CBCBCD" transform="translate(860,379)"/>
<path d="M0 0 C3 0.125 3 0.125 4 1.125 C4.23529412 6.65441176 4.23529412 6.65441176 3 9.125 C1.00045254 9.16754356 -1.00041636 9.16580783 -3 9.125 C-4 8.125 -4 8.125 -4.125 4.625 C-3.9657228 0.16523845 -3.9657228 0.16523845 0 0 Z " fill="#87898C" transform="translate(776,391.875)"/>
<path d="M0 0 C1.485 0.99 1.485 0.99 3 2 C5.51584891 2.24150773 5.51584891 2.24150773 8.1875 2.125 C9.53908203 2.09792969 9.53908203 2.09792969 10.91796875 2.0703125 C11.94857422 2.03550781 11.94857422 2.03550781 13 2 C13 1.34 13 0.68 13 0 C13.66 0 14.32 0 15 0 C15 0.66 15 1.32 15 2 C16.65 2 18.3 2 20 2 C20 2.66 20 3.32 20 4 C18.80375 3.979375 17.6075 3.95875 16.375 3.9375 C13.67740808 3.92322703 11.48706421 4.10057564 8.8125 4.625 C5.51546332 5.06460489 3.87224506 4.64128289 1 3 C0.67 2.01 0.34 1.02 0 0 Z " fill="#D1D1D2" transform="translate(621,397)"/>
<path d="M0 0 C1.67542976 0.28604898 3.34385343 0.61781233 5 1 C5 2.65 5 4.3 5 6 C3.02 6 1.04 6 -1 6 C-1.042721 4.33388095 -1.04063832 2.66617115 -1 1 C-0.67 0.67 -0.34 0.34 0 0 Z " fill="#5A5C61" transform="translate(815,366)"/>
<path d="M0 0 C1.32 0 2.64 0 4 0 C4 1.65 4 3.3 4 5 C5.32 5.33 6.64 5.66 8 6 C7.113125 5.979375 6.22625 5.95875 5.3125 5.9375 C2.37830369 5.99286219 -0.15493696 6.3305734 -3 7 C-1.68 6.01 -0.36 5.02 1 4 C0.67 2.68 0.34 1.36 0 0 Z " fill="#D4D5D6" transform="translate(939,377)"/>
<path d="M0 0 C0.66 0.33 1.32 0.66 2 1 C-0.64 3.64 -3.28 6.28 -6 9 C-6.33 8.34 -6.66 7.68 -7 7 C-3.375 1.125 -3.375 1.125 0 0 Z " fill="#9B9C9F" transform="translate(403,200)"/>
<path d="M0 0 C-1.15173355 2.46800047 -2.04783565 4.04783565 -4 6 C-4.99 6 -5.98 6 -7 6 C-5.52522876 2.59668175 -4.14385429 0 0 0 Z " fill="#A7A8AB" transform="translate(538,200)"/>
<path d="M0 0 C0.99 0 1.98 0 3 0 C1.95125002 2.62187494 1.35068687 3.79371361 -1.125 5.25 C-1.74375 5.4975 -2.3625 5.745 -3 6 C-1.125 1.125 -1.125 1.125 0 0 Z " fill="#AEAFB2" transform="translate(925,377)"/>
<path d="M0 0 C0.99 0 1.98 0 3 0 C1.60667426 3.36720387 0.0210714 4.9859524 -3 7 C-2.38722388 4.03824877 -1.74627478 2.61941217 0 0 Z " fill="#959699" transform="translate(698,377)"/>
<path d="M0 0 C0.99 0 1.98 0 3 0 C1.95125002 2.62187494 1.35068687 3.79371361 -1.125 5.25 C-1.74375 5.4975 -2.3625 5.745 -3 6 C-1.125 1.125 -1.125 1.125 0 0 Z " fill="#9E9FA2" transform="translate(524,377)"/>
</svg>
