<?xml version="1.0" encoding="UTF-8"?>
<svg version="1.1" xmlns="http://www.w3.org/2000/svg" width="3334" height="3334">
<path d="M0 0 C1.26577881 0.27287842 1.26577881 0.27287842 2.55712891 0.55126953 C21.56780982 4.76958243 39.90055582 11.72699208 57 21 C57.96897217 21.51167725 57.96897217 21.51167725 58.95751953 22.03369141 C87.20966463 36.96289533 112.03724681 58.28199346 131 84 C131.42619629 84.56541504 131.85239258 85.13083008 132.29150391 85.71337891 C139.05725613 94.69086398 144.81829832 104.02680472 150 114 C150.40750488 114.7822998 150.81500977 115.56459961 151.23486328 116.37060547 C162.13355221 137.57671163 168.92759622 159.54121201 173 183 C173.19698486 184.1122998 173.19698486 184.1122998 173.39794922 185.24707031 C175.42243547 197.12140624 175.20364797 208.99593257 175 221 C175.55266037 221.17400833 176.10532074 221.34801666 176.67472839 221.52729797 C182.07022245 223.26939814 187.21230226 225.30634364 192.36328125 227.66796875 C193.13972992 228.01941452 193.91617859 228.37086029 194.71615601 228.73295593 C196.38189909 229.4874386 198.04675399 230.24388481 199.71078491 231.00213623 C203.28417714 232.63020446 206.86210405 234.2481921 210.43983459 235.86669922 C212.28227738 236.70022289 214.12451056 237.53421004 215.96653748 238.36865234 C224.52294275 242.243172 233.10132275 246.06700991 241.6875 249.875 C243.14918745 250.52380492 244.61085719 251.17264973 246.07250977 251.8215332 C249.89265979 253.51712655 253.71321821 255.2117978 257.53387451 256.90625 C265.77343817 260.56057449 274.01219796 264.21670604 282.25 267.875 C283.67552689 268.50794983 283.67552689 268.50794983 285.12985229 269.15368652 C299.34720917 275.46795822 313.53843606 281.8382525 327.71716309 288.2387085 C341.12065209 294.28610631 354.57126901 300.22033557 368.04364014 306.11245728 C384.61937762 313.36426762 401.1272297 320.76250627 417.6171875 328.20703125 C418.35721008 328.54082794 419.09723267 328.87462463 419.85968018 329.21853638 C423.07851661 330.6721411 426.2918684 332.13509407 429.49707031 333.61865234 C430.49061523 334.07836426 431.48416016 334.53807617 432.5078125 335.01171875 C433.34199707 335.40190186 434.17618164 335.79208496 435.03564453 336.1940918 C436.9545139 337.12652131 436.9545139 337.12652131 439 337 C440.22777697 335.37103743 440.22777697 335.37103743 441.3984375 333.22265625 C441.871604 332.40748535 442.34477051 331.59231445 442.83227539 330.75244141 C443.34137451 329.86476074 443.85047363 328.97708008 444.375 328.0625 C452.7413637 313.8096343 462.23093983 300.46473122 472.65966797 287.64892578 C473.93053676 286.08545623 475.18642776 284.50984674 476.44140625 282.93359375 C483.43792214 274.34203802 491.25497755 266.53279569 499.0625 258.6875 C499.61712921 258.12760376 500.17175842 257.56770752 500.74319458 256.99084473 C507.83684677 249.84521719 515.08337379 243.23677461 523 237 C524.09995946 236.0952408 525.19802869 235.18817101 526.29296875 234.27734375 C556.89092834 209.54296076 591.91886058 190.8801987 629 178 C629.82419434 177.71286133 630.64838867 177.42572266 631.49755859 177.12988281 C648.9829829 171.1263969 667.03732037 166.86141372 685.25 163.75 C686.12164795 163.59901855 686.9932959 163.44803711 687.89135742 163.29248047 C705.54535039 160.44666643 723.20651112 159.62101997 741.0625 159.6875 C742.08670044 159.68932281 743.11090088 159.69114563 744.1661377 159.69302368 C760.61770565 159.74211804 776.72372098 160.41826277 793 163 C794.65854004 163.25740967 794.65854004 163.25740967 796.35058594 163.52001953 C829.33524145 168.78533045 860.87461301 178.59511924 891 193 C891.81243164 193.38236816 892.62486328 193.76473633 893.46191406 194.15869141 C922.52234485 207.88897359 949.20039206 226.30620598 972.85546875 248.0390625 C974.80634883 249.82292734 976.79748048 251.53952794 978.8125 253.25 C982.54138907 256.50140937 986.05740463 259.94887923 989.5625 263.4375 C990.09270752 263.96311523 990.62291504 264.48873047 991.16918945 265.03027344 C995.31058046 269.18761496 999.18214077 273.54538424 1003 278 C1003.54100342 278.62898193 1004.08200684 279.25796387 1004.6394043 279.90600586 C1050.37827016 333.47435851 1078.84758229 399.91943016 1086 470 C1086.0942627 470.83466797 1086.18852539 471.66933594 1086.28564453 472.52929688 C1090.97398971 519.26178224 1085.46006685 567.41546745 1071 612 C1070.596604 613.2674707 1070.596604 613.2674707 1070.18505859 614.56054688 C1059.02848749 649.30627168 1041.762487 681.77457664 1020 711 C1019.60635254 711.53254395 1019.21270508 712.06508789 1018.80712891 712.61376953 C1015.9458753 716.46973297 1013.00704612 720.25669259 1010 724 C1009.57009766 724.5357666 1009.14019531 725.0715332 1008.69726562 725.62353516 C1001.15178798 734.90667572 992.80404907 743.40326001 984.375 751.875 C983.84615204 752.40911499 983.31730408 752.94322998 982.77243042 753.49353027 C975.8505248 760.46866791 968.71486804 766.89297533 961 773 C959.79121562 774.00022543 958.58506271 775.0036488 957.3828125 776.01171875 C889.40105699 832.20722739 797.78478763 857.5421918 710.49438477 850.0546875 C640.96423953 843.20453645 572.67030122 816.80798934 519.79272461 770.52172852 C517.50819383 768.58253741 515.16010227 766.72759156 512.8203125 764.85546875 C506.79001263 759.93613468 501.28833212 754.58490192 495.8125 749.0625 C494.85124236 748.10839046 493.88965494 747.15461306 492.92773438 746.20117188 C492.02990234 745.30076172 491.13207031 744.40035156 490.20703125 743.47265625 C489.3972583 742.66062744 488.58748535 741.84859863 487.75317383 741.01196289 C486 739 486 739 486 737 C481.48768434 739.87889823 477.46220075 743.04110132 473.4375 746.5625 C472.20082558 747.63316459 470.96383925 748.70346901 469.7265625 749.7734375 C469.10555664 750.31194336 468.48455078 750.85044922 467.84472656 751.40527344 C465.01590171 753.85073187 462.16696273 756.27205347 459.3125 758.6875 C458.7747998 759.1427002 458.23709961 759.59790039 457.68310547 760.06689453 C454.3371073 762.89170284 450.96057062 765.67532563 447.5625 768.4375 C443.31607618 771.89274151 439.14703706 775.42697834 435 779 C429.98680512 783.31928956 424.9146268 787.55097119 419.77734375 791.72265625 C416.65603733 794.28203972 413.57546576 796.88589916 410.5 799.5 C406.55349519 802.85447127 402.58357928 806.17221829 398.5625 809.4375 C393.69870975 813.39508188 388.94118769 817.46542446 384.19165039 821.55834961 C379.8019965 825.33334391 375.33885229 829.00728461 370.84375 832.65625 C367.52313406 835.39302138 364.25956291 838.19106385 361 841 C355.98408311 845.32172863 350.90824701 849.55479196 345.76953125 853.73046875 C340.45558334 858.08505794 335.23473234 862.55078435 330 867 C322.98485196 872.96246463 315.94352709 878.88077939 308.8046875 884.6953125 C302.87689449 889.56634018 297.04582806 894.55400227 291.20507812 899.52880859 C290.00620596 900.54991473 288.80683337 901.57043364 287.60693359 902.59033203 C286.47846519 903.54954608 285.35112824 904.51009331 284.22509766 905.47216797 C281.87880659 907.46558872 279.56606368 909.28929088 277 911 C277.57702099 914.49316093 278.46600484 917.26064979 280.1171875 920.38671875 C280.55353516 921.22847656 280.98988281 922.07023437 281.43945312 922.9375 C282.15004883 924.29875 282.15004883 924.29875 282.875 925.6875 C317.09881302 992.87920629 333.97393662 1067.86350575 336 1143 C336.03504639 1144.27085449 336.03504639 1144.27085449 336.07080078 1145.56738281 C337.16937134 1192.88900215 330.84521843 1240.24592087 319 1286 C333.34842047 1291.50375681 347.84720425 1296.58529684 362.33849716 1301.69688416 C365.9198308 1302.9605282 369.50054341 1304.22592952 373.08129883 1305.49121094 C377.55641255 1307.07241589 382.03157736 1308.65347548 386.50700378 1310.23379517 C396.61575764 1313.80337585 406.72264305 1317.3781989 416.828125 1320.95703125 C418.20172966 1321.44345066 419.57533602 1321.92986526 420.94894409 1322.41627502 C421.62629168 1322.65613223 422.30363926 1322.89598944 423.00151253 1323.14311504 C424.01469205 1323.50189346 424.01469205 1323.50189346 425.04833984 1323.86791992 C425.72142118 1324.10626714 426.39450253 1324.34461435 427.08798027 1324.59018421 C444.65999248 1330.81257563 462.23256027 1337.03314217 479.8203125 1343.2109375 C481.00135056 1343.62587463 482.18238861 1344.04081177 483.3992157 1344.46832275 C489.08778613 1346.46657524 494.77697999 1348.46302739 500.46704102 1350.45703125 C510.40368315 1353.94347383 520.3250831 1357.46266179 530.20703125 1361.1015625 C531.49704796 1361.57500595 531.49704796 1361.57500595 532.81312561 1362.05801392 C536.74778477 1363.50273419 540.67808273 1364.95732032 544.60083008 1366.43408203 C545.94467452 1366.93041853 547.28865907 1367.4263759 548.6328125 1367.921875 C549.77637207 1368.35081055 550.91993164 1368.77974609 552.09814453 1369.22167969 C554.9940956 1369.99841635 556.30283968 1370.25022218 559 1369 C560.91176691 1366.29289581 560.91176691 1366.29289581 562.625 1362.875 C574.174459 1341.62936092 589.33628601 1321.23039901 605.734375 1303.4765625 C606.97723379 1302.11798927 608.2124091 1300.75163739 609.40917969 1299.35229492 C614.40226694 1293.51825875 619.75093697 1288.06291552 625.17773438 1282.63696289 C626.73860327 1281.07391266 628.29127888 1279.50302635 629.84375 1277.93164062 C636.23806066 1271.50194773 642.88871673 1265.64244102 650 1260 C651.02769172 1259.1367804 652.05111075 1258.26839115 653.06640625 1257.390625 C708.38767792 1209.94765649 779.37877794 1181.34399261 851 1171 C852.12374023 1170.83483887 853.24748047 1170.66967773 854.40527344 1170.49951172 C888.91136986 1165.66225523 925.54302813 1165.93570459 960 1171 C961.18819336 1171.17160645 962.37638672 1171.34321289 963.60058594 1171.52001953 C1039.47719835 1182.80769958 1110.32101819 1215.4372562 1168 1266 C1168.88945312 1266.77730469 1169.77890625 1267.55460937 1170.6953125 1268.35546875 C1177.23473899 1274.21486941 1183.49062274 1280.36453612 1189.72268677 1286.54745483 C1191.1444053 1287.95726623 1192.57006788 1289.36309679 1193.99584961 1290.76879883 C1199.35700511 1296.12325348 1204.31289004 1301.64048117 1209.0456543 1307.55761719 C1210.61459037 1309.51834629 1212.20805256 1311.4329797 1213.86328125 1313.3203125 C1220.68762545 1321.13511176 1226.7231038 1329.36257163 1232.57861328 1337.92285156 C1233.89618428 1339.84828854 1235.22639571 1341.76436021 1236.55859375 1343.6796875 C1243.7066322 1354.06572627 1249.89786071 1364.97564744 1256 1376 C1256.43844238 1376.78358887 1256.87688477 1377.56717773 1257.32861328 1378.37451172 C1264.98434344 1392.11594349 1271.13749644 1406.41443046 1277 1421 C1277.51240234 1422.2679541 1277.51240234 1422.2679541 1278.03515625 1423.56152344 C1315.41855972 1517.13734404 1312.3623617 1628.44018591 1272.93969727 1720.79541016 C1270.70240724 1725.89981054 1268.37317386 1730.95753284 1266 1736 C1265.56606934 1736.92828613 1265.13213867 1737.85657227 1264.68505859 1738.81298828 C1254.51807577 1760.3743332 1242.27359319 1780.90410947 1228 1800 C1227.55817383 1800.59200195 1227.11634766 1801.18400391 1226.66113281 1801.79394531 C1218.681571 1812.42741061 1210.32482112 1822.68624379 1201.31640625 1832.46484375 C1199.43270677 1834.52643053 1197.61363292 1836.61720066 1195.8125 1838.75 C1187.6367633 1848.1520972 1178.53679333 1856.99120118 1169 1865 C1167.98948211 1865.88381475 1166.98051704 1866.76940641 1165.97265625 1867.65625 C1140.12488391 1890.30144573 1110.88442481 1909.22887269 1079.90966797 1924.07763672 C1078.01465806 1924.99292021 1076.13412358 1925.93366839 1074.25390625 1926.87890625 C1032.07771117 1947.767834 984.73609719 1959.06962702 938 1963 C936.72640625 1963.11214844 935.4528125 1963.22429687 934.140625 1963.33984375 C870.6943527 1967.99002234 806.4056232 1957.04159672 748 1932 C746.99195312 1931.56816406 745.98390625 1931.13632813 744.9453125 1930.69140625 C729.72367053 1924.09797008 715.25131061 1916.47993855 701 1908 C699.87126465 1907.32904297 699.87126465 1907.32904297 698.71972656 1906.64453125 C664.54821124 1886.16367836 631.73217305 1859.51179915 606 1829 C605.22785156 1828.11699219 604.45570312 1827.23398438 603.66015625 1826.32421875 C555.48382767 1770.91872315 523.99105365 1702.33804914 512.1875 1630 C511.9925293 1628.80979248 511.79755859 1627.61958496 511.59667969 1626.39331055 C508.67074491 1607.47149162 507.64984284 1588.74163378 507.68432617 1569.60083008 C507.68747531 1565.96599978 507.66395909 1562.3319956 507.63867188 1558.69726562 C507.57939275 1536.93778825 509.41754742 1515.38678382 513.5 1494 C513.69980469 1492.89140625 513.89960937 1491.7828125 514.10546875 1490.640625 C515.44953244 1483.34672521 517.13492275 1476.17676436 519 1469 C518.33708954 1468.82852951 517.67417908 1468.65705902 516.99118042 1468.48039246 C510.10482034 1466.65663568 503.4047086 1464.50108198 496.6953125 1462.11328125 C495.63582901 1461.73973007 494.57634552 1461.36617889 493.48475647 1460.98130798 C490.03014996 1459.7621671 486.57756316 1458.53741432 483.125 1457.3125 C480.68280457 1456.44924434 478.24050158 1455.5862929 475.7980957 1454.72363281 C468.52999302 1452.15491619 461.26456486 1449.57870268 454 1447 C452.99769348 1446.64427917 451.99538696 1446.28855835 450.96270752 1445.92205811 C442.91131057 1443.06413996 434.86132704 1440.20225924 426.81274414 1437.33642578 C389.0689398 1423.89803373 351.29090371 1410.55531416 313.5 1397.25 C311.78697189 1396.64652237 311.78697189 1396.64652237 310.03933716 1396.03085327 C306.82859722 1394.89995363 303.61748993 1393.770104 300.40625 1392.640625 C299.47799911 1392.31357071 298.54974823 1391.98651642 297.59336853 1391.64955139 C292.07970749 1389.71208368 286.55051659 1387.82924838 281 1386 C280.51611061 1386.95891144 280.51611061 1386.95891144 280.02244568 1387.93719482 C260.60250139 1426.35590882 236.37066745 1462.89921339 207.16015625 1494.62890625 C205.34274747 1496.62378352 203.57633038 1498.64783959 201.81396484 1500.69091797 C198.29168509 1504.7192254 194.60533133 1508.53991453 190.81640625 1512.31640625 C190.15720688 1512.97656235 189.49800751 1513.63671844 188.8188324 1514.31687927 C187.43603165 1515.70035506 186.05198924 1517.08259083 184.66674805 1518.46362305 C182.56769657 1520.55731669 180.4740406 1522.65629874 178.38085938 1524.75585938 C177.02636214 1526.10969571 175.67155469 1527.46322175 174.31640625 1528.81640625 C173.70156876 1529.43326797 173.08673126 1530.0501297 172.45326233 1530.6856842 C168.12988123 1534.98625486 163.62553329 1539.02780957 159 1543 C158.22530869 1543.67400093 158.22530869 1543.67400093 157.43496704 1544.36161804 C148.27193558 1552.32708946 138.72786821 1559.7405569 129 1567 C128.28714844 1567.53383301 127.57429688 1568.06766602 126.83984375 1568.61767578 C47.76228426 1627.58499385 -48.68316851 1661.9836171 -160.890625 1668.203125 C-162.18175705 1668.21013931 -163.4728891 1668.21715363 -164.80314636 1668.22438049 C-168.95210254 1668.24379824 -173.10100297 1668.24881497 -177.25 1668.25 C-178.30999647 1668.25066278 -178.30999647 1668.25066278 -179.39140701 1668.25133896 C-200.7406347 1668.25834227 -221.81133424 1667.93532648 -243 1665 C-244.90410645 1664.75056641 -244.90410645 1664.75056641 -246.84667969 1664.49609375 C-328.04108395 1653.67818645 -407.30389196 1623.86405852 -474 1576 C-474.94214355 1575.32590088 -474.94214355 1575.32590088 -475.90332031 1574.63818359 C-492.47142931 1562.74172428 -508.38046321 1550.04314447 -523.46069336 1536.30395508 C-525.06016573 1534.85272724 -526.66629759 1533.40877317 -528.28173828 1531.9753418 C-534.63134238 1526.33454605 -540.69582688 1520.4553186 -546.6875 1514.4375 C-547.58533203 1513.54353516 -548.48316406 1512.64957031 -549.40820312 1511.72851562 C-554.48262213 1506.64666157 -559.3346675 1501.45746331 -564 1496 C-565.0213583 1494.84321297 -566.04475922 1493.68822584 -567.0703125 1492.53515625 C-574.55624324 1484.05263898 -581.56637096 1475.2957242 -588.33203125 1466.22998047 C-590.0230505 1463.96918277 -591.72962966 1461.72074178 -593.4375 1459.47265625 C-611.93834967 1434.94634799 -627.15564346 1408.37574226 -641 1381 C-641.4640625 1380.08798828 -641.928125 1379.17597656 -642.40625 1378.23632812 C-677.08847197 1309.61085198 -693.2110643 1231.8193611 -693.25 1155.25 C-693.25067474 1154.05436432 -693.25134949 1152.85872864 -693.25204468 1151.62686157 C-693.2341599 1131.59774555 -692.49503145 1111.87375393 -690 1092 C-689.9175 1091.32996948 -689.835 1090.65993896 -689.75 1089.96960449 C-685.79525159 1058.05972826 -678.91099532 1026.59193889 -669 996 C-668.66419922 994.95295898 -668.32839844 993.90591797 -667.98242188 992.82714844 C-652.91812135 946.30504387 -630.94731209 902.12117742 -603 862 C-602.56494141 861.37351562 -602.12988281 860.74703125 -601.68164062 860.1015625 C-592.99815986 847.64779584 -583.73835727 835.64783909 -574 824 C-573.56494141 823.47857422 -573.12988281 822.95714844 -572.68164062 822.41992188 C-561.74480212 809.35433342 -550.08030051 797.01082219 -538.0625 784.9375 C-537.37712158 784.24744873 -536.69174316 783.55739746 -535.9855957 782.84643555 C-532.04553098 778.91879552 -527.99636479 775.17699198 -523.78393555 771.54321289 C-521.60451843 769.65788436 -519.49179391 767.70514783 -517.375 765.75 C-511.78460325 760.71184609 -505.89967328 756.11457411 -499.94677734 751.51855469 C-497.96466147 749.9724347 -496.00633775 748.39985557 -494.05078125 746.8203125 C-476.51902714 732.76282011 -457.54883241 720.08606626 -438 709 C-437.30680664 708.60409668 -436.61361328 708.20819336 -435.89941406 707.80029297 C-426.13499011 702.23981826 -416.26046322 696.95647723 -406.15185547 692.04931641 C-403.86683424 690.93506394 -401.5919918 689.80135417 -399.31640625 688.66796875 C-337.22460265 658.06671102 -264.82003414 640.06036578 -195.44921875 639.796875 C-194.20398437 639.78986069 -192.95875 639.78284637 -191.67578125 639.77561951 C-187.67967071 639.75821847 -183.68364036 639.75118527 -179.6875 639.75 C-179.00597996 639.74955814 -178.32445992 639.74911629 -177.62228775 639.74866104 C-156.59719042 639.74151539 -135.86538674 640.13523879 -115 643 C-113.72769531 643.16628906 -112.45539062 643.33257813 -111.14453125 643.50390625 C-79.13917491 647.76918079 -47.67431074 654.92009238 -17 665 C-15.84661133 665.37850098 -14.69322266 665.75700195 -13.50488281 666.14697266 C35.57676995 682.48677901 82.37587057 706.56803855 123.89160156 737.43408203 C125.98050711 738.98552253 128.0791738 740.52291993 130.1796875 742.05859375 C137.85028201 747.6991667 145.22248634 753.58052641 152.38354492 759.85473633 C154.61383698 761.80428328 156.85981168 763.72927633 159.13842773 765.62207031 C168.1557963 773.14299568 176.50705176 781.22904049 184.77075195 789.56494141 C186.95397978 791.76661905 189.14529844 793.95999532 191.33789062 796.15234375 C192.75568346 797.5750475 194.17301784 798.99820832 195.58984375 800.421875 C196.23163071 801.06477478 196.87341766 801.70767456 197.53465271 802.37005615 C201.8781802 806.7586446 205.98218359 811.31245211 210 816 C210.58140244 816.67601257 211.16280487 817.35202515 211.76182556 818.04852295 C213.17714414 819.69679165 214.58896805 821.34806016 216 823 C221.81414933 818.81381248 227.23793634 814.27742529 232.65283203 809.59667969 C236.22699307 806.51029322 239.83164709 803.47477954 243.5 800.5 C247.7279248 797.06791987 251.8752789 793.55448829 256 790 C261.01591689 785.67827137 266.09175299 781.44520804 271.23046875 777.26953125 C276.54441666 772.91494206 281.76526766 768.44921565 287 764 C294.01514804 758.03753537 301.05647291 752.11922061 308.1953125 746.3046875 C313.51612696 741.93243049 318.75266336 737.45992856 324 733 C331.01514804 727.03753537 338.05647291 721.11922061 345.1953125 715.3046875 C350.51612696 710.93243049 355.75266336 706.45992856 361 702 C367.10888035 696.80780978 373.21510641 691.61876419 379.4375 686.5625 C383.68392382 683.10725849 387.85296294 679.57302166 392 676 C397.00331576 671.68922214 402.0661207 667.46650368 407.19140625 663.30078125 C410.48458142 660.60303413 413.74697919 657.87093893 417 655.125 C417.55244385 654.6602124 418.1048877 654.1954248 418.67407227 653.71655273 C421.21798029 651.56359076 423.66445413 649.37590273 426 647 C425.29037109 645.41251953 425.29037109 645.41251953 424.56640625 643.79296875 C396.64919438 580.13229131 388.17080463 507.28870209 402 439 C402.33 438.34 402.66 437.68 403 437 C402.44733963 436.82599167 401.89467926 436.65198334 401.32527161 436.47270203 C395.92977755 434.73060186 390.78769774 432.69365636 385.63671875 430.33203125 C384.47204575 429.80486259 384.47204575 429.80486259 383.28384399 429.26704407 C381.61810091 428.5125614 379.95324601 427.75611519 378.28921509 426.99786377 C374.71582286 425.36979554 371.13789595 423.7518079 367.56016541 422.13330078 C365.71772262 421.29977711 363.87548944 420.46578996 362.03346252 419.63134766 C353.47705725 415.756828 344.89867725 411.93299009 336.3125 408.125 C334.85081255 407.47619508 333.38914281 406.82735027 331.92749023 406.1784668 C328.10734021 404.48287345 324.28678179 402.7882022 320.46612549 401.09375 C312.22656183 397.43942551 303.98780204 393.78329396 295.75 390.125 C294.32447311 389.49205017 294.32447311 389.49205017 292.87014771 388.84631348 C278.65279083 382.53204178 264.46156394 376.1617475 250.28283691 369.7612915 C236.88167599 363.71494408 223.43331855 357.78193749 209.96340942 351.89056396 C196.5041818 346.00181672 183.08334241 340.03154639 169.6875 334 C168.81689941 333.60828613 167.94629883 333.21657227 167.04931641 332.81298828 C164.59873313 331.70987539 162.14880403 330.60532705 159.69921875 329.5 C158.97518356 329.17378662 158.25114838 328.84757324 157.50517273 328.51147461 C154.30607604 327.06510304 151.12248077 325.60616275 148 324 C147.80535156 324.77988281 147.61070312 325.55976562 147.41015625 326.36328125 C145.43717799 331.45148835 142.49128713 335.684932 139.4375 340.1875 C138.80561768 341.1256958 138.17373535 342.0638916 137.52270508 343.03051758 C133.00494071 349.67313577 128.32989019 355.98107457 123 362 C122.32195313 362.78632812 121.64390625 363.57265625 120.9453125 364.3828125 C110.31982458 376.48730607 99.00194522 387.48528171 86 397 C84.42992187 398.15242188 84.42992187 398.15242188 82.828125 399.328125 C34.53034751 433.68923038 -25.96817324 447.77510036 -84.5546875 437.9609375 C-118.74617115 431.72163463 -150.98699331 418.7206384 -179 398 C-179.59087402 397.56606934 -180.18174805 397.13213867 -180.79052734 396.68505859 C-198.95045935 383.23082087 -214.66730723 367.22360627 -228 349 C-228.77988281 347.93910156 -229.55976562 346.87820313 -230.36328125 345.78515625 C-264.2706516 298.07892399 -276.39385698 237.42053076 -267.0703125 180.07421875 C-259.60179362 137.61430584 -240.40173824 98.49419771 -211 67 C-209.52026559 65.31299782 -208.04110712 63.6254903 -206.5625 61.9375 C-176.61559794 28.85721711 -133.12863234 7.94166531 -90 -1 C-89.17048828 -1.17789063 -88.34097656 -1.35578125 -87.48632812 -1.5390625 C-59.6969833 -7.21863662 -27.58988752 -6.12158489 0 0 Z M-124.88671875 129.9921875 C-127 132 -127 132 -129.49609375 133.9375 C-134.02323333 137.66656349 -137.41479284 142.38690962 -141 147 C-141.61230469 147.78503906 -142.22460938 148.57007813 -142.85546875 149.37890625 C-153.74010769 164.09932184 -161.52034161 182.83730735 -164 201 C-164.16435547 202.15242188 -164.16435547 202.15242188 -164.33203125 203.328125 C-167.93018077 233.07282767 -160.07684756 263.60742058 -142.0625 287.578125 C-140.08718504 290.09356515 -138.05723417 292.55129214 -136 295 C-135.40832031 295.73863281 -134.81664062 296.47726562 -134.20703125 297.23828125 C-115.26903914 319.97194768 -85.4989301 332.88036518 -56.54638672 335.55029297 C-26.14549881 337.87013237 4.17685876 328.46250539 27.65234375 308.91015625 C50.66307648 289.14205637 67.27070136 261.72162917 70 231 C72.1591244 196.14974274 63.09901045 165.4000249 40 139 C26.11007329 123.47355762 8.9538055 112.78416776 -10.6875 106.125 C-11.52998291 105.83858643 -12.37246582 105.55217285 -13.24047852 105.25708008 C-50.86294381 93.14371733 -96.24531129 102.41910963 -124.88671875 129.9921875 Z M561.984375 344.875 C557.72563772 349.43553756 553.9104886 354.29845719 550.2265625 359.32910156 C549.01342434 360.98171254 547.77461088 362.61224369 546.53125 364.2421875 C521.35484349 397.77423475 506.69646627 438.53290659 502 480 C501.80470703 481.61841797 501.80470703 481.61841797 501.60546875 483.26953125 C495.72932847 543.04946504 514.07439684 607.09747738 552.2265625 653.671875 C553.15000983 654.78210905 554.07450339 655.89147366 555 657 C555.7110791 657.86334961 555.7110791 657.86334961 556.43652344 658.74414062 C566.87358618 671.39132286 578.04351459 682.90854024 591 693 C592.40378906 694.14662109 592.40378906 694.14662109 593.8359375 695.31640625 C629.17945292 723.6184758 672.28993949 739.70649755 717 745 C718.0828125 745.13148438 719.165625 745.26296875 720.28125 745.3984375 C754.01459281 748.68299983 787.99540745 743.7641598 820 733 C820.68288086 732.77231934 821.36576172 732.54463867 822.06933594 732.31005859 C847.31278997 723.7486412 870.17842929 710.51926879 891 694 C891.54398438 693.57315918 892.08796875 693.14631836 892.6484375 692.70654297 C907.58934904 680.89225875 921.59320626 667.07948229 932.796875 651.65625 C934.02472638 649.96596109 935.27652159 648.29540531 936.53125 646.625 C966.57001627 606.16108284 982.55780147 556.22299018 982.3125 505.9375 C982.31034485 505.13429321 982.3081897 504.33108643 982.30596924 503.50354004 C982.05681625 445.28239164 960.69505939 389.51088136 922 346 C921.56365234 345.50193848 921.12730469 345.00387695 920.67773438 344.49072266 C882.19195561 300.63118885 828.52854247 273.8855323 771 266 C769.89011719 265.8453125 769.89011719 265.8453125 768.7578125 265.6875 C689.87625473 256.24868112 616.05686743 288.82905894 561.984375 344.875 Z M-235 748 C-236.16740723 748.17692383 -237.33481445 748.35384766 -238.53759766 748.53613281 C-309.96181192 759.73272684 -376.41086398 787.94397594 -433 833 C-433.928125 833.73476562 -434.85625 834.46953125 -435.8125 835.2265625 C-441.84594511 840.07731524 -447.57344845 845.19592597 -453.2421875 850.4609375 C-455.39704597 852.44487236 -457.57543102 854.36156514 -459.8125 856.25 C-469.20070551 864.3956489 -478.00749675 873.49015617 -486 883 C-486.84175781 883.95261719 -487.68351562 884.90523437 -488.55078125 885.88671875 C-505.8793116 905.56179029 -521.00244387 927.24116382 -534 950 C-534.45342773 950.79325684 -534.90685547 951.58651367 -535.37402344 952.40380859 C-547.67111683 974.07774374 -557.79055191 996.47436066 -566 1020 C-566.34659668 1020.9904834 -566.69319336 1021.9809668 -567.05029297 1023.00146484 C-575.55598635 1047.63161971 -581.57851066 1073.16458743 -585 1099 C-585.14953125 1100.12341797 -585.2990625 1101.24683594 -585.453125 1102.40429688 C-594.91323803 1177.14734508 -583.54436507 1254.54595263 -552 1323 C-551.59346191 1323.89912109 -551.18692383 1324.79824219 -550.76806641 1325.72460938 C-533.85430187 1363.02394514 -510.84138608 1397.25265345 -483.265625 1427.48828125 C-481.98865297 1428.90395886 -480.71879488 1430.32638513 -479.47436523 1431.77075195 C-475.03910753 1436.9166625 -470.37835473 1441.77265349 -465.5625 1446.5625 C-464.49418945 1447.63661133 -464.49418945 1447.63661133 -463.40429688 1448.73242188 C-458.76695197 1453.3613429 -453.97544491 1457.73864504 -449 1462 C-448.03578125 1462.845625 -447.0715625 1463.69125 -446.078125 1464.5625 C-386.25596814 1516.12192801 -312.96789521 1548.51827871 -235 1560 C-233.93523437 1560.16516113 -232.87046875 1560.33032227 -231.7734375 1560.50048828 C-196.22147164 1565.83218043 -157.51303965 1565.40462077 -122 1560 C-120.30907227 1559.75056641 -120.30907227 1559.75056641 -118.58398438 1559.49609375 C-74.79619736 1552.85039252 -32.31510298 1539.499185 6.99707031 1519.03613281 C9.13284657 1517.93127732 11.28060149 1516.85215439 13.4296875 1515.7734375 C38.8772813 1502.86113 62.20581248 1486.35190861 84 1468 C84.48649017 1467.59502289 84.97298035 1467.19004578 85.47421265 1466.77279663 C94.2272722 1459.47701602 102.49652118 1451.82146263 110.5246582 1443.73608398 C112.32215805 1441.92778392 114.13022316 1440.13054023 115.93945312 1438.33398438 C122.75419837 1431.52696876 129.01646973 1424.55585633 135 1417 C135.93448138 1415.89791896 136.87586641 1414.80160115 137.828125 1413.71484375 C155.2642323 1393.71956587 169.17572168 1371.14079536 182 1348 C182.43699219 1347.21931152 182.87398437 1346.43862305 183.32421875 1345.63427734 C230.21182759 1261.47101948 241.18620008 1159.523574 215.82592773 1043.15527344 C199.88123784 987.14525644 172.51031989 935.54615391 135 891 C134.39253433 890.27026474 134.39253433 890.27026474 133.77279663 889.52578735 C126.47701602 880.7727278 118.82146263 872.50347882 110.73608398 864.4753418 C108.92778392 862.67784195 107.13054023 860.86977684 105.33398438 859.06054688 C98.52839831 852.24723333 91.56542555 845.96975021 84 840 C82.97206518 839.1370699 81.9486528 838.26866456 80.93359375 837.390625 C72.35614284 830.03468901 63.24707515 823.48186595 54 817 C53.37786621 816.56187988 52.75573242 816.12375977 52.11474609 815.67236328 C2.25257866 780.78406905 -55.57698115 758.6927059 -115.5 749.1875 C-117.33872681 748.8949231 -117.33872681 748.8949231 -119.21459961 748.59643555 C-138.95221382 745.63729452 -158.5549689 744.62079971 -178.5 744.6875 C-180.20579224 744.69023422 -180.20579224 744.69023422 -181.94604492 744.69302368 C-199.80277841 744.74107446 -217.31819236 745.31330065 -235 748 Z M874 1274 C874 1274.33 874 1274.66 874 1275 C894.79 1275 915.58 1275 937 1275 C937 1274.67 937 1274.34 937 1274 C927.35914732 1272.93445762 917.77647946 1272.84576929 908.09130859 1272.86962891 C905.5048232 1272.87499 902.9185114 1272.8696531 900.33203125 1272.86328125 C891.5060966 1272.86010828 882.78467273 1273.02908577 874 1274 Z M946 1276 C946 1359.82 946 1443.64 946 1530 C968.0484432 1539.18455057 968.0484432 1539.18455057 990.25390625 1547.93359375 C992.85915456 1548.93234759 995.46309225 1549.93449489 998.06689453 1550.93701172 C999.04489029 1551.31316604 999.04489029 1551.31316604 1000.04264355 1551.69691944 C1007.45307844 1554.55154253 1014.83515413 1557.47714618 1022.21484375 1560.41015625 C1023.22949518 1560.81331621 1023.22949518 1560.81331621 1024.26464462 1561.22462082 C1028.43681535 1562.88277208 1032.60818699 1564.54292618 1036.77937317 1566.20355225 C1040.49341293 1567.68176291 1044.20814021 1569.15824364 1047.92285156 1570.63476562 C1049.04328134 1571.08012193 1049.04328134 1571.08012193 1050.18634605 1571.53447533 C1051.6916306 1572.13280479 1053.19691713 1572.73112926 1054.70220566 1573.3294487 C1056.93670475 1574.21768182 1059.17113522 1575.10608738 1061.4055481 1575.99453735 C1074.01564648 1581.00829004 1086.63128522 1586.00797214 1099.25 1591 C1101.14998527 1591.75178646 1103.049969 1592.5035768 1104.94995117 1593.25537109 C1109.65060542 1595.11520917 1114.3514025 1596.97468598 1119.05224609 1598.83404541 C1127.57619364 1602.20560765 1136.0999485 1605.57765646 1144.62341309 1608.95043945 C1147.62284375 1610.13718956 1150.62244994 1611.32349512 1153.62207031 1612.50976562 C1155.49284128 1613.24999309 1157.36360956 1613.99022732 1159.234375 1614.73046875 C1160.12981018 1615.0843869 1161.02524536 1615.43830505 1161.94781494 1615.802948 C1166.55861319 1617.62764264 1171.16314727 1619.46650805 1175.75976562 1621.32666016 C1177.14763275 1621.88695671 1177.14763275 1621.88695671 1178.5635376 1622.45857239 C1180.32561446 1623.17082025 1182.08653949 1623.88592635 1183.84613037 1624.60429382 C1184.62683899 1624.91961563 1185.40754761 1625.23493744 1186.21191406 1625.55981445 C1186.89771545 1625.83888138 1187.58351685 1626.1179483 1188.2901001 1626.4054718 C1190.01312652 1627.1094708 1190.01312652 1627.1094708 1192 1627 C1193.18313805 1622.70378241 1194.13365609 1618.36951307 1195 1614 C1195.14405273 1613.27474121 1195.28810547 1612.54948242 1195.43652344 1611.80224609 C1200.95312767 1582.06136955 1200.68607278 1547.68962099 1195 1518 C1194.82839355 1517.04480469 1194.65678711 1516.08960937 1194.47998047 1515.10546875 C1185.9982841 1468.35381264 1167.04624722 1423.06035461 1137 1386 C1136.26265625 1385.07058594 1135.5253125 1384.14117188 1134.765625 1383.18359375 C1121.594398 1366.76626647 1106.72416942 1350.8255551 1090 1338 C1088.71424583 1336.98643512 1087.42913876 1335.97204904 1086.14453125 1334.95703125 C1051.8452717 1308.05549473 1012.51083347 1289.45750913 970.0625 1279.5 C969.02762451 1279.25668945 967.99274902 1279.01337891 966.92651367 1278.76269531 C959.83375337 1277.18971569 953.36295652 1276.61357971 946 1276 Z M734 1328 C733.43909668 1328.40927734 732.87819336 1328.81855469 732.30029297 1329.24023438 C711.94886075 1344.21888849 692.24853618 1361.80264884 677 1382 C676.20980469 1382.99644531 675.41960937 1383.99289062 674.60546875 1385.01953125 C637.71544409 1431.6456123 613.0907247 1492.47862049 612.796875 1552.37890625 C612.78981537 1553.34047638 612.78275574 1554.30204651 612.77548218 1555.29275513 C612.53784259 1584.77706676 612.53784259 1584.77706676 616 1614 C616.27408691 1615.58095459 616.27408691 1615.58095459 616.55371094 1617.19384766 C625.99728106 1670.49807146 650.25006598 1720.8830363 686.95703125 1760.7734375 C688.82959308 1762.81427926 690.63829534 1764.89463697 692.4375 1767 C699.04989087 1774.57669787 706.29007577 1781.55215413 714 1788 C714.5170752 1788.44150391 715.03415039 1788.88300781 715.56689453 1789.33789062 C761.13894424 1828.1561702 818.41865868 1852.35683331 878 1858 C879.69382812 1858.16628906 879.69382812 1858.16628906 881.421875 1858.3359375 C934.46999374 1862.69767171 987.19677452 1852.08041748 1035 1829 C1035.78439453 1828.62149902 1036.56878906 1828.24299805 1037.37695312 1827.85302734 C1084.5283677 1804.77539838 1122.45185318 1767.80290062 1152 1725 C1149.19924452 1723.13282968 1146.75324183 1722.01044766 1143.63793945 1720.77954102 C1142.52992981 1720.33976425 1141.42192017 1719.89998749 1140.28033447 1719.44688416 C1139.07020691 1718.97070145 1137.86007935 1718.49451874 1136.61328125 1718.00390625 C1135.33685401 1717.49876472 1134.06055048 1716.9933105 1132.78436279 1716.48756409 C1129.34481562 1715.12547664 1125.90359277 1713.76767072 1122.46205521 1712.41062164 C1118.85903075 1710.98902381 1115.25758945 1709.56342693 1111.65600586 1708.13818359 C1105.83721629 1705.83604926 1100.01758688 1703.53605197 1094.19726562 1701.23779297 C1087.07257474 1698.42439429 1079.9497541 1695.6062975 1072.828125 1692.78515625 C1070.83423076 1691.99535566 1068.84033432 1691.20556062 1066.84643555 1690.41577148 C1065.88861176 1690.03637421 1064.93078796 1689.65697693 1063.94393921 1689.26608276 C1059.12060838 1687.35598879 1054.29664089 1685.44750451 1049.47265625 1683.5390625 C1038.65294613 1679.25855291 1027.83394075 1674.9762645 1017.0151062 1670.69354248 C1012.01009938 1668.71228946 1007.00504748 1666.7311503 1002 1664.75 C999.99999978 1663.95833388 997.99999978 1663.16666722 996 1662.375 C995.01 1661.983125 994.02 1661.59125 993 1661.1875 C974 1653.66666667 955 1646.14583333 936 1638.625 C934.51532478 1638.03732346 934.51532478 1638.03732346 933.00065613 1637.43777466 C930.9984554 1636.6452269 928.99626833 1635.85264465 926.99409485 1635.06002808 C922.02787672 1633.09406053 917.0614312 1631.12867171 912.09448242 1629.16455078 C902.69113032 1625.44538218 893.29038 1621.71995123 883.89700317 1617.97564697 C879.44300883 1616.20062075 874.98779045 1614.42867881 870.5324707 1612.65698242 C868.40197161 1611.80875657 866.27207824 1610.9590076 864.14282227 1610.10766602 C861.19698012 1608.92993659 858.24912196 1607.7573951 855.30078125 1606.5859375 C854.42915848 1606.23586639 853.55753571 1605.88579529 852.65950012 1605.52511597 C851.85187729 1605.20535797 851.04425446 1604.88559998 850.2121582 1604.55615234 C849.16690727 1604.13914566 849.16690727 1604.13914566 848.10054016 1603.7137146 C845.55790972 1602.79910967 845.55790972 1602.79910967 841 1602 C841 1495.74 841 1389.48 841 1280 C805.70697495 1280 761.36613782 1307.99099597 734 1328 Z " fill="#448E52" transform="translate(1362,687)"/>
<path d="M0 0 C0.84385254 0.18191895 1.68770508 0.36383789 2.55712891 0.55126953 C21.56780982 4.76958243 39.90055582 11.72699208 57 21 C57.96897217 21.51167725 57.96897217 21.51167725 58.95751953 22.03369141 C87.20966463 36.96289533 112.03724681 58.28199346 131 84 C131.63929443 84.84812256 131.63929443 84.84812256 132.29150391 85.71337891 C139.05725613 94.69086398 144.81829832 104.02680472 150 114 C150.40750488 114.7822998 150.81500977 115.56459961 151.23486328 116.37060547 C162.13355221 137.57671163 168.92759622 159.54121201 173 183 C173.13132324 183.7415332 173.26264648 184.48306641 173.39794922 185.24707031 C175.42243547 197.12140624 175.20364797 208.99593257 175 221 C175.55266037 221.17400833 176.10532074 221.34801666 176.67472839 221.52729797 C182.07022245 223.26939814 187.21230226 225.30634364 192.36328125 227.66796875 C193.13972992 228.01941452 193.91617859 228.37086029 194.71615601 228.73295593 C196.38189909 229.4874386 198.04675399 230.24388481 199.71078491 231.00213623 C203.28417714 232.63020446 206.86210405 234.2481921 210.43983459 235.86669922 C212.28227738 236.70022289 214.12451056 237.53421004 215.96653748 238.36865234 C224.52294275 242.243172 233.10132275 246.06700991 241.6875 249.875 C243.14918745 250.52380492 244.61085719 251.17264973 246.07250977 251.8215332 C249.89265979 253.51712655 253.71321821 255.2117978 257.53387451 256.90625 C265.77343817 260.56057449 274.01219796 264.21670604 282.25 267.875 C283.67552689 268.50794983 283.67552689 268.50794983 285.12985229 269.15368652 C299.34720917 275.46795822 313.53843606 281.8382525 327.71716309 288.2387085 C341.12065209 294.28610631 354.57126901 300.22033557 368.04364014 306.11245728 C384.61937762 313.36426762 401.1272297 320.76250627 417.6171875 328.20703125 C418.35721008 328.54082794 419.09723267 328.87462463 419.85968018 329.21853638 C423.07851661 330.6721411 426.2918684 332.13509407 429.49707031 333.61865234 C430.49061523 334.07836426 431.48416016 334.53807617 432.5078125 335.01171875 C433.34199707 335.40190186 434.17618164 335.79208496 435.03564453 336.1940918 C436.9545139 337.12652131 436.9545139 337.12652131 439 337 C440.22777697 335.37103743 440.22777697 335.37103743 441.3984375 333.22265625 C441.871604 332.40748535 442.34477051 331.59231445 442.83227539 330.75244141 C443.59592407 329.42092041 443.59592407 329.42092041 444.375 328.0625 C452.7413637 313.8096343 462.23093983 300.46473122 472.65966797 287.64892578 C473.93053676 286.08545623 475.18642776 284.50984674 476.44140625 282.93359375 C483.43792214 274.34203802 491.25497755 266.53279569 499.0625 258.6875 C499.89444382 257.84765564 499.89444382 257.84765564 500.74319458 256.99084473 C507.83684677 249.84521719 515.08337379 243.23677461 523 237 C524.09995946 236.0952408 525.19802869 235.18817101 526.29296875 234.27734375 C556.89092834 209.54296076 591.91886058 190.8801987 629 178 C629.82419434 177.71286133 630.64838867 177.42572266 631.49755859 177.12988281 C648.9829829 171.1263969 667.03732037 166.86141372 685.25 163.75 C686.12164795 163.59901855 686.9932959 163.44803711 687.89135742 163.29248047 C705.54535039 160.44666643 723.20651112 159.62101997 741.0625 159.6875 C742.08670044 159.68932281 743.11090088 159.69114563 744.1661377 159.69302368 C760.61770565 159.74211804 776.72372098 160.41826277 793 163 C794.65854004 163.25740967 794.65854004 163.25740967 796.35058594 163.52001953 C829.33524145 168.78533045 860.87461301 178.59511924 891 193 C891.81243164 193.38236816 892.62486328 193.76473633 893.46191406 194.15869141 C922.52234485 207.88897359 949.20039206 226.30620598 972.85546875 248.0390625 C974.80634883 249.82292734 976.79748048 251.53952794 978.8125 253.25 C982.54138907 256.50140937 986.05740463 259.94887923 989.5625 263.4375 C990.09270752 263.96311523 990.62291504 264.48873047 991.16918945 265.03027344 C995.31058046 269.18761496 999.18214077 273.54538424 1003 278 C1003.54100342 278.62898193 1004.08200684 279.25796387 1004.6394043 279.90600586 C1050.37827016 333.47435851 1078.84758229 399.91943016 1086 470 C1086.0942627 470.83466797 1086.18852539 471.66933594 1086.28564453 472.52929688 C1090.97398971 519.26178224 1085.46006685 567.41546745 1071 612 C1070.596604 613.2674707 1070.596604 613.2674707 1070.18505859 614.56054688 C1059.02848749 649.30627168 1041.762487 681.77457664 1020 711 C1019.60635254 711.53254395 1019.21270508 712.06508789 1018.80712891 712.61376953 C1015.9458753 716.46973297 1013.00704612 720.25669259 1010 724 C1009.57009766 724.5357666 1009.14019531 725.0715332 1008.69726562 725.62353516 C1001.15178798 734.90667572 992.80404907 743.40326001 984.375 751.875 C983.84615204 752.40911499 983.31730408 752.94322998 982.77243042 753.49353027 C975.8505248 760.46866791 968.71486804 766.89297533 961 773 C959.79121562 774.00022543 958.58506271 775.0036488 957.3828125 776.01171875 C889.40105699 832.20722739 797.78478763 857.5421918 710.49438477 850.0546875 C640.96211168 843.20432681 572.67572646 816.8064446 519.79418945 770.52319336 C517.50093783 768.57631666 515.14488646 766.71247693 512.796875 764.83203125 C506.91153031 760.0298452 501.53167523 754.82851972 496.1875 749.4375 C495.28580078 748.54353516 494.38410156 747.64957031 493.45507812 746.72851562 C489.03334907 742.2938101 484.93957011 737.86851013 481.29077148 732.77661133 C479.33518578 730.08495308 477.12960662 727.62542455 474.9375 725.125 C417.43376913 658.08216869 390.74153433 567.67805282 396.51464844 480.22631836 C399.28738473 444.42523054 399.28738473 444.42523054 403 437 C402.44733963 436.82599167 401.89467926 436.65198334 401.32527161 436.47270203 C395.92977755 434.73060186 390.78769774 432.69365636 385.63671875 430.33203125 C384.47204575 429.80486259 384.47204575 429.80486259 383.28384399 429.26704407 C381.61810091 428.5125614 379.95324601 427.75611519 378.28921509 426.99786377 C374.71582286 425.36979554 371.13789595 423.7518079 367.56016541 422.13330078 C365.71772262 421.29977711 363.87548944 420.46578996 362.03346252 419.63134766 C353.47705725 415.756828 344.89867725 411.93299009 336.3125 408.125 C334.85081255 407.47619508 333.38914281 406.82735027 331.92749023 406.1784668 C328.10734021 404.48287345 324.28678179 402.7882022 320.46612549 401.09375 C312.22656183 397.43942551 303.98780204 393.78329396 295.75 390.125 C294.32447311 389.49205017 294.32447311 389.49205017 292.87014771 388.84631348 C278.65279083 382.53204178 264.46156394 376.1617475 250.28283691 369.7612915 C236.88167599 363.71494408 223.43331855 357.78193749 209.96340942 351.89056396 C196.5041818 346.00181672 183.08334241 340.03154639 169.6875 334 C168.81689941 333.60828613 167.94629883 333.21657227 167.04931641 332.81298828 C164.59873313 331.70987539 162.14880403 330.60532705 159.69921875 329.5 C158.97518356 329.17378662 158.25114838 328.84757324 157.50517273 328.51147461 C154.30607604 327.06510304 151.12248077 325.60616275 148 324 C147.80535156 324.77988281 147.61070312 325.55976562 147.41015625 326.36328125 C145.43717799 331.45148835 142.49128713 335.684932 139.4375 340.1875 C138.80561768 341.1256958 138.17373535 342.0638916 137.52270508 343.03051758 C133.00494071 349.67313577 128.32989019 355.98107457 123 362 C122.32195312 362.78632812 121.64390625 363.57265625 120.9453125 364.3828125 C110.31982458 376.48730607 99.00194522 387.48528171 86 397 C84.95328125 397.76828125 83.9065625 398.5365625 82.828125 399.328125 C34.53034751 433.68923038 -25.96817324 447.77510036 -84.5546875 437.9609375 C-118.74617115 431.72163463 -150.98699331 418.7206384 -179 398 C-179.59087402 397.56606934 -180.18174805 397.13213867 -180.79052734 396.68505859 C-198.95045935 383.23082087 -214.66730723 367.22360627 -228 349 C-228.77988281 347.93910156 -229.55976562 346.87820313 -230.36328125 345.78515625 C-264.2706516 298.07892399 -276.39385698 237.42053076 -267.0703125 180.07421875 C-259.60179362 137.61430584 -240.40173824 98.49419771 -211 67 C-209.52026559 65.31299782 -208.04110712 63.6254903 -206.5625 61.9375 C-176.61559794 28.85721711 -133.12863234 7.94166531 -90 -1 C-89.17048828 -1.17789063 -88.34097656 -1.35578125 -87.48632812 -1.5390625 C-59.6969833 -7.21863662 -27.58988752 -6.12158489 0 0 Z M-124.88671875 129.9921875 C-127 132 -127 132 -129.49609375 133.9375 C-134.02323333 137.66656349 -137.41479284 142.38690962 -141 147 C-141.61230469 147.78503906 -142.22460938 148.57007813 -142.85546875 149.37890625 C-153.74010769 164.09932184 -161.52034161 182.83730735 -164 201 C-164.16435547 202.15242188 -164.16435547 202.15242188 -164.33203125 203.328125 C-167.93018077 233.07282767 -160.07684756 263.60742058 -142.0625 287.578125 C-140.08718504 290.09356515 -138.05723417 292.55129214 -136 295 C-135.40832031 295.73863281 -134.81664062 296.47726562 -134.20703125 297.23828125 C-115.26903914 319.97194768 -85.4989301 332.88036518 -56.54638672 335.55029297 C-26.14549881 337.87013237 4.17685876 328.46250539 27.65234375 308.91015625 C50.66307648 289.14205637 67.27070136 261.72162917 70 231 C72.1591244 196.14974274 63.09901045 165.4000249 40 139 C26.11007329 123.47355762 8.9538055 112.78416776 -10.6875 106.125 C-11.52998291 105.83858643 -12.37246582 105.55217285 -13.24047852 105.25708008 C-50.86294381 93.14371733 -96.24531129 102.41910963 -124.88671875 129.9921875 Z M561.984375 344.875 C557.72563772 349.43553756 553.9104886 354.29845719 550.2265625 359.32910156 C549.01342434 360.98171254 547.77461088 362.61224369 546.53125 364.2421875 C521.35484349 397.77423475 506.69646627 438.53290659 502 480 C501.80470703 481.61841797 501.80470703 481.61841797 501.60546875 483.26953125 C495.72932847 543.04946504 514.07439684 607.09747738 552.2265625 653.671875 C553.15000983 654.78210905 554.07450339 655.89147366 555 657 C555.7110791 657.86334961 555.7110791 657.86334961 556.43652344 658.74414062 C566.87358618 671.39132286 578.04351459 682.90854024 591 693 C592.40378906 694.14662109 592.40378906 694.14662109 593.8359375 695.31640625 C629.17945292 723.6184758 672.28993949 739.70649755 717 745 C718.0828125 745.13148438 719.165625 745.26296875 720.28125 745.3984375 C754.01459281 748.68299983 787.99540745 743.7641598 820 733 C820.68288086 732.77231934 821.36576172 732.54463867 822.06933594 732.31005859 C847.31278997 723.7486412 870.17842929 710.51926879 891 694 C891.54398438 693.57315918 892.08796875 693.14631836 892.6484375 692.70654297 C907.58934904 680.89225875 921.59320626 667.07948229 932.796875 651.65625 C934.02472638 649.96596109 935.27652159 648.29540531 936.53125 646.625 C966.57001627 606.16108284 982.55780147 556.22299018 982.3125 505.9375 C982.31034485 505.13429321 982.3081897 504.33108643 982.30596924 503.50354004 C982.05681625 445.28239164 960.69505939 389.51088136 922 346 C921.56365234 345.50193848 921.12730469 345.00387695 920.67773438 344.49072266 C882.19195561 300.63118885 828.52854247 273.8855323 771 266 C769.89011719 265.8453125 769.89011719 265.8453125 768.7578125 265.6875 C689.87625473 256.24868112 616.05686743 288.82905894 561.984375 344.875 Z " fill="#386CA6" transform="translate(1362,687)"/>
<path d="M0 0 C1.18819336 0.17160645 2.37638672 0.34321289 3.60058594 0.52001953 C79.47719835 11.80769958 150.32101819 44.4372562 208 95 C208.88945312 95.77730469 209.77890625 96.55460937 210.6953125 97.35546875 C217.23473899 103.21486941 223.49062274 109.36453612 229.72268677 115.54745483 C231.1444053 116.95726623 232.57006788 118.36309679 233.99584961 119.76879883 C239.35700511 125.12325348 244.31289004 130.64048117 249.0456543 136.55761719 C250.61459037 138.51834629 252.20805256 140.4329797 253.86328125 142.3203125 C260.68762545 150.13511176 266.7231038 158.36257163 272.57861328 166.92285156 C273.89618428 168.84828854 275.22639571 170.76436021 276.55859375 172.6796875 C283.7066322 183.06572627 289.89786071 193.97564744 296 205 C296.43844238 205.78358887 296.87688477 206.56717773 297.32861328 207.37451172 C304.98434344 221.11594349 311.13749644 235.41443046 317 250 C317.34160156 250.84530273 317.68320313 251.69060547 318.03515625 252.56152344 C355.41855972 346.13734404 352.3623617 457.44018591 312.93969727 549.79541016 C310.70240724 554.89981054 308.37317386 559.95753284 306 565 C305.349104 566.3924292 305.349104 566.3924292 304.68505859 567.81298828 C294.51807577 589.3743332 282.27359319 609.90410947 268 629 C267.55817383 629.59200195 267.11634766 630.18400391 266.66113281 630.79394531 C258.681571 641.42741061 250.32482112 651.68624379 241.31640625 661.46484375 C239.43270677 663.52643053 237.61363292 665.61720066 235.8125 667.75 C227.6367633 677.1520972 218.53679333 685.99120118 209 694 C207.98948211 694.88381475 206.98051704 695.76940641 205.97265625 696.65625 C180.12488391 719.30144573 150.88442481 738.22887269 119.90966797 753.07763672 C118.01465806 753.99292021 116.13412358 754.93366839 114.25390625 755.87890625 C72.07771117 776.767834 24.73609719 788.06962702 -22 792 C-23.27359375 792.11214844 -24.5471875 792.22429688 -25.859375 792.33984375 C-89.3056473 796.99002234 -153.5943768 786.04159672 -212 761 C-213.00804688 760.56816406 -214.01609375 760.13632813 -215.0546875 759.69140625 C-230.27632947 753.09797008 -244.74868939 745.47993855 -259 737 C-259.75249023 736.55269531 -260.50498047 736.10539062 -261.28027344 735.64453125 C-295.45178876 715.16367836 -328.26782695 688.51179915 -354 658 C-354.77214844 657.11699219 -355.54429687 656.23398438 -356.33984375 655.32421875 C-404.51617233 599.91872315 -436.00894635 531.33804914 -447.8125 459 C-448.0074707 457.80979248 -448.20244141 456.61958496 -448.40332031 455.39331055 C-451.32925509 436.47149162 -452.35015716 417.74163378 -452.31567383 398.60083008 C-452.31252469 394.96599978 -452.33604091 391.3319956 -452.36132812 387.69726562 C-452.42060725 365.93778825 -450.58245258 344.38678382 -446.5 323 C-446.20029297 321.33710938 -446.20029297 321.33710938 -445.89453125 319.640625 C-444.55046756 312.34672521 -442.86507725 305.17676436 -441 298 C-441.66291046 297.82852951 -442.32582092 297.65705902 -443.00881958 297.48039246 C-449.89517966 295.65663568 -456.5952914 293.50108198 -463.3046875 291.11328125 C-464.89391273 290.55295448 -464.89391273 290.55295448 -466.51524353 289.98130798 C-469.96985004 288.7621671 -473.42243684 287.53741432 -476.875 286.3125 C-479.31719543 285.44924434 -481.75949842 284.5862929 -484.2019043 283.72363281 C-491.47000698 281.15491619 -498.73543514 278.57870268 -506 276 C-507.00230652 275.64427917 -508.00461304 275.28855835 -509.03729248 274.92205811 C-517.08868943 272.06413996 -525.13867296 269.20225924 -533.18725586 266.33642578 C-549.06592687 260.68294675 -564.95269565 255.05247258 -580.84206772 249.42915726 C-582.92867073 248.69062503 -585.01520271 247.95189249 -587.10171509 247.21310425 C-601.36775328 242.16207037 -615.63685754 237.12021942 -629.92077827 232.11994743 C-631.82661758 231.45267852 -633.73229857 230.78495956 -635.63792419 230.11708069 C-641.52782469 228.05300151 -647.41880504 225.99215303 -653.31225586 223.93823242 C-655.40614691 223.20508576 -657.4999816 222.47177811 -659.59375 221.73828125 C-660.98612633 221.25544174 -660.98612633 221.25544174 -662.40663147 220.7628479 C-668.07088585 218.77295253 -673.55371318 216.52649268 -679 214 C-677.75042049 210.06223732 -676.31932959 206.36332604 -674.53125 202.640625 C-662.29281221 176.8501571 -653.01364772 150.61132871 -644.68760681 123.35638428 C-643.10710991 118.21421982 -643.10710991 118.21421982 -642 116 C-638.7614936 116.59710524 -635.71053549 117.35571979 -632.60083008 118.43603516 C-631.75403687 118.72851135 -630.90724365 119.02098755 -630.03479004 119.32232666 C-629.12225464 119.64134949 -628.20971924 119.96037231 -627.26953125 120.2890625 C-626.30406372 120.62387634 -625.33859619 120.95869019 -624.34387207 121.3036499 C-621.16550585 122.40722996 -617.98894765 123.51591085 -614.8125 124.625 C-612.58034691 125.40192629 -610.34816887 126.17878087 -608.1159668 126.95556641 C-592.79500992 132.29424619 -577.50596964 137.71894797 -562.23413086 143.19628906 C-547.96710899 148.31121053 -533.67439997 153.35137441 -519.375 158.375 C-502.93286682 164.15294385 -486.4923702 169.93527933 -470.06341553 175.75061035 C-467.09618474 176.80058048 -464.12842209 177.84903745 -461.16064453 178.89746094 C-451.5823462 182.28528253 -442.02018697 185.71196134 -432.48046875 189.20703125 C-430.6503725 189.87476649 -428.82021438 190.54233219 -426.98999023 191.2097168 C-423.58002131 192.4532048 -420.17555209 193.71038031 -416.77368164 194.97583008 C-415.26077809 195.52870149 -413.74768714 196.08106046 -412.234375 196.6328125 C-411.55453049 196.89016678 -410.87468597 197.14752106 -410.17424011 197.41267395 C-407.56559544 198.35292464 -405.44707004 199.03581784 -402.65966797 198.8125 C-399.75098454 197.3885373 -398.8440948 194.66940585 -397.375 191.875 C-385.825541 170.62936092 -370.66371399 150.23039901 -354.265625 132.4765625 C-353.02276621 131.11798927 -351.7875909 129.75163739 -350.59082031 128.35229492 C-345.59773306 122.51825875 -340.24906303 117.06291552 -334.82226562 111.63696289 C-333.26139673 110.07391266 -331.70872112 108.50302635 -330.15625 106.93164062 C-323.76193934 100.50194773 -317.11128327 94.64244102 -310 89 C-308.97230828 88.1367804 -307.94888925 87.26839115 -306.93359375 86.390625 C-251.61232208 38.94765649 -180.62122206 10.34399261 -109 0 C-107.87625977 -0.16516113 -106.75251953 -0.33032227 -105.59472656 -0.50048828 C-71.08863014 -5.33774477 -34.45697187 -5.06429541 0 0 Z M-86 103 C-86 103.33 -86 103.66 -86 104 C-65.21 104 -44.42 104 -23 104 C-23 103.67 -23 103.34 -23 103 C-32.64085268 101.93445762 -42.22352054 101.84576929 -51.90869141 101.86962891 C-54.4951768 101.87499 -57.0814886 101.8696531 -59.66796875 101.86328125 C-68.4939034 101.86010828 -77.21532727 102.02908577 -86 103 Z M-14 105 C-14 188.82 -14 272.64 -14 359 C8.0484432 368.18455057 8.0484432 368.18455057 30.25390625 376.93359375 C32.85915456 377.93234759 35.46309225 378.93449489 38.06689453 379.93701172 C39.04489029 380.31316604 39.04489029 380.31316604 40.04264355 380.69691944 C47.45307844 383.55154253 54.83515413 386.47714618 62.21484375 389.41015625 C63.22949518 389.81331621 63.22949518 389.81331621 64.26464462 390.22462082 C68.43681535 391.88277208 72.60818699 393.54292618 76.77937317 395.20355225 C80.49341293 396.68176291 84.20814021 398.15824364 87.92285156 399.63476562 C89.04328134 400.08012193 89.04328134 400.08012193 90.18634605 400.53447533 C91.6916306 401.13280479 93.19691713 401.73112926 94.70220566 402.3294487 C96.93670475 403.21768182 99.17113522 404.10608738 101.4055481 404.99453735 C114.01564648 410.00829004 126.63128522 415.00797214 139.25 420 C141.14998527 420.75178646 143.049969 421.5035768 144.94995117 422.25537109 C149.65060542 424.11520917 154.3514025 425.97468598 159.05224609 427.83404541 C167.57619364 431.20560765 176.0999485 434.57765646 184.62341309 437.95043945 C187.62284375 439.13718956 190.62244994 440.32349512 193.62207031 441.50976562 C195.49284128 442.24999309 197.36360956 442.99022732 199.234375 443.73046875 C200.12981018 444.0843869 201.02524536 444.43830505 201.94781494 444.802948 C206.55861319 446.62764264 211.16314727 448.46650805 215.75976562 450.32666016 C217.14763275 450.88695671 217.14763275 450.88695671 218.5635376 451.45857239 C220.32561446 452.17082025 222.08653949 452.88592635 223.84613037 453.60429382 C224.62683899 453.91961563 225.40754761 454.23493744 226.21191406 454.55981445 C226.89771545 454.83888138 227.58351685 455.1179483 228.2901001 455.4054718 C230.01312652 456.1094708 230.01312652 456.1094708 232 456 C233.18313805 451.70378241 234.13365609 447.36951307 235 443 C235.14405273 442.27474121 235.28810547 441.54948242 235.43652344 440.80224609 C240.95312767 411.06136955 240.68607278 376.68962099 235 347 C234.82839355 346.04480469 234.65678711 345.08960937 234.47998047 344.10546875 C225.9982841 297.35381264 207.04624722 252.06035461 177 215 C176.26265625 214.07058594 175.5253125 213.14117188 174.765625 212.18359375 C161.594398 195.76626647 146.72416942 179.8255551 130 167 C128.71424583 165.98643512 127.42913876 164.97204904 126.14453125 163.95703125 C91.8452717 137.05549473 52.51083347 118.45750913 10.0625 108.5 C9.02762451 108.25668945 7.99274902 108.01337891 6.92651367 107.76269531 C-0.16624663 106.18971569 -6.63704348 105.61357971 -14 105 Z M-226 157 C-226.56090332 157.40927734 -227.12180664 157.81855469 -227.69970703 158.24023438 C-248.05113925 173.21888849 -267.75146382 190.80264884 -283 211 C-283.79019531 211.99644531 -284.58039063 212.99289063 -285.39453125 214.01953125 C-322.28455591 260.6456123 -346.9092753 321.47862049 -347.203125 381.37890625 C-347.21018463 382.34047638 -347.21724426 383.30204651 -347.22451782 384.29275513 C-347.46215741 413.77706676 -347.46215741 413.77706676 -344 443 C-343.72591309 444.58095459 -343.72591309 444.58095459 -343.44628906 446.19384766 C-334.00271894 499.49807146 -309.74993402 549.8830363 -273.04296875 589.7734375 C-271.17040692 591.81427926 -269.36170466 593.89463697 -267.5625 596 C-260.95010913 603.57669787 -253.70992423 610.55215413 -246 617 C-245.4829248 617.44150391 -244.96584961 617.88300781 -244.43310547 618.33789062 C-198.86105576 657.1561702 -141.58134132 681.35683331 -82 687 C-80.30617188 687.16628906 -80.30617188 687.16628906 -78.578125 687.3359375 C-25.53000626 691.69767171 27.19677452 681.08041748 75 658 C75.78439453 657.62149902 76.56878906 657.24299805 77.37695312 656.85302734 C124.5283677 633.77539838 162.45185318 596.80290062 192 554 C189.19924452 552.13282968 186.75324183 551.01044766 183.63793945 549.77954102 C182.52992981 549.33976425 181.42192017 548.89998749 180.28033447 548.44688416 C179.07020691 547.97070145 177.86007935 547.49451874 176.61328125 547.00390625 C175.33685401 546.49876472 174.06055048 545.9933105 172.78436279 545.48756409 C169.34481562 544.12547664 165.90359277 542.76767072 162.46205521 541.41062164 C158.85903075 539.98902381 155.25758945 538.56342693 151.65600586 537.13818359 C145.83721629 534.83604926 140.01758688 532.53605197 134.19726562 530.23779297 C127.07257474 527.42439429 119.9497541 524.6062975 112.828125 521.78515625 C110.83423076 520.99535566 108.84033432 520.20556062 106.84643555 519.41577148 C105.88861176 519.03637421 104.93078796 518.65697693 103.94393921 518.26608276 C99.12060838 516.35598879 94.29664089 514.44750451 89.47265625 512.5390625 C78.65294613 508.25855291 67.83394075 503.9762645 57.0151062 499.69354248 C52.01009938 497.71228946 47.00504748 495.7311503 42 493.75 C39.99999978 492.95833388 37.99999978 492.16666722 36 491.375 C35.01 490.983125 34.02 490.59125 33 490.1875 C14 482.66666667 -5 475.14583333 -24 467.625 C-25.48467522 467.03732346 -25.48467522 467.03732346 -26.99934387 466.43777466 C-29.0015446 465.6452269 -31.00373167 464.85264465 -33.00590515 464.06002808 C-37.97212328 462.09406053 -42.9385688 460.12867171 -47.90551758 458.16455078 C-57.30886968 454.44538218 -66.70962 450.71995123 -76.10299683 446.97564697 C-80.55699117 445.20062075 -85.01220955 443.42867881 -89.4675293 441.65698242 C-91.59802839 440.80875657 -93.72792176 439.9590076 -95.85717773 439.10766602 C-98.80301988 437.92993659 -101.75087804 436.7573951 -104.69921875 435.5859375 C-105.57084152 435.23586639 -106.44246429 434.88579529 -107.34049988 434.52511597 C-108.14812271 434.20535797 -108.95574554 433.88559998 -109.7878418 433.55615234 C-110.83309273 433.13914566 -110.83309273 433.13914566 -111.89945984 432.7137146 C-114.44209028 431.79910967 -114.44209028 431.79910967 -119 431 C-119 324.74 -119 218.48 -119 109 C-154.29302505 109 -198.63386218 136.99099597 -226 157 Z " fill="#C63C37" transform="translate(2322,1858)"/>
<path d="M0 0 C0.84385254 0.18191895 1.68770508 0.36383789 2.55712891 0.55126953 C21.56780982 4.76958243 39.90055582 11.72699208 57 21 C57.96897217 21.51167725 57.96897217 21.51167725 58.95751953 22.03369141 C87.20966463 36.96289533 112.03724681 58.28199346 131 84 C131.63929443 84.84812256 131.63929443 84.84812256 132.29150391 85.71337891 C139.05725613 94.69086398 144.81829832 104.02680472 150 114 C150.40750488 114.7822998 150.81500977 115.56459961 151.23486328 116.37060547 C167.04040177 147.12420613 175.48864778 180.90724722 175.3125 215.5 C175.31100952 216.23268097 175.30951904 216.96536194 175.3079834 217.72024536 C175.25986052 230.98617985 174.24269993 243.91101172 172 257 C171.87141602 257.8029248 171.74283203 258.60584961 171.61035156 259.43310547 C165.53313619 296.55360292 147.91290921 333.86641052 123 362 C122.32195312 362.78632812 121.64390625 363.57265625 120.9453125 364.3828125 C110.31982458 376.48730607 99.00194522 387.48528171 86 397 C84.95328125 397.76828125 83.9065625 398.5365625 82.828125 399.328125 C34.53034751 433.68923038 -25.96817324 447.77510036 -84.5546875 437.9609375 C-118.74617115 431.72163463 -150.98699331 418.7206384 -179 398 C-179.59087402 397.56606934 -180.18174805 397.13213867 -180.79052734 396.68505859 C-198.95045935 383.23082087 -214.66730723 367.22360627 -228 349 C-228.77988281 347.93910156 -229.55976562 346.87820313 -230.36328125 345.78515625 C-264.2706516 298.07892399 -276.39385698 237.42053076 -267.0703125 180.07421875 C-259.60179362 137.61430584 -240.40173824 98.49419771 -211 67 C-209.52026559 65.31299782 -208.04110712 63.6254903 -206.5625 61.9375 C-176.61559794 28.85721711 -133.12863234 7.94166531 -90 -1 C-89.17048828 -1.17789063 -88.34097656 -1.35578125 -87.48632812 -1.5390625 C-59.6969833 -7.21863662 -27.58988752 -6.12158489 0 0 Z M-124.88671875 129.9921875 C-127 132 -127 132 -129.49609375 133.9375 C-134.02323333 137.66656349 -137.41479284 142.38690962 -141 147 C-141.61230469 147.78503906 -142.22460938 148.57007813 -142.85546875 149.37890625 C-153.74010769 164.09932184 -161.52034161 182.83730735 -164 201 C-164.16435547 202.15242188 -164.16435547 202.15242188 -164.33203125 203.328125 C-167.93018077 233.07282767 -160.07684756 263.60742058 -142.0625 287.578125 C-140.08718504 290.09356515 -138.05723417 292.55129214 -136 295 C-135.40832031 295.73863281 -134.81664062 296.47726562 -134.20703125 297.23828125 C-115.26903914 319.97194768 -85.4989301 332.88036518 -56.54638672 335.55029297 C-26.14549881 337.87013237 4.17685876 328.46250539 27.65234375 308.91015625 C50.66307648 289.14205637 67.27070136 261.72162917 70 231 C72.1591244 196.14974274 63.09901045 165.4000249 40 139 C26.11007329 123.47355762 8.9538055 112.78416776 -10.6875 106.125 C-11.52998291 105.83858643 -12.37246582 105.55217285 -13.24047852 105.25708008 C-50.86294381 93.14371733 -96.24531129 102.41910963 -124.88671875 129.9921875 Z " fill="#DBA843" transform="translate(1362,687)"/>
<path d="M0 0 C11.61789053 8.85432346 19.25612936 21.24033342 21.27752221 35.78177321 C21.70805633 39.95879448 21.6816589 44.14852466 21.71055603 48.34416199 C21.72128838 49.38298202 21.73202072 50.42180206 21.74307829 51.49210149 C21.7774532 54.96630587 21.80476112 58.44052613 21.83178711 61.91479492 C21.85442917 64.40864256 21.87729759 66.90248815 21.90037537 69.39633179 C22.10219916 92.1301097 22.21464838 114.86466155 22.30359554 137.59913158 C22.31570204 140.6390867 22.32803592 143.67904079 22.34057617 146.71899414 C22.34368302 147.47449467 22.34678986 148.2299952 22.34999085 149.00838969 C22.40181565 161.24471955 22.50602308 173.48005364 22.6303684 185.7158378 C22.75714035 198.29538067 22.8305398 210.87440591 22.85400301 223.45457059 C22.86862345 230.5114128 22.90712645 237.56638128 23.00687981 244.62257957 C23.10074526 251.2625129 23.12317111 257.90000469 23.09789467 264.54073715 C23.10014343 266.97242383 23.1262454 269.40422803 23.17842865 271.83535576 C23.57120275 291.11984943 23.57120275 291.11984943 18.51101875 296.8976078 C15.68230174 299.56127743 12.64783023 301.71529754 9.33735383 303.73701537 C6.26406753 305.68208972 3.50989098 307.99187998 0.68359375 310.27734375 C-0.473205 311.17805169 -1.63056776 312.07803699 -2.7890625 312.9765625 C-7.0051743 316.27350035 -11.1298416 319.67893257 -15.25390625 323.08984375 C-20.42560213 327.36705316 -25.61248798 331.61775759 -30.8671875 335.79296875 C-34.34797648 338.57759993 -37.79914671 341.39803002 -41.25390625 344.21484375 C-46.35765628 348.37489733 -51.49628481 352.48207001 -56.69140625 356.52734375 C-61.77753854 360.49094515 -66.72024741 364.5922466 -71.61889648 368.78442383 C-75.98065278 372.5004324 -80.46070421 376.04265995 -84.98339844 379.55981445 C-89.80687599 383.32374984 -94.53851256 387.19163287 -99.25390625 391.08984375 C-99.98013184 391.68909668 -100.70635742 392.28834961 -101.45458984 392.90576172 C-104.44586737 395.37443782 -107.43520979 397.84525018 -110.41796875 400.32421875 C-123.55278528 411.08225896 -137.88284834 419.43956043 -155.50390625 417.90234375 C-171.12973055 415.65100399 -183.37104915 409.68987044 -193.5390625 397.453125 C-202.0718322 385.91305218 -206.12629599 372.01366846 -204.0390625 357.71875 C-199.95608515 335.66100846 -186.22016766 324.21689256 -169.50390625 310.90234375 C-168.59382813 310.17144531 -167.68375 309.44054688 -166.74609375 308.6875 C-165.21360173 307.45890894 -163.678452 306.23362543 -162.140625 305.01171875 C-158.65983602 302.22708757 -155.20866579 299.40665748 -151.75390625 296.58984375 C-146.65015622 292.42979017 -141.51152769 288.32261749 -136.31640625 284.27734375 C-131.23027396 280.31374235 -126.28756509 276.2124409 -121.38891602 272.02026367 C-117.03351555 268.30966997 -112.56319234 264.7681222 -108.04199219 261.26245117 C-104.61697699 258.59564182 -101.24613399 255.87532875 -97.91015625 253.09765625 C-97.13639648 252.45352783 -96.36263672 251.80939941 -95.56542969 251.14575195 C-94.04429895 249.87509046 -92.52661444 248.6002901 -91.01269531 247.32104492 C-90.32401367 246.74588135 -89.63533203 246.17071777 -88.92578125 245.578125 C-88.3131543 245.06161377 -87.70052734 244.54510254 -87.06933594 244.01293945 C-85.50390625 242.90234375 -85.50390625 242.90234375 -83.50390625 242.90234375 C-83.50759342 241.83719701 -83.51128059 240.77205027 -83.5150795 239.67462635 C-83.60398453 213.72486888 -83.66965993 187.77513123 -83.71115494 161.82525349 C-83.73175637 149.27594391 -83.75983078 136.72673512 -83.80566406 124.17749023 C-83.8456058 113.23612005 -83.87135664 102.29482288 -83.88026023 91.35338181 C-83.88546252 85.56309002 -83.89763949 79.77300705 -83.92682648 73.98278236 C-83.95411144 68.52532608 -83.96232486 63.06816331 -83.95633698 57.61064529 C-83.95743138 55.61490594 -83.96530681 53.6191561 -83.98072815 51.62347603 C-84.11004805 34.01448384 -81.56592857 19.11927247 -69.24609375 5.5546875 C-50.39043585 -12.32859343 -21.36111233 -14.66445012 0 0 Z " fill="#448F52" transform="translate(1214.50390625,1582.09765625)"/>
</svg>
